<svg width="120" height="120" viewBox="0 0 120 120" fill="none" xmlns="http://www.w3.org/2000/svg">
<g id="mainCircle" filter="url(#filter0_d)">
<g id="circle">
<path id="Vector" d="M60 106C87.6142 106 110 83.6142 110 56C110 28.3858 87.6142 6 60 6C32.3858 6 10 28.3858 10 56C10 83.6142 32.3858 106 60 106Z" fill="#F28482"/>
<g id="calendar">
<g id="Group">
<g id="Group_2">
<path id="Vector_2" d="M50 36C49.211 36 48.5714 36.6396 48.5714 37.4286V40.2857H51.4286V37.4286C51.4286 36.6396 50.789 36 50 36Z" fill="black"/>
</g>
</g>
<g id="Group_3">
<g id="Group_4">
<path id="Vector_3" d="M70 36C69.211 36 68.5714 36.6396 68.5714 37.4286V40.2857H71.4285V37.4286C71.4286 36.6396 70.789 36 70 36Z" fill="black"/>
</g>
</g>
<g id="Group_5">
<g id="Group_6">
<path id="Vector_4" d="M75.7143 40.2857H71.4286V46C71.4286 46.789 70.789 47.4286 70 47.4286C69.211 47.4286 68.5714 46.789 68.5714 46V40.2857H51.4285V46C51.4285 46.789 50.7889 47.4286 49.9999 47.4286C49.2109 47.4286 48.5713 46.789 48.5713 46V40.2857H44.2857C41.9188 40.2857 40 42.2045 40 44.5714V71.7143C40 74.0812 41.9188 76 44.2857 76H75.7143C78.0812 76 80 74.0812 80 71.7143V44.5714C80 42.2045 78.0812 40.2857 75.7143 40.2857ZM77.1428 71.7143C77.1428 72.5033 76.5032 73.1429 75.7142 73.1429H44.2857C43.4967 73.1429 42.8571 72.5033 42.8571 71.7143V53.1428H77.1428V71.7143Z" fill="black"/>
</g>
</g>
<g id="Group_7">
<g id="Group_8">
<path id="Vector_5" d="M51.4285 56H48.5714C47.7824 56 47.1428 56.6396 47.1428 57.4286C47.1428 58.2176 47.7824 58.8572 48.5714 58.8572H51.4285C52.2175 58.8572 52.8571 58.2176 52.8571 57.4286C52.8571 56.6396 52.2175 56 51.4285 56Z" fill="black"/>
</g>
</g>
<g id="Group_9">
<g id="Group_10">
<path id="Vector_6" d="M61.4286 56H58.5715C57.7824 56 57.1429 56.6396 57.1429 57.4286C57.1429 58.2176 57.7824 58.8572 58.5715 58.8572H61.4286C62.2176 58.8572 62.8572 58.2176 62.8572 57.4286C62.8572 56.6396 62.2176 56 61.4286 56Z" fill="black"/>
</g>
</g>
<g id="Group_11">
<g id="Group_12">
<path id="Vector_7" d="M71.4286 56H68.5715C67.7824 56 67.1429 56.6396 67.1429 57.4286C67.1429 58.2176 67.7824 58.8572 68.5715 58.8572H71.4286C72.2176 58.8572 72.8572 58.2176 72.8572 57.4286C72.8572 56.6396 72.2175 56 71.4286 56Z" fill="black"/>
</g>
</g>
<g id="Group_13">
<g id="Group_14">
<path id="Vector_8" d="M51.4285 61.7143H48.5714C47.7824 61.7143 47.1428 62.3539 47.1428 63.1429C47.1428 63.9319 47.7824 64.5715 48.5714 64.5715H51.4285C52.2175 64.5715 52.8571 63.9319 52.8571 63.1429C52.8571 62.3539 52.2175 61.7143 51.4285 61.7143Z" fill="black"/>
</g>
</g>
<g id="Group_15">
<g id="Group_16">
<path id="Vector_9" d="M61.4286 61.7143H58.5715C57.7824 61.7143 57.1429 62.3539 57.1429 63.1429C57.1429 63.9319 57.7824 64.5715 58.5715 64.5715H61.4286C62.2176 64.5715 62.8572 63.9319 62.8572 63.1429C62.8572 62.3539 62.2176 61.7143 61.4286 61.7143Z" fill="black"/>
</g>
</g>
<g id="Group_17">
<g id="Group_18">
<path id="Vector_10" d="M71.4286 61.7143H68.5715C67.7824 61.7143 67.1429 62.3539 67.1429 63.1429C67.1429 63.9319 67.7824 64.5715 68.5715 64.5715H71.4286C72.2176 64.5715 72.8572 63.9319 72.8572 63.1429C72.8571 62.3539 72.2175 61.7143 71.4286 61.7143Z" fill="black"/>
</g>
</g>
<g id="Group_19">
<g id="Group_20">
<path id="Vector_11" d="M51.4285 67.4285H48.5714C47.7824 67.4285 47.1428 68.0681 47.1428 68.8571C47.1428 69.6461 47.7824 70.2856 48.5714 70.2856H51.4285C52.2175 70.2856 52.8571 69.646 52.8571 68.857C52.8571 68.068 52.2175 67.4285 51.4285 67.4285Z" fill="black"/>
</g>
</g>
<g id="Group_21">
<g id="Group_22">
<path id="Vector_12" d="M61.4286 67.4285H58.5715C57.7824 67.4285 57.1429 68.0681 57.1429 68.8571C57.1429 69.6461 57.7824 70.2857 58.5715 70.2857H61.4286C62.2176 70.2857 62.8572 69.6461 62.8572 68.8571C62.8572 68.0681 62.2176 67.4285 61.4286 67.4285Z" fill="black"/>
</g>
</g>
<g id="Group_23">
<g id="Group_24">
<path id="Vector_13" d="M71.4286 67.4285H68.5715C67.7824 67.4285 67.1429 68.0681 67.1429 68.8571C67.1429 69.6461 67.7824 70.2857 68.5715 70.2857H71.4286C72.2176 70.2857 72.8572 69.6461 72.8572 68.8571C72.8572 68.0681 72.2175 67.4285 71.4286 67.4285Z" fill="black"/>
</g>
</g>
</g>
</g>
<path id="shadow" d="M60 106C87.6142 106 110 83.6142 110 56C110 28.3858 87.6142 6 60 6C32.3858 6 10 28.3858 10 56C10 83.6142 32.3858 106 60 106Z" fill="url(#paint0_linear)"/>
</g>
<defs>
<filter id="filter0_d" x="0" y="0" width="120" height="120" filterUnits="userSpaceOnUse" color-interpolation-filters="sRGB">
<feFlood flood-opacity="0" result="BackgroundImageFix"/>
<feColorMatrix in="SourceAlpha" type="matrix" values="0 0 0 0 0 0 0 0 0 0 0 0 0 0 0 0 0 0 127 0"/>
<feOffset dy="4"/>
<feGaussianBlur stdDeviation="5"/>
<feColorMatrix type="matrix" values="0 0 0 0 0 0 0 0 0 0 0 0 0 0 0 0 0 0 0.25 0"/>
<feBlend mode="normal" in2="BackgroundImageFix" result="effect1_dropShadow"/>
<feBlend mode="normal" in="SourceGraphic" in2="effect1_dropShadow" result="shape"/>
</filter>
<linearGradient id="paint0_linear" x1="125" y1="140.5" x2="66.5" y2="85" gradientUnits="userSpaceOnUse">
<stop stop-color="#9FFFC6"/>
<stop offset="0.421875" stop-color="#C4FFDB" stop-opacity="0.619792"/>
<stop offset="1" stop-color="white" stop-opacity="0"/>
</linearGradient>
</defs>
</svg>
