<svg width="40" height="40" viewBox="0 0 40 40" fill="none" xmlns="http://www.w3.org/2000/svg">
<g clip-path="url(#clip0)">
<path d="M10 0C9.21099 0 8.5714 0.639592 8.5714 1.4286V4.28571H11.4285V1.4286C11.4285 0.639592 10.7889 0 10 0Z" fill="black"/>
<path d="M30 0C29.211 0 28.5714 0.639592 28.5714 1.4286V4.28571H31.4285V1.4286C31.4286 0.639592 30.789 0 30 0Z" fill="black"/>
<path d="M35.7143 4.28564H31.4286V9.99995C31.4286 10.789 30.789 11.4286 30 11.4286C29.211 11.4286 28.5714 10.789 28.5714 9.99995V4.28564H11.4285V9.99995C11.4285 10.789 10.7889 11.4286 9.99994 11.4286C9.21093 11.4286 8.57134 10.789 8.57134 9.99995V4.28564H4.28571C1.91878 4.28564 0 6.20442 0 8.57136V35.7142C0 38.0812 1.91878 39.9999 4.28571 39.9999H35.7143C38.0812 39.9999 40 38.0812 40 35.7142V8.57136C40 6.20442 38.0812 4.28564 35.7143 4.28564ZM37.1428 35.7142C37.1428 36.5032 36.5032 37.1428 35.7142 37.1428H4.28571C3.49671 37.1428 2.85711 36.5032 2.85711 35.7142V17.1428H37.1428V35.7142Z" fill="black"/>
<path d="M29.5821 20.4193C29.0243 19.8611 28.1196 19.8609 27.5614 20.4186L17.1428 30.8372L12.4385 26.1329C11.8803 25.5751 10.9756 25.5754 10.4178 26.1336C9.85996 26.6919 9.8603 27.5966 10.4185 28.1544L16.1328 33.8687C16.6907 34.4264 17.595 34.4264 18.1528 33.8687L29.5814 22.4401C30.1396 21.8823 30.1399 20.9776 29.5821 20.4193Z" fill="black"/>
</g>
<defs>
<clipPath id="clip0">
<rect width="40" height="40" fill="white"/>
</clipPath>
</defs>
</svg>
