<svg width="50" height="51" viewBox="0 0 50 51" fill="none" xmlns="http://www.w3.org/2000/svg">
<circle cx="25" cy="25.9688" r="25" fill="#BFE5DC"/>
<g clip-path="url(#clip0)">
<path d="M16 24.2262H19.983V19.9791H16V24.2262ZM17.0548 21.1039H18.9283V23.1016H17.0548V21.1039Z" fill="#12A874"/>
<path d="M21.2487 19.9791V24.2262H34V19.9791H21.2487ZM32.9452 23.1016H22.3035V21.1039H32.9452V23.1016Z" fill="#12A874"/>
<path d="M16 29.7372H19.983V25.4901H16V29.7372ZM17.0548 26.6148H18.9283V28.6124H17.0548V26.6148Z" fill="#12A874"/>
<path d="M21.2487 29.7372H34V25.4901H21.2487V29.7372ZM22.3035 26.6148H32.9452V28.6124H22.3035V26.6148Z" fill="#12A874"/>
<path d="M16 35.2484H19.983V31.0011H16V35.2484ZM17.0548 32.1259H18.9283V34.1236H17.0548V32.1259Z" fill="#12A874"/>
<path d="M21.2487 35.2484H34V31.0011H21.2487V35.2484ZM22.3035 32.1259H32.9452V34.1236H22.3035V32.1259Z" fill="#12A874"/>
</g>
<defs>
<clipPath id="clip0">
<rect width="18" height="19.1938" fill="white" transform="translate(16 18.0298)"/>
</clipPath>
</defs>
</svg>
