<svg width="120" height="120" viewBox="0 0 120 120" fill="none" xmlns="http://www.w3.org/2000/svg">
<g id="pinkCircle" filter="url(#filter0_d)">
<g id="circle">
<path id="Vector" d="M60 106C87.6142 106 110 83.6142 110 56C110 28.3858 87.6142 6 60 6C32.3858 6 10 28.3858 10 56C10 83.6142 32.3858 106 60 106Z" fill="#F28482"/>
<g id="gift">
<path id="Vector_2" d="M42.5 57.2261V72.2261C42.5 73.6061 43.6225 74.7261 45 74.7261H57.5V57.2261H42.5Z" fill="black"/>
<path id="Vector_3" d="M77.5 47.226H69.59C70.1575 46.8385 70.645 46.4535 70.985 46.1085C73.0025 44.081 73.0025 40.781 70.985 38.7535C69.025 36.7785 65.61 36.7835 63.6525 38.7535C62.5675 39.841 59.6925 44.2685 60.09 47.226H59.91C60.305 44.2685 57.43 39.841 56.3475 38.7535C54.3875 36.7835 50.9725 36.7835 49.015 38.7535C47 40.781 47 44.081 49.0125 46.1085C49.355 46.4535 49.8425 46.8385 50.41 47.226H42.5C41.1225 47.226 40 48.3485 40 49.726V53.476C40 54.166 40.56 54.726 41.25 54.726H57.5V49.726H62.5V54.726H78.75C79.44 54.726 80 54.166 80 53.476V49.726C80 48.3485 78.88 47.226 77.5 47.226ZM57.3525 47.1435C57.3525 47.1435 57.2475 47.226 56.89 47.226C55.1625 47.226 51.865 45.431 50.7875 44.346C49.74 43.291 49.74 41.571 50.7875 40.516C51.295 40.006 51.9675 39.726 52.6825 39.726C53.395 39.726 54.0675 40.006 54.575 40.516C56.26 42.211 57.935 46.541 57.3525 47.1435ZM63.1075 47.226C62.7525 47.226 62.6475 47.146 62.6475 47.1435C62.065 46.541 63.74 42.211 65.425 40.516C66.4325 39.4985 68.195 39.4935 69.2125 40.516C70.2625 41.571 70.2625 43.291 69.2125 44.346C68.135 45.431 64.8375 47.226 63.1075 47.226Z" fill="black"/>
<path id="Vector_4" d="M62.5 57.2261V74.7261H75C76.38 74.7261 77.5 73.6061 77.5 72.2261V57.2261H62.5Z" fill="black"/>
</g>
</g>
<path id="shadow" d="M60 106C87.6142 106 110 83.6142 110 56C110 28.3858 87.6142 6 60 6C32.3858 6 10 28.3858 10 56C10 83.6142 32.3858 106 60 106Z" fill="url(#paint0_linear)"/>
</g>
<defs>
<filter id="filter0_d" x="0" y="0" width="120" height="120" filterUnits="userSpaceOnUse" color-interpolation-filters="sRGB">
<feFlood flood-opacity="0" result="BackgroundImageFix"/>
<feColorMatrix in="SourceAlpha" type="matrix" values="0 0 0 0 0 0 0 0 0 0 0 0 0 0 0 0 0 0 127 0"/>
<feOffset dy="4"/>
<feGaussianBlur stdDeviation="5"/>
<feColorMatrix type="matrix" values="0 0 0 0 0 0 0 0 0 0 0 0 0 0 0 0 0 0 0.25 0"/>
<feBlend mode="normal" in2="BackgroundImageFix" result="effect1_dropShadow"/>
<feBlend mode="normal" in="SourceGraphic" in2="effect1_dropShadow" result="shape"/>
</filter>
<linearGradient id="paint0_linear" x1="125" y1="140.5" x2="66.5" y2="85" gradientUnits="userSpaceOnUse">
<stop stop-color="#9FFFC6"/>
<stop offset="0.421875" stop-color="#C4FFDB" stop-opacity="0.619792"/>
<stop offset="1" stop-color="white" stop-opacity="0"/>
</linearGradient>
</defs>
</svg>
