<svg width="50" height="51" viewBox="0 0 50 51" fill="none" xmlns="http://www.w3.org/2000/svg">
<circle cx="25" cy="25.891" r="25" fill="#D4C2EF"/>
<path opacity="0.9" d="M25.975 17.3923C22.65 17.3923 19.705 19.317 18.185 22.2548L16 19.9248V26.5094H22.175L19.515 23.673C20.75 21.1404 23.125 19.4183 25.975 19.4183C29.87 19.4183 33.1 22.8626 33.1 27.0159C33.1 31.1692 29.87 34.6134 25.975 34.6134C22.84 34.6134 20.275 32.4861 19.23 29.5484H17.235C18.28 33.6004 21.795 36.6394 25.975 36.6394C31.01 36.6394 35 32.2835 35 27.0159C35 21.7482 30.915 17.3923 25.975 17.3923ZM24.55 22.4574V27.6237L29.015 30.4601L29.775 29.1432L25.975 26.712V22.4574H24.55Z" fill="#8B3FD4"/>
</svg>
