<svg width="50" height="51" viewBox="0 0 50 51" fill="none" xmlns="http://www.w3.org/2000/svg">
<circle cx="25" cy="25.9688" r="25" fill="#F0E3C7"/>
<path d="M32.9167 20.5178H17.0833C15.935 20.5178 15 21.5148 15 22.7394V32.514C15 33.7385 15.935 34.7355 17.0833 34.7355H32.9167C34.065 34.7355 35 33.7385 35 32.514V22.7394C35 21.5148 34.065 20.5178 32.9167 20.5178ZM34.1667 32.5139C34.1667 33.2488 33.6059 33.8468 32.9167 33.8468H17.0833C16.3941 33.8468 15.8333 33.2488 15.8333 32.5139V22.7394C15.8333 22.0045 16.3941 21.4065 17.0833 21.4065H32.9167C33.6059 21.4065 34.1667 22.0045 34.1667 22.7394V32.5139H34.1667Z" fill="#F78500"/>
<path d="M34.5833 23.1836H15.4167C15.1867 23.1836 15 23.3827 15 23.6279V26.2937C15 26.539 15.1867 26.738 15.4167 26.738H34.5833C34.8133 26.738 35 26.539 35 26.2937V23.6279C35 23.3827 34.8133 23.1836 34.5833 23.1836ZM34.1666 25.8494H15.8333V24.0722H34.1666V25.8494H34.1666Z" fill="#F78500"/>
<path d="M22.9167 29.4039H17.9167C17.6867 29.4039 17.5 29.603 17.5 29.8482C17.5 30.0935 17.6867 30.2925 17.9167 30.2925H22.9167C23.1467 30.2925 23.3334 30.0935 23.3334 29.8482C23.3334 29.6029 23.1467 29.4039 22.9167 29.4039Z" fill="#F78500"/>
<path d="M22.9167 31.1812H17.9167C17.6867 31.1812 17.5 31.3802 17.5 31.6255C17.5 31.8707 17.6867 32.0698 17.9167 32.0698H22.9167C23.1467 32.0698 23.3334 31.8707 23.3334 31.6255C23.3333 31.3802 23.1467 31.1812 22.9167 31.1812Z" fill="#F78500"/>
<path d="M31.25 28.5154H30.4167C29.7275 28.5154 29.1667 29.1134 29.1667 29.8483V30.7369C29.1667 31.4717 29.7275 32.0698 30.4167 32.0698H31.25C31.9392 32.0698 32.5 31.4717 32.5 30.7369V29.8483C32.5 29.1134 31.9392 28.5154 31.25 28.5154ZM31.6667 30.7369C31.6667 30.9822 31.48 31.1812 31.25 31.1812H30.4167C30.1867 31.1812 30 30.9822 30 30.7369V29.8483C30 29.6031 30.1867 29.404 30.4167 29.404H31.25C31.48 29.404 31.6667 29.6031 31.6667 29.8483V30.7369Z" fill="#F78500"/>
</svg>
