<svg width="460" height="567" viewBox="0 0 460 567" fill="none" xmlns="http://www.w3.org/2000/svg">
<g id="Group">
<g id="Vector">
<path d="M230 268.174C357.025 268.174 460 244.221 460 214.674C460 185.126 357.025 161.174 230 161.174C102.975 161.174 0 185.126 0 214.674C0 244.221 102.975 268.174 230 268.174Z" fill="url(#paint0_linear)"/>
<path d="M460 214.674C460 244.221 357.025 268.174 230 268.174C102.975 268.174 0 244.221 0 214.674V566.174H460V214.674Z" fill="url(#paint1_linear)"/>
</g>
<path id="Vector_2" d="M392.545 213.935C392.545 213.935 404.541 198.685 403.571 183.555C403.123 177.212 404.748 170.895 408.2 165.552C409.859 163.028 411.745 160.662 413.836 158.482" stroke="#535461" stroke-width="2" stroke-miterlimit="10"/>
<path id="Vector_3" d="M413.282 148.944C412.436 151.062 413.822 158.733 413.822 158.733C413.822 158.733 420.113 154.122 420.958 152.004C421.364 150.987 421.348 149.851 420.916 148.846C420.483 147.84 419.668 147.048 418.651 146.642C417.633 146.237 416.496 146.251 415.489 146.683C414.483 147.114 413.689 147.928 413.282 148.944Z" fill="#F19798"/>
<path id="Vector_4" d="M402.252 158.146C402.695 160.383 408.031 166.07 408.031 166.07C408.031 166.07 410.803 158.783 410.361 156.546C410.256 156.014 410.047 155.508 409.746 155.057C409.445 154.606 409.058 154.218 408.607 153.916C408.156 153.615 407.651 153.404 407.118 153.298C406.586 153.191 406.039 153.191 405.506 153.296C404.974 153.401 404.467 153.609 404.016 153.91C403.564 154.211 403.176 154.597 402.874 155.047C402.572 155.498 402.361 156.003 402.255 156.535C402.148 157.066 402.147 157.614 402.252 158.146Z" fill="#F19798"/>
<path id="Vector_5" d="M394.524 178.302C396.036 180.01 403.516 182.228 403.516 182.228C403.516 182.228 402.227 174.54 400.715 172.832C400.355 172.426 399.919 172.094 399.432 171.856C398.944 171.619 398.414 171.479 397.872 171.446C397.33 171.412 396.787 171.486 396.274 171.662C395.761 171.839 395.287 172.115 394.881 172.474C394.474 172.833 394.143 173.269 393.905 173.756C393.667 174.243 393.527 174.773 393.494 175.314C393.461 175.855 393.535 176.398 393.711 176.911C393.888 177.423 394.164 177.896 394.524 178.302Z" fill="#F19798"/>
<path id="Vector_6" d="M392.113 194.869C393.315 196.807 400.312 200.256 400.312 200.256C400.312 200.256 400.342 192.461 399.141 190.522C398.855 190.061 398.482 189.661 398.041 189.344C397.601 189.027 397.102 188.799 396.573 188.675C396.045 188.551 395.497 188.532 394.961 188.619C394.426 188.706 393.912 188.898 393.451 189.183C392.989 189.469 392.588 189.842 392.271 190.283C391.954 190.723 391.727 191.221 391.603 191.749C391.479 192.277 391.46 192.824 391.548 193.36C391.635 193.895 391.827 194.408 392.113 194.869Z" fill="#F19798"/>
<path id="Vector_7" d="M415.926 169.692C413.816 170.562 406.122 169.267 406.122 169.267C406.122 169.267 410.665 162.929 412.774 162.059C413.788 161.642 414.925 161.643 415.937 162.064C416.949 162.484 417.753 163.289 418.171 164.301C418.589 165.314 418.587 166.45 418.166 167.461C417.745 168.472 416.939 169.275 415.926 169.692Z" fill="#F19798"/>
<path id="Vector_8" d="M412.862 189.031C410.588 189.23 403.634 185.695 403.634 185.695C403.634 185.695 409.867 181.005 412.14 180.806C412.681 180.758 413.226 180.817 413.744 180.98C414.262 181.142 414.743 181.405 415.159 181.754C415.575 182.102 415.919 182.529 416.17 183.01C416.421 183.491 416.574 184.017 416.622 184.558C416.669 185.098 416.609 185.643 416.446 186.16C416.283 186.677 416.019 187.157 415.67 187.573C415.32 187.988 414.893 188.331 414.411 188.581C413.929 188.831 413.403 188.984 412.862 189.031Z" fill="#F19798"/>
<path id="Vector_9" d="M407.301 207.419C405.094 207.999 397.642 205.688 397.642 205.688C397.642 205.688 402.991 200.014 405.199 199.434C406.258 199.155 407.386 199.309 408.332 199.86C409.279 200.412 409.968 201.317 410.246 202.376C410.525 203.435 410.371 204.561 409.819 205.507C409.267 206.453 408.361 207.14 407.301 207.419Z" fill="#F19798"/>
<path id="Vector_10" opacity="0.25" d="M413.282 148.944C412.436 151.062 413.822 158.733 413.822 158.733C413.822 158.733 420.113 154.122 420.958 152.004C421.364 150.987 421.348 149.851 420.916 148.846C420.483 147.84 419.668 147.048 418.651 146.642C417.633 146.237 416.496 146.251 415.489 146.683C414.483 147.114 413.689 147.928 413.282 148.944Z" fill="black"/>
<path id="Vector_11" opacity="0.25" d="M402.252 158.146C402.695 160.383 408.031 166.07 408.031 166.07C408.031 166.07 410.803 158.783 410.361 156.546C410.256 156.014 410.047 155.508 409.746 155.057C409.445 154.606 409.058 154.218 408.607 153.916C408.156 153.615 407.651 153.404 407.118 153.298C406.586 153.191 406.039 153.191 405.506 153.296C404.974 153.401 404.467 153.609 404.016 153.91C403.564 154.211 403.176 154.597 402.874 155.047C402.572 155.498 402.361 156.003 402.255 156.535C402.148 157.066 402.147 157.614 402.252 158.146Z" fill="black"/>
<path id="Vector_12" opacity="0.25" d="M394.524 178.302C396.036 180.01 403.516 182.228 403.516 182.228C403.516 182.228 402.227 174.54 400.715 172.832C400.355 172.426 399.919 172.094 399.432 171.856C398.944 171.619 398.414 171.479 397.872 171.446C397.33 171.412 396.787 171.486 396.274 171.662C395.761 171.839 395.287 172.115 394.881 172.474C394.474 172.833 394.143 173.269 393.905 173.756C393.667 174.243 393.527 174.773 393.494 175.314C393.461 175.855 393.535 176.398 393.711 176.911C393.888 177.423 394.164 177.896 394.524 178.302Z" fill="black"/>
<path id="Vector_13" opacity="0.25" d="M392.113 194.869C393.315 196.807 400.312 200.256 400.312 200.256C400.312 200.256 400.342 192.461 399.141 190.522C398.855 190.061 398.482 189.661 398.041 189.344C397.601 189.027 397.102 188.799 396.573 188.675C396.045 188.551 395.497 188.532 394.961 188.619C394.426 188.706 393.912 188.898 393.451 189.183C392.989 189.469 392.588 189.842 392.271 190.283C391.954 190.723 391.727 191.221 391.603 191.749C391.479 192.277 391.46 192.824 391.548 193.36C391.635 193.895 391.827 194.408 392.113 194.869Z" fill="black"/>
<path id="Vector_14" opacity="0.25" d="M415.926 169.692C413.816 170.562 406.122 169.267 406.122 169.267C406.122 169.267 410.665 162.929 412.774 162.059C413.788 161.642 414.925 161.643 415.937 162.064C416.949 162.484 417.753 163.289 418.171 164.301C418.589 165.314 418.587 166.45 418.166 167.461C417.745 168.472 416.939 169.275 415.926 169.692Z" fill="black"/>
<path id="Vector_15" opacity="0.25" d="M412.862 189.031C410.588 189.23 403.634 185.695 403.634 185.695C403.634 185.695 409.867 181.005 412.14 180.806C412.681 180.758 413.226 180.817 413.744 180.98C414.262 181.142 414.743 181.405 415.159 181.754C415.575 182.102 415.919 182.529 416.17 183.01C416.421 183.491 416.574 184.017 416.622 184.558C416.669 185.098 416.609 185.643 416.446 186.16C416.283 186.677 416.019 187.157 415.67 187.573C415.32 187.988 414.893 188.331 414.411 188.581C413.929 188.831 413.403 188.984 412.862 189.031Z" fill="black"/>
<path id="Vector_16" opacity="0.25" d="M407.301 207.419C405.094 207.999 397.642 205.688 397.642 205.688C397.642 205.688 402.991 200.014 405.199 199.434C406.258 199.155 407.386 199.309 408.332 199.86C409.279 200.412 409.968 201.317 410.246 202.376C410.525 203.435 410.371 204.561 409.819 205.507C409.267 206.453 408.361 207.14 407.301 207.419Z" fill="black"/>
<path id="Vector_17" d="M392.647 213.3C392.647 213.3 409.799 204.215 415.049 189.99C417.213 184.01 421.26 178.892 426.583 175.405C429.123 173.769 431.808 172.37 434.604 171.223" stroke="#535461" stroke-width="2" stroke-miterlimit="10"/>
<path id="Vector_18" d="M437.966 162.279C436.334 163.873 434.489 171.447 434.489 171.447C434.489 171.447 442.111 169.778 443.743 168.184C444.527 167.419 444.974 166.374 444.987 165.279C444.999 164.184 444.576 163.129 443.81 162.346C443.044 161.563 441.998 161.116 440.902 161.103C439.806 161.091 438.75 161.514 437.966 162.279Z" fill="#F19798"/>
<path id="Vector_19" d="M424.15 166.226C423.647 168.45 426.219 175.81 426.219 175.81C426.219 175.81 431.709 170.27 432.212 168.046C432.331 167.518 432.346 166.97 432.254 166.436C432.162 165.902 431.965 165.391 431.675 164.932C431.386 164.474 431.008 164.077 430.565 163.764C430.122 163.451 429.621 163.229 429.092 163.109C428.563 162.99 428.015 162.976 427.48 163.068C426.945 163.16 426.434 163.356 425.975 163.645C425.516 163.935 425.119 164.312 424.806 164.755C424.493 165.197 424.27 165.697 424.15 166.226Z" fill="#F19798"/>
<path id="Vector_20" d="M408.909 181.525C409.598 183.698 415.537 188.754 415.537 188.754C415.537 188.754 417.477 181.204 416.787 179.03C416.623 178.514 416.359 178.034 416.01 177.619C415.66 177.204 415.233 176.862 414.751 176.613C414.269 176.363 413.743 176.211 413.202 176.164C412.661 176.118 412.117 176.178 411.6 176.342C411.082 176.506 410.602 176.77 410.187 177.119C409.772 177.468 409.43 177.895 409.18 178.377C408.93 178.858 408.777 179.384 408.731 179.924C408.684 180.464 408.745 181.008 408.909 181.525Z" fill="#F19798"/>
<path id="Vector_21" d="M399.986 195.694C400.297 197.953 405.296 203.939 405.296 203.939C405.296 203.939 408.485 196.825 408.173 194.566C408.099 194.029 407.919 193.512 407.645 193.044C407.371 192.576 407.007 192.167 406.575 191.839C406.142 191.512 405.649 191.273 405.124 191.136C404.599 190.999 404.052 190.966 403.515 191.04C402.977 191.115 402.459 191.294 401.991 191.568C401.523 191.842 401.113 192.205 400.785 192.637C400.458 193.069 400.218 193.562 400.081 194.086C399.944 194.611 399.911 195.157 399.986 195.694Z" fill="#F19798"/>
<path id="Vector_22" d="M431.968 182.318C429.686 182.259 423.177 177.96 423.177 177.96C423.177 177.96 429.901 174.005 432.182 174.064C433.278 174.092 434.317 174.554 435.072 175.348C435.826 176.142 436.234 177.203 436.206 178.298C436.177 179.393 435.715 180.431 434.92 181.185C434.125 181.939 433.063 182.346 431.968 182.318Z" fill="#F19798"/>
<path id="Vector_23" d="M421.322 198.757C419.162 198.019 414.239 191.971 414.239 191.971C414.239 191.971 421.839 190.207 423.999 190.945C425.035 191.3 425.889 192.051 426.371 193.035C426.853 194.018 426.925 195.152 426.57 196.188C426.215 197.224 425.462 198.077 424.478 198.559C423.494 199.04 422.359 199.112 421.322 198.757Z" fill="#F19798"/>
<path id="Vector_24" d="M408.78 213.317C406.527 212.953 400.651 207.824 400.651 207.824C400.651 207.824 407.843 204.802 410.097 205.165C411.179 205.34 412.147 205.936 412.789 206.824C413.43 207.712 413.692 208.818 413.518 209.899C413.343 210.98 412.746 211.947 411.857 212.588C410.969 213.229 409.862 213.491 408.78 213.317Z" fill="#F19798"/>
<path id="Vector_25" d="M222.237 187.718C230.771 187.718 237.69 180.381 237.69 171.331C237.69 162.281 230.771 154.945 222.237 154.945C213.703 154.945 206.784 162.281 206.784 171.331C206.784 180.381 213.703 187.718 222.237 187.718Z" fill="#FBD56F"/>
<path id="Vector_26" opacity="0.1" d="M222.237 187.718C230.771 187.718 237.69 180.381 237.69 171.331C237.69 162.281 230.771 154.945 222.237 154.945C213.703 154.945 206.784 162.281 206.784 171.331C206.784 180.381 213.703 187.718 222.237 187.718Z" fill="black"/>
<path id="Vector_27" d="M224.904 187.718C233.438 187.718 240.357 180.545 240.357 171.696C240.357 162.848 233.438 155.675 224.904 155.675C216.37 155.675 209.451 162.848 209.451 171.696C209.451 180.545 216.37 187.718 224.904 187.718Z" fill="#FBD56F"/>
<path id="Vector_28" d="M231.163 186.216L229.555 185.322C229.555 185.322 228.804 188.456 229.049 190.69C229.074 190.916 229.167 191.13 229.317 191.302C229.466 191.474 229.665 191.595 229.886 191.651C233.584 192.568 251.208 196.477 263.327 190.972C263.503 190.891 263.655 190.767 263.767 190.61C263.88 190.454 263.951 190.271 263.971 190.079C264.12 188.706 263.593 185.873 263.383 185.322C262.931 184.134 231.163 186.216 231.163 186.216Z" fill="#FBD56F"/>
<path id="Vector_29" opacity="0.1" d="M231.163 186.216L229.555 185.322C229.555 185.322 228.804 188.456 229.049 190.69C229.074 190.916 229.167 191.13 229.317 191.302C229.466 191.474 229.665 191.595 229.886 191.651C233.584 192.568 251.208 196.477 263.327 190.972C263.503 190.891 263.655 190.767 263.767 190.61C263.88 190.454 263.951 190.271 263.971 190.079C264.12 188.706 263.593 185.873 263.383 185.322C262.931 184.134 231.163 186.216 231.163 186.216Z" fill="black"/>
<path id="Vector_30" d="M246.469 189.13C255.811 189.13 263.383 187.425 263.383 185.322C263.383 183.218 255.811 181.513 246.469 181.513C237.128 181.513 229.555 183.218 229.555 185.322C229.555 187.425 237.128 189.13 246.469 189.13Z" fill="#FBD56F"/>
<path id="Vector_31" d="M237.625 180.596L236.018 179.702C236.018 179.702 235.266 182.836 235.512 185.07C235.536 185.296 235.629 185.51 235.779 185.682C235.928 185.854 236.127 185.976 236.349 186.031C240.046 186.948 257.67 190.857 269.789 185.352C269.965 185.272 270.117 185.147 270.23 184.991C270.343 184.834 270.413 184.651 270.433 184.459C270.582 183.086 270.056 180.254 269.846 179.702C269.393 178.514 237.625 180.596 237.625 180.596Z" fill="#FBD56F"/>
<path id="Vector_32" opacity="0.1" d="M237.625 180.596L236.018 179.702C236.018 179.702 235.266 182.836 235.512 185.07C235.536 185.296 235.629 185.51 235.779 185.682C235.928 185.854 236.127 185.976 236.349 186.031C240.046 186.948 257.67 190.857 269.789 185.352C269.965 185.272 270.117 185.147 270.23 184.991C270.343 184.834 270.413 184.651 270.433 184.459C270.582 183.086 270.056 180.254 269.846 179.702C269.393 178.514 237.625 180.596 237.625 180.596Z" fill="black"/>
<path id="Vector_33" d="M252.931 183.511C262.273 183.511 269.846 181.805 269.846 179.702C269.846 177.598 262.273 175.893 252.931 175.893C243.59 175.893 236.017 177.598 236.017 179.702C236.017 181.805 243.59 183.511 252.931 183.511Z" fill="#FBD56F"/>
<path id="Vector_34" d="M243.338 173.21L241.73 172.316C241.73 172.316 240.979 175.45 241.224 177.684C241.249 177.91 241.342 178.124 241.491 178.296C241.641 178.468 241.84 178.59 242.061 178.645C245.759 179.562 263.383 183.471 275.502 177.966C275.678 177.886 275.829 177.761 275.942 177.605C276.055 177.448 276.125 177.265 276.146 177.073C276.295 175.7 275.768 172.868 275.558 172.316C275.106 171.128 243.338 173.21 243.338 173.21Z" fill="#FBD56F"/>
<path id="Vector_35" opacity="0.1" d="M243.338 173.21L241.73 172.316C241.73 172.316 240.979 175.45 241.224 177.684C241.249 177.91 241.342 178.124 241.491 178.296C241.641 178.468 241.84 178.59 242.061 178.645C245.759 179.562 263.383 183.471 275.502 177.966C275.678 177.886 275.829 177.761 275.942 177.605C276.055 177.448 276.125 177.265 276.146 177.073C276.295 175.7 275.768 172.868 275.558 172.316C275.106 171.128 243.338 173.21 243.338 173.21Z" fill="black"/>
<path id="Vector_36" d="M258.644 176.125C267.986 176.125 275.558 174.419 275.558 172.316C275.558 170.212 267.986 168.507 258.644 168.507C249.303 168.507 241.73 170.212 241.73 172.316C241.73 174.419 249.303 176.125 258.644 176.125Z" fill="#FBD56F"/>
<path id="Vector_37" d="M237.011 165.521L235.404 164.627C235.404 164.627 234.652 167.761 234.898 169.995C234.922 170.221 235.015 170.435 235.165 170.607C235.314 170.779 235.513 170.901 235.735 170.956C239.432 171.873 257.056 175.782 269.175 170.277C269.351 170.197 269.503 170.072 269.616 169.916C269.729 169.759 269.799 169.576 269.819 169.384C269.968 168.011 269.442 165.179 269.232 164.627C268.78 163.439 237.011 165.521 237.011 165.521Z" fill="#FBD56F"/>
<path id="Vector_38" opacity="0.1" d="M237.011 165.521L235.404 164.627C235.404 164.627 234.652 167.761 234.898 169.995C234.922 170.221 235.015 170.435 235.165 170.607C235.314 170.779 235.513 170.901 235.735 170.956C239.432 171.873 257.056 175.782 269.175 170.277C269.351 170.197 269.503 170.072 269.616 169.916C269.729 169.759 269.799 169.576 269.819 169.384C269.968 168.011 269.442 165.179 269.232 164.627C268.78 163.439 237.011 165.521 237.011 165.521Z" fill="black"/>
<path id="Vector_39" d="M252.318 168.436C261.659 168.436 269.232 166.73 269.232 164.627C269.232 162.523 261.659 160.818 252.318 160.818C242.976 160.818 235.404 162.523 235.404 164.627C235.404 166.73 242.976 168.436 252.318 168.436Z" fill="#FBD56F"/>
<path id="Vector_40" d="M251.244 159.351L249.636 158.456C249.636 158.456 248.884 161.591 249.13 163.824C249.154 164.051 249.248 164.265 249.397 164.437C249.547 164.608 249.746 164.73 249.967 164.786C253.665 165.703 271.289 169.612 283.408 164.106C283.583 164.026 283.735 163.902 283.848 163.745C283.961 163.589 284.031 163.406 284.052 163.214C284.201 161.841 283.674 159.008 283.464 158.456C283.012 157.269 251.244 159.351 251.244 159.351Z" fill="#FBD56F"/>
<path id="Vector_41" opacity="0.1" d="M251.244 159.351L249.636 158.456C249.636 158.456 248.884 161.591 249.13 163.824C249.154 164.051 249.248 164.265 249.397 164.437C249.547 164.608 249.746 164.73 249.967 164.786C253.665 165.703 271.289 169.612 283.408 164.106C283.583 164.026 283.735 163.902 283.848 163.745C283.961 163.589 284.031 163.406 284.052 163.214C284.201 161.841 283.674 159.008 283.464 158.456C283.012 157.269 251.244 159.351 251.244 159.351Z" fill="black"/>
<path id="Vector_42" d="M266.55 162.265C275.892 162.265 283.464 160.56 283.464 158.456C283.464 156.353 275.892 154.647 266.55 154.647C257.209 154.647 249.636 156.353 249.636 158.456C249.636 160.56 257.209 162.265 266.55 162.265Z" fill="#FBD56F"/>
<path id="Vector_43" d="M241.628 155.203L240.02 154.309C240.02 154.309 239.268 157.443 239.514 159.677C239.538 159.904 239.632 160.117 239.781 160.289C239.931 160.461 240.13 160.583 240.351 160.638C244.049 161.556 261.673 165.464 273.792 159.959C273.967 159.879 274.119 159.755 274.232 159.598C274.345 159.441 274.415 159.258 274.436 159.066C274.584 157.694 274.058 154.861 273.848 154.309C273.396 153.121 241.628 155.203 241.628 155.203Z" fill="#FBD56F"/>
<path id="Vector_44" opacity="0.1" d="M241.628 155.203L240.02 154.309C240.02 154.309 239.268 157.443 239.514 159.677C239.538 159.904 239.632 160.117 239.781 160.289C239.931 160.461 240.13 160.583 240.351 160.638C244.049 161.556 261.673 165.464 273.792 159.959C273.967 159.879 274.119 159.755 274.232 159.598C274.345 159.441 274.415 159.258 274.436 159.066C274.584 157.694 274.058 154.861 273.848 154.309C273.396 153.121 241.628 155.203 241.628 155.203Z" fill="black"/>
<path id="Vector_45" d="M256.934 158.118C266.276 158.118 273.848 156.413 273.848 154.309C273.848 152.205 266.276 150.5 256.934 150.5C247.593 150.5 240.02 152.205 240.02 154.309C240.02 156.413 247.593 158.118 256.934 158.118Z" fill="#FBD56F"/>
<path id="Vector_46" d="M248.048 147.197L246.44 146.303C246.44 146.303 245.688 149.437 245.934 151.671C245.958 151.897 246.052 152.111 246.201 152.283C246.351 152.455 246.55 152.577 246.771 152.632C250.469 153.549 268.093 157.458 280.212 151.953C280.387 151.873 280.539 151.748 280.652 151.592C280.765 151.435 280.835 151.252 280.856 151.06C281.004 149.687 280.478 146.854 280.268 146.303C279.816 145.115 248.048 147.197 248.048 147.197Z" fill="#FBD56F"/>
<path id="Vector_47" opacity="0.1" d="M248.048 147.197L246.44 146.303C246.44 146.303 245.688 149.437 245.934 151.671C245.958 151.897 246.052 152.111 246.201 152.283C246.351 152.455 246.55 152.577 246.771 152.632C250.469 153.549 268.093 157.458 280.212 151.953C280.387 151.873 280.539 151.748 280.652 151.592C280.765 151.435 280.835 151.252 280.856 151.06C281.004 149.687 280.478 146.854 280.268 146.303C279.816 145.115 248.048 147.197 248.048 147.197Z" fill="black"/>
<path id="Vector_48" d="M263.354 150.112C272.696 150.112 280.268 148.406 280.268 146.303C280.268 144.199 272.696 142.494 263.354 142.494C254.013 142.494 246.44 144.199 246.44 146.303C246.44 148.406 254.013 150.112 263.354 150.112Z" fill="#FBD56F"/>
<path id="Vector_49" d="M251.214 137.693L249.607 136.799C249.607 136.799 248.855 139.933 249.101 142.167C249.125 142.394 249.218 142.607 249.368 142.779C249.518 142.951 249.717 143.073 249.938 143.128C253.636 144.046 271.259 147.954 283.379 142.449C283.554 142.369 283.706 142.245 283.819 142.088C283.932 141.931 284.002 141.748 284.023 141.556C284.171 140.184 283.645 137.351 283.435 136.799C282.983 135.611 251.214 137.693 251.214 137.693Z" fill="#FBD56F"/>
<path id="Vector_50" opacity="0.1" d="M251.214 137.693L249.607 136.799C249.607 136.799 248.855 139.933 249.101 142.167C249.125 142.394 249.218 142.607 249.368 142.779C249.518 142.951 249.717 143.073 249.938 143.128C253.636 144.046 271.259 147.954 283.379 142.449C283.554 142.369 283.706 142.245 283.819 142.088C283.932 141.931 284.002 141.748 284.023 141.556C284.171 140.184 283.645 137.351 283.435 136.799C282.983 135.611 251.214 137.693 251.214 137.693Z" fill="black"/>
<path id="Vector_51" d="M266.521 140.608C275.863 140.608 283.435 138.903 283.435 136.799C283.435 134.695 275.863 132.99 266.521 132.99C257.18 132.99 249.607 134.695 249.607 136.799C249.607 138.903 257.18 140.608 266.521 140.608Z" fill="#FBD56F"/>
<path id="Vector_52" d="M279.767 188.42L278.16 187.526C278.16 187.526 277.408 190.66 277.653 192.894C277.678 193.12 277.771 193.334 277.921 193.506C278.07 193.678 278.269 193.8 278.49 193.855C282.188 194.772 299.812 198.681 311.931 193.176C312.107 193.096 312.259 192.971 312.372 192.815C312.485 192.658 312.555 192.475 312.575 192.283C312.724 190.91 312.198 188.078 311.988 187.526C311.536 186.338 279.767 188.42 279.767 188.42Z" fill="#FBD56F"/>
<path id="Vector_53" opacity="0.1" d="M279.767 188.42L278.16 187.526C278.16 187.526 277.408 190.66 277.653 192.894C277.678 193.12 277.771 193.334 277.921 193.506C278.07 193.678 278.269 193.8 278.49 193.855C282.188 194.772 299.812 198.681 311.931 193.176C312.107 193.096 312.259 192.971 312.372 192.815C312.485 192.658 312.555 192.475 312.575 192.283C312.724 190.91 312.198 188.078 311.988 187.526C311.536 186.338 279.767 188.42 279.767 188.42Z" fill="black"/>
<path id="Vector_54" d="M295.073 191.335C304.415 191.335 311.987 189.629 311.987 187.526C311.987 185.422 304.415 183.717 295.073 183.717C285.732 183.717 278.159 185.422 278.159 187.526C278.159 189.629 285.732 191.335 295.073 191.335Z" fill="#FBD56F"/>
<path id="Vector_55" d="M285.48 181.034L283.872 180.14C283.872 180.14 283.12 183.274 283.366 185.508C283.39 185.734 283.484 185.948 283.633 186.12C283.783 186.292 283.982 186.413 284.203 186.469C287.901 187.386 305.525 191.295 317.644 185.79C317.82 185.709 317.971 185.585 318.084 185.428C318.197 185.272 318.268 185.089 318.288 184.897C318.437 183.524 317.91 180.691 317.7 180.14C317.248 178.952 285.48 181.034 285.48 181.034Z" fill="#FBD56F"/>
<path id="Vector_56" opacity="0.1" d="M285.48 181.034L283.872 180.14C283.872 180.14 283.12 183.274 283.366 185.508C283.39 185.734 283.484 185.948 283.633 186.12C283.783 186.292 283.982 186.413 284.203 186.469C287.901 187.386 305.525 191.295 317.644 185.79C317.82 185.709 317.971 185.585 318.084 185.428C318.197 185.272 318.268 185.089 318.288 184.897C318.437 183.524 317.91 180.691 317.7 180.14C317.248 178.952 285.48 181.034 285.48 181.034Z" fill="black"/>
<path id="Vector_57" d="M300.786 183.949C310.128 183.949 317.7 182.243 317.7 180.14C317.7 178.036 310.128 176.331 300.786 176.331C291.445 176.331 283.872 178.036 283.872 180.14C283.872 182.243 291.445 183.949 300.786 183.949Z" fill="#FBD56F"/>
<path id="Vector_58" d="M279.153 173.345L277.546 172.451C277.546 172.451 276.794 175.585 277.04 177.819C277.064 178.045 277.157 178.259 277.307 178.431C277.457 178.603 277.655 178.725 277.877 178.78C281.574 179.697 299.198 183.606 311.317 178.101C311.493 178.021 311.645 177.896 311.758 177.74C311.871 177.583 311.941 177.4 311.961 177.208C312.11 175.835 311.584 173.003 311.374 172.451C310.922 171.263 279.153 173.345 279.153 173.345Z" fill="#FBD56F"/>
<path id="Vector_59" opacity="0.1" d="M279.153 173.345L277.546 172.451C277.546 172.451 276.794 175.585 277.04 177.819C277.064 178.045 277.157 178.259 277.307 178.431C277.457 178.603 277.655 178.725 277.877 178.78C281.574 179.697 299.198 183.606 311.317 178.101C311.493 178.021 311.645 177.896 311.758 177.74C311.871 177.583 311.941 177.4 311.961 177.208C312.11 175.835 311.584 173.003 311.374 172.451C310.922 171.263 279.153 173.345 279.153 173.345Z" fill="black"/>
<path id="Vector_60" d="M294.46 176.26C303.801 176.26 311.374 174.554 311.374 172.451C311.374 170.347 303.801 168.642 294.46 168.642C285.118 168.642 277.546 170.347 277.546 172.451C277.546 174.554 285.118 176.26 294.46 176.26Z" fill="#FBD56F"/>
<path id="Vector_61" d="M293.386 167.174L291.778 166.28C291.778 166.28 291.026 169.415 291.272 171.648C291.296 171.875 291.39 172.089 291.539 172.26C291.689 172.432 291.888 172.554 292.109 172.609C295.807 173.527 313.431 177.435 325.55 171.93C325.725 171.85 325.877 171.726 325.99 171.569C326.103 171.413 326.173 171.229 326.194 171.037C326.342 169.665 325.816 166.832 325.606 166.28C325.154 165.093 293.386 167.174 293.386 167.174Z" fill="#FBD56F"/>
<path id="Vector_62" opacity="0.1" d="M293.386 167.174L291.778 166.28C291.778 166.28 291.026 169.415 291.272 171.648C291.296 171.875 291.39 172.089 291.539 172.26C291.689 172.432 291.888 172.554 292.109 172.609C295.807 173.527 313.431 177.435 325.55 171.93C325.725 171.85 325.877 171.726 325.99 171.569C326.103 171.413 326.173 171.229 326.194 171.037C326.342 169.665 325.816 166.832 325.606 166.28C325.154 165.093 293.386 167.174 293.386 167.174Z" fill="black"/>
<path id="Vector_63" d="M308.692 170.089C318.034 170.089 325.606 168.384 325.606 166.28C325.606 164.177 318.034 162.471 308.692 162.471C299.351 162.471 291.778 164.177 291.778 166.28C291.778 168.384 299.351 170.089 308.692 170.089Z" fill="#FBD56F"/>
<path id="Vector_64" d="M283.77 163.027L282.162 162.133C282.162 162.133 281.41 165.267 281.656 167.501C281.68 167.728 281.774 167.941 281.923 168.113C282.073 168.285 282.272 168.407 282.493 168.462C286.191 169.38 303.815 173.288 315.934 167.783C316.109 167.703 316.261 167.578 316.374 167.422C316.487 167.265 316.557 167.082 316.578 166.89C316.726 165.517 316.2 162.685 315.99 162.133C315.538 160.945 283.77 163.027 283.77 163.027Z" fill="#FBD56F"/>
<path id="Vector_65" opacity="0.1" d="M283.77 163.027L282.162 162.133C282.162 162.133 281.41 165.267 281.656 167.501C281.68 167.728 281.774 167.941 281.923 168.113C282.073 168.285 282.272 168.407 282.493 168.462C286.191 169.38 303.815 173.288 315.934 167.783C316.109 167.703 316.261 167.578 316.374 167.422C316.487 167.265 316.557 167.082 316.578 166.89C316.726 165.517 316.2 162.685 315.99 162.133C315.538 160.945 283.77 163.027 283.77 163.027Z" fill="black"/>
<path id="Vector_66" d="M299.076 165.942C308.417 165.942 315.99 164.237 315.99 162.133C315.99 160.029 308.417 158.324 299.076 158.324C289.735 158.324 282.162 160.029 282.162 162.133C282.162 164.237 289.735 165.942 299.076 165.942Z" fill="#FBD56F"/>
<path id="Vector_67" d="M290.19 155.021L288.582 154.126C288.582 154.126 287.83 157.261 288.076 159.494C288.1 159.721 288.194 159.935 288.343 160.107C288.493 160.279 288.692 160.4 288.913 160.456C292.611 161.373 310.235 165.282 322.354 159.777C322.53 159.696 322.681 159.572 322.794 159.415C322.907 159.259 322.977 159.076 322.998 158.884C323.147 157.511 322.62 154.678 322.41 154.127C321.958 152.939 290.19 155.021 290.19 155.021Z" fill="#FBD56F"/>
<path id="Vector_68" opacity="0.1" d="M290.19 155.021L288.582 154.126C288.582 154.126 287.83 157.261 288.076 159.494C288.1 159.721 288.194 159.935 288.343 160.107C288.493 160.279 288.692 160.4 288.913 160.456C292.611 161.373 310.235 165.282 322.354 159.777C322.53 159.696 322.681 159.572 322.794 159.415C322.907 159.259 322.977 159.076 322.998 158.884C323.147 157.511 322.62 154.678 322.41 154.127C321.958 152.939 290.19 155.021 290.19 155.021Z" fill="black"/>
<path id="Vector_69" d="M305.496 157.935C314.838 157.935 322.41 156.23 322.41 154.126C322.41 152.023 314.838 150.318 305.496 150.318C296.155 150.318 288.582 152.023 288.582 154.126C288.582 156.23 296.155 157.935 305.496 157.935Z" fill="#FBD56F"/>
<path id="Vector_70" d="M293.356 145.517L291.749 144.623C291.749 144.623 290.997 147.757 291.243 149.991C291.267 150.218 291.36 150.431 291.51 150.603C291.66 150.775 291.859 150.897 292.08 150.952C295.778 151.87 313.402 155.778 325.521 150.273C325.696 150.193 325.848 150.068 325.961 149.912C326.074 149.755 326.144 149.572 326.165 149.38C326.313 148.008 325.787 145.175 325.577 144.623C325.125 143.435 293.356 145.517 293.356 145.517Z" fill="#FBD56F"/>
<path id="Vector_71" opacity="0.1" d="M293.356 145.517L291.749 144.623C291.749 144.623 290.997 147.757 291.243 149.991C291.267 150.218 291.36 150.431 291.51 150.603C291.66 150.775 291.859 150.897 292.08 150.952C295.778 151.87 313.402 155.778 325.521 150.273C325.696 150.193 325.848 150.068 325.961 149.912C326.074 149.755 326.144 149.572 326.165 149.38C326.313 148.008 325.787 145.175 325.577 144.623C325.125 143.435 293.356 145.517 293.356 145.517Z" fill="black"/>
<path id="Vector_72" d="M308.663 148.432C318.004 148.432 325.577 146.727 325.577 144.623C325.577 142.519 318.004 140.814 308.663 140.814C299.322 140.814 291.749 142.519 291.749 144.623C291.749 146.727 299.322 148.432 308.663 148.432Z" fill="#FBD56F"/>
<path id="Vector_73" d="M395.304 210.838C392.95 210.755 392.866 209.843 389.839 208.268C388.13 207.379 385.535 204.798 383.601 202.721C383.446 202.554 383.296 202.392 383.151 202.233C383.663 202.222 383.953 202.217 383.953 202.217C383.953 202.217 383.196 195.585 383.868 194.01C384.541 192.435 384.037 183.068 384.037 183.068C384.037 183.068 384.457 175.94 383.7 174.282C382.943 172.624 383.953 162.014 383.953 162.014C383.953 162.014 384.625 155.714 384.793 142.865C384.962 130.017 377.394 129.602 377.394 129.602C377.394 129.602 376.385 129.525 374.853 129.379C374.706 129.365 374.55 129.35 374.394 129.335C375.386 127.26 375.964 125.707 375.964 125.707C375.964 125.707 374.703 113.687 374.367 111.615C374.031 109.542 372.012 101.004 372.012 101.004C372.012 101.004 370.583 97.3568 369.742 94.7868C368.901 92.2178 366.379 89.2338 366.379 89.2338C366.379 89.2338 361.838 80.2808 360.577 78.9548C359.992 78.3398 359.171 77.5638 358.46 76.9088C358.331 76.7908 358.209 76.6788 358.09 76.5698C358.28 75.6358 358.381 74.6858 358.391 73.7328C358.391 73.7328 353.682 69.0908 353.346 67.9298C353.009 66.7698 348.553 62.4588 348.553 62.4588C348.553 62.4588 346.03 57.8168 343.171 57.7338C341.82 57.6578 340.466 57.6988 339.122 57.8568C339.709 55.6858 340.403 53.4108 341.027 51.4588C341.097 51.2418 341.165 51.0298 341.232 50.8208C343.517 49.2768 345.31 47.1108 346.398 44.5788C346.457 44.4438 346.511 44.3078 346.565 44.1718C346.595 44.1728 346.625 44.1778 346.656 44.1778C346.774 44.1758 346.893 44.1658 347.009 44.1458C347.951 43.9838 348.747 42.9218 348.313 42.0838C348.341 42.1318 348.382 42.1708 348.43 42.1968C348.478 42.2238 348.533 42.2368 348.588 42.2348C348.901 42.2238 349.284 41.7708 349.357 41.3718C349.37 41.3028 349.377 41.2328 349.388 41.1638C349.401 41.0768 349.415 40.9908 349.426 40.9038C349.435 40.8218 349.442 40.7398 349.448 40.6578C349.456 40.5738 349.462 40.4888 349.466 40.4038C349.47 40.3248 349.473 40.2458 349.474 40.1658C349.476 40.0748 349.475 39.9838 349.474 39.8918C349.472 39.8188 349.472 39.7458 349.468 39.6728C349.463 39.5618 349.454 39.4508 349.443 39.3398C349.439 39.2948 349.438 39.2488 349.433 39.2038L349.432 39.2098C349.383 38.7568 349.293 38.3098 349.161 37.8738C348.697 36.3328 347.722 34.8048 348.098 33.2408C348.102 33.2238 348.109 33.2078 348.114 33.1918V33.1948C348.427 31.9808 349.478 31.0988 350.122 30.0138C350.183 29.9108 350.237 29.8038 350.29 29.6968C350.3 29.6778 350.312 29.6588 350.321 29.6388C350.36 29.5578 350.392 29.4758 350.427 29.3928C350.448 29.3398 350.473 29.2878 350.493 29.2348C350.52 29.1618 350.542 29.0888 350.566 29.0148C350.587 28.9488 350.61 28.8818 350.629 28.8148C350.647 28.7498 350.662 28.6838 350.677 28.6178C350.696 28.5388 350.715 28.4598 350.73 28.3798C350.741 28.3228 350.749 28.2648 350.758 28.2078C350.772 28.1168 350.785 28.0258 350.795 27.9348C350.8 27.8858 350.804 27.8358 350.808 27.7868C350.816 27.6848 350.822 27.5828 350.824 27.4808C350.825 27.4398 350.826 27.3988 350.826 27.3578C350.826 27.2458 350.823 27.1348 350.817 27.0228C350.815 26.9888 350.814 26.9558 350.811 26.9218C350.803 26.8028 350.79 26.6848 350.775 26.5658C350.772 26.5488 350.772 26.5318 350.769 26.5148L350.768 26.5188C350.626 25.4778 350.21 24.4918 349.564 23.6618C348.828 22.7868 347.898 22.0948 346.847 21.6408C345.796 21.1868 344.654 20.9838 343.512 21.0468C342.88 21.1178 342.243 21.1298 341.609 21.0818C340.553 20.9278 339.66 20.2578 338.819 19.6098C336.471 17.8038 334.124 15.9968 331.776 14.1898C330.99 13.5078 330.089 12.9728 329.114 12.6088C328.118 12.3048 326.925 12.4098 326.188 13.1358C324.87 14.4358 325.708 16.6738 325.178 18.4368C324.72 19.9628 323.244 20.9978 321.716 21.5138C320.187 22.0298 318.552 22.1428 316.982 22.5158C316.515 22.5918 316.077 22.7928 315.715 23.0978C315.309 23.5908 315.111 24.2228 315.165 24.8598C315.155 26.4208 315.531 27.9608 316.258 29.3428C316.555 29.9058 316.915 30.4738 317.231 31.0508C317.257 31.0988 317.282 31.1458 317.307 31.1938C317.343 31.2598 317.378 31.3268 317.412 31.3928C317.467 31.5008 317.519 31.6088 317.568 31.7168C317.59 31.7638 317.609 31.8108 317.629 31.8578C317.662 31.9348 317.693 32.0118 317.723 32.0888C317.742 32.1378 317.76 32.1868 317.777 32.2358C317.809 32.3268 317.837 32.4178 317.863 32.5088C318.031 33.0448 318.047 33.6168 317.909 34.1618C317.667 35.0528 316.971 35.7388 316.357 36.4348C315.855 36.9788 315.499 37.6398 315.319 38.3568L315.316 38.3728C315.282 38.5388 315.275 38.7108 315.297 38.8788C315.3 38.9008 315.303 38.9218 315.307 38.9418C315.315 38.9798 315.325 39.0168 315.338 39.0528C315.347 39.0788 315.358 39.1048 315.371 39.1298C315.383 39.1598 315.398 39.1878 315.414 39.2158C315.445 39.2618 315.481 39.3048 315.521 39.3418C315.54 39.3578 315.56 39.3718 315.58 39.3858C315.614 39.4108 315.65 39.4328 315.688 39.4518C315.711 39.4628 315.735 39.4738 315.76 39.4838C315.816 39.5038 315.874 39.5198 315.932 39.5308C315.949 39.5338 315.963 39.5388 315.98 39.5408C316.07 39.5528 316.16 39.5568 316.251 39.5528C316.277 39.5518 316.305 39.5488 316.332 39.5468C316.419 39.5398 316.505 39.5288 316.591 39.5138C316.622 39.5088 316.653 39.5038 316.686 39.4968C316.809 39.4708 316.939 39.4398 317.082 39.3948C317.555 39.2528 318.014 39.0708 318.456 38.8528C318.456 38.9028 318.452 38.9528 318.452 39.0038C318.452 39.0908 318.452 39.1818 318.461 39.2688C318.484 40.8948 318.792 42.5038 319.369 44.0238C320.27 46.3918 321.783 48.4808 323.754 50.0758C323.729 50.2198 323.703 50.3628 323.674 50.5078C323.268 52.4948 322.421 54.4898 321.898 54.3358C321.386 54.2218 320.863 54.1638 320.339 54.1648C320.18 54.1598 320.026 54.1578 319.88 54.1568C319.405 54.1018 318.925 54.1018 318.45 54.1568C318.238 54.1708 318.025 54.1418 317.825 54.0698C316.466 53.6428 315.022 53.5618 313.624 53.8348C310.716 54.4298 306.293 55.5188 305.081 56.8218C303.231 58.8118 300.54 60.7178 297.513 69.0078C297.513 69.0078 295.999 74.0638 294.822 74.7268C295.082 74.5928 295.348 74.4728 295.621 74.3688C295.465 74.6428 295.249 74.8778 294.99 75.0588C295.417 74.8408 295.86 74.6568 296.315 74.5068C295.396 79.9078 296.756 95.3558 296.756 95.3558C296.756 95.3558 295.663 98.0198 297.093 99.5948C297.942 100.531 298.404 101.991 298.64 103.024C298.573 103.127 298.504 103.234 298.433 103.345V103.347C297.676 104.519 296.664 106.048 296 106.89C294.822 108.382 295.159 113.107 295.159 113.107C295.159 113.107 294.906 115.345 294.066 116.174C293.225 117.003 293.393 120.07 293.393 120.07L291.207 128.11C291.207 128.11 289.189 129.934 289.189 130.763C289.189 131.592 287.591 133.913 287.591 133.913C287.591 133.913 285.152 137.892 287.591 137.312C288.48 137.052 289.314 136.633 290.053 136.075L290.052 136.134C290.048 136.28 290.045 136.428 290.043 136.579C289.974 140.912 290.446 147.01 293.645 147.01C298.606 147.01 311.387 152.895 311.387 152.895C313.994 154.885 317.525 154.222 317.525 154.222C317.525 154.222 311.303 160.439 311.471 163.008C311.639 165.578 307.94 169.806 307.94 169.806L296.504 192.104C296.568 193.657 296.844 195.195 297.324 196.674C297.269 196.722 297.213 196.767 297.16 196.815C292.766 200.826 292.384 208.765 292.384 208.765L291.375 212.827L306.678 219.541C306.678 219.541 326.522 219.956 329.97 219.044C333.417 218.132 332.661 214.319 328.12 213.573C323.579 212.827 322.486 210.838 320.973 209.926C319.952 209.311 316.326 205.335 314.076 202.815C314.042 202.777 314.011 202.742 313.977 202.704L314.498 199.813C315.507 199.315 317.021 194.342 317.021 194.342C317.021 194.342 317.021 192.352 318.03 191.772C319.039 191.192 321.141 185.224 321.141 185.224C321.141 185.224 325.682 177.68 325.429 176.686C325.177 175.691 328.709 170.635 328.709 170.635C328.709 170.635 334.679 164.832 334.426 163.796C334.174 162.76 339.219 157.455 339.219 157.455C341.042 156.064 342.562 154.316 343.684 152.318C344.138 152.246 344.626 152.168 345.141 152.081C351.743 151 362.714 149.046 363.94 148.502C365.622 147.756 365.286 151.072 364.613 153.89C363.94 156.708 363.436 170.22 364.193 171.961C364.949 173.702 364.613 176.52 364.613 176.52L363.604 191.689L364.277 194.922C364.277 194.922 362.006 196.746 362.931 197.823C363.856 198.901 363.015 203.543 363.015 203.543C363.095 203.514 363.189 203.485 363.295 203.457C363.214 203.639 363.137 203.826 363.067 204.022C361.764 207.734 362.511 213.822 362.511 213.822V218.63C362.511 218.63 385.802 219.044 390.932 219.044C396.061 219.044 403.124 216.557 403.544 214.568C403.965 212.578 397.658 210.92 395.304 210.838ZM329.058 124.542L327.532 124.67C328.038 124.597 328.547 124.554 329.058 124.542ZM338.36 60.9158C338.574 59.9568 338.833 58.9258 339.119 57.8678L338.36 60.9158ZM341.237 126.867C339.782 127.442 338.163 127.444 336.707 126.872L336.697 126.867C336.697 126.867 336.781 121.064 337.453 118.661C338.126 116.257 339.051 111.863 339.051 111.863C339.051 111.863 339.808 105.812 340.565 103.077C341.321 100.341 344.264 85.0888 345.778 84.0938C347.291 83.0988 348.132 84.8398 348.132 84.8398C348.132 84.8398 348.358 84.8358 348.737 84.7938C348.808 84.9528 348.889 85.1218 348.978 85.3008C350.773 88.9238 356.036 96.3618 356.036 96.3618C357.598 97.3248 358.92 98.6278 359.904 100.175C361.334 102.579 361.754 108.216 361.754 108.216C361.754 108.216 364.949 120.733 366.463 122.474C367.22 123.344 366.883 123.863 366.359 124.163C365.286 124.749 364.375 125.59 363.705 126.612C363.489 126.953 363.261 127.328 363.03 127.728C362.451 127.594 361.933 127.455 361.502 127.31C357.382 125.927 343.508 125.872 341.237 126.867Z" fill="url(#paint2_linear)"/>
<path id="Vector_74" d="M361.959 213.87V218.638C361.959 218.638 384.75 219.049 389.769 219.049C394.788 219.049 401.7 216.583 402.111 214.61C402.523 212.637 396.352 210.993 394.048 210.911C391.744 210.829 391.662 209.925 388.7 208.363C387.028 207.482 384.489 204.922 382.596 202.862C381.137 201.273 380.061 199.979 380.061 199.979C380.061 199.979 367.801 199.732 364.263 201.705C363.448 202.16 362.886 203.051 362.504 204.153C361.229 207.834 361.959 213.87 361.959 213.87Z" fill="white"/>
<path id="Vector_75" opacity="0.1" d="M362.504 204.153C365.074 203.26 380.123 202.913 382.596 202.862C381.137 201.273 380.06 199.979 380.06 199.979C380.06 199.979 367.801 199.732 364.263 201.705C363.448 202.16 362.886 203.051 362.504 204.153Z" fill="black"/>
<path id="Vector_76" d="M296.383 128.137C296.383 128.137 296.859 128.424 297.713 128.939C297.867 129.031 298.034 129.133 298.211 129.24C298.753 129.567 299.403 129.957 300.145 130.404C310.486 136.629 338.694 153.507 340.238 153.372C340.642 153.337 341.859 153.155 343.537 152.882C343.981 152.81 344.459 152.732 344.962 152.647C351.423 151.575 362.158 149.637 363.358 149.097C365.004 148.358 364.674 151.646 364.016 154.44C363.358 157.235 362.864 170.634 363.605 172.36C364.345 174.086 364.016 176.881 364.016 176.881L363.029 191.923L363.687 195.129C363.687 195.129 361.466 196.937 362.371 198.006C363.276 199.075 362.453 203.678 362.453 203.678C365.086 202.691 382.94 202.363 382.94 202.363C382.94 202.363 382.2 195.787 382.858 194.225C383.516 192.663 383.023 183.375 383.023 183.375C383.023 183.375 383.434 176.305 382.693 174.661C381.953 173.017 382.94 162.496 382.94 162.496C382.94 162.496 383.599 156.249 383.763 143.508C383.928 130.767 376.523 130.356 376.523 130.356C376.523 130.356 375.535 130.279 374.036 130.134C371.104 129.853 366.216 129.315 362.952 128.607C362.282 128.469 361.622 128.294 360.972 128.082C356.94 126.711 343.364 126.657 341.143 127.643C339.72 128.214 338.133 128.216 336.71 127.648L336.7 127.643L334.972 124.849L318.468 126.254L316.719 126.404L300.472 127.788L299.355 127.883L296.383 128.137Z" fill="black"/>
<path id="Vector_77" opacity="0.1" d="M362.535 140.746C367.329 143.08 371.903 134.805 374.036 130.134C371.104 129.853 366.216 129.315 362.951 128.607C360.804 132.207 357.939 138.509 362.535 140.746Z" fill="black"/>
<path id="Vector_78" d="M348.136 84.8177C348.237 85.3827 348.433 85.9267 348.717 86.4247C350.473 90.0177 355.624 97.3937 355.624 97.3937C357.156 98.3517 358.45 99.6447 359.408 101.175C360.807 103.559 361.219 109.149 361.219 109.149C361.219 109.149 364.345 121.561 365.826 123.287C366.567 124.15 366.238 124.665 365.724 124.962C364.672 125.546 363.78 126.38 363.127 127.39C360.97 130.856 357.526 137.729 362.371 140.088C368.953 143.294 375.124 126.493 375.124 126.493C375.124 126.493 373.89 114.574 373.56 112.519C373.231 110.464 371.257 101.997 371.257 101.997C371.257 101.997 369.858 98.3807 369.035 95.8317C368.212 93.2837 365.744 90.3247 365.744 90.3247C365.744 90.3247 361.301 81.4477 360.067 80.1317C359.494 79.5217 358.691 78.7527 357.995 78.1037C357.19 77.3517 356.529 76.7617 356.529 76.7617C356.529 76.7617 348.054 82.8447 348.136 84.8177Z" fill="#F9AE8E"/>
<path id="Vector_79" d="M292.351 212.884L307.326 219.542C307.326 219.542 326.744 219.953 330.117 219.049C333.491 218.145 332.75 214.364 328.307 213.624C323.864 212.884 322.794 210.911 321.313 210.007C320.315 209.397 316.767 205.455 314.565 202.956C313.505 201.753 312.756 200.883 312.756 200.883C312.756 200.883 309.877 193.238 301.896 194.965C300.439 195.279 299.096 195.985 298.012 197.006C293.712 200.983 293.339 208.856 293.339 208.856L292.351 212.884Z" fill="white"/>
<path id="Vector_80" opacity="0.1" d="M298.211 129.24C298.753 129.567 299.403 129.957 300.145 130.404C310.486 136.629 338.694 153.507 340.237 153.372C340.642 153.337 341.858 153.155 343.537 152.882C343.981 152.81 344.458 152.732 344.962 152.647C344.982 152.616 345 152.584 345.018 152.553C345.847 151.107 346.48 149.558 346.902 147.947C348.63 141.371 340.073 136.357 340.073 136.357L338.263 134.951C336.206 131.49 321.396 128.219 321.396 128.219L319.487 126.938L318.468 126.254L318.2 126.075L315.883 124.52L304.282 125.342L300.836 127.555L300.472 127.788L299.194 128.61L298.211 129.24Z" fill="black"/>
<path id="Vector_81" opacity="0.1" d="M298.012 197.006C301.162 207.89 314.32 204.335 314.32 204.335L314.565 202.956C313.505 201.753 312.756 200.883 312.756 200.883C312.756 200.883 309.877 193.238 301.896 194.965C300.439 195.279 299.096 195.985 298.012 197.006Z" fill="black"/>
<path id="Vector_82" d="M294.573 147.618C299.427 147.618 311.934 153.454 311.934 153.454C314.484 155.427 317.94 154.769 317.94 154.769C317.94 154.769 311.851 160.934 312.016 163.482C312.18 166.03 308.56 170.223 308.56 170.223L297.37 192.334C298.193 208.034 314.32 203.678 314.32 203.678L314.978 199.979C315.965 199.486 317.446 194.554 317.446 194.554C317.446 194.554 317.446 192.581 318.434 192.005C319.421 191.43 321.478 185.512 321.478 185.512C321.478 185.512 325.921 178.032 325.674 177.045C325.427 176.059 328.883 171.045 328.883 171.045C328.883 171.045 334.725 165.291 334.478 164.263C334.231 163.236 339.168 157.975 339.168 157.975C340.956 156.592 342.443 154.859 343.537 152.882C344.365 151.436 344.999 149.887 345.421 148.275C346.813 142.98 341.534 138.696 339.426 137.231C338.916 136.876 338.592 136.685 338.592 136.685L336.782 135.28C335.847 133.705 332.273 132.171 328.654 130.966C326.044 130.096 323.41 129.398 321.726 128.978C320.612 128.702 319.915 128.548 319.915 128.548L318.006 127.267L317.334 126.817L316.719 126.404L314.402 124.849L309.24 125.214L302.801 125.671L299.355 127.883L297.713 128.939L291.282 133.069C291.282 133.069 291.112 134.65 291.058 136.772C291.055 136.937 291.051 137.103 291.048 137.274C290.98 141.571 291.443 147.618 294.573 147.618Z" fill="black"/>
<path id="Vector_83" d="M319.339 55.5548L321.067 61.7198C321.067 61.7198 324.111 72.3228 324.44 73.0628C324.769 73.8028 332.75 81.2828 333.079 81.4478C333.408 81.6118 337.754 84.0778 337.754 84.0778C337.754 84.0778 338.098 70.5148 337.769 66.5688C337.741 65.7028 337.812 64.8348 337.983 63.9848C338.508 60.8928 339.836 56.3587 340.937 52.8667C341.858 49.9407 342.624 47.7458 342.624 47.7458C342.624 47.7458 323.37 46.9238 324.029 48.8138C324.277 49.5298 324.196 50.7247 323.956 51.9227C323.56 53.8937 322.73 55.8718 322.218 55.7188C321.718 55.6058 321.206 55.5488 320.693 55.5498C319.982 55.5278 319.339 55.5548 319.339 55.5548Z" fill="#F9AE8E"/>
<path id="Vector_84" opacity="0.1" d="M323.956 51.9227C326.308 53.8847 329.231 55.0358 332.29 55.2058C335.349 55.3758 338.382 54.5547 340.937 52.8667C341.859 49.9407 342.624 47.7458 342.624 47.7458C342.624 47.7458 323.37 46.9238 324.029 48.8138C324.277 49.5298 324.197 50.7247 323.956 51.9227Z" fill="black"/>
<path id="Vector_85" d="M347.315 40.5158C347.316 42.0238 347.076 43.5218 346.604 44.9548C346.485 45.3248 346.347 45.6878 346.192 46.0438C345.084 48.6668 343.213 50.8968 340.822 52.4448C338.431 53.9938 335.63 54.7898 332.781 54.7308C329.932 54.6708 327.167 53.7588 324.843 52.1118C322.518 50.4658 320.742 48.1598 319.744 45.4928C319.179 43.9848 318.878 42.3898 318.855 40.7788C318.847 40.6918 318.847 40.6018 318.847 40.5158C318.847 36.7438 320.347 33.1268 323.016 30.4598C325.686 27.7928 329.306 26.2948 333.081 26.2948C336.856 26.2948 340.477 27.7928 343.146 30.4598C345.816 33.1268 347.315 36.7438 347.315 40.5158Z" fill="#F9AE8E"/>
<path id="Vector_86" opacity="0.1" d="M319.339 55.5548L321.067 61.7198C321.067 61.7198 324.111 72.3228 324.44 73.0628C324.769 73.8028 332.75 81.2828 333.079 81.4478C333.408 81.6118 337.754 84.0778 337.754 84.0778C337.754 84.0778 338.098 70.5148 337.769 66.5688C337.741 65.7028 337.812 64.8348 337.983 63.9848L336.864 68.5418L336.946 77.6658L337.605 78.1598L336.124 80.3788V78.7348C336.124 78.7348 330.858 73.6388 330.035 71.5008C329.212 69.3638 326.25 65.4938 326.25 65.4938C326.25 65.4938 322.877 59.8288 322.794 58.8428C322.73 58.0728 321.313 56.2948 320.693 55.5498C319.982 55.5278 319.339 55.5548 319.339 55.5548Z" fill="black"/>
<path id="Vector_87" opacity="0.1" d="M348.136 84.8177C348.237 85.3827 348.433 85.9267 348.717 86.4247C350.516 86.2407 356.646 85.0987 357.995 78.1037C357.19 77.3517 356.529 76.7617 356.529 76.7617C356.529 76.7617 348.054 82.8447 348.136 84.8177Z" fill="black"/>
<path id="Vector_88" opacity="0.1" d="M291.048 137.274C292.708 136.1 294.288 134.499 295.231 134.055C296.63 133.397 298.769 131.26 298.769 131.26C298.769 131.26 299.312 130.892 300.145 130.404C301.672 129.509 304.175 128.214 306.092 128.054C307.81 127.911 313.517 127.546 318.006 127.267C321.254 127.063 323.864 126.904 323.864 126.904C323.864 126.904 329.212 125.013 331.516 126.246C333.166 127.072 334.905 127.706 336.7 128.137C336.7 128.137 336.701 127.957 336.71 127.648L336.7 127.643L334.972 124.849L316.719 126.404L314.402 124.849L302.801 125.671L299.355 127.883L296.383 128.137C296.383 128.137 296.859 128.424 297.713 128.939L291.282 133.069C291.282 133.069 291.084 134.905 291.048 137.274Z" fill="black"/>
<path id="Vector_89" d="M288.649 138.001C289.52 137.742 290.336 137.326 291.058 136.774V136.772C292.715 135.6 294.29 134.004 295.231 133.562C296.63 132.904 298.769 130.767 298.769 130.767C298.769 130.767 303.13 127.808 306.092 127.561C306.9 127.494 308.588 127.377 310.617 127.246C312.694 127.108 315.124 126.953 317.334 126.817C318.608 126.736 319.808 126.66 320.821 126.598C322.638 126.486 323.864 126.41 323.864 126.41C323.864 126.41 329.212 124.52 331.516 125.753C333.166 126.579 334.905 127.213 336.7 127.643C336.7 127.643 336.782 121.89 337.44 119.506C338.098 117.122 339.003 112.765 339.003 112.765C339.003 112.765 339.744 106.765 340.484 104.052C341.225 101.34 344.105 86.2148 345.586 85.2288C347.067 84.2418 347.889 85.9678 347.889 85.9678C347.889 85.9678 357.763 85.8038 357.927 74.9538C357.927 74.9538 353.32 70.3508 352.991 69.1998C352.662 68.0488 348.301 63.7748 348.301 63.7748C348.301 63.7748 345.832 59.1718 343.035 59.0888C341.713 59.0128 340.387 59.0538 339.072 59.2108L336.7 68.8708L336.782 77.9948L337.44 78.4878L335.959 80.7078V79.0638C335.959 79.0638 330.693 73.9668 329.87 71.8298C329.048 69.6928 326.086 65.8228 326.086 65.8228C326.086 65.8228 322.712 60.1578 322.63 59.1718C322.548 58.1848 320.244 55.5418 320.244 55.5418C319.779 55.4868 319.31 55.4868 318.845 55.5418C318.637 55.5558 318.429 55.5268 318.233 55.4558C316.905 55.0318 315.49 54.9518 314.122 55.2228C311.277 55.8128 306.949 56.8928 305.763 58.1848C303.953 60.1578 301.32 62.0478 298.358 70.2678L314.32 76.0218L312.954 78.6168L300.25 102.737C300.25 102.737 299.829 103.423 299.258 104.319V104.32C298.517 105.483 297.527 106.998 296.877 107.833C295.725 109.313 296.054 113.998 296.054 113.998C296.054 113.998 295.807 116.218 294.984 117.04C294.161 117.862 294.326 120.903 294.326 120.903L292.187 128.876C292.187 128.876 290.212 130.685 290.212 131.507C290.212 132.329 288.649 134.63 288.649 134.63C288.649 134.63 286.263 138.576 288.649 138.001Z" fill="#434175"/>
<path id="Vector_90" opacity="0.1" d="M372.902 143.919C372.902 143.919 367.719 145.645 366.32 148.111C364.921 150.577 372.902 143.919 372.902 143.919Z" fill="black"/>
<path id="Vector_91" opacity="0.1" d="M370.269 138.494C370.105 138.74 363.17 145.693 363.605 147.371C364.04 149.05 370.269 138.494 370.269 138.494Z" fill="black"/>
<path id="Vector_92" opacity="0.1" d="M332.174 143.426C332.174 143.426 324.44 147.07 323.782 148.659C323.124 150.248 332.174 143.426 332.174 143.426Z" fill="black"/>
<path id="Vector_93" opacity="0.1" d="M331.681 148.111C331.681 148.111 324.701 151.07 323.748 151.81C322.794 152.55 331.681 148.111 331.681 148.111Z" fill="black"/>
<path id="Vector_94" opacity="0.1" d="M328.472 154.44C328.472 154.44 325.38 156.742 323.676 154.934C321.972 153.125 328.472 154.44 328.472 154.44Z" fill="black"/>
<path id="Vector_95" opacity="0.1" d="M340.074 94.4347C339.908 94.6817 329.624 113.176 326.908 114.574C324.193 115.971 340.074 94.4347 340.074 94.4347Z" fill="black"/>
<path id="Vector_96" opacity="0.1" d="M339.579 101.422C339.579 101.833 329.541 123.287 327.896 123.534C326.25 123.78 339.579 101.422 339.579 101.422Z" fill="black"/>
<path id="Vector_97" opacity="0.1" d="M301.402 115.231C301.402 115.231 296.554 125.574 294.655 126.164C292.756 126.754 301.402 115.231 301.402 115.231Z" fill="black"/>
<path id="Vector_98" opacity="0.1" d="M300.579 110.628C300.579 110.628 298.908 114.245 297.892 114.245C296.877 114.245 300.579 110.628 300.579 110.628Z" fill="black"/>
<path id="Vector_99" opacity="0.1" d="M347.315 40.5158C347.316 42.0238 347.076 43.5218 346.603 44.9548C346.485 45.3248 346.347 45.6878 346.192 46.0438C345.461 45.9338 344.772 45.6308 344.196 45.1688C343.586 44.7548 343.075 44.2098 342.703 43.5738C342.422 42.8958 342.179 42.2028 341.975 41.4978C341.646 40.7018 341.111 40.0088 340.425 39.4888C339.738 38.9698 338.925 38.6428 338.07 38.5428C338.543 39.3478 337.79 40.4538 336.864 40.5978C335.939 40.7378 335.038 40.1868 334.4 39.4998C333.762 38.8138 333.301 37.9788 332.668 37.2928C332.03 36.6058 331.129 36.0558 330.203 36.1948C329.384 36.3188 328.751 36.9438 328.063 37.4078C327.381 37.8718 326.422 38.1848 325.759 37.6878C325.389 37.4118 325.208 36.9438 324.854 36.6428C323.945 35.8828 322.53 36.6678 321.859 37.6508C320.826 39.1708 320.197 40.0918 318.855 40.7788C318.847 40.6918 318.847 40.6018 318.847 40.5158C318.847 36.7438 320.347 33.1268 323.016 30.4598C325.686 27.7928 329.306 26.2948 333.081 26.2948C336.856 26.2948 340.477 27.7928 343.146 30.4598C345.816 33.1268 347.315 36.7438 347.315 40.5158Z" fill="black"/>
<path id="Vector_100" d="M321.86 37.2387C322.53 36.2557 323.944 35.4697 324.856 36.2337C325.21 36.5307 325.391 36.9997 325.76 37.2777C326.421 37.7747 327.381 37.4627 328.065 36.9967C328.749 36.5307 329.384 35.9087 330.203 35.7837C331.129 35.6437 332.031 36.1947 332.667 36.8817C333.303 37.5687 333.764 38.4027 334.4 39.0887C335.036 39.7757 335.939 40.3267 336.864 40.1857C337.79 40.0437 338.545 38.9367 338.069 38.1307C338.924 38.2317 339.737 38.5587 340.423 39.0787C341.11 39.5977 341.645 40.2907 341.973 41.0867C342.178 41.7907 342.421 42.4837 342.702 43.1617C343.074 43.7977 343.586 44.3427 344.197 44.7557C344.952 45.3077 345.867 45.7747 346.789 45.6137C347.712 45.4537 348.492 44.3977 348.064 43.5667C348.358 44.0137 348.991 43.3907 349.087 42.8637C349.296 41.7087 349.23 40.5207 348.897 39.3947C348.442 37.8667 347.488 36.3517 347.856 34.8007C348.147 33.5727 349.197 32.6907 349.835 31.6007C350.965 29.6697 350.665 27.0687 349.291 25.3027C348.576 24.4367 347.667 23.7507 346.639 23.3007C345.61 22.8497 344.49 22.6477 343.368 22.7087C342.75 22.7797 342.127 22.7907 341.506 22.7437C340.473 22.5907 339.6 21.9257 338.776 21.2837L331.885 15.9097C331.118 15.2347 330.235 14.7027 329.28 14.3417C328.306 14.0397 327.138 14.1437 326.417 14.8647C325.127 16.1537 325.947 18.3717 325.429 20.1197C324.98 21.6347 323.536 22.6607 322.04 23.1717C320.545 23.6827 318.945 23.7957 317.409 24.1657C316.95 24.2407 316.522 24.4407 316.169 24.7427C315.77 25.2337 315.577 25.8597 315.63 26.4897C315.621 28.0367 315.988 29.5617 316.7 30.9347C317.498 32.4687 318.763 34.0447 318.316 35.7137C318.079 36.5977 317.397 37.2777 316.797 37.9687C315.494 39.4647 315.055 41.6757 317.505 40.9037C319.866 40.1597 320.528 39.1957 321.86 37.2387Z" fill="black"/>
<g id="Group_2" opacity="0.1">
<path id="Vector_101" opacity="0.1" d="M349.088 41.2437C348.992 41.7697 348.36 42.3927 348.065 41.9457C348.494 42.7777 347.713 43.8327 346.791 43.9937C345.868 44.1537 344.953 43.6876 344.198 43.1346C343.587 42.7216 343.076 42.1776 342.703 41.5416C342.422 40.8636 342.179 40.1707 341.974 39.4657C341.646 38.6707 341.111 37.9776 340.425 37.4576C339.738 36.9386 338.926 36.6117 338.07 36.5107C338.546 37.3167 337.792 38.4237 336.866 38.5647C335.94 38.7067 335.037 38.1556 334.401 37.4686C333.765 36.7816 333.304 35.9486 332.668 35.2616C332.032 34.5736 331.13 34.0227 330.204 34.1637C329.385 34.2877 328.75 34.9096 328.066 35.3756C327.382 35.8426 326.422 36.1546 325.761 35.6566C325.392 35.3786 325.211 34.9097 324.857 34.6137C323.946 33.8487 322.531 34.6357 321.862 35.6187C320.529 37.5747 319.867 38.5386 317.507 39.2826C316.732 39.5276 316.247 39.4717 315.986 39.2367C315.468 40.4247 315.704 41.4716 317.507 40.9036C319.867 40.1596 320.529 39.1957 321.862 37.2387C322.531 36.2557 323.946 35.4696 324.857 36.2336C325.211 36.5306 325.392 36.9997 325.761 37.2777C326.422 37.7757 327.382 37.4626 328.066 36.9966C328.75 36.5306 329.386 35.9086 330.204 35.7836C331.13 35.6436 332.032 36.1946 332.668 36.8816C333.304 37.5686 333.765 38.4026 334.401 39.0886C335.037 39.7756 335.94 40.3266 336.866 40.1856C337.792 40.0436 338.546 38.9366 338.07 38.1306C338.926 38.2316 339.738 38.5586 340.425 39.0786C341.111 39.5976 341.646 40.2906 341.974 41.0866C342.179 41.7906 342.422 42.4837 342.703 43.1617C343.076 43.7977 343.587 44.3426 344.198 44.7556C344.953 45.3076 345.868 45.7747 346.791 45.6137C347.713 45.4537 348.494 44.3977 348.065 43.5667C348.36 44.0137 348.992 43.3907 349.088 42.8637C349.216 42.1547 349.241 41.4306 349.162 40.7136C349.143 40.8906 349.12 41.0677 349.088 41.2437Z" fill="black"/>
<path id="Vector_102" opacity="0.1" d="M318.296 34.1556C318.302 34.1346 318.311 34.1147 318.317 34.0937C318.765 32.4237 317.5 30.8477 316.702 29.3147C316.142 28.2327 315.795 27.0547 315.679 25.8427C315.648 26.0567 315.632 26.2736 315.632 26.4896C315.622 28.0366 315.989 29.5617 316.702 30.9347C317.247 31.9827 318.01 33.0516 318.296 34.1556Z" fill="black"/>
<path id="Vector_103" opacity="0.1" d="M349.836 29.9806C349.199 31.0696 348.148 31.9516 347.857 33.1796C347.744 33.6996 347.749 34.2376 347.872 34.7546C348.178 33.5506 349.207 32.6766 349.836 31.6006C350.43 30.5476 350.653 29.3256 350.47 28.1306C350.38 28.7826 350.165 29.4106 349.836 29.9806Z" fill="black"/>
</g>
<path id="Vector_104" opacity="0.1" d="M299.258 104.319V104.32C299.367 104.774 299.451 105.233 299.51 105.696C299.51 105.696 306.01 120.903 306.832 121.807C307.086 122.085 308.04 123.453 309.24 125.214C309.674 125.85 310.14 126.539 310.617 127.246C313.105 130.935 315.883 135.124 315.883 135.124L321.972 140.467C321.972 140.467 335.217 141.525 339.426 137.231C338.916 136.876 338.592 136.685 338.592 136.685L336.782 135.28C335.847 133.705 332.273 132.171 328.654 130.966C325.32 130.991 322.594 131.26 322.594 131.26L321.726 128.978L320.821 126.598L316.219 114.492C316.219 114.492 313.25 99.2027 312.263 98.4627C311.275 97.7227 311.522 95.4207 311.522 95.4207C311.522 95.4207 313.332 88.9277 312.674 88.0227C312.016 87.1187 313.744 80.4607 313.744 80.4607C313.572 79.8107 313.306 79.1897 312.954 78.6167L300.25 102.737C300.25 102.737 299.829 103.423 299.258 104.319Z" fill="black"/>
<path id="Vector_105" d="M313.908 79.9677C313.908 79.9677 312.18 86.6257 312.839 87.5297C313.497 88.4337 311.687 94.9277 311.687 94.9277C311.687 94.9277 311.44 97.2297 312.427 97.9697C313.415 98.7087 316.383 113.998 316.383 113.998L322.758 130.767C322.758 130.767 342.706 128.794 340.649 135.041C338.592 141.289 322.136 139.973 322.136 139.973L316.048 134.63C316.048 134.63 307.82 122.218 306.997 121.314C306.174 120.41 299.674 105.203 299.674 105.203C299.674 105.203 299.345 102.162 297.946 100.6C296.548 99.0377 297.617 96.3967 297.617 96.3967C297.617 96.3967 295.889 76.5157 297.699 74.1317C299.51 71.7477 312.016 72.8167 313.908 79.9677Z" fill="#F9AE8E"/>
<path id="Vector_106" opacity="0.1" d="M303.706 67.4737L298.522 70.5967C298.522 70.5967 297.041 75.6107 295.889 76.2687C295.889 76.2687 306.257 70.5147 314.073 83.7487C314.073 83.7487 313.826 82.0227 314.896 81.2007C315.965 80.3787 315.719 76.8437 315.719 76.8437C316.003 76.2857 316.251 75.7087 316.459 75.1177C317.2 73.3097 313.332 62.9527 303.706 67.4737Z" fill="black"/>
<path id="Vector_107" d="M303.541 67.1447L298.358 70.2677C298.358 70.2677 296.877 75.2827 295.725 75.9397C295.725 75.9397 306.092 70.1857 313.908 83.4197C313.908 83.4197 313.661 81.6937 314.731 80.8717C315.801 80.0497 315.554 76.5157 315.554 76.5157C315.838 75.9567 316.086 75.3797 316.294 74.7887C317.035 72.9807 313.168 62.6237 303.541 67.1447Z" fill="#434175"/>
<path id="Vector_108" d="M257.34 211.097C265.874 211.097 272.793 203.761 272.793 194.711C272.793 185.661 265.874 178.324 257.34 178.324C248.806 178.324 241.887 185.661 241.887 194.711C241.887 203.761 248.806 211.097 257.34 211.097Z" fill="#FBD56F"/>
<path id="Vector_109" opacity="0.1" d="M257.34 211.097C265.874 211.097 272.793 203.761 272.793 194.711C272.793 185.661 265.874 178.324 257.34 178.324C248.806 178.324 241.887 185.661 241.887 194.711C241.887 203.761 248.806 211.097 257.34 211.097Z" fill="black"/>
<path id="Vector_110" d="M260.007 211.097C268.541 211.097 275.46 203.924 275.46 195.076C275.46 186.227 268.541 179.054 260.007 179.054C251.473 179.054 244.554 186.227 244.554 195.076C244.554 203.924 251.473 211.097 260.007 211.097Z" fill="#FBD56F"/>
<path id="Vector_111" d="M36.0893 203.716C46.6298 203.716 55.1746 202.273 55.1746 200.493C55.1746 198.713 46.6298 197.269 36.0893 197.269C25.5487 197.269 17.0039 198.713 17.0039 200.493C17.0039 202.273 25.5487 203.716 36.0893 203.716Z" fill="#F19798"/>
<path id="Vector_112" d="M43.9809 195.22C44.7982 194.461 45.5649 193.566 45.8004 192.476C46.0359 191.387 45.5711 190.08 44.529 189.682C43.3612 189.236 42.1134 190.044 41.1673 190.861C40.2212 191.678 39.1369 192.61 37.8987 192.437C38.5357 191.86 39.0122 191.128 39.2819 190.313C39.5516 189.498 39.6052 188.626 39.4376 187.784C39.3833 187.436 39.2353 187.11 39.0097 186.839C38.3614 186.147 37.1863 186.444 36.4101 186.99C33.9418 188.724 33.253 192.074 33.2396 195.089C32.9907 194.001 33.2003 192.868 33.1942 191.752C33.188 190.637 32.882 189.4 31.9401 188.801C31.3533 188.485 30.6934 188.33 30.0273 188.352C28.9178 188.311 27.682 188.422 26.9243 189.233C25.9828 190.24 26.2269 191.931 27.046 193.04C27.8651 194.149 29.111 194.843 30.2578 195.609C31.1777 196.157 31.9623 196.904 32.553 197.797C32.6225 197.921 32.6795 198.052 32.7232 198.187H39.6792C41.2406 197.397 42.6877 196.398 43.9809 195.22Z" fill="#F19798"/>
<path id="Vector_113" d="M208.683 179.474C209.533 180.638 210.229 181.906 210.752 183.248C210.89 183.595 211.025 183.96 211.153 184.342C213.209 190.481 209.951 197.843 209.02 197.049C208.089 196.255 205.186 194.782 204.625 196.852C204.064 198.923 201.99 201.039 201.99 201.039C198.213 204.834 194.794 200.734 192.55 196.497C191.817 195.099 191.165 193.66 190.597 192.187C190.099 190.885 189.813 189.986 189.813 189.986L205.545 176.594C205.545 176.594 207.066 177.292 208.683 179.474Z" fill="#F19798"/>
<path id="Vector_114" d="M183.888 188.038C184.738 189.201 185.433 190.469 185.956 191.811C186.094 192.158 186.23 192.523 186.358 192.905C188.414 199.044 185.156 206.406 184.224 205.612C183.293 204.818 180.39 203.345 179.829 205.415C179.268 207.486 177.195 209.602 177.195 209.602C173.417 213.397 169.999 209.297 167.754 205.06C167.021 203.662 166.369 202.223 165.802 200.75C165.304 199.448 165.017 198.549 165.017 198.549L180.75 185.158C180.75 185.158 182.271 185.855 183.888 188.038Z" fill="#F19798"/>
<path id="Vector_115" d="M134.101 199.867C134.013 201.305 133.738 202.725 133.283 204.092C133.168 204.447 133.039 204.814 132.893 205.19C130.554 211.227 123.343 214.818 123.133 213.612C122.923 212.407 121.63 209.422 119.875 210.659C118.121 211.895 115.173 212.202 115.173 212.202C109.84 212.716 109.828 207.379 110.806 202.686C111.135 201.142 111.552 199.619 112.057 198.123C112.504 196.804 112.858 195.929 112.858 195.929L133.525 195.65C133.525 195.65 134.25 197.156 134.101 199.867Z" fill="#F19798"/>
<path id="Vector_116" d="M107.398 193.139C107.31 194.577 107.035 195.997 106.58 197.363C106.465 197.719 106.336 198.086 106.19 198.462C103.852 204.499 96.6411 208.09 96.4311 206.884C96.2211 205.679 94.9281 202.694 93.1731 203.93C91.4181 205.167 88.4701 205.474 88.4701 205.474C83.1381 205.988 83.1251 200.651 84.1041 195.958C84.4321 194.414 84.8501 192.891 85.3541 191.395C85.8021 190.076 86.1561 189.201 86.1561 189.201L106.822 188.922C106.822 188.922 107.548 190.428 107.398 193.139Z" fill="#F19798"/>
<path id="Vector_117" opacity="0.2" d="M208.683 179.474C209.533 180.638 210.229 181.906 210.752 183.248C210.89 183.595 211.025 183.96 211.153 184.342C213.209 190.481 209.951 197.843 209.02 197.049C208.089 196.255 205.186 194.782 204.625 196.852C204.064 198.923 201.99 201.039 201.99 201.039C198.213 204.834 194.794 200.734 192.55 196.497C191.817 195.099 191.165 193.66 190.597 192.187C190.099 190.885 189.813 189.986 189.813 189.986L205.545 176.594C205.545 176.594 207.066 177.292 208.683 179.474Z" fill="black"/>
<path id="Vector_118" opacity="0.2" d="M183.888 188.038C184.738 189.201 185.433 190.469 185.956 191.811C186.094 192.158 186.23 192.523 186.358 192.905C188.414 199.044 185.156 206.406 184.224 205.612C183.293 204.818 180.39 203.345 179.829 205.415C179.268 207.486 177.195 209.602 177.195 209.602C173.417 213.397 169.999 209.297 167.754 205.06C167.021 203.662 166.369 202.223 165.802 200.75C165.304 199.448 165.017 198.549 165.017 198.549L180.75 185.158C180.75 185.158 182.271 185.855 183.888 188.038Z" fill="black"/>
<path id="Vector_119" opacity="0.2" d="M134.101 199.867C134.013 201.305 133.738 202.725 133.283 204.092C133.168 204.447 133.039 204.814 132.893 205.19C130.554 211.227 123.343 214.818 123.133 213.612C122.923 212.407 121.63 209.422 119.875 210.659C118.121 211.895 115.173 212.202 115.173 212.202C109.84 212.716 109.828 207.379 110.806 202.686C111.135 201.142 111.552 199.619 112.057 198.123C112.504 196.804 112.858 195.929 112.858 195.929L133.525 195.65C133.525 195.65 134.25 197.156 134.101 199.867Z" fill="black"/>
<path id="Vector_120" opacity="0.2" d="M107.398 193.139C107.31 194.577 107.035 195.997 106.58 197.363C106.465 197.719 106.336 198.086 106.19 198.462C103.852 204.499 96.6411 208.09 96.4311 206.884C96.2211 205.679 94.9281 202.694 93.1731 203.93C91.4181 205.167 88.4701 205.474 88.4701 205.474C83.1381 205.988 83.1251 200.651 84.1041 195.958C84.4321 194.414 84.8501 192.891 85.3541 191.395C85.8021 190.076 86.1561 189.201 86.1561 189.201L106.822 188.922C106.822 188.922 107.548 190.428 107.398 193.139Z" fill="black"/>
<path id="Vector_121" d="M250.649 102.653C250.649 157.799 231.976 202.504 145.803 202.504C87.8992 202.504 43.1009 188.13 40.9581 102.653C39.576 47.5238 87.8992 2.80176 145.803 2.80176C203.708 2.80176 250.649 47.5068 250.649 102.653Z" fill="#FFAAA5"/>
<path id="Vector_122" opacity="0.2" d="M126.135 4.5448H126.148C126.145 4.5468 126.142 4.5478 126.138 4.5478L126.135 4.5448Z" fill="black"/>
<path id="Vector_123" opacity="0.2" d="M126.34 4.51179C126.607 4.46879 127.133 4.39479 127.898 4.33679L126.193 4.53879C126.218 4.53279 126.248 4.52679 126.285 4.52079C126.304 4.51779 126.319 4.51479 126.34 4.51179Z" fill="black"/>
<path id="Vector_124" opacity="0.2" d="M203.813 45.3107L196.16 48.0637C192.259 42.8367 188.061 37.8377 183.588 33.0907C178.705 27.8877 173.378 23.1207 167.666 18.8417C148.072 4.33372 132.916 3.96372 127.911 4.33672L139.415 2.98572C150.287 4.85372 160.743 8.62972 170.299 14.1387C176.984 17.9887 183.211 22.5837 188.859 27.8367C198.875 37.1237 203.813 45.3107 203.813 45.3107Z" fill="black"/>
<path id="Vector_125" opacity="0.2" d="M134.63 50.5097C134.63 50.5097 124.528 16.8697 133.099 7.69469C133.099 7.69469 146.569 3.10769 156.67 29.1027L134.63 50.5097Z" fill="black"/>
<path id="Vector_126" d="M185.782 19.0897C185.782 19.0897 212.572 -3.65327 224.423 0.508727C224.423 0.508727 234.034 10.9927 214.254 30.6677L185.782 19.0897Z" fill="#F19798"/>
<path id="Vector_127" opacity="0.2" d="M185.782 19.0897C185.782 19.0897 212.572 -3.65327 224.423 0.508727C224.423 0.508727 234.034 10.9927 214.254 30.6677L185.782 19.0897Z" fill="black"/>
<path id="Vector_128" d="M269.322 128.036C269.322 157.678 248.03 181.096 227.996 181.096C207.962 181.096 196.772 157.678 196.772 128.036C196.772 98.3937 213.046 75.5227 233.047 74.3637C264.73 72.5297 269.322 98.3937 269.322 128.036Z" fill="#F19798"/>
<path id="Vector_129" opacity="0.2" d="M269.322 128.036C269.322 157.678 248.03 181.096 227.996 181.096C207.962 181.096 196.772 157.678 196.772 128.036C196.772 98.3937 213.046 75.5227 233.047 74.3637C264.73 72.5297 269.322 98.3937 269.322 128.036Z" fill="black"/>
<path id="Vector_130" d="M226.772 141.034C230.491 141.034 233.506 137.2 233.506 132.471C233.506 127.742 230.491 123.908 226.772 123.908C223.052 123.908 220.037 127.742 220.037 132.471C220.037 137.2 223.052 141.034 226.772 141.034Z" fill="#F19798"/>
<path id="Vector_131" d="M250.649 133.694C254.368 133.694 257.383 129.86 257.383 125.131C257.383 120.402 254.368 116.568 250.649 116.568C246.929 116.568 243.914 120.402 243.914 125.131C243.914 129.86 246.929 133.694 250.649 133.694Z" fill="#F19798"/>
<path id="Vector_132" d="M190.166 22.3137C190.171 24.2317 189.723 26.1237 188.859 27.8367C187.718 30.1127 185.868 31.9567 183.587 33.0907C178.705 27.8877 173.378 23.1207 167.666 18.8417C168.175 17.0947 169.075 15.4867 170.299 14.1387C171.354 12.9637 172.644 12.0237 174.085 11.3777C175.527 10.7327 177.088 10.3967 178.668 10.3927C185.017 10.3927 190.166 15.7287 190.166 22.3137Z" fill="#FAD46F"/>
</g>
<defs>
<linearGradient id="paint0_linear" x1="230" y1="161.174" x2="230" y2="537.174" gradientUnits="userSpaceOnUse">
<stop offset="0.342496" stop-color="#12A874"/>
<stop offset="1" stop-color="#12A874" stop-opacity="0"/>
</linearGradient>
<linearGradient id="paint1_linear" x1="230" y1="161.174" x2="230" y2="537.174" gradientUnits="userSpaceOnUse">
<stop offset="0.342496" stop-color="#12A874"/>
<stop offset="1" stop-color="#12A874" stop-opacity="0"/>
</linearGradient>
<linearGradient id="paint2_linear" x1="345.036" y1="219.635" x2="345.036" y2="12.4488" gradientUnits="userSpaceOnUse">
<stop stop-color="#808080" stop-opacity="0.25"/>
<stop offset="0.53514" stop-color="#808080" stop-opacity="0.12"/>
<stop offset="1" stop-color="#808080" stop-opacity="0.1"/>
</linearGradient>
</defs>
</svg>
