<svg width="460" height="229" viewBox="0 0 460 229" fill="none" xmlns="http://www.w3.org/2000/svg">
<path opacity="0.1" d="M230 228.17C357.025 228.17 460 215.666 460 200.241C460 184.817 357.025 172.313 230 172.313C102.975 172.313 0 184.817 0 200.241C0 215.666 102.975 228.17 230 228.17Z" fill="#F19798"/>
<path d="M393.545 213.931C393.545 213.931 405.541 198.682 404.571 183.552C404.123 177.209 405.748 170.892 409.2 165.549C410.859 163.025 412.745 160.659 414.836 158.479" stroke="#535461" stroke-width="2" stroke-miterlimit="10"/>
<path d="M414.282 148.941C413.436 151.059 414.822 158.73 414.822 158.73C414.822 158.73 421.113 154.119 421.958 152.001C422.364 150.984 422.348 149.848 421.916 148.843C421.483 147.838 420.668 147.045 419.651 146.639C418.633 146.234 417.496 146.248 416.489 146.68C415.483 147.112 414.689 147.925 414.282 148.941Z" fill="#F19798"/>
<path d="M403.252 158.143C403.695 160.38 409.031 166.067 409.031 166.067C409.031 166.067 411.803 158.78 411.361 156.543C411.256 156.011 411.047 155.506 410.746 155.054C410.445 154.603 410.058 154.216 409.607 153.914C409.156 153.612 408.651 153.402 408.119 153.295C407.586 153.189 407.039 153.188 406.506 153.293C405.974 153.398 405.467 153.607 405.016 153.907C404.564 154.208 404.176 154.594 403.874 155.045C403.572 155.495 403.361 156 403.255 156.532C403.148 157.064 403.147 157.611 403.252 158.143Z" fill="#F19798"/>
<path d="M395.524 178.299C397.036 180.007 404.516 182.225 404.516 182.225C404.516 182.225 403.227 174.537 401.715 172.829C401.355 172.423 400.919 172.091 400.431 171.853C399.944 171.615 399.414 171.476 398.872 171.443C398.33 171.409 397.787 171.483 397.274 171.659C396.761 171.836 396.287 172.111 395.881 172.471C395.474 172.83 395.142 173.266 394.904 173.753C394.666 174.24 394.527 174.77 394.494 175.311C394.461 175.852 394.534 176.395 394.711 176.907C394.888 177.42 395.164 177.893 395.524 178.299Z" fill="#F19798"/>
<path d="M393.113 194.865C394.315 196.804 401.312 200.253 401.312 200.253C401.312 200.253 401.342 192.458 400.141 190.519C399.855 190.058 399.482 189.657 399.041 189.34C398.601 189.023 398.102 188.796 397.573 188.672C397.045 188.547 396.497 188.528 395.961 188.615C395.426 188.703 394.912 188.894 394.451 189.18C393.989 189.465 393.588 189.839 393.271 190.279C392.954 190.719 392.727 191.218 392.603 191.746C392.479 192.274 392.46 192.821 392.548 193.356C392.635 193.891 392.827 194.404 393.113 194.865Z" fill="#F19798"/>
<path d="M416.926 169.689C414.816 170.559 407.122 169.264 407.122 169.264C407.122 169.264 411.664 162.926 413.774 162.056C414.787 161.639 415.925 161.64 416.937 162.061C417.949 162.481 418.752 163.286 419.17 164.298C419.588 165.311 419.587 166.447 419.166 167.458C418.745 168.469 417.939 169.272 416.926 169.689Z" fill="#F19798"/>
<path d="M413.862 189.028C411.588 189.227 404.634 185.691 404.634 185.691C404.634 185.691 410.867 181.001 413.14 180.802C413.681 180.754 414.226 180.814 414.744 180.976C415.262 181.139 415.743 181.402 416.159 181.75C416.576 182.099 416.919 182.526 417.17 183.007C417.421 183.488 417.574 184.014 417.622 184.554C417.669 185.095 417.609 185.639 417.446 186.157C417.283 186.674 417.019 187.154 416.67 187.569C416.32 187.985 415.893 188.328 415.411 188.578C414.929 188.828 414.403 188.981 413.862 189.028Z" fill="#F19798"/>
<path d="M408.301 207.415C406.094 207.995 398.642 205.685 398.642 205.685C398.642 205.685 403.991 200.01 406.199 199.43C407.258 199.152 408.386 199.305 409.332 199.857C410.279 200.409 410.967 201.314 411.246 202.373C411.525 203.431 411.371 204.558 410.819 205.503C410.267 206.449 409.361 207.137 408.301 207.415Z" fill="#F19798"/>
<path opacity="0.25" d="M414.282 148.941C413.436 151.059 414.822 158.73 414.822 158.73C414.822 158.73 421.113 154.119 421.958 152.001C422.364 150.984 422.348 149.848 421.916 148.843C421.483 147.838 420.668 147.045 419.651 146.639C418.633 146.234 417.496 146.248 416.489 146.68C415.483 147.112 414.689 147.925 414.282 148.941Z" fill="black"/>
<path opacity="0.25" d="M403.252 158.143C403.695 160.38 409.031 166.067 409.031 166.067C409.031 166.067 411.803 158.78 411.361 156.543C411.256 156.011 411.047 155.506 410.746 155.054C410.445 154.603 410.058 154.216 409.607 153.914C409.156 153.612 408.651 153.402 408.119 153.295C407.586 153.189 407.039 153.188 406.506 153.293C405.974 153.398 405.467 153.607 405.016 153.907C404.564 154.208 404.176 154.594 403.874 155.045C403.572 155.495 403.361 156 403.255 156.532C403.148 157.064 403.147 157.611 403.252 158.143Z" fill="black"/>
<path opacity="0.25" d="M395.524 178.299C397.036 180.007 404.516 182.225 404.516 182.225C404.516 182.225 403.227 174.537 401.715 172.829C401.355 172.423 400.919 172.091 400.431 171.853C399.944 171.615 399.414 171.476 398.872 171.443C398.33 171.409 397.787 171.483 397.274 171.659C396.761 171.836 396.287 172.111 395.881 172.471C395.474 172.83 395.142 173.266 394.904 173.753C394.666 174.24 394.527 174.77 394.494 175.311C394.461 175.852 394.534 176.395 394.711 176.907C394.888 177.42 395.164 177.893 395.524 178.299Z" fill="black"/>
<path opacity="0.25" d="M393.113 194.865C394.315 196.804 401.312 200.253 401.312 200.253C401.312 200.253 401.342 192.458 400.141 190.519C399.855 190.058 399.482 189.657 399.041 189.34C398.601 189.023 398.102 188.796 397.573 188.672C397.045 188.547 396.497 188.528 395.961 188.615C395.426 188.703 394.912 188.894 394.451 189.18C393.989 189.465 393.588 189.839 393.271 190.279C392.954 190.719 392.727 191.218 392.603 191.746C392.479 192.274 392.46 192.821 392.548 193.356C392.635 193.891 392.827 194.404 393.113 194.865Z" fill="black"/>
<path opacity="0.25" d="M416.926 169.689C414.816 170.559 407.122 169.264 407.122 169.264C407.122 169.264 411.664 162.926 413.774 162.056C414.787 161.639 415.925 161.64 416.937 162.061C417.949 162.481 418.752 163.286 419.17 164.298C419.588 165.311 419.587 166.447 419.166 167.458C418.745 168.469 417.939 169.272 416.926 169.689Z" fill="black"/>
<path opacity="0.25" d="M413.862 189.028C411.588 189.227 404.634 185.691 404.634 185.691C404.634 185.691 410.867 181.001 413.14 180.802C413.681 180.754 414.226 180.814 414.744 180.976C415.262 181.139 415.743 181.402 416.159 181.75C416.576 182.099 416.919 182.526 417.17 183.007C417.421 183.488 417.574 184.014 417.622 184.554C417.669 185.095 417.609 185.639 417.446 186.157C417.283 186.674 417.019 187.154 416.67 187.569C416.32 187.985 415.893 188.328 415.411 188.578C414.929 188.828 414.403 188.981 413.862 189.028Z" fill="black"/>
<path opacity="0.25" d="M408.301 207.415C406.094 207.995 398.642 205.685 398.642 205.685C398.642 205.685 403.991 200.01 406.199 199.43C407.258 199.152 408.386 199.305 409.332 199.857C410.279 200.409 410.967 201.314 411.246 202.373C411.525 203.431 411.371 204.558 410.819 205.503C410.267 206.449 409.361 207.137 408.301 207.415Z" fill="black"/>
<path d="M393.647 213.296C393.647 213.296 410.799 204.211 416.049 189.987C418.213 184.006 422.26 178.889 427.583 175.402C430.124 173.766 432.808 172.367 435.604 171.22" stroke="#535461" stroke-width="2" stroke-miterlimit="10"/>
<path d="M438.966 162.276C437.334 163.87 435.489 171.444 435.489 171.444C435.489 171.444 443.111 169.775 444.743 168.181C445.527 167.416 445.974 166.371 445.987 165.276C445.999 164.181 445.576 163.126 444.81 162.343C444.044 161.56 442.998 161.113 441.902 161.1C440.806 161.088 439.75 161.511 438.966 162.276Z" fill="#F19798"/>
<path d="M425.15 166.223C424.647 168.447 427.219 175.807 427.219 175.807C427.219 175.807 432.709 170.267 433.212 168.043C433.332 167.515 433.346 166.967 433.254 166.433C433.162 165.899 432.965 165.388 432.675 164.93C432.386 164.471 432.009 164.074 431.565 163.761C431.122 163.449 430.621 163.226 430.092 163.107C429.563 162.987 429.015 162.973 428.48 163.065C427.945 163.157 427.434 163.353 426.975 163.642C426.516 163.932 426.119 164.309 425.806 164.752C425.493 165.194 425.27 165.695 425.15 166.223Z" fill="#F19798"/>
<path d="M409.909 181.522C410.598 183.695 416.537 188.751 416.537 188.751C416.537 188.751 418.477 181.201 417.787 179.027C417.623 178.51 417.359 178.031 417.01 177.616C416.66 177.201 416.233 176.859 415.751 176.61C415.269 176.36 414.743 176.208 414.202 176.161C413.661 176.115 413.117 176.175 412.6 176.339C412.082 176.503 411.602 176.767 411.187 177.116C410.772 177.465 410.43 177.892 410.18 178.373C409.93 178.855 409.777 179.38 409.731 179.921C409.684 180.461 409.745 181.005 409.909 181.522Z" fill="#F19798"/>
<path d="M400.986 195.691C401.297 197.95 406.296 203.935 406.296 203.935C406.296 203.935 409.485 196.821 409.173 194.563C409.099 194.025 408.919 193.508 408.645 193.04C408.371 192.573 408.007 192.163 407.575 191.836C407.142 191.509 406.649 191.27 406.124 191.132C405.599 190.995 405.052 190.963 404.515 191.037C403.977 191.111 403.459 191.29 402.991 191.564C402.523 191.838 402.113 192.202 401.785 192.634C401.458 193.066 401.218 193.558 401.081 194.083C400.944 194.607 400.911 195.154 400.986 195.691Z" fill="#F19798"/>
<path d="M432.968 182.315C430.686 182.256 424.177 177.957 424.177 177.957C424.177 177.957 430.901 174.002 433.182 174.061C434.278 174.089 435.317 174.551 436.072 175.345C436.826 176.139 437.234 177.2 437.206 178.295C437.177 179.389 436.715 180.428 435.92 181.182C435.125 181.936 434.063 182.343 432.968 182.315H432.968Z" fill="#F19798"/>
<path d="M422.322 198.754C420.162 198.015 415.239 191.968 415.239 191.968C415.239 191.968 422.839 190.203 424.998 190.942C426.035 191.296 426.889 192.048 427.371 193.031C427.853 194.015 427.925 195.149 427.57 196.185C427.215 197.221 426.462 198.073 425.478 198.555C424.494 199.037 423.359 199.108 422.322 198.754V198.754Z" fill="#F19798"/>
<path d="M409.78 213.313C407.527 212.95 401.651 207.82 401.651 207.82C401.651 207.82 408.843 204.798 411.097 205.162C412.179 205.336 413.147 205.933 413.788 206.82C414.43 207.708 414.692 208.814 414.518 209.895C414.343 210.976 413.746 211.943 412.857 212.584C411.969 213.225 410.862 213.487 409.78 213.313Z" fill="#F19798"/>
<path d="M223.237 187.715C231.771 187.715 238.69 180.378 238.69 171.328C238.69 162.278 231.771 154.942 223.237 154.942C214.703 154.942 207.784 162.278 207.784 171.328C207.784 180.378 214.703 187.715 223.237 187.715Z" fill="#FBD56F"/>
<path opacity="0.1" d="M223.237 187.715C231.771 187.715 238.69 180.378 238.69 171.328C238.69 162.278 231.771 154.942 223.237 154.942C214.703 154.942 207.784 162.278 207.784 171.328C207.784 180.378 214.703 187.715 223.237 187.715Z" fill="black"/>
<path d="M225.904 187.715C234.438 187.715 241.357 180.542 241.357 171.693C241.357 162.845 234.438 155.672 225.904 155.672C217.37 155.672 210.451 162.845 210.451 171.693C210.451 180.542 217.37 187.715 225.904 187.715Z" fill="#FBD56F"/>
<path d="M232.163 186.212L230.555 185.318C230.555 185.318 229.804 188.453 230.049 190.686C230.074 190.913 230.167 191.126 230.317 191.298C230.466 191.47 230.665 191.592 230.886 191.647C234.584 192.565 252.208 196.473 264.327 190.968C264.503 190.888 264.655 190.764 264.767 190.607C264.88 190.45 264.951 190.267 264.971 190.075C265.12 188.703 264.593 185.87 264.383 185.318C263.931 184.13 232.163 186.212 232.163 186.212Z" fill="#FBD56F"/>
<path opacity="0.1" d="M232.163 186.212L230.555 185.318C230.555 185.318 229.804 188.453 230.049 190.686C230.074 190.913 230.167 191.126 230.317 191.298C230.466 191.47 230.665 191.592 230.886 191.647C234.584 192.565 252.208 196.473 264.327 190.968C264.503 190.888 264.655 190.764 264.767 190.607C264.88 190.45 264.951 190.267 264.971 190.075C265.12 188.703 264.593 185.87 264.383 185.318C263.931 184.13 232.163 186.212 232.163 186.212Z" fill="black"/>
<path d="M247.469 189.127C256.811 189.127 264.383 187.422 264.383 185.318C264.383 183.215 256.811 181.509 247.469 181.509C238.128 181.509 230.555 183.215 230.555 185.318C230.555 187.422 238.128 189.127 247.469 189.127Z" fill="#FBD56F"/>
<path d="M238.625 180.593L237.018 179.699C237.018 179.699 236.266 182.833 236.512 185.066C236.536 185.293 236.629 185.507 236.779 185.679C236.928 185.851 237.127 185.972 237.349 186.028C241.046 186.945 258.67 190.854 270.789 185.349C270.965 185.268 271.117 185.144 271.23 184.987C271.343 184.831 271.413 184.648 271.433 184.456C271.582 183.083 271.056 180.25 270.846 179.699C270.394 178.511 238.625 180.593 238.625 180.593Z" fill="#FBD56F"/>
<path opacity="0.1" d="M238.625 180.593L237.018 179.699C237.018 179.699 236.266 182.833 236.512 185.066C236.536 185.293 236.629 185.507 236.779 185.679C236.928 185.851 237.127 185.972 237.349 186.028C241.046 186.945 258.67 190.854 270.789 185.349C270.965 185.268 271.117 185.144 271.23 184.987C271.343 184.831 271.413 184.648 271.433 184.456C271.582 183.083 271.056 180.25 270.846 179.699C270.394 178.511 238.625 180.593 238.625 180.593Z" fill="black"/>
<path d="M253.932 183.507C263.273 183.507 270.846 181.802 270.846 179.699C270.846 177.595 263.273 175.89 253.932 175.89C244.59 175.89 237.018 177.595 237.018 179.699C237.018 181.802 244.59 183.507 253.932 183.507Z" fill="#FBD56F"/>
<path d="M244.338 173.207L242.73 172.313C242.73 172.313 241.978 175.447 242.224 177.681C242.248 177.907 242.342 178.121 242.491 178.293C242.641 178.465 242.84 178.586 243.061 178.642C246.759 179.559 264.383 183.468 276.502 177.963C276.677 177.882 276.829 177.758 276.942 177.601C277.055 177.445 277.125 177.262 277.146 177.07C277.294 175.697 276.768 172.864 276.558 172.313C276.106 171.125 244.338 173.207 244.338 173.207Z" fill="#FBD56F"/>
<path opacity="0.1" d="M244.338 173.207L242.73 172.313C242.73 172.313 241.978 175.447 242.224 177.681C242.248 177.907 242.342 178.121 242.491 178.293C242.641 178.465 242.84 178.586 243.061 178.642C246.759 179.559 264.383 183.468 276.502 177.963C276.677 177.882 276.829 177.758 276.942 177.601C277.055 177.445 277.125 177.262 277.146 177.07C277.294 175.697 276.768 172.864 276.558 172.313C276.106 171.125 244.338 173.207 244.338 173.207Z" fill="black"/>
<path d="M259.644 176.121C268.986 176.121 276.558 174.416 276.558 172.313C276.558 170.209 268.986 168.504 259.644 168.504C250.303 168.504 242.73 170.209 242.73 172.313C242.73 174.416 250.303 176.121 259.644 176.121Z" fill="#FBD56F"/>
<path d="M238.011 165.518L236.404 164.624C236.404 164.624 235.652 167.758 235.898 169.992C235.922 170.218 236.015 170.432 236.165 170.604C236.314 170.776 236.513 170.898 236.735 170.953C240.432 171.87 258.056 175.779 270.175 170.274C270.351 170.194 270.503 170.069 270.616 169.913C270.729 169.756 270.799 169.573 270.819 169.381C270.968 168.008 270.442 165.176 270.232 164.624C269.78 163.436 238.011 165.518 238.011 165.518Z" fill="#FBD56F"/>
<path opacity="0.1" d="M238.011 165.518L236.404 164.624C236.404 164.624 235.652 167.758 235.898 169.992C235.922 170.218 236.015 170.432 236.165 170.604C236.314 170.776 236.513 170.898 236.735 170.953C240.432 171.87 258.056 175.779 270.175 170.274C270.351 170.194 270.503 170.069 270.616 169.913C270.729 169.756 270.799 169.573 270.819 169.381C270.968 168.008 270.442 165.176 270.232 164.624C269.78 163.436 238.011 165.518 238.011 165.518Z" fill="black"/>
<path d="M253.318 168.433C262.659 168.433 270.232 166.727 270.232 164.624C270.232 162.52 262.659 160.815 253.318 160.815C243.976 160.815 236.404 162.52 236.404 164.624C236.404 166.727 243.976 168.433 253.318 168.433Z" fill="#FBD56F"/>
<path d="M252.244 159.348L250.636 158.454C250.636 158.454 249.884 161.588 250.13 163.821C250.154 164.048 250.248 164.262 250.397 164.434C250.547 164.605 250.746 164.727 250.967 164.783C254.665 165.7 272.289 169.609 284.408 164.104C284.584 164.023 284.735 163.899 284.848 163.742C284.961 163.586 285.031 163.403 285.052 163.211C285.201 161.838 284.674 159.005 284.464 158.454C284.012 157.266 252.244 159.348 252.244 159.348Z" fill="#FBD56F"/>
<path opacity="0.1" d="M252.244 159.348L250.636 158.454C250.636 158.454 249.884 161.588 250.13 163.821C250.154 164.048 250.248 164.262 250.397 164.434C250.547 164.605 250.746 164.727 250.967 164.783C254.665 165.7 272.289 169.609 284.408 164.104C284.584 164.023 284.735 163.899 284.848 163.742C284.961 163.586 285.031 163.403 285.052 163.211C285.201 161.838 284.674 159.005 284.464 158.454C284.012 157.266 252.244 159.348 252.244 159.348Z" fill="black"/>
<path d="M267.55 162.262C276.892 162.262 284.464 160.557 284.464 158.454C284.464 156.35 276.892 154.645 267.55 154.645C258.209 154.645 250.636 156.35 250.636 158.454C250.636 160.557 258.209 162.262 267.55 162.262Z" fill="#FBD56F"/>
<path d="M242.628 155.2L241.02 154.306C241.02 154.306 240.268 157.441 240.514 159.674C240.538 159.901 240.632 160.114 240.781 160.286C240.931 160.458 241.13 160.58 241.351 160.635C245.049 161.553 262.673 165.461 274.792 159.956C274.968 159.876 275.119 159.752 275.232 159.595C275.345 159.439 275.415 159.255 275.436 159.063C275.585 157.691 275.058 154.858 274.848 154.306C274.396 153.119 242.628 155.2 242.628 155.2Z" fill="#FBD56F"/>
<path opacity="0.1" d="M242.628 155.2L241.02 154.306C241.02 154.306 240.268 157.441 240.514 159.674C240.538 159.901 240.632 160.114 240.781 160.286C240.931 160.458 241.13 160.58 241.351 160.635C245.049 161.553 262.673 165.461 274.792 159.956C274.968 159.876 275.119 159.752 275.232 159.595C275.345 159.439 275.415 159.255 275.436 159.063C275.585 157.691 275.058 154.858 274.848 154.306C274.396 153.119 242.628 155.2 242.628 155.2Z" fill="black"/>
<path d="M257.934 158.115C267.275 158.115 274.848 156.41 274.848 154.306C274.848 152.203 267.275 150.497 257.934 150.497C248.593 150.497 241.02 152.203 241.02 154.306C241.02 156.41 248.593 158.115 257.934 158.115Z" fill="#FBD56F"/>
<path d="M249.048 147.194L247.44 146.3C247.44 146.3 246.688 149.434 246.934 151.668C246.958 151.894 247.052 152.108 247.201 152.28C247.351 152.452 247.55 152.574 247.771 152.629C251.469 153.547 269.093 157.455 281.212 151.95C281.387 151.87 281.539 151.745 281.652 151.589C281.765 151.432 281.835 151.249 281.856 151.057C282.004 149.684 281.478 146.852 281.268 146.3C280.816 145.112 249.048 147.194 249.048 147.194Z" fill="#FBD56F"/>
<path opacity="0.1" d="M249.048 147.194L247.44 146.3C247.44 146.3 246.688 149.434 246.934 151.668C246.958 151.894 247.052 152.108 247.201 152.28C247.351 152.452 247.55 152.574 247.771 152.629C251.469 153.547 269.093 157.455 281.212 151.95C281.387 151.87 281.539 151.745 281.652 151.589C281.765 151.432 281.835 151.249 281.856 151.057C282.004 149.684 281.478 146.852 281.268 146.3C280.816 145.112 249.048 147.194 249.048 147.194Z" fill="black"/>
<path d="M264.354 150.109C273.696 150.109 281.268 148.404 281.268 146.3C281.268 144.196 273.696 142.491 264.354 142.491C255.013 142.491 247.44 144.196 247.44 146.3C247.44 148.404 255.013 150.109 264.354 150.109Z" fill="#FBD56F"/>
<path d="M252.215 137.691L250.607 136.797C250.607 136.797 249.855 139.931 250.101 142.165C250.125 142.391 250.219 142.605 250.368 142.777C250.518 142.949 250.717 143.07 250.938 143.126C254.636 144.043 272.26 147.952 284.379 142.447C284.554 142.367 284.706 142.242 284.819 142.086C284.932 141.929 285.002 141.746 285.023 141.554C285.171 140.181 284.645 137.349 284.435 136.797C283.983 135.609 252.215 137.691 252.215 137.691Z" fill="#FBD56F"/>
<path opacity="0.1" d="M252.215 137.691L250.607 136.797C250.607 136.797 249.855 139.931 250.101 142.165C250.125 142.391 250.219 142.605 250.368 142.777C250.518 142.949 250.717 143.07 250.938 143.126C254.636 144.043 272.26 147.952 284.379 142.447C284.554 142.367 284.706 142.242 284.819 142.086C284.932 141.929 285.002 141.746 285.023 141.554C285.171 140.181 284.645 137.349 284.435 136.797C283.983 135.609 252.215 137.691 252.215 137.691Z" fill="black"/>
<path d="M267.521 140.605C276.862 140.605 284.435 138.9 284.435 136.797C284.435 134.693 276.862 132.988 267.521 132.988C258.18 132.988 250.607 134.693 250.607 136.797C250.607 138.9 258.18 140.605 267.521 140.605Z" fill="#FBD56F"/>
<path d="M280.767 188.416L279.159 187.522C279.159 187.522 278.408 190.657 278.653 192.89C278.678 193.117 278.771 193.33 278.921 193.502C279.07 193.674 279.269 193.796 279.49 193.851C283.188 194.769 300.812 198.677 312.931 193.172C313.107 193.092 313.259 192.968 313.371 192.811C313.484 192.655 313.555 192.471 313.575 192.279C313.724 190.907 313.197 188.074 312.987 187.522C312.535 186.335 280.767 188.416 280.767 188.416Z" fill="#FBD56F"/>
<path opacity="0.1" d="M280.767 188.416L279.159 187.522C279.159 187.522 278.408 190.657 278.653 192.89C278.678 193.117 278.771 193.33 278.921 193.502C279.07 193.674 279.269 193.796 279.49 193.851C283.188 194.769 300.812 198.677 312.931 193.172C313.107 193.092 313.259 192.968 313.371 192.811C313.484 192.655 313.555 192.471 313.575 192.279C313.724 190.907 313.197 188.074 312.987 187.522C312.535 186.335 280.767 188.416 280.767 188.416Z" fill="black"/>
<path d="M296.073 191.331C305.415 191.331 312.987 189.626 312.987 187.522C312.987 185.419 305.415 183.713 296.073 183.713C286.732 183.713 279.159 185.419 279.159 187.522C279.159 189.626 286.732 191.331 296.073 191.331Z" fill="#FBD56F"/>
<path d="M286.48 181.031L284.872 180.136C284.872 180.136 284.12 183.271 284.366 185.504C284.39 185.731 284.484 185.945 284.633 186.116C284.783 186.288 284.982 186.41 285.203 186.466C288.901 187.383 306.525 191.291 318.644 185.786C318.82 185.706 318.971 185.582 319.084 185.425C319.197 185.269 319.268 185.085 319.288 184.894C319.437 183.521 318.91 180.688 318.7 180.136C318.248 178.949 286.48 181.031 286.48 181.031Z" fill="#FBD56F"/>
<path opacity="0.1" d="M286.48 181.031L284.872 180.136C284.872 180.136 284.12 183.271 284.366 185.504C284.39 185.731 284.484 185.945 284.633 186.116C284.783 186.288 284.982 186.41 285.203 186.466C288.901 187.383 306.525 191.291 318.644 185.786C318.82 185.706 318.971 185.582 319.084 185.425C319.197 185.269 319.268 185.085 319.288 184.894C319.437 183.521 318.91 180.688 318.7 180.136C318.248 178.949 286.48 181.031 286.48 181.031Z" fill="black"/>
<path d="M301.786 183.945C311.128 183.945 318.7 182.24 318.7 180.136C318.7 178.033 311.128 176.327 301.786 176.327C292.445 176.327 284.872 178.033 284.872 180.136C284.872 182.24 292.445 183.945 301.786 183.945Z" fill="#FBD56F"/>
<path d="M280.153 173.342L278.546 172.448C278.546 172.448 277.794 175.582 278.04 177.815C278.064 178.042 278.157 178.256 278.307 178.428C278.456 178.6 278.655 178.721 278.877 178.777C282.574 179.694 300.198 183.603 312.317 178.098C312.493 178.017 312.645 177.893 312.758 177.736C312.871 177.58 312.941 177.397 312.961 177.205C313.11 175.832 312.584 172.999 312.374 172.448C311.922 171.26 280.153 173.342 280.153 173.342Z" fill="#FBD56F"/>
<path opacity="0.1" d="M280.153 173.342L278.546 172.448C278.546 172.448 277.794 175.582 278.04 177.815C278.064 178.042 278.157 178.256 278.307 178.428C278.456 178.6 278.655 178.721 278.877 178.777C282.574 179.694 300.198 183.603 312.317 178.098C312.493 178.017 312.645 177.893 312.758 177.736C312.871 177.58 312.941 177.397 312.961 177.205C313.11 175.832 312.584 172.999 312.374 172.448C311.922 171.26 280.153 173.342 280.153 173.342Z" fill="black"/>
<path d="M295.46 176.256C304.801 176.256 312.374 174.551 312.374 172.448C312.374 170.344 304.801 168.639 295.46 168.639C286.119 168.639 278.546 170.344 278.546 172.448C278.546 174.551 286.119 176.256 295.46 176.256Z" fill="#FBD56F"/>
<path d="M294.385 167.171L292.778 166.277C292.778 166.277 292.026 169.412 292.272 171.645C292.296 171.872 292.389 172.085 292.539 172.257C292.689 172.429 292.888 172.551 293.109 172.606C296.807 173.524 314.43 177.432 326.55 171.927C326.725 171.847 326.877 171.723 326.99 171.566C327.103 171.41 327.173 171.226 327.194 171.034C327.342 169.662 326.816 166.829 326.606 166.277C326.154 165.09 294.385 167.171 294.385 167.171Z" fill="#FBD56F"/>
<path opacity="0.1" d="M294.385 167.171L292.778 166.277C292.778 166.277 292.026 169.412 292.272 171.645C292.296 171.872 292.389 172.085 292.539 172.257C292.689 172.429 292.888 172.551 293.109 172.606C296.807 173.524 314.43 177.432 326.55 171.927C326.725 171.847 326.877 171.723 326.99 171.566C327.103 171.41 327.173 171.226 327.194 171.034C327.342 169.662 326.816 166.829 326.606 166.277C326.154 165.09 294.385 167.171 294.385 167.171Z" fill="black"/>
<path d="M309.692 170.086C319.034 170.086 326.606 168.381 326.606 166.277C326.606 164.174 319.034 162.469 309.692 162.469C300.351 162.469 292.778 164.174 292.778 166.277C292.778 168.381 300.351 170.086 309.692 170.086Z" fill="#FBD56F"/>
<path d="M284.77 163.024L283.162 162.13C283.162 162.13 282.41 165.264 282.656 167.498C282.68 167.725 282.774 167.938 282.923 168.11C283.073 168.282 283.272 168.404 283.493 168.459C287.191 169.377 304.815 173.285 316.934 167.78C317.109 167.7 317.261 167.575 317.374 167.419C317.487 167.262 317.557 167.079 317.578 166.887C317.726 165.515 317.2 162.682 316.99 162.13C316.538 160.942 284.77 163.024 284.77 163.024Z" fill="#FBD56F"/>
<path opacity="0.1" d="M284.77 163.024L283.162 162.13C283.162 162.13 282.41 165.264 282.656 167.498C282.68 167.725 282.774 167.938 282.923 168.11C283.073 168.282 283.272 168.404 283.493 168.459C287.191 169.377 304.815 173.285 316.934 167.78C317.109 167.7 317.261 167.575 317.374 167.419C317.487 167.262 317.557 167.079 317.578 166.887C317.726 165.515 317.2 162.682 316.99 162.13C316.538 160.942 284.77 163.024 284.77 163.024Z" fill="black"/>
<path d="M300.076 165.939C309.417 165.939 316.99 164.234 316.99 162.13C316.99 160.026 309.417 158.321 300.076 158.321C290.735 158.321 283.162 160.026 283.162 162.13C283.162 164.234 290.735 165.939 300.076 165.939Z" fill="#FBD56F"/>
<path d="M291.19 155.018L289.582 154.124C289.582 154.124 288.83 157.258 289.076 159.492C289.1 159.718 289.194 159.932 289.343 160.104C289.493 160.276 289.692 160.398 289.913 160.453C293.611 161.37 311.235 165.279 323.354 159.774C323.53 159.694 323.681 159.569 323.794 159.413C323.907 159.256 323.977 159.073 323.998 158.881C324.147 157.508 323.62 154.676 323.41 154.124C322.958 152.936 291.19 155.018 291.19 155.018Z" fill="#FBD56F"/>
<path opacity="0.1" d="M291.19 155.018L289.582 154.124C289.582 154.124 288.83 157.258 289.076 159.492C289.1 159.718 289.194 159.932 289.343 160.104C289.493 160.276 289.692 160.398 289.913 160.453C293.611 161.37 311.235 165.279 323.354 159.774C323.53 159.694 323.681 159.569 323.794 159.413C323.907 159.256 323.977 159.073 323.998 158.881C324.147 157.508 323.62 154.676 323.41 154.124C322.958 152.936 291.19 155.018 291.19 155.018Z" fill="black"/>
<path d="M306.496 157.933C315.838 157.933 323.41 156.227 323.41 154.124C323.41 152.02 315.838 150.315 306.496 150.315C297.155 150.315 289.582 152.02 289.582 154.124C289.582 156.227 297.155 157.933 306.496 157.933Z" fill="#FBD56F"/>
<path d="M294.356 145.514L292.749 144.62C292.749 144.62 291.997 147.755 292.243 149.988C292.267 150.215 292.36 150.428 292.51 150.6C292.66 150.772 292.859 150.894 293.08 150.949C296.778 151.867 314.402 155.775 326.521 150.27C326.696 150.19 326.848 150.066 326.961 149.909C327.074 149.753 327.144 149.569 327.165 149.377C327.313 148.005 326.787 145.172 326.577 144.62C326.125 143.433 294.356 145.514 294.356 145.514Z" fill="#FBD56F"/>
<path opacity="0.1" d="M294.356 145.514L292.749 144.62C292.749 144.62 291.997 147.755 292.243 149.988C292.267 150.215 292.36 150.428 292.51 150.6C292.66 150.772 292.859 150.894 293.08 150.949C296.778 151.867 314.402 155.775 326.521 150.27C326.696 150.19 326.848 150.066 326.961 149.909C327.074 149.753 327.144 149.569 327.165 149.377C327.313 148.005 326.787 145.172 326.577 144.62C326.125 143.433 294.356 145.514 294.356 145.514Z" fill="black"/>
<path d="M309.663 148.429C319.004 148.429 326.577 146.724 326.577 144.62C326.577 142.517 319.004 140.812 309.663 140.812C300.322 140.812 292.749 142.517 292.749 144.62C292.749 146.724 300.322 148.429 309.663 148.429Z" fill="#FBD56F"/>
<path d="M396.304 210.834C393.95 210.751 393.866 209.839 390.839 208.264C389.13 207.376 386.535 204.794 384.601 202.717C384.446 202.551 384.296 202.388 384.151 202.23C384.663 202.218 384.953 202.213 384.953 202.213C384.953 202.213 384.196 195.582 384.869 194.007C385.541 192.432 385.037 183.065 385.037 183.065C385.037 183.065 385.457 175.937 384.7 174.279C383.944 172.621 384.953 162.011 384.953 162.011C384.953 162.011 385.625 155.711 385.794 142.863C385.962 130.015 378.394 129.6 378.394 129.6C378.394 129.6 377.385 129.522 375.853 129.376C375.706 129.362 375.55 129.347 375.394 129.332C376.386 127.257 376.965 125.704 376.965 125.704C376.965 125.704 375.703 113.685 375.367 111.613C375.031 109.54 373.013 101.003 373.013 101.003C373.013 101.003 371.583 97.3554 370.742 94.7858C369.901 92.2161 367.379 89.2321 367.379 89.2321C367.379 89.2321 362.838 80.2798 361.577 78.9535C360.992 78.3384 360.171 77.5626 359.46 76.9077C359.331 76.7896 359.209 76.6775 359.09 76.5689C359.28 75.6347 359.381 74.6846 359.391 73.7313C359.391 73.7313 354.682 69.0894 354.346 67.9289C354.009 66.7684 349.553 62.4581 349.553 62.4581C349.553 62.4581 347.03 57.8161 344.171 57.7332C342.821 57.6567 341.466 57.6977 340.122 57.8559C340.709 55.6847 341.404 53.4102 342.027 51.4584C342.097 51.2408 342.165 51.0288 342.232 50.8199C344.517 49.2764 346.31 47.11 347.398 44.5783C347.457 44.4436 347.511 44.3076 347.565 44.1715C347.596 44.1723 347.626 44.1772 347.656 44.1768C347.774 44.1755 347.893 44.1647 348.01 44.1448C348.951 43.9833 349.747 42.9215 349.313 42.0836C349.341 42.1309 349.382 42.1698 349.43 42.1963C349.478 42.2228 349.533 42.2359 349.588 42.2341C349.901 42.2237 350.284 41.7704 350.358 41.3715C350.37 41.3023 350.377 41.2323 350.388 41.1629C350.401 41.0763 350.416 40.9899 350.426 40.903C350.435 40.8213 350.442 40.7393 350.449 40.6574C350.456 40.5728 350.462 40.4883 350.467 40.4035C350.471 40.3242 350.473 40.2449 350.474 40.1655C350.476 40.0742 350.476 39.9829 350.474 39.8916C350.473 39.8185 350.472 39.7455 350.468 39.6725C350.463 39.5613 350.454 39.4505 350.444 39.3397C350.439 39.2943 350.438 39.2485 350.433 39.2032L350.432 39.2097C350.383 38.7568 350.293 38.3093 350.162 37.8729C349.697 36.3322 348.722 34.8042 349.098 33.24C349.102 33.2232 349.109 33.2078 349.114 33.1911L349.114 33.1941C349.427 31.9803 350.479 31.0984 351.122 30.0138C351.183 29.9104 351.237 29.8036 351.29 29.6966C351.3 29.677 351.312 29.6583 351.321 29.6385C351.36 29.5579 351.393 29.4751 351.427 29.3927C351.449 29.3398 351.473 29.2876 351.493 29.234C351.52 29.1617 351.542 29.0881 351.566 29.0148C351.587 28.948 351.61 28.8816 351.629 28.814C351.647 28.749 351.662 28.6833 351.677 28.6176C351.696 28.5385 351.715 28.4595 351.73 28.3797C351.741 28.3224 351.749 28.2648 351.758 28.2071C351.772 28.1166 351.785 28.0259 351.795 27.9347C351.8 27.8853 351.804 27.8358 351.808 27.7862C351.816 27.6845 351.822 27.5827 351.824 27.4804C351.825 27.4395 351.826 27.3986 351.826 27.3576C351.826 27.2459 351.823 27.1342 351.817 27.0225C351.815 26.9889 351.814 26.9555 351.811 26.922C351.803 26.8029 351.79 26.6843 351.775 26.5657C351.772 26.5486 351.772 26.5314 351.769 26.5142L351.769 26.5189C351.626 25.4773 351.21 24.4918 350.564 23.6619C349.828 22.7864 348.898 22.0942 347.847 21.6403C346.797 21.1863 345.655 20.9831 344.512 21.0467C343.88 21.1179 343.243 21.1297 342.609 21.0817C341.553 20.9271 340.66 20.2572 339.819 19.6099C337.471 17.8032 335.124 15.9966 332.776 14.19C331.99 13.508 331.089 12.9724 330.114 12.6088C329.118 12.3045 327.925 12.4095 327.188 13.136C325.87 14.4361 326.708 16.6733 326.179 18.4362C325.72 19.963 324.244 20.9977 322.716 21.5135C321.188 22.0292 319.552 22.1424 317.982 22.5157C317.515 22.5914 317.077 22.7924 316.715 23.0972C316.309 23.5904 316.111 24.2228 316.165 24.8595C316.155 26.4207 316.531 27.9603 317.258 29.342C317.555 29.905 317.915 30.4737 318.231 31.0505C318.257 31.0982 318.282 31.1459 318.308 31.1937C318.343 31.2598 318.378 31.326 318.412 31.3925C318.467 31.5002 318.519 31.6083 318.568 31.7167C318.59 31.7635 318.609 31.8105 318.629 31.8574C318.662 31.9342 318.693 32.0111 318.723 32.0881C318.742 32.1372 318.76 32.1863 318.778 32.2355C318.809 32.3262 318.838 32.4172 318.863 32.5083C319.032 33.0444 319.047 33.6166 318.909 34.1612C318.667 35.0522 317.971 35.7386 317.357 36.4347C316.856 36.9785 316.499 37.6391 316.319 38.3561L316.316 38.3721C316.282 38.5388 316.276 38.71 316.297 38.8788C316.3 38.8998 316.303 38.921 316.307 38.9413C316.315 38.9789 316.325 39.016 316.338 39.0522C316.347 39.0786 316.358 39.1043 316.371 39.1294C316.383 39.159 316.398 39.1877 316.415 39.2153C316.445 39.2616 316.481 39.3039 316.521 39.3413C316.54 39.3569 316.56 39.3715 316.58 39.385C316.614 39.4102 316.65 39.4324 316.688 39.4512C316.711 39.4626 316.735 39.4734 316.76 39.4829C316.816 39.5037 316.874 39.5194 316.932 39.5299C316.949 39.5329 316.963 39.5381 316.98 39.5406C317.07 39.5521 317.16 39.556 317.251 39.552C317.277 39.5512 317.305 39.548 317.333 39.546C317.419 39.5395 317.505 39.5286 317.591 39.5134C317.622 39.5079 317.653 39.5029 317.686 39.4961C317.81 39.4706 317.94 39.4392 318.082 39.3947C318.555 39.2522 319.014 39.0708 319.456 38.8522C319.456 38.9027 319.452 38.9525 319.452 39.0031C319.452 39.0901 319.452 39.1813 319.461 39.2684C319.484 40.8939 319.792 42.5029 320.369 44.0229C321.27 46.3916 322.783 48.4799 324.754 50.0755C324.73 50.2187 324.703 50.3625 324.674 50.5068C324.268 52.4946 323.421 54.4889 322.898 54.3347C322.386 54.2207 321.863 54.1635 321.339 54.164C321.18 54.1593 321.026 54.1571 320.88 54.1563L320.88 54.1557C320.405 54.1008 319.925 54.1008 319.45 54.1557C319.238 54.1702 319.025 54.1408 318.825 54.0695C317.466 53.6418 316.022 53.5608 314.624 53.8341C311.716 54.4293 307.293 55.5184 306.081 56.8215C304.231 58.8109 301.54 60.7174 298.513 69.0065C298.513 69.0065 297 74.0629 295.822 74.7261C296.082 74.5917 296.348 74.472 296.621 74.3674C296.465 74.6413 296.249 74.877 295.991 75.0576C296.417 74.8399 296.86 74.6554 297.315 74.5059C296.396 79.9065 297.756 95.3547 297.756 95.3547C297.756 95.3547 296.663 98.0186 298.093 99.5935C298.942 100.53 299.404 101.989 299.64 103.022C299.574 103.125 299.505 103.233 299.433 103.344V103.345C298.676 104.517 297.664 106.046 297 106.888C295.822 108.38 296.159 113.105 296.159 113.105C296.159 113.105 295.906 115.343 295.066 116.172C294.225 117.001 294.393 120.068 294.393 120.068L292.207 128.108C292.207 128.108 290.189 129.932 290.189 130.761C290.189 131.59 288.591 133.911 288.591 133.911C288.591 133.911 286.153 137.889 288.591 137.309C289.48 137.049 290.314 136.63 291.053 136.072L291.052 136.132C291.048 136.278 291.045 136.426 291.043 136.576C290.974 140.91 291.447 147.007 294.645 147.007C299.606 147.007 312.387 152.893 312.387 152.893C314.994 154.882 318.525 154.219 318.525 154.219C318.525 154.219 312.303 160.436 312.471 163.006C312.639 165.575 308.94 169.803 308.94 169.803L297.504 192.1C297.568 193.654 297.844 195.192 298.324 196.671C298.269 196.718 298.213 196.763 298.16 196.812C293.766 200.822 293.384 208.762 293.384 208.762L292.375 212.823L307.678 219.538C307.678 219.538 327.522 219.952 330.97 219.04C334.418 218.128 333.661 214.315 329.12 213.569C324.58 212.823 323.486 210.834 321.973 209.922C320.952 209.307 317.326 205.332 315.076 202.812C315.042 202.773 315.011 202.738 314.977 202.7L315.498 199.809C316.507 199.312 318.021 194.338 318.021 194.338C318.021 194.338 318.021 192.349 319.03 191.769C320.039 191.189 322.141 185.22 322.141 185.22C322.141 185.22 326.682 177.677 326.429 176.683C326.177 175.688 329.709 170.632 329.709 170.632C329.709 170.632 335.679 164.829 335.427 163.793C335.174 162.757 340.219 157.452 340.219 157.452C342.042 156.061 343.562 154.314 344.684 152.316C345.138 152.243 345.626 152.165 346.141 152.079C352.743 150.998 363.714 149.043 364.94 148.499C366.622 147.753 366.286 151.069 365.613 153.887C364.94 156.706 364.436 170.217 365.193 171.958C365.949 173.698 365.613 176.517 365.613 176.517L364.604 191.686L365.277 194.919C365.277 194.919 363.006 196.742 363.931 197.82C364.856 198.897 364.015 203.539 364.015 203.539C364.095 203.51 364.189 203.481 364.295 203.453C364.214 203.635 364.137 203.822 364.068 204.019C362.764 207.73 363.511 213.818 363.511 213.818V218.626C363.511 218.626 386.803 219.04 391.932 219.04C397.061 219.04 404.124 216.553 404.545 214.564C404.965 212.575 398.659 210.917 396.304 210.834ZM330.058 124.54L328.532 124.668C329.038 124.595 329.547 124.552 330.058 124.54ZM339.36 60.9152C339.574 59.9563 339.833 58.9249 340.119 57.867L339.36 60.9152ZM342.237 126.865C340.782 127.44 339.163 127.442 337.707 126.87L337.697 126.865C337.697 126.865 337.781 121.062 338.454 118.659C339.126 116.255 340.051 111.861 340.051 111.861C340.051 111.861 340.808 105.81 341.565 103.075C342.321 100.34 345.264 85.0875 346.778 84.0928C348.292 83.098 349.132 84.8388 349.132 84.8388C349.132 84.8388 349.359 84.8342 349.737 84.7922C349.809 84.9513 349.889 85.1204 349.978 85.2997C351.773 88.922 357.036 96.3607 357.036 96.3607C358.598 97.323 359.92 98.6267 360.904 100.174C362.334 102.578 362.754 108.214 362.754 108.214C362.754 108.214 365.949 120.731 367.463 122.472C368.22 123.342 367.883 123.861 367.359 124.161C366.286 124.747 365.375 125.588 364.705 126.609C364.49 126.951 364.262 127.326 364.03 127.726C363.452 127.592 362.934 127.453 362.502 127.307C358.382 125.925 344.508 125.87 342.237 126.865Z" fill="url(#paint0_linear)"/>
<path d="M362.959 213.867V218.634C362.959 218.634 385.75 219.045 390.769 219.045C395.788 219.045 402.7 216.579 403.111 214.606C403.523 212.634 397.352 210.99 395.048 210.907C392.744 210.825 392.662 209.921 389.7 208.359C388.028 207.478 385.489 204.919 383.596 202.859C382.137 201.269 381.06 199.975 381.06 199.975C381.06 199.975 368.801 199.729 365.263 201.701C364.448 202.157 363.886 203.048 363.504 204.149C362.229 207.83 362.959 213.867 362.959 213.867Z" fill="white"/>
<path opacity="0.1" d="M363.504 204.149C366.074 203.257 381.123 202.91 383.596 202.859C382.137 201.269 381.061 199.975 381.061 199.975C381.061 199.975 368.801 199.729 365.263 201.701C364.448 202.157 363.886 203.048 363.504 204.149Z" fill="black"/>
<path d="M297.383 128.134C297.383 128.134 297.858 128.422 298.712 128.937C298.867 129.029 299.033 129.131 299.211 129.237C299.752 129.565 300.402 129.954 301.145 130.401C311.485 136.627 339.694 153.504 341.237 153.369C341.642 153.335 342.858 153.152 344.537 152.879C344.981 152.807 345.458 152.73 345.962 152.644C352.422 151.572 363.158 149.634 364.358 149.095C366.003 148.355 365.674 151.643 365.016 154.438C364.358 157.232 363.864 170.631 364.605 172.357C365.345 174.083 365.016 176.878 365.016 176.878L364.029 191.92L364.687 195.126C364.687 195.126 362.465 196.934 363.37 198.002C364.275 199.071 363.453 203.674 363.453 203.674C366.086 202.688 383.94 202.359 383.94 202.359C383.94 202.359 383.2 195.783 383.858 194.221C384.516 192.66 384.022 183.371 384.022 183.371C384.022 183.371 384.434 176.302 383.693 174.658C382.953 173.014 383.94 162.493 383.94 162.493C383.94 162.493 384.598 156.246 384.763 143.505C384.927 130.765 377.522 130.354 377.522 130.354C377.522 130.354 376.535 130.276 375.036 130.132C372.103 129.851 367.216 129.313 363.951 128.605C363.282 128.466 362.621 128.291 361.972 128.08C357.94 126.709 344.364 126.655 342.142 127.641C340.72 128.212 339.133 128.213 337.709 127.646L337.699 127.641L335.972 124.846L319.468 126.252L317.719 126.402L301.472 127.786L300.355 127.881L297.383 128.134Z" fill="black"/>
<path opacity="0.1" d="M363.535 140.743C368.329 143.078 372.903 134.802 375.036 130.132C372.104 129.851 367.216 129.313 363.951 128.604C361.804 132.205 358.939 138.506 363.535 140.743Z" fill="black"/>
<path d="M349.136 84.8161C349.237 85.3813 349.433 85.9251 349.717 86.4239C351.473 90.0159 356.624 97.3924 356.624 97.3924C358.156 98.35 359.45 99.6429 360.409 101.173C361.807 103.557 362.219 109.147 362.219 109.147C362.219 109.147 365.345 121.559 366.826 123.285C367.567 124.148 367.238 124.662 366.724 124.96C365.672 125.544 364.78 126.378 364.128 127.388C361.97 130.853 358.526 137.727 363.371 140.086C369.953 143.292 376.124 126.49 376.124 126.49C376.124 126.49 374.89 114.572 374.56 112.517C374.231 110.462 372.257 101.995 372.257 101.995C372.257 101.995 370.858 98.3787 370.035 95.8306C369.212 93.2825 366.744 90.3234 366.744 90.3234C366.744 90.3234 362.301 81.446 361.067 80.1309C360.494 79.5209 359.691 78.7516 358.995 78.1022C358.19 77.3509 357.529 76.7607 357.529 76.7607C357.529 76.7607 349.054 82.8434 349.136 84.8161Z" fill="#F9AE8E"/>
<path d="M293.351 212.88L308.326 219.538C308.326 219.538 327.744 219.949 331.117 219.045C334.491 218.141 333.75 214.36 329.307 213.62C324.864 212.88 323.794 210.907 322.313 210.003C321.315 209.393 317.767 205.451 315.565 202.952C314.505 201.749 313.756 200.879 313.756 200.879C313.756 200.879 310.877 193.235 302.896 194.961C301.439 195.275 300.096 195.982 299.012 197.003C294.712 200.98 294.339 208.852 294.339 208.852L293.351 212.88Z" fill="white"/>
<path opacity="0.1" d="M299.211 129.237C299.753 129.565 300.403 129.954 301.145 130.401C311.486 136.627 339.694 153.504 341.237 153.369C341.642 153.334 342.858 153.152 344.537 152.879C344.981 152.807 345.458 152.73 345.962 152.644C345.982 152.613 346 152.582 346.018 152.55C346.846 151.105 347.48 149.556 347.902 147.944C349.63 141.368 341.073 136.354 341.073 136.354L339.263 134.948C337.206 131.488 322.396 128.216 322.396 128.216L320.487 126.936L319.468 126.252L319.2 126.073L316.883 124.518L305.282 125.34L301.836 127.552L301.472 127.786L300.194 128.608L299.211 129.237Z" fill="black"/>
<path opacity="0.1" d="M299.012 197.003C302.162 207.886 315.32 204.332 315.32 204.332L315.565 202.952C314.505 201.749 313.757 200.879 313.757 200.879C313.757 200.879 310.877 193.235 302.896 194.961C301.439 195.275 300.096 195.982 299.012 197.003Z" fill="black"/>
<path d="M295.573 147.615C300.427 147.615 312.934 153.451 312.934 153.451C315.484 155.424 318.94 154.766 318.94 154.766C318.94 154.766 312.851 160.931 313.016 163.479C313.18 166.027 309.56 170.22 309.56 170.22L298.37 192.331C299.193 208.031 315.32 203.674 315.32 203.674L315.978 199.975C316.965 199.482 318.446 194.55 318.446 194.55C318.446 194.55 318.446 192.577 319.434 192.002C320.421 191.427 322.478 185.508 322.478 185.508C322.478 185.508 326.921 178.028 326.674 177.042C326.427 176.056 329.883 171.042 329.883 171.042C329.883 171.042 335.725 165.288 335.478 164.26C335.231 163.233 340.168 157.972 340.168 157.972C341.956 156.589 343.443 154.856 344.537 152.879C345.365 151.433 345.999 149.885 346.421 148.273C347.813 142.978 342.534 138.693 340.426 137.229C339.916 136.874 339.592 136.683 339.592 136.683L337.782 135.277C336.847 133.702 333.273 132.169 329.654 130.964C327.044 130.094 324.41 129.395 322.726 128.976C321.612 128.7 320.915 128.545 320.915 128.545L319.006 127.265L318.334 126.814L317.719 126.402L315.402 124.846L310.24 125.211L303.801 125.668L300.355 127.881L298.713 128.937L292.282 133.066C292.282 133.066 292.112 134.648 292.058 136.77C292.055 136.934 292.051 137.1 292.048 137.271C291.98 141.569 292.443 147.615 295.573 147.615Z" fill="black"/>
<path d="M320.339 55.5536L322.067 61.7185C322.067 61.7185 325.111 72.322 325.44 73.0617C325.769 73.8015 333.75 81.2815 334.079 81.4459C334.409 81.6103 338.754 84.0762 338.754 84.0762C338.754 84.0762 339.098 70.5136 338.769 66.5681C338.741 65.7013 338.813 64.8342 338.983 63.9838C339.508 60.8915 340.836 56.3575 341.937 52.8658C342.859 49.9395 343.624 47.7448 343.624 47.7448C343.624 47.7448 324.371 46.9229 325.029 48.8134C325.277 49.5285 325.197 50.7237 324.956 51.9221C324.56 53.8932 323.73 55.8709 323.219 55.718C322.718 55.605 322.206 55.5482 321.693 55.5487C320.982 55.5273 320.339 55.5536 320.339 55.5536Z" fill="#F9AE8E"/>
<path opacity="0.1" d="M324.956 51.9221C327.308 53.8834 330.231 55.0345 333.29 55.2045C336.349 55.3745 339.382 54.5543 341.937 52.8658C342.859 49.9395 343.624 47.7448 343.624 47.7448C343.624 47.7448 324.37 46.9229 325.029 48.8134C325.277 49.5285 325.197 50.7237 324.956 51.9221Z" fill="black"/>
<path d="M348.315 40.5148C348.316 42.0229 348.076 43.5216 347.604 44.954C347.485 45.3238 347.347 45.6873 347.192 46.0433C346.084 48.6658 344.213 50.8956 341.822 52.4442C339.431 53.9929 336.63 54.789 333.781 54.7297C330.932 54.6704 328.167 53.7583 325.843 52.1114C323.518 50.4646 321.742 48.1589 320.744 45.4925C320.179 43.9837 319.878 42.3887 319.855 40.7778C319.847 40.6915 319.847 40.6011 319.847 40.5148C319.847 36.7434 321.347 33.1264 324.016 30.4596C326.686 27.7929 330.306 26.2947 334.081 26.2947C337.856 26.2947 341.477 27.7929 344.146 30.4596C346.816 33.1264 348.315 36.7434 348.315 40.5148H348.315Z" fill="#F9AE8E"/>
<path opacity="0.1" d="M320.339 55.5537L322.067 61.7186C322.067 61.7186 325.111 72.3221 325.44 73.0618C325.769 73.8016 333.75 81.2816 334.079 81.446C334.409 81.6104 338.754 84.0764 338.754 84.0764C338.754 84.0764 339.098 70.5137 338.769 66.5682C338.741 65.7014 338.813 64.8343 338.983 63.9839L337.864 68.541L337.947 77.6649L338.605 78.1581L337.124 80.3774V78.7335C337.124 78.7335 331.858 73.6372 331.035 71.5001C330.212 69.3629 327.25 65.4931 327.25 65.4931C327.25 65.4931 323.877 59.828 323.795 58.8416C323.73 58.0723 322.314 56.2935 321.693 55.5488C320.982 55.5274 320.339 55.5537 320.339 55.5537Z" fill="black"/>
<path opacity="0.1" d="M349.136 84.8161C349.237 85.3813 349.433 85.9251 349.717 86.4239C351.516 86.2398 357.646 85.0972 358.995 78.1022C358.19 77.3509 357.529 76.7607 357.529 76.7607C357.529 76.7607 349.054 82.8434 349.136 84.8161Z" fill="black"/>
<path opacity="0.1" d="M292.048 137.271C293.708 136.098 295.288 134.496 296.231 134.053C297.63 133.395 299.769 131.258 299.769 131.258C299.769 131.258 300.312 130.89 301.145 130.401C302.672 129.507 305.175 128.212 307.092 128.052C308.81 127.909 314.517 127.544 319.006 127.265C322.254 127.061 324.864 126.901 324.864 126.901C324.864 126.901 330.212 125.011 332.516 126.244C334.166 127.07 335.905 127.704 337.699 128.134C337.699 128.134 337.701 127.955 337.709 127.646L337.699 127.641L335.972 124.846L317.719 126.402L315.402 124.846L303.801 125.668L300.355 127.881L297.383 128.134C297.383 128.134 297.858 128.422 298.712 128.937L292.282 133.066C292.282 133.066 292.084 134.903 292.048 137.271Z" fill="black"/>
<path d="M289.649 137.998C290.52 137.74 291.337 137.324 292.058 136.772V136.77C293.715 135.598 295.29 134.002 296.231 133.559C297.63 132.902 299.769 130.765 299.769 130.765C299.769 130.765 304.13 127.806 307.092 127.559C307.9 127.492 309.588 127.375 311.617 127.243C313.694 127.105 316.124 126.951 318.335 126.814C319.608 126.734 320.808 126.658 321.821 126.596C323.638 126.484 324.864 126.408 324.864 126.408C324.864 126.408 330.212 124.518 332.516 125.751C334.166 126.576 335.905 127.211 337.7 127.641C337.7 127.641 337.782 121.887 338.44 119.504C339.098 117.12 340.003 112.763 340.003 112.763C340.003 112.763 340.744 106.763 341.484 104.05C342.225 101.338 345.105 86.2135 346.586 85.2271C348.067 84.2407 348.89 85.9669 348.89 85.9669C348.89 85.9669 358.763 85.8025 358.928 74.9524C358.928 74.9524 354.32 70.3493 353.991 69.1985C353.662 68.0478 349.301 63.7735 349.301 63.7735C349.301 63.7735 346.833 59.1704 344.035 59.0882C342.713 59.0123 341.387 59.053 340.073 59.2099L337.7 68.8698L337.782 77.9937L338.44 78.4869L336.959 80.7062V79.0623C336.959 79.0623 331.693 73.966 330.871 71.8289C330.048 69.6917 327.086 65.8219 327.086 65.8219C327.086 65.8219 323.712 60.1568 323.63 59.1704C323.548 58.1841 321.244 55.5406 321.244 55.5406C320.779 55.4861 320.31 55.4861 319.845 55.5406C319.637 55.5549 319.429 55.5258 319.233 55.4551C317.905 55.031 316.49 54.9507 315.122 55.2216C312.277 55.8118 307.949 56.8919 306.763 58.184C304.953 60.1568 302.32 62.0473 299.358 70.2671L315.32 76.0209L313.954 78.6151L301.25 102.735C301.25 102.735 300.829 103.421 300.258 104.317V104.318C299.517 105.481 298.527 106.996 297.877 107.831C296.725 109.311 297.054 113.996 297.054 113.996C297.054 113.996 296.807 116.216 295.984 117.038C295.162 117.86 295.326 120.901 295.326 120.901L293.187 128.874C293.187 128.874 291.212 130.682 291.212 131.504C291.212 132.326 289.649 134.628 289.649 134.628C289.649 134.628 287.263 138.573 289.649 137.998Z" fill="#434175"/>
<path opacity="0.1" d="M373.902 143.916C373.902 143.916 368.719 145.642 367.32 148.108C365.921 150.574 373.902 143.916 373.902 143.916Z" fill="black"/>
<path opacity="0.1" d="M371.269 138.491C371.105 138.738 364.17 145.69 364.605 147.369C365.04 149.047 371.269 138.491 371.269 138.491Z" fill="black"/>
<path opacity="0.1" d="M333.174 143.423C333.174 143.423 325.44 147.067 324.782 148.656C324.124 150.245 333.174 143.423 333.174 143.423Z" fill="black"/>
<path opacity="0.1" d="M332.681 148.108C332.681 148.108 325.701 151.067 324.748 151.807C323.794 152.547 332.681 148.108 332.681 148.108Z" fill="black"/>
<path opacity="0.1" d="M329.472 154.438C329.472 154.438 326.38 156.739 324.676 154.931C322.972 153.123 329.472 154.438 329.472 154.438Z" fill="black"/>
<path opacity="0.1" d="M341.074 94.4332C340.909 94.6798 330.624 113.174 327.909 114.572C325.193 115.969 341.074 94.4332 341.074 94.4332Z" fill="black"/>
<path opacity="0.1" d="M340.579 101.42C340.579 101.831 330.541 123.285 328.896 123.531C327.25 123.778 340.579 101.42 340.579 101.42Z" fill="black"/>
<path opacity="0.1" d="M302.402 115.229C302.402 115.229 297.554 125.572 295.655 126.162C293.757 126.751 302.402 115.229 302.402 115.229Z" fill="black"/>
<path opacity="0.1" d="M301.579 110.626C301.579 110.626 299.908 114.243 298.892 114.243C297.877 114.243 301.579 110.626 301.579 110.626Z" fill="black"/>
<path opacity="0.1" d="M348.315 40.5148C348.316 42.0229 348.076 43.5216 347.603 44.954C347.485 45.3238 347.347 45.6873 347.192 46.0433C346.461 45.9326 345.773 45.6306 345.196 45.1678C344.586 44.7542 344.075 44.2093 343.703 43.5729C343.422 42.8949 343.179 42.2019 342.975 41.4972C342.646 40.7017 342.111 40.0083 341.425 39.4887C340.738 38.9691 339.925 38.6422 339.07 38.5418C339.543 39.3474 338.79 40.4531 337.865 40.597C336.939 40.7367 336.038 40.1859 335.4 39.4995C334.762 38.813 334.301 37.9786 333.668 37.2922C333.03 36.6057 332.129 36.0549 331.203 36.1947C330.384 36.318 329.751 36.9428 329.064 37.4073C328.381 37.8717 327.422 38.1841 326.759 37.6868C326.389 37.4114 326.208 36.9428 325.854 36.6427C324.945 35.8823 323.53 36.6674 322.859 37.6498C321.826 39.1706 321.197 40.0914 319.855 40.7778C319.847 40.6915 319.847 40.6011 319.847 40.5148C319.847 36.7434 321.347 33.1264 324.016 30.4596C326.686 27.7929 330.306 26.2947 334.081 26.2947C337.856 26.2947 341.477 27.7929 344.146 30.4596C346.816 33.1264 348.315 36.7434 348.315 40.5148Z" fill="black"/>
<path d="M322.86 37.2386C323.53 36.2554 324.944 35.4694 325.856 36.2336C326.21 36.5302 326.39 36.9993 326.759 37.277C327.421 37.7748 328.381 37.4625 329.065 36.9963C329.749 36.5302 330.384 35.9082 331.203 35.7838C332.128 35.643 333.031 36.1944 333.667 36.8814C334.303 37.5684 334.764 38.4019 335.4 39.0887C336.036 39.7756 336.938 40.3264 337.864 40.1849C338.79 40.0433 339.545 38.9366 339.069 38.1307C339.924 38.2314 340.737 38.5584 341.423 39.0779C342.109 39.5974 342.644 40.2907 342.973 41.0859C343.177 41.7905 343.421 42.4834 343.702 43.1613C344.074 43.7976 344.585 44.3422 345.197 44.7547C345.952 45.3076 346.867 45.7739 347.789 45.6135C348.711 45.4532 349.492 44.3974 349.064 43.566C349.358 44.0132 349.991 43.3903 350.087 42.8634C350.295 41.708 350.23 40.5199 349.896 39.3942C349.442 37.8663 348.488 36.3511 348.856 34.8C349.147 33.572 350.197 32.6902 350.835 31.6008C351.965 29.6696 351.665 27.0681 350.29 25.3021C349.576 24.4365 348.667 23.7508 347.639 23.3004C346.61 22.8499 345.49 22.6473 344.368 22.7088C343.75 22.7794 343.126 22.791 342.506 22.7434C341.473 22.5902 340.599 21.9259 339.776 21.2839L332.884 15.9094C332.118 15.2343 331.235 14.7031 330.279 14.3415C329.305 14.0398 328.138 14.1439 327.417 14.8642C326.127 16.1534 326.947 18.372 326.429 20.1201C325.98 21.6341 324.536 22.6602 323.04 23.1716C321.545 23.683 319.945 23.7953 318.408 24.1655C317.95 24.241 317.521 24.4404 317.169 24.7421C316.77 25.2333 316.577 25.8595 316.63 26.4897C316.62 28.0361 316.988 29.5617 317.7 30.9346C318.498 32.468 319.763 34.0441 319.315 35.7135C319.078 36.597 318.397 37.2777 317.796 37.968C316.494 39.4644 316.054 41.6756 318.505 40.9032C320.866 40.1591 321.528 39.1949 322.86 37.2386Z" fill="black"/>
<g opacity="0.1">
<path opacity="0.1" d="M350.088 41.2428C349.993 41.7697 349.36 42.3926 349.065 41.9454C349.494 42.7768 348.713 43.8326 347.791 43.9929C346.868 44.1533 345.953 43.687 345.198 43.1341C344.587 42.7216 344.076 42.177 343.703 41.5407C343.422 40.8628 343.179 40.1699 342.974 39.4653C342.646 38.6701 342.111 37.9769 341.425 37.4573C340.738 36.9378 339.926 36.6108 339.07 36.5101C339.546 37.316 338.792 38.4227 337.866 38.5643C336.94 38.7058 336.037 38.155 335.401 37.4681C334.765 36.7813 334.304 35.9478 333.668 35.2608C333.032 34.5738 332.13 34.0225 331.204 34.1632C330.386 34.2876 329.75 34.9096 329.066 35.3757C328.382 35.8419 327.422 36.1542 326.761 35.6564C326.392 35.3787 326.211 34.9097 325.857 34.613C324.946 33.8488 323.531 34.6349 322.862 35.618C321.529 37.5743 320.867 38.5385 318.507 39.2826C317.732 39.5268 317.247 39.4716 316.986 39.2361C316.468 40.4246 316.704 41.4713 318.507 40.9032C320.867 40.1591 321.529 39.1948 322.862 37.2385C323.531 36.2554 324.946 35.4694 325.857 36.2336C326.211 36.5302 326.392 36.9993 326.761 37.277C327.422 37.7748 328.382 37.4624 329.066 36.9963C329.75 36.5302 330.386 35.9082 331.204 35.7838C332.13 35.643 333.032 36.1944 333.668 36.8814C334.304 37.5684 334.765 38.4019 335.401 39.0887C336.037 39.7755 336.94 40.3264 337.866 40.1849C338.792 40.0433 339.546 38.9365 339.07 38.1306C339.926 38.2313 340.738 38.5583 341.425 39.0779C342.111 39.5974 342.646 40.2906 342.974 41.0859C343.179 41.7905 343.422 42.4834 343.703 43.1613C344.076 43.7976 344.587 44.3421 345.198 44.7547C345.953 45.3076 346.868 45.7738 347.791 45.6135C348.713 45.4532 349.494 44.3974 349.065 43.5659C349.36 44.0132 349.993 43.3902 350.088 42.8634C350.216 42.154 350.241 41.4298 350.162 40.7132C350.143 40.8905 350.12 41.0674 350.088 41.2428Z" fill="black"/>
<path opacity="0.1" d="M319.296 34.1553C319.302 34.1341 319.311 34.1143 319.317 34.0929C319.765 32.4235 318.5 30.8474 317.702 29.3141C317.142 28.2327 316.795 27.0543 316.679 25.8424C316.648 26.0568 316.632 26.2731 316.632 26.4896C316.622 28.0361 316.989 29.5617 317.702 30.9346C318.247 31.9828 319.01 33.051 319.296 34.1553Z" fill="black"/>
<path opacity="0.1" d="M350.836 29.9802C350.198 31.0696 349.148 31.9514 348.857 33.1794C348.744 33.699 348.749 34.2371 348.872 34.7545C349.178 33.5508 350.207 32.6762 350.836 31.6008C351.43 30.5474 351.653 29.3255 351.47 28.1305C351.38 28.7822 351.165 29.4104 350.836 29.9802Z" fill="black"/>
</g>
<path opacity="0.1" d="M300.258 104.317V104.318C300.367 104.772 300.451 105.231 300.51 105.694C300.51 105.694 307.01 120.901 307.832 121.805C308.086 122.083 309.04 123.451 310.24 125.211C310.674 125.848 311.14 126.536 311.617 127.243C314.105 130.932 316.883 135.121 316.883 135.121L322.972 140.464C322.972 140.464 336.217 141.523 340.426 137.229C339.916 136.874 339.592 136.683 339.592 136.683L337.782 135.277C336.847 133.702 333.273 132.169 329.654 130.964C326.32 130.988 323.594 131.258 323.594 131.258L322.726 128.976L321.821 126.596L317.219 114.49C317.219 114.49 314.25 99.2007 313.263 98.4609C312.275 97.7212 312.522 95.4196 312.522 95.4196C312.522 95.4196 314.332 88.926 313.674 88.0218C313.016 87.1177 314.744 80.4596 314.744 80.4596C314.572 79.8096 314.306 79.1882 313.954 78.6151L301.25 102.735C301.25 102.735 300.829 103.421 300.258 104.317Z" fill="black"/>
<path d="M314.908 79.9665C314.908 79.9665 313.18 86.6245 313.839 87.5287C314.497 88.4328 312.687 94.9265 312.687 94.9265C312.687 94.9265 312.44 97.228 313.427 97.9678C314.415 98.7076 317.383 113.996 317.383 113.996L323.758 130.765C323.758 130.765 343.706 128.792 341.649 135.039C339.592 141.286 323.136 139.971 323.136 139.971L317.048 134.628C317.048 134.628 308.82 122.216 307.997 121.312C307.174 120.408 300.674 105.201 300.674 105.201C300.674 105.201 300.345 102.16 298.946 100.598C297.548 99.0364 298.617 96.3948 298.617 96.3948C298.617 96.3948 296.889 76.5141 298.699 74.1304C300.51 71.7467 313.016 72.8153 314.908 79.9665Z" fill="#F9AE8E"/>
<path opacity="0.1" d="M304.706 67.4724L299.522 70.5959C299.522 70.5959 298.041 75.61 296.889 76.2676C296.889 76.2676 307.257 70.5137 315.073 83.7475C315.073 83.7475 314.826 82.0214 315.896 81.1994C316.965 80.3774 316.719 76.8429 316.719 76.8429C317.003 76.2845 317.251 75.7078 317.459 75.1168C318.2 73.3084 314.332 62.9515 304.706 67.4724Z" fill="black"/>
<path d="M304.541 67.1435L299.358 70.2671C299.358 70.2671 297.877 75.2811 296.725 75.9387C296.725 75.9387 307.092 70.1849 314.908 83.4187C314.908 83.4187 314.661 81.6926 315.731 80.8706C316.801 80.0486 316.554 76.5141 316.554 76.5141C316.838 75.9556 317.086 75.379 317.294 74.7879C318.035 72.9796 314.168 62.6227 304.541 67.1435Z" fill="#434175"/>
<path d="M258.34 211.094C266.874 211.094 273.793 203.757 273.793 194.707C273.793 185.657 266.874 178.321 258.34 178.321C249.806 178.321 242.887 185.657 242.887 194.707C242.887 203.757 249.806 211.094 258.34 211.094Z" fill="#FBD56F"/>
<path opacity="0.1" d="M258.34 211.094C266.874 211.094 273.793 203.757 273.793 194.707C273.793 185.657 266.874 178.321 258.34 178.321C249.806 178.321 242.887 185.657 242.887 194.707C242.887 203.757 249.806 211.094 258.34 211.094Z" fill="black"/>
<path d="M261.007 211.094C269.541 211.094 276.46 203.921 276.46 195.072C276.46 186.224 269.541 179.051 261.007 179.051C252.473 179.051 245.554 186.224 245.554 195.072C245.554 203.921 252.473 211.094 261.007 211.094Z" fill="#FBD56F"/>
<path d="M37.0893 203.712C47.6298 203.712 56.1746 202.269 56.1746 200.489C56.1746 198.709 47.6298 197.266 37.0893 197.266C26.5487 197.266 18.0039 198.709 18.0039 200.489C18.0039 202.269 26.5487 203.712 37.0893 203.712Z" fill="#F19798"/>
<path d="M44.9809 195.216C45.7982 194.457 46.5649 193.562 46.8004 192.473C47.0359 191.383 46.5711 190.077 45.529 189.678C44.3612 189.232 43.1134 190.041 42.1673 190.858C41.2212 191.674 40.1369 192.606 38.8987 192.433C39.5357 191.856 40.0122 191.125 40.2819 190.309C40.5516 189.494 40.6052 188.623 40.4376 187.781C40.3833 187.433 40.2353 187.106 40.0097 186.836C39.3614 186.143 38.1863 186.441 37.4101 186.986C34.9418 188.721 34.253 192.07 34.2396 195.085C33.9907 193.998 34.2003 192.864 34.1942 191.749C34.188 190.633 33.882 189.397 32.9401 188.798C32.3533 188.482 31.6934 188.327 31.0273 188.348C29.9178 188.308 28.682 188.419 27.9243 189.23C26.9828 190.237 27.2269 191.927 28.046 193.036C28.8651 194.145 30.111 194.84 31.2578 195.606C32.1777 196.153 32.9623 196.901 33.553 197.793C33.6225 197.917 33.6795 198.048 33.7232 198.184H40.6792C42.2406 197.393 43.6877 196.395 44.9809 195.216Z" fill="#F19798"/>
<path d="M209.683 179.471C210.533 180.634 211.229 181.903 211.752 183.245C211.89 183.592 212.025 183.956 212.153 184.339C214.209 190.478 210.951 197.84 210.02 197.046C209.089 196.252 206.186 194.778 205.625 196.849C205.064 198.919 202.99 201.035 202.99 201.035C199.213 204.831 195.794 200.73 193.55 196.493C192.817 195.095 192.165 193.656 191.597 192.183C191.099 190.882 190.813 189.983 190.813 189.983L206.545 176.591C206.545 176.591 208.066 177.289 209.683 179.471Z" fill="#F19798"/>
<path d="M184.888 188.034C185.738 189.197 186.433 190.466 186.956 191.808C187.095 192.155 187.23 192.519 187.358 192.902C189.414 199.041 186.156 206.403 185.225 205.608C184.293 204.814 181.391 203.341 180.829 205.411C180.268 207.482 178.195 209.598 178.195 209.598C174.418 213.393 170.999 209.293 168.755 205.056C168.021 203.658 167.369 202.219 166.802 200.746C166.304 199.445 166.018 198.545 166.018 198.545L181.75 185.154C181.75 185.154 183.271 185.852 184.888 188.034Z" fill="#F19798"/>
<path d="M135.101 199.864C135.013 201.301 134.738 202.721 134.283 204.088C134.168 204.443 134.039 204.81 133.893 205.186C131.554 211.223 124.343 214.814 124.133 213.609C123.924 212.403 122.63 209.419 120.875 210.655C119.121 211.891 116.173 212.198 116.173 212.198C110.84 212.712 110.828 207.375 111.806 202.682C112.135 201.139 112.552 199.615 113.057 198.12C113.504 196.8 113.858 195.925 113.858 195.925L134.525 195.646C134.525 195.646 135.25 197.153 135.101 199.864Z" fill="#F19798"/>
<path d="M108.398 193.136C108.31 194.573 108.035 195.993 107.58 197.36C107.465 197.715 107.336 198.082 107.19 198.458C104.852 204.495 97.6406 208.086 97.4307 206.881C97.2209 205.676 95.9275 202.691 94.1728 203.927C92.4181 205.163 89.4701 205.47 89.4701 205.47C84.1376 205.984 84.125 200.647 85.1039 195.955C85.4324 194.411 85.8497 192.887 86.3539 191.392C86.8015 190.072 87.1557 189.197 87.1557 189.197L107.822 188.918C107.822 188.918 108.548 190.425 108.398 193.136Z" fill="#F19798"/>
<path opacity="0.2" d="M209.683 179.471C210.533 180.634 211.229 181.903 211.752 183.245C211.89 183.592 212.025 183.956 212.153 184.339C214.209 190.478 210.951 197.84 210.02 197.046C209.089 196.252 206.186 194.778 205.625 196.849C205.064 198.919 202.99 201.035 202.99 201.035C199.213 204.831 195.794 200.73 193.55 196.493C192.817 195.095 192.165 193.656 191.597 192.183C191.099 190.882 190.813 189.983 190.813 189.983L206.545 176.591C206.545 176.591 208.066 177.289 209.683 179.471Z" fill="black"/>
<path opacity="0.2" d="M184.888 188.034C185.738 189.197 186.433 190.466 186.956 191.808C187.095 192.155 187.23 192.519 187.358 192.902C189.414 199.041 186.156 206.403 185.225 205.608C184.293 204.814 181.391 203.341 180.829 205.411C180.268 207.482 178.195 209.598 178.195 209.598C174.418 213.393 170.999 209.293 168.755 205.056C168.021 203.658 167.369 202.219 166.802 200.746C166.304 199.445 166.018 198.545 166.018 198.545L181.75 185.154C181.75 185.154 183.271 185.852 184.888 188.034Z" fill="black"/>
<path opacity="0.2" d="M135.101 199.864C135.013 201.301 134.738 202.721 134.283 204.088C134.168 204.443 134.039 204.81 133.893 205.186C131.554 211.223 124.343 214.814 124.133 213.609C123.924 212.403 122.63 209.419 120.875 210.655C119.121 211.891 116.173 212.198 116.173 212.198C110.84 212.712 110.828 207.375 111.806 202.682C112.135 201.139 112.552 199.615 113.057 198.12C113.504 196.8 113.858 195.925 113.858 195.925L134.525 195.646C134.525 195.646 135.25 197.153 135.101 199.864Z" fill="black"/>
<path opacity="0.2" d="M108.398 193.136C108.31 194.573 108.035 195.993 107.58 197.36C107.465 197.715 107.336 198.082 107.19 198.458C104.852 204.495 97.6406 208.086 97.4307 206.881C97.2209 205.676 95.9275 202.691 94.1728 203.927C92.4181 205.163 89.4701 205.47 89.4701 205.47C84.1376 205.984 84.125 200.647 85.1039 195.955C85.4324 194.411 85.8497 192.887 86.3539 191.392C86.8015 190.072 87.1557 189.197 87.1557 189.197L107.822 188.918C107.822 188.918 108.548 190.425 108.398 193.136Z" fill="black"/>
<path d="M251.649 102.651C251.649 157.796 232.976 202.501 146.803 202.501C88.8988 202.501 44.1007 188.127 41.9579 102.651C40.5758 47.5233 88.8988 2.802 146.803 2.802C204.708 2.802 251.649 47.506 251.649 102.651Z" fill="#FFAAA5"/>
<path opacity="0.2" d="M127.135 4.54517H127.148C127.145 4.54681 127.142 4.54785 127.138 4.54823L127.135 4.54517Z" fill="black"/>
<path opacity="0.2" d="M127.34 4.51148C127.607 4.46868 128.133 4.39527 128.898 4.33716L127.193 4.539C127.218 4.53288 127.248 4.52676 127.285 4.52065C127.304 4.51758 127.319 4.51452 127.34 4.51148Z" fill="black"/>
<path opacity="0.2" d="M204.813 45.3106L197.16 48.0629C193.258 42.8363 189.061 37.8372 184.587 33.0901C179.705 27.8875 174.378 23.1202 168.666 18.8421C149.072 4.33414 133.916 3.9641 128.911 4.33717L140.415 2.98547C151.287 4.8544 161.743 8.63031 171.299 14.1386C177.984 17.9886 184.211 22.5839 189.859 27.8362C199.875 37.1239 204.813 45.3106 204.813 45.3106Z" fill="black"/>
<path opacity="0.2" d="M135.63 50.5094C135.63 50.5094 125.528 16.8695 134.099 7.69499C134.099 7.69499 147.569 3.10774 157.67 29.1022L135.63 50.5094Z" fill="black"/>
<path d="M186.782 19.0898C186.782 19.0898 213.572 -3.65301 225.423 0.508653C225.423 0.508653 235.034 10.9929 215.254 30.6678L186.782 19.0898Z" fill="#F19798"/>
<path opacity="0.2" d="M186.782 19.0898C186.782 19.0898 213.572 -3.65301 225.423 0.508653C225.423 0.508653 235.034 10.9929 215.254 30.6678L186.782 19.0898Z" fill="black"/>
<path d="M270.322 128.034C270.322 157.676 249.03 181.093 228.996 181.093C208.962 181.093 197.772 157.676 197.772 128.034C197.772 98.3925 214.046 75.5215 234.047 74.3632C265.73 72.5283 270.322 98.3924 270.322 128.034Z" fill="#F19798"/>
<path opacity="0.2" d="M270.322 128.034C270.322 157.676 249.03 181.093 228.996 181.093C208.962 181.093 197.772 157.676 197.772 128.034C197.772 98.3925 214.046 75.5215 234.047 74.3632C265.73 72.5283 270.322 98.3924 270.322 128.034Z" fill="black"/>
<path d="M227.772 141.031C231.491 141.031 234.506 137.197 234.506 132.468C234.506 127.739 231.491 123.905 227.772 123.905C224.052 123.905 221.037 127.739 221.037 132.468C221.037 137.197 224.052 141.031 227.772 141.031Z" fill="#F19798"/>
<path d="M251.649 133.692C255.368 133.692 258.383 129.858 258.383 125.129C258.383 120.4 255.368 116.566 251.649 116.566C247.929 116.566 244.914 120.4 244.914 125.129C244.914 129.858 247.929 133.692 251.649 133.692Z" fill="#F19798"/>
<path d="M191.166 22.3131C191.171 24.2311 190.723 26.1232 189.859 27.8361C188.718 30.1122 186.868 31.9561 184.587 33.0901C179.705 27.8875 174.378 23.1201 168.666 18.8421C169.175 17.0949 170.075 15.4865 171.299 14.1386C172.354 12.9637 173.644 12.0232 175.085 11.3779C176.527 10.7326 178.088 10.3968 179.668 10.3923C186.017 10.3923 191.166 15.7288 191.166 22.3131Z" fill="#FAD46F"/>
<defs>
<linearGradient id="paint0_linear" x1="346.036" y1="219.632" x2="346.036" y2="12.4487" gradientUnits="userSpaceOnUse">
<stop stop-color="#808080" stop-opacity="0.25"/>
<stop offset="0.53514" stop-color="#808080" stop-opacity="0.12"/>
<stop offset="1" stop-color="#808080" stop-opacity="0.1"/>
</linearGradient>
</defs>
</svg>
