<svg width="500" height="269" viewBox="0 0 500 269" fill="none" xmlns="http://www.w3.org/2000/svg">
<g filter="url(#filter0_d)">
<path opacity="0.1" d="M250 245C377.025 245 480 232.496 480 217.071C480 201.646 377.025 189.142 250 189.142C122.975 189.142 20 201.646 20 217.071C20 232.496 122.975 245 250 245Z" fill="#F19798"/>
<path d="M413.545 230.761C413.545 230.761 425.541 215.511 424.571 200.381C424.123 194.038 425.748 187.721 429.2 182.378C430.859 179.854 432.745 177.488 434.836 175.308" stroke="#535461" stroke-width="2" stroke-miterlimit="10"/>
<path d="M434.282 165.77C433.436 167.888 434.822 175.559 434.822 175.559C434.822 175.559 441.113 170.948 441.958 168.83C442.364 167.813 442.348 166.677 441.916 165.672C441.483 164.666 440.668 163.874 439.651 163.468C438.633 163.063 437.496 163.077 436.489 163.509C435.483 163.94 434.689 164.754 434.282 165.77Z" fill="#F19798"/>
<path d="M423.252 174.972C423.695 177.209 429.031 182.896 429.031 182.896C429.031 182.896 431.803 175.609 431.361 173.372C431.256 172.84 431.047 172.334 430.746 171.883C430.445 171.432 430.058 171.044 429.607 170.742C429.156 170.441 428.651 170.23 428.118 170.124C427.586 170.017 427.039 170.017 426.506 170.122C425.974 170.227 425.467 170.435 425.016 170.736C424.564 171.037 424.176 171.423 423.874 171.873C423.572 172.324 423.361 172.829 423.255 173.361C423.148 173.892 423.147 174.44 423.252 174.972Z" fill="#F19798"/>
<path d="M415.524 195.128C417.036 196.836 424.516 199.054 424.516 199.054C424.516 199.054 423.227 191.366 421.715 189.658C421.355 189.252 420.919 188.92 420.432 188.682C419.944 188.445 419.414 188.305 418.872 188.272C418.33 188.238 417.787 188.312 417.274 188.488C416.761 188.665 416.287 188.941 415.881 189.3C415.474 189.659 415.143 190.095 414.905 190.582C414.667 191.069 414.527 191.599 414.494 192.14C414.461 192.681 414.535 193.224 414.711 193.737C414.888 194.249 415.164 194.722 415.524 195.128Z" fill="#F19798"/>
<path d="M413.113 211.695C414.315 213.633 421.312 217.082 421.312 217.082C421.312 217.082 421.342 209.287 420.141 207.348C419.855 206.887 419.482 206.487 419.041 206.17C418.601 205.853 418.102 205.625 417.573 205.501C417.045 205.377 416.497 205.358 415.961 205.445C415.426 205.532 414.912 205.724 414.451 206.009C413.989 206.295 413.588 206.668 413.271 207.109C412.954 207.549 412.727 208.047 412.603 208.575C412.479 209.103 412.46 209.65 412.548 210.186C412.635 210.721 412.827 211.234 413.113 211.695Z" fill="#F19798"/>
<path d="M436.926 186.518C434.816 187.388 427.122 186.093 427.122 186.093C427.122 186.093 431.665 179.755 433.774 178.885C434.788 178.468 435.925 178.469 436.937 178.89C437.949 179.31 438.753 180.115 439.171 181.127C439.589 182.14 439.587 183.276 439.166 184.287C438.745 185.298 437.939 186.101 436.926 186.518Z" fill="#F19798"/>
<path d="M433.862 205.857C431.588 206.056 424.634 202.521 424.634 202.521C424.634 202.521 430.867 197.831 433.14 197.632C433.681 197.584 434.226 197.643 434.744 197.806C435.262 197.968 435.743 198.231 436.159 198.58C436.575 198.928 436.919 199.355 437.17 199.836C437.421 200.317 437.574 200.843 437.622 201.384C437.669 201.924 437.609 202.469 437.446 202.986C437.283 203.503 437.019 203.983 436.67 204.399C436.32 204.814 435.893 205.157 435.411 205.407C434.929 205.657 434.403 205.81 433.862 205.857Z" fill="#F19798"/>
<path d="M428.301 224.245C426.094 224.825 418.642 222.514 418.642 222.514C418.642 222.514 423.991 216.84 426.199 216.26C427.258 215.981 428.386 216.135 429.332 216.686C430.279 217.238 430.968 218.143 431.246 219.202C431.525 220.261 431.371 221.387 430.819 222.333C430.267 223.279 429.361 223.966 428.301 224.245Z" fill="#F19798"/>
<path opacity="0.25" d="M434.282 165.77C433.436 167.888 434.822 175.559 434.822 175.559C434.822 175.559 441.113 170.948 441.958 168.83C442.364 167.813 442.348 166.677 441.916 165.672C441.483 164.666 440.668 163.874 439.651 163.468C438.633 163.063 437.496 163.077 436.489 163.509C435.483 163.94 434.689 164.754 434.282 165.77Z" fill="black"/>
<path opacity="0.25" d="M423.252 174.972C423.695 177.209 429.031 182.896 429.031 182.896C429.031 182.896 431.803 175.609 431.361 173.372C431.256 172.84 431.047 172.334 430.746 171.883C430.445 171.432 430.058 171.044 429.607 170.742C429.156 170.441 428.651 170.23 428.118 170.124C427.586 170.017 427.039 170.017 426.506 170.122C425.974 170.227 425.467 170.435 425.016 170.736C424.564 171.037 424.176 171.423 423.874 171.873C423.572 172.324 423.361 172.829 423.255 173.361C423.148 173.892 423.147 174.44 423.252 174.972Z" fill="black"/>
<path opacity="0.25" d="M415.524 195.128C417.036 196.836 424.516 199.054 424.516 199.054C424.516 199.054 423.227 191.366 421.715 189.658C421.355 189.252 420.919 188.92 420.432 188.682C419.944 188.445 419.414 188.305 418.872 188.272C418.33 188.238 417.787 188.312 417.274 188.488C416.761 188.665 416.287 188.941 415.881 189.3C415.474 189.659 415.143 190.095 414.905 190.582C414.667 191.069 414.527 191.599 414.494 192.14C414.461 192.681 414.535 193.224 414.711 193.737C414.888 194.249 415.164 194.722 415.524 195.128Z" fill="black"/>
<path opacity="0.25" d="M413.113 211.695C414.315 213.633 421.312 217.082 421.312 217.082C421.312 217.082 421.342 209.287 420.141 207.348C419.855 206.887 419.482 206.487 419.041 206.17C418.601 205.853 418.102 205.625 417.573 205.501C417.045 205.377 416.497 205.358 415.961 205.445C415.426 205.532 414.912 205.724 414.451 206.009C413.989 206.295 413.588 206.668 413.271 207.109C412.954 207.549 412.727 208.047 412.603 208.575C412.479 209.103 412.46 209.65 412.548 210.186C412.635 210.721 412.827 211.234 413.113 211.695Z" fill="black"/>
<path opacity="0.25" d="M436.926 186.518C434.816 187.388 427.122 186.093 427.122 186.093C427.122 186.093 431.665 179.755 433.774 178.885C434.788 178.468 435.925 178.469 436.937 178.89C437.949 179.31 438.753 180.115 439.171 181.127C439.589 182.14 439.587 183.276 439.166 184.287C438.745 185.298 437.939 186.101 436.926 186.518Z" fill="black"/>
<path opacity="0.25" d="M433.862 205.857C431.588 206.056 424.634 202.521 424.634 202.521C424.634 202.521 430.867 197.831 433.14 197.632C433.681 197.584 434.226 197.643 434.744 197.806C435.262 197.968 435.743 198.231 436.159 198.58C436.575 198.928 436.919 199.355 437.17 199.836C437.421 200.317 437.574 200.843 437.622 201.384C437.669 201.924 437.609 202.469 437.446 202.986C437.283 203.503 437.019 203.983 436.67 204.399C436.32 204.814 435.893 205.157 435.411 205.407C434.929 205.657 434.403 205.81 433.862 205.857Z" fill="black"/>
<path opacity="0.25" d="M428.301 224.245C426.094 224.825 418.642 222.514 418.642 222.514C418.642 222.514 423.991 216.84 426.199 216.26C427.258 215.981 428.386 216.135 429.332 216.686C430.279 217.238 430.968 218.143 431.246 219.202C431.525 220.261 431.371 221.387 430.819 222.333C430.267 223.279 429.361 223.966 428.301 224.245Z" fill="black"/>
<path d="M413.647 230.126C413.647 230.126 430.799 221.041 436.049 206.816C438.213 200.836 442.26 195.718 447.583 192.231C450.123 190.595 452.808 189.196 455.604 188.049" stroke="#535461" stroke-width="2" stroke-miterlimit="10"/>
<path d="M458.966 179.105C457.334 180.699 455.489 188.273 455.489 188.273C455.489 188.273 463.111 186.604 464.743 185.01C465.527 184.245 465.974 183.2 465.987 182.105C465.999 181.01 465.576 179.955 464.81 179.172C464.044 178.389 462.998 177.942 461.902 177.929C460.806 177.917 459.75 178.34 458.966 179.105Z" fill="#F19798"/>
<path d="M445.15 183.052C444.647 185.276 447.219 192.636 447.219 192.636C447.219 192.636 452.709 187.096 453.212 184.872C453.331 184.344 453.346 183.796 453.254 183.262C453.162 182.728 452.965 182.217 452.675 181.758C452.386 181.3 452.008 180.903 451.565 180.59C451.122 180.277 450.621 180.055 450.092 179.935C449.563 179.816 449.015 179.802 448.48 179.894C447.945 179.986 447.434 180.182 446.975 180.471C446.516 180.761 446.119 181.138 445.806 181.581C445.493 182.023 445.27 182.523 445.15 183.052Z" fill="#F19798"/>
<path d="M429.909 198.351C430.598 200.524 436.537 205.58 436.537 205.58C436.537 205.58 438.477 198.03 437.787 195.856C437.623 195.34 437.359 194.86 437.01 194.445C436.66 194.03 436.233 193.688 435.751 193.439C435.269 193.189 434.743 193.037 434.202 192.99C433.661 192.944 433.117 193.004 432.6 193.168C432.082 193.332 431.602 193.596 431.187 193.945C430.772 194.294 430.43 194.721 430.18 195.203C429.93 195.684 429.777 196.21 429.731 196.75C429.684 197.29 429.745 197.834 429.909 198.351Z" fill="#F19798"/>
<path d="M420.986 212.52C421.297 214.779 426.296 220.765 426.296 220.765C426.296 220.765 429.485 213.651 429.173 211.392C429.099 210.855 428.919 210.338 428.645 209.87C428.371 209.402 428.007 208.993 427.575 208.665C427.142 208.338 426.649 208.099 426.124 207.962C425.599 207.825 425.052 207.792 424.515 207.866C423.977 207.941 423.459 208.12 422.991 208.394C422.523 208.668 422.113 209.031 421.785 209.463C421.458 209.895 421.218 210.388 421.081 210.912C420.944 211.437 420.911 211.983 420.986 212.52Z" fill="#F19798"/>
<path d="M452.968 199.144C450.686 199.085 444.177 194.786 444.177 194.786C444.177 194.786 450.901 190.831 453.182 190.89C454.278 190.918 455.317 191.38 456.072 192.174C456.826 192.968 457.234 194.029 457.206 195.124C457.177 196.219 456.715 197.257 455.92 198.011C455.125 198.765 454.063 199.172 452.968 199.144Z" fill="#F19798"/>
<path d="M442.322 215.583C440.162 214.845 435.239 208.797 435.239 208.797C435.239 208.797 442.839 207.033 444.999 207.771C446.035 208.126 446.889 208.877 447.371 209.861C447.853 210.844 447.925 211.978 447.57 213.014C447.215 214.05 446.462 214.903 445.478 215.385C444.494 215.866 443.359 215.938 442.322 215.583Z" fill="#F19798"/>
<path d="M429.78 230.143C427.527 229.779 421.651 224.65 421.651 224.65C421.651 224.65 428.843 221.628 431.097 221.991C432.179 222.166 433.147 222.762 433.789 223.65C434.43 224.538 434.692 225.644 434.518 226.725C434.343 227.806 433.746 228.773 432.857 229.414C431.969 230.055 430.862 230.317 429.78 230.143Z" fill="#F19798"/>
<path d="M243.237 204.544C251.771 204.544 258.69 197.207 258.69 188.157C258.69 179.107 251.771 171.771 243.237 171.771C234.703 171.771 227.784 179.107 227.784 188.157C227.784 197.207 234.703 204.544 243.237 204.544Z" fill="#FBD56F"/>
<path opacity="0.1" d="M243.237 204.544C251.771 204.544 258.69 197.207 258.69 188.157C258.69 179.107 251.771 171.771 243.237 171.771C234.703 171.771 227.784 179.107 227.784 188.157C227.784 197.207 234.703 204.544 243.237 204.544Z" fill="black"/>
<path d="M245.904 204.544C254.438 204.544 261.357 197.371 261.357 188.522C261.357 179.674 254.438 172.501 245.904 172.501C237.37 172.501 230.451 179.674 230.451 188.522C230.451 197.371 237.37 204.544 245.904 204.544Z" fill="#FBD56F"/>
<path d="M252.163 203.042L250.555 202.148C250.555 202.148 249.804 205.282 250.049 207.516C250.074 207.742 250.167 207.956 250.317 208.128C250.466 208.3 250.665 208.421 250.886 208.477C254.584 209.394 272.208 213.303 284.327 207.798C284.503 207.717 284.655 207.593 284.767 207.436C284.88 207.28 284.951 207.097 284.971 206.905C285.12 205.532 284.593 202.699 284.383 202.148C283.931 200.96 252.163 203.042 252.163 203.042Z" fill="#FBD56F"/>
<path opacity="0.1" d="M252.163 203.042L250.555 202.148C250.555 202.148 249.804 205.282 250.049 207.516C250.074 207.742 250.167 207.956 250.317 208.128C250.466 208.3 250.665 208.421 250.886 208.477C254.584 209.394 272.208 213.303 284.327 207.798C284.503 207.717 284.655 207.593 284.767 207.436C284.88 207.28 284.951 207.097 284.971 206.905C285.12 205.532 284.593 202.699 284.383 202.148C283.931 200.96 252.163 203.042 252.163 203.042Z" fill="black"/>
<path d="M267.469 205.956C276.811 205.956 284.383 204.251 284.383 202.148C284.383 200.044 276.811 198.339 267.469 198.339C258.128 198.339 250.555 200.044 250.555 202.148C250.555 204.251 258.128 205.956 267.469 205.956Z" fill="#FBD56F"/>
<path d="M258.625 197.422L257.018 196.528C257.018 196.528 256.266 199.662 256.512 201.896C256.536 202.122 256.629 202.336 256.779 202.508C256.928 202.68 257.127 202.802 257.349 202.857C261.046 203.774 278.67 207.683 290.789 202.178C290.965 202.098 291.117 201.973 291.23 201.817C291.343 201.66 291.413 201.477 291.433 201.285C291.582 199.912 291.056 197.08 290.846 196.528C290.393 195.34 258.625 197.422 258.625 197.422Z" fill="#FBD56F"/>
<path opacity="0.1" d="M258.625 197.422L257.018 196.528C257.018 196.528 256.266 199.662 256.512 201.896C256.536 202.122 256.629 202.336 256.779 202.508C256.928 202.68 257.127 202.802 257.349 202.857C261.046 203.774 278.67 207.683 290.789 202.178C290.965 202.098 291.117 201.973 291.23 201.817C291.343 201.66 291.413 201.477 291.433 201.285C291.582 199.912 291.056 197.08 290.846 196.528C290.393 195.34 258.625 197.422 258.625 197.422Z" fill="black"/>
<path d="M273.931 200.337C283.273 200.337 290.846 198.631 290.846 196.528C290.846 194.424 283.273 192.719 273.931 192.719C264.59 192.719 257.017 194.424 257.017 196.528C257.017 198.631 264.59 200.337 273.931 200.337Z" fill="#FBD56F"/>
<path d="M264.338 190.036L262.73 189.142C262.73 189.142 261.979 192.276 262.224 194.51C262.249 194.736 262.342 194.95 262.491 195.122C262.641 195.294 262.84 195.416 263.061 195.471C266.759 196.388 284.383 200.297 296.502 194.792C296.678 194.712 296.829 194.587 296.942 194.431C297.055 194.274 297.125 194.091 297.146 193.899C297.295 192.526 296.768 189.694 296.558 189.142C296.106 187.954 264.338 190.036 264.338 190.036Z" fill="#FBD56F"/>
<path opacity="0.1" d="M264.338 190.036L262.73 189.142C262.73 189.142 261.979 192.276 262.224 194.51C262.249 194.736 262.342 194.95 262.491 195.122C262.641 195.294 262.84 195.416 263.061 195.471C266.759 196.388 284.383 200.297 296.502 194.792C296.678 194.712 296.829 194.587 296.942 194.431C297.055 194.274 297.125 194.091 297.146 193.899C297.295 192.526 296.768 189.694 296.558 189.142C296.106 187.954 264.338 190.036 264.338 190.036Z" fill="black"/>
<path d="M279.644 192.951C288.986 192.951 296.558 191.245 296.558 189.142C296.558 187.038 288.986 185.333 279.644 185.333C270.303 185.333 262.73 187.038 262.73 189.142C262.73 191.245 270.303 192.951 279.644 192.951Z" fill="#FBD56F"/>
<path d="M258.011 182.347L256.404 181.453C256.404 181.453 255.652 184.587 255.898 186.821C255.922 187.047 256.015 187.261 256.165 187.433C256.314 187.605 256.513 187.727 256.735 187.782C260.432 188.699 278.056 192.608 290.175 187.103C290.351 187.023 290.503 186.898 290.616 186.742C290.729 186.585 290.799 186.402 290.819 186.21C290.968 184.837 290.442 182.005 290.232 181.453C289.78 180.265 258.011 182.347 258.011 182.347Z" fill="#FBD56F"/>
<path opacity="0.1" d="M258.011 182.347L256.404 181.453C256.404 181.453 255.652 184.587 255.898 186.821C255.922 187.047 256.015 187.261 256.165 187.433C256.314 187.605 256.513 187.727 256.735 187.782C260.432 188.699 278.056 192.608 290.175 187.103C290.351 187.023 290.503 186.898 290.616 186.742C290.729 186.585 290.799 186.402 290.819 186.21C290.968 184.837 290.442 182.005 290.232 181.453C289.78 180.265 258.011 182.347 258.011 182.347Z" fill="black"/>
<path d="M273.318 185.262C282.659 185.262 290.232 183.556 290.232 181.453C290.232 179.349 282.659 177.644 273.318 177.644C263.976 177.644 256.404 179.349 256.404 181.453C256.404 183.556 263.976 185.262 273.318 185.262Z" fill="#FBD56F"/>
<path d="M272.244 176.177L270.636 175.282C270.636 175.282 269.884 178.417 270.13 180.65C270.154 180.877 270.248 181.091 270.397 181.263C270.547 181.434 270.746 181.556 270.967 181.612C274.665 182.529 292.289 186.438 304.408 180.932C304.583 180.852 304.735 180.728 304.848 180.571C304.961 180.415 305.031 180.232 305.052 180.04C305.201 178.667 304.674 175.834 304.464 175.282C304.012 174.095 272.244 176.177 272.244 176.177Z" fill="#FBD56F"/>
<path opacity="0.1" d="M272.244 176.177L270.636 175.282C270.636 175.282 269.884 178.417 270.13 180.65C270.154 180.877 270.248 181.091 270.397 181.263C270.547 181.434 270.746 181.556 270.967 181.612C274.665 182.529 292.289 186.438 304.408 180.932C304.583 180.852 304.735 180.728 304.848 180.571C304.961 180.415 305.031 180.232 305.052 180.04C305.201 178.667 304.674 175.834 304.464 175.282C304.012 174.095 272.244 176.177 272.244 176.177Z" fill="black"/>
<path d="M287.55 179.091C296.892 179.091 304.464 177.386 304.464 175.282C304.464 173.179 296.892 171.473 287.55 171.473C278.209 171.473 270.636 173.179 270.636 175.282C270.636 177.386 278.209 179.091 287.55 179.091Z" fill="#FBD56F"/>
<path d="M262.628 172.029L261.02 171.135C261.02 171.135 260.268 174.269 260.514 176.503C260.538 176.73 260.632 176.943 260.781 177.115C260.931 177.287 261.13 177.409 261.351 177.464C265.049 178.382 282.673 182.29 294.792 176.785C294.967 176.705 295.119 176.581 295.232 176.424C295.345 176.267 295.415 176.084 295.436 175.892C295.584 174.52 295.058 171.687 294.848 171.135C294.396 169.947 262.628 172.029 262.628 172.029Z" fill="#FBD56F"/>
<path opacity="0.1" d="M262.628 172.029L261.02 171.135C261.02 171.135 260.268 174.269 260.514 176.503C260.538 176.73 260.632 176.943 260.781 177.115C260.931 177.287 261.13 177.409 261.351 177.464C265.049 178.382 282.673 182.29 294.792 176.785C294.967 176.705 295.119 176.581 295.232 176.424C295.345 176.267 295.415 176.084 295.436 175.892C295.584 174.52 295.058 171.687 294.848 171.135C294.396 169.947 262.628 172.029 262.628 172.029Z" fill="black"/>
<path d="M277.934 174.944C287.276 174.944 294.848 173.239 294.848 171.135C294.848 169.031 287.276 167.326 277.934 167.326C268.593 167.326 261.02 169.031 261.02 171.135C261.02 173.239 268.593 174.944 277.934 174.944Z" fill="#FBD56F"/>
<path d="M269.048 164.023L267.44 163.129C267.44 163.129 266.688 166.263 266.934 168.497C266.958 168.723 267.052 168.937 267.201 169.109C267.351 169.281 267.55 169.403 267.771 169.458C271.469 170.375 289.093 174.284 301.212 168.779C301.387 168.699 301.539 168.574 301.652 168.418C301.765 168.261 301.835 168.078 301.856 167.886C302.004 166.513 301.478 163.68 301.268 163.129C300.816 161.941 269.048 164.023 269.048 164.023Z" fill="#FBD56F"/>
<path opacity="0.1" d="M269.048 164.023L267.44 163.129C267.44 163.129 266.688 166.263 266.934 168.497C266.958 168.723 267.052 168.937 267.201 169.109C267.351 169.281 267.55 169.403 267.771 169.458C271.469 170.375 289.093 174.284 301.212 168.779C301.387 168.699 301.539 168.574 301.652 168.418C301.765 168.261 301.835 168.078 301.856 167.886C302.004 166.513 301.478 163.68 301.268 163.129C300.816 161.941 269.048 164.023 269.048 164.023Z" fill="black"/>
<path d="M284.354 166.938C293.696 166.938 301.268 165.232 301.268 163.129C301.268 161.025 293.696 159.32 284.354 159.32C275.013 159.32 267.44 161.025 267.44 163.129C267.44 165.232 275.013 166.938 284.354 166.938Z" fill="#FBD56F"/>
<path d="M272.214 154.519L270.607 153.625C270.607 153.625 269.855 156.759 270.101 158.993C270.125 159.22 270.218 159.433 270.368 159.605C270.518 159.777 270.717 159.899 270.938 159.954C274.636 160.872 292.259 164.78 304.379 159.275C304.554 159.195 304.706 159.071 304.819 158.914C304.932 158.757 305.002 158.574 305.023 158.382C305.171 157.01 304.645 154.177 304.435 153.625C303.983 152.437 272.214 154.519 272.214 154.519Z" fill="#FBD56F"/>
<path opacity="0.1" d="M272.214 154.519L270.607 153.625C270.607 153.625 269.855 156.759 270.101 158.993C270.125 159.22 270.218 159.433 270.368 159.605C270.518 159.777 270.717 159.899 270.938 159.954C274.636 160.872 292.259 164.78 304.379 159.275C304.554 159.195 304.706 159.071 304.819 158.914C304.932 158.757 305.002 158.574 305.023 158.382C305.171 157.01 304.645 154.177 304.435 153.625C303.983 152.437 272.214 154.519 272.214 154.519Z" fill="black"/>
<path d="M287.521 157.434C296.863 157.434 304.435 155.729 304.435 153.625C304.435 151.521 296.863 149.816 287.521 149.816C278.18 149.816 270.607 151.521 270.607 153.625C270.607 155.729 278.18 157.434 287.521 157.434Z" fill="#FBD56F"/>
<path d="M300.767 205.246L299.16 204.352C299.16 204.352 298.408 207.486 298.653 209.72C298.678 209.946 298.771 210.16 298.921 210.332C299.07 210.504 299.269 210.626 299.49 210.681C303.188 211.598 320.812 215.507 332.931 210.002C333.107 209.922 333.259 209.797 333.372 209.641C333.485 209.484 333.555 209.301 333.575 209.109C333.724 207.736 333.198 204.904 332.988 204.352C332.536 203.164 300.767 205.246 300.767 205.246Z" fill="#FBD56F"/>
<path opacity="0.1" d="M300.767 205.246L299.16 204.352C299.16 204.352 298.408 207.486 298.653 209.72C298.678 209.946 298.771 210.16 298.921 210.332C299.07 210.504 299.269 210.626 299.49 210.681C303.188 211.598 320.812 215.507 332.931 210.002C333.107 209.922 333.259 209.797 333.372 209.641C333.485 209.484 333.555 209.301 333.575 209.109C333.724 207.736 333.198 204.904 332.988 204.352C332.536 203.164 300.767 205.246 300.767 205.246Z" fill="black"/>
<path d="M316.073 208.161C325.415 208.161 332.987 206.455 332.987 204.352C332.987 202.248 325.415 200.543 316.073 200.543C306.732 200.543 299.159 202.248 299.159 204.352C299.159 206.455 306.732 208.161 316.073 208.161Z" fill="#FBD56F"/>
<path d="M306.48 197.86L304.872 196.966C304.872 196.966 304.12 200.1 304.366 202.334C304.39 202.56 304.484 202.774 304.633 202.946C304.783 203.118 304.982 203.239 305.203 203.295C308.901 204.212 326.525 208.121 338.644 202.616C338.82 202.535 338.971 202.411 339.084 202.254C339.197 202.098 339.268 201.915 339.288 201.723C339.437 200.35 338.91 197.517 338.7 196.966C338.248 195.778 306.48 197.86 306.48 197.86Z" fill="#FBD56F"/>
<path opacity="0.1" d="M306.48 197.86L304.872 196.966C304.872 196.966 304.12 200.1 304.366 202.334C304.39 202.56 304.484 202.774 304.633 202.946C304.783 203.118 304.982 203.239 305.203 203.295C308.901 204.212 326.525 208.121 338.644 202.616C338.82 202.535 338.971 202.411 339.084 202.254C339.197 202.098 339.268 201.915 339.288 201.723C339.437 200.35 338.91 197.517 338.7 196.966C338.248 195.778 306.48 197.86 306.48 197.86Z" fill="black"/>
<path d="M321.786 200.775C331.128 200.775 338.7 199.069 338.7 196.966C338.7 194.862 331.128 193.157 321.786 193.157C312.445 193.157 304.872 194.862 304.872 196.966C304.872 199.069 312.445 200.775 321.786 200.775Z" fill="#FBD56F"/>
<path d="M300.153 190.171L298.546 189.277C298.546 189.277 297.794 192.411 298.04 194.645C298.064 194.871 298.157 195.085 298.307 195.257C298.457 195.429 298.655 195.551 298.877 195.606C302.574 196.523 320.198 200.432 332.317 194.927C332.493 194.847 332.645 194.722 332.758 194.566C332.871 194.409 332.941 194.226 332.961 194.034C333.11 192.661 332.584 189.829 332.374 189.277C331.922 188.089 300.153 190.171 300.153 190.171Z" fill="#FBD56F"/>
<path opacity="0.1" d="M300.153 190.171L298.546 189.277C298.546 189.277 297.794 192.411 298.04 194.645C298.064 194.871 298.157 195.085 298.307 195.257C298.457 195.429 298.655 195.551 298.877 195.606C302.574 196.523 320.198 200.432 332.317 194.927C332.493 194.847 332.645 194.722 332.758 194.566C332.871 194.409 332.941 194.226 332.961 194.034C333.11 192.661 332.584 189.829 332.374 189.277C331.922 188.089 300.153 190.171 300.153 190.171Z" fill="black"/>
<path d="M315.46 193.086C324.801 193.086 332.374 191.38 332.374 189.277C332.374 187.173 324.801 185.468 315.46 185.468C306.118 185.468 298.546 187.173 298.546 189.277C298.546 191.38 306.118 193.086 315.46 193.086Z" fill="#FBD56F"/>
<path d="M314.386 184L312.778 183.106C312.778 183.106 312.026 186.241 312.272 188.474C312.296 188.701 312.39 188.915 312.539 189.086C312.689 189.258 312.888 189.38 313.109 189.435C316.807 190.353 334.431 194.261 346.55 188.756C346.725 188.676 346.877 188.552 346.99 188.395C347.103 188.239 347.173 188.055 347.194 187.863C347.342 186.491 346.816 183.658 346.606 183.106C346.154 181.919 314.386 184 314.386 184Z" fill="#FBD56F"/>
<path opacity="0.1" d="M314.386 184L312.778 183.106C312.778 183.106 312.026 186.241 312.272 188.474C312.296 188.701 312.39 188.915 312.539 189.086C312.689 189.258 312.888 189.38 313.109 189.435C316.807 190.353 334.431 194.261 346.55 188.756C346.725 188.676 346.877 188.552 346.99 188.395C347.103 188.239 347.173 188.055 347.194 187.863C347.342 186.491 346.816 183.658 346.606 183.106C346.154 181.919 314.386 184 314.386 184Z" fill="black"/>
<path d="M329.692 186.915C339.034 186.915 346.606 185.21 346.606 183.106C346.606 181.003 339.034 179.297 329.692 179.297C320.351 179.297 312.778 181.003 312.778 183.106C312.778 185.21 320.351 186.915 329.692 186.915Z" fill="#FBD56F"/>
<path d="M304.77 179.853L303.162 178.959C303.162 178.959 302.41 182.093 302.656 184.327C302.68 184.554 302.774 184.767 302.923 184.939C303.073 185.111 303.272 185.233 303.493 185.288C307.191 186.206 324.815 190.114 336.934 184.609C337.109 184.529 337.261 184.404 337.374 184.248C337.487 184.091 337.557 183.908 337.578 183.716C337.726 182.343 337.2 179.511 336.99 178.959C336.538 177.771 304.77 179.853 304.77 179.853Z" fill="#FBD56F"/>
<path opacity="0.1" d="M304.77 179.853L303.162 178.959C303.162 178.959 302.41 182.093 302.656 184.327C302.68 184.554 302.774 184.767 302.923 184.939C303.073 185.111 303.272 185.233 303.493 185.288C307.191 186.206 324.815 190.114 336.934 184.609C337.109 184.529 337.261 184.404 337.374 184.248C337.487 184.091 337.557 183.908 337.578 183.716C337.726 182.343 337.2 179.511 336.99 178.959C336.538 177.771 304.77 179.853 304.77 179.853Z" fill="black"/>
<path d="M320.076 182.768C329.417 182.768 336.99 181.063 336.99 178.959C336.99 176.855 329.417 175.15 320.076 175.15C310.735 175.15 303.162 176.855 303.162 178.959C303.162 181.063 310.735 182.768 320.076 182.768Z" fill="#FBD56F"/>
<path d="M311.19 171.847L309.582 170.952C309.582 170.952 308.83 174.087 309.076 176.32C309.1 176.547 309.194 176.761 309.343 176.933C309.493 177.105 309.692 177.226 309.913 177.282C313.611 178.199 331.235 182.108 343.354 176.603C343.53 176.522 343.681 176.398 343.794 176.241C343.907 176.085 343.977 175.902 343.998 175.71C344.147 174.337 343.62 171.504 343.41 170.953C342.958 169.765 311.19 171.847 311.19 171.847Z" fill="#FBD56F"/>
<path opacity="0.1" d="M311.19 171.847L309.582 170.952C309.582 170.952 308.83 174.087 309.076 176.32C309.1 176.547 309.194 176.761 309.343 176.933C309.493 177.105 309.692 177.226 309.913 177.282C313.611 178.199 331.235 182.108 343.354 176.603C343.53 176.522 343.681 176.398 343.794 176.241C343.907 176.085 343.977 175.902 343.998 175.71C344.147 174.337 343.62 171.504 343.41 170.953C342.958 169.765 311.19 171.847 311.19 171.847Z" fill="black"/>
<path d="M326.496 174.761C335.838 174.761 343.41 173.056 343.41 170.952C343.41 168.849 335.838 167.144 326.496 167.144C317.155 167.144 309.582 168.849 309.582 170.952C309.582 173.056 317.155 174.761 326.496 174.761Z" fill="#FBD56F"/>
<path d="M314.356 162.343L312.749 161.449C312.749 161.449 311.997 164.583 312.243 166.817C312.267 167.044 312.36 167.257 312.51 167.429C312.66 167.601 312.859 167.723 313.08 167.778C316.778 168.696 334.402 172.604 346.521 167.099C346.696 167.019 346.848 166.894 346.961 166.738C347.074 166.581 347.144 166.398 347.165 166.206C347.313 164.834 346.787 162.001 346.577 161.449C346.125 160.261 314.356 162.343 314.356 162.343Z" fill="#FBD56F"/>
<path opacity="0.1" d="M314.356 162.343L312.749 161.449C312.749 161.449 311.997 164.583 312.243 166.817C312.267 167.044 312.36 167.257 312.51 167.429C312.66 167.601 312.859 167.723 313.08 167.778C316.778 168.696 334.402 172.604 346.521 167.099C346.696 167.019 346.848 166.894 346.961 166.738C347.074 166.581 347.144 166.398 347.165 166.206C347.313 164.834 346.787 162.001 346.577 161.449C346.125 160.261 314.356 162.343 314.356 162.343Z" fill="black"/>
<path d="M329.663 165.258C339.004 165.258 346.577 163.553 346.577 161.449C346.577 159.345 339.004 157.64 329.663 157.64C320.322 157.64 312.749 159.345 312.749 161.449C312.749 163.553 320.322 165.258 329.663 165.258Z" fill="#FBD56F"/>
<path d="M416.304 227.664C413.95 227.581 413.866 226.669 410.839 225.094C409.13 224.205 406.535 221.624 404.601 219.547C404.446 219.38 404.296 219.218 404.151 219.059C404.663 219.048 404.953 219.043 404.953 219.043C404.953 219.043 404.196 212.411 404.868 210.836C405.541 209.261 405.037 199.894 405.037 199.894C405.037 199.894 405.457 192.766 404.7 191.108C403.943 189.45 404.953 178.84 404.953 178.84C404.953 178.84 405.625 172.54 405.793 159.691C405.962 146.843 398.394 146.428 398.394 146.428C398.394 146.428 397.385 146.351 395.853 146.205C395.706 146.191 395.55 146.176 395.394 146.161C396.386 144.086 396.964 142.533 396.964 142.533C396.964 142.533 395.703 130.513 395.367 128.441C395.031 126.368 393.012 117.83 393.012 117.83C393.012 117.83 391.583 114.183 390.742 111.613C389.901 109.044 387.379 106.06 387.379 106.06C387.379 106.06 382.838 97.1071 381.577 95.7811C380.992 95.1661 380.171 94.3901 379.46 93.7351C379.331 93.6171 379.209 93.5051 379.09 93.3961C379.28 92.4621 379.381 91.5121 379.391 90.5591C379.391 90.5591 374.682 85.9171 374.346 84.7561C374.009 83.5961 369.553 79.2851 369.553 79.2851C369.553 79.2851 367.03 74.6431 364.171 74.5601C362.82 74.4841 361.466 74.5251 360.122 74.6831C360.709 72.5121 361.403 70.2371 362.027 68.2851C362.097 68.0681 362.165 67.8561 362.232 67.6471C364.517 66.1031 366.31 63.9371 367.398 61.4051C367.457 61.2701 367.511 61.1341 367.565 60.9981C367.595 60.9991 367.625 61.0041 367.656 61.0041C367.774 61.0021 367.893 60.9921 368.009 60.9721C368.951 60.8101 369.747 59.7481 369.313 58.9101C369.341 58.9581 369.382 58.9971 369.43 59.0231C369.478 59.0501 369.533 59.0631 369.588 59.0611C369.901 59.0501 370.284 58.5971 370.357 58.1981C370.37 58.1291 370.377 58.0591 370.388 57.9901C370.401 57.9031 370.415 57.8171 370.426 57.7301C370.435 57.6481 370.442 57.5661 370.448 57.4841C370.456 57.4001 370.462 57.3151 370.466 57.2301C370.47 57.1511 370.473 57.0721 370.474 56.9921C370.476 56.9011 370.475 56.8101 370.474 56.7181C370.472 56.6451 370.472 56.5721 370.468 56.4991C370.463 56.3881 370.454 56.2771 370.443 56.1661C370.439 56.1211 370.438 56.0751 370.433 56.0301L370.432 56.0361C370.383 55.5831 370.293 55.1361 370.161 54.7001C369.697 53.1591 368.722 51.6311 369.098 50.0671C369.102 50.0501 369.109 50.0341 369.114 50.0181V50.0211C369.427 48.8071 370.478 47.9251 371.122 46.8401C371.183 46.7371 371.237 46.6301 371.29 46.5231C371.3 46.5041 371.312 46.4851 371.321 46.4651C371.36 46.3841 371.392 46.3021 371.427 46.2191C371.448 46.1661 371.473 46.1141 371.493 46.0611C371.52 45.9881 371.542 45.9151 371.566 45.8411C371.587 45.7751 371.61 45.7081 371.629 45.6411C371.647 45.5761 371.662 45.5101 371.677 45.4441C371.696 45.3651 371.715 45.2861 371.73 45.2061C371.741 45.1491 371.749 45.0911 371.758 45.0341C371.772 44.9431 371.785 44.8521 371.795 44.7611C371.8 44.7121 371.804 44.6621 371.808 44.6131C371.816 44.5111 371.822 44.4091 371.824 44.3071C371.825 44.2661 371.826 44.2251 371.826 44.1841C371.826 44.0721 371.823 43.9611 371.817 43.8491C371.815 43.8151 371.814 43.7821 371.811 43.7481C371.803 43.6291 371.79 43.5111 371.775 43.3921C371.772 43.3751 371.772 43.3581 371.769 43.3411L371.768 43.3451C371.626 42.3041 371.21 41.3181 370.564 40.4881C369.828 39.6131 368.898 38.9211 367.847 38.4671C366.796 38.0131 365.654 37.8101 364.512 37.8731C363.88 37.9441 363.243 37.9561 362.609 37.9081C361.553 37.7541 360.66 37.0841 359.819 36.4361C357.471 34.6301 355.124 32.8231 352.776 31.0161C351.99 30.3341 351.089 29.7991 350.114 29.4351C349.118 29.1311 347.925 29.2361 347.188 29.9621C345.87 31.2621 346.708 33.5001 346.178 35.2631C345.72 36.7891 344.244 37.8241 342.716 38.3401C341.187 38.8561 339.552 38.9691 337.982 39.3421C337.515 39.4181 337.077 39.6191 336.715 39.9241C336.309 40.4171 336.111 41.0491 336.165 41.6861C336.155 43.2471 336.531 44.7871 337.258 46.1691C337.555 46.7321 337.915 47.3001 338.231 47.8771C338.257 47.9251 338.282 47.9721 338.307 48.0201C338.343 48.0861 338.378 48.1531 338.412 48.2191C338.467 48.3271 338.519 48.4351 338.568 48.5431C338.59 48.5901 338.609 48.6371 338.629 48.6841C338.662 48.7611 338.693 48.8381 338.723 48.9151C338.742 48.9641 338.76 49.0131 338.777 49.0621C338.809 49.1531 338.837 49.2441 338.863 49.3351C339.031 49.8711 339.047 50.4431 338.909 50.9881C338.667 51.8791 337.971 52.5651 337.357 53.2611C336.855 53.8051 336.499 54.4661 336.319 55.1831L336.316 55.1991C336.282 55.3651 336.275 55.5371 336.297 55.7051C336.3 55.7271 336.303 55.7481 336.307 55.7681C336.315 55.8061 336.325 55.8431 336.338 55.8791C336.347 55.9051 336.358 55.9311 336.371 55.9561C336.383 55.9861 336.398 56.0141 336.414 56.0421C336.445 56.0881 336.481 56.1311 336.521 56.1681C336.54 56.1841 336.56 56.1981 336.58 56.2121C336.614 56.2371 336.65 56.2591 336.688 56.2781C336.711 56.2891 336.735 56.3001 336.76 56.3101C336.816 56.3301 336.874 56.3461 336.932 56.3571C336.949 56.3601 336.963 56.3651 336.98 56.3671C337.07 56.3791 337.16 56.3831 337.251 56.3791C337.277 56.3781 337.305 56.3751 337.332 56.3731C337.419 56.3661 337.505 56.3551 337.591 56.3401C337.622 56.3351 337.653 56.3301 337.686 56.3231C337.809 56.2971 337.939 56.2661 338.082 56.2211C338.555 56.0791 339.014 55.8971 339.456 55.6791C339.456 55.7291 339.452 55.7791 339.452 55.8301C339.452 55.9171 339.452 56.0081 339.461 56.0951C339.484 57.7211 339.792 59.3301 340.369 60.8501C341.27 63.2181 342.783 65.307 344.754 66.9021C344.729 67.0461 344.703 67.1891 344.674 67.3341C344.268 69.3211 343.421 71.3161 342.898 71.1621C342.386 71.0481 341.863 70.9901 341.339 70.9911C341.18 70.9861 341.026 70.9841 340.88 70.9831C340.405 70.9281 339.925 70.9281 339.45 70.9831C339.238 70.9971 339.025 70.9681 338.825 70.8961C337.466 70.4691 336.022 70.3881 334.624 70.6611C331.716 71.2561 327.293 72.3451 326.081 73.6481C324.231 75.6381 321.54 77.5441 318.513 85.8341C318.513 85.8341 316.999 90.8901 315.822 91.5531C316.082 91.4191 316.348 91.2991 316.621 91.1951C316.465 91.4691 316.249 91.7041 315.99 91.8851C316.417 91.6671 316.86 91.483 317.315 91.333C316.396 96.734 317.756 112.182 317.756 112.182C317.756 112.182 316.663 114.846 318.093 116.421C318.942 117.357 319.404 118.817 319.64 119.85C319.573 119.953 319.504 120.06 319.433 120.171V120.173C318.676 121.345 317.664 122.874 317 123.716C315.822 125.208 316.159 129.933 316.159 129.933C316.159 129.933 315.906 132.171 315.066 133C314.225 133.829 314.393 136.896 314.393 136.896L312.207 144.936C312.207 144.936 310.189 146.76 310.189 147.589C310.189 148.418 308.591 150.739 308.591 150.739C308.591 150.739 306.152 154.718 308.591 154.138C309.48 153.878 310.314 153.459 311.053 152.901L311.052 152.96C311.048 153.106 311.045 153.254 311.043 153.405C310.974 157.738 311.446 163.836 314.645 163.836C319.606 163.836 332.387 169.721 332.387 169.721C334.994 171.711 338.525 171.048 338.525 171.048C338.525 171.048 332.303 177.265 332.471 179.834C332.639 182.404 328.94 186.632 328.94 186.632L317.504 208.93C317.568 210.483 317.844 212.021 318.324 213.5C318.269 213.548 318.213 213.593 318.16 213.641C313.766 217.652 313.384 225.591 313.384 225.591L312.375 229.653L327.678 236.367C327.678 236.367 347.522 236.782 350.97 235.87C354.417 234.958 353.661 231.145 349.12 230.399C344.579 229.653 343.486 227.664 341.973 226.752C340.952 226.137 337.326 222.161 335.076 219.641C335.042 219.603 335.011 219.568 334.977 219.53L335.498 216.639C336.507 216.141 338.021 211.168 338.021 211.168C338.021 211.168 338.021 209.178 339.03 208.598C340.039 208.018 342.141 202.05 342.141 202.05C342.141 202.05 346.682 194.506 346.429 193.512C346.177 192.517 349.709 187.461 349.709 187.461C349.709 187.461 355.679 181.658 355.426 180.622C355.174 179.586 360.219 174.281 360.219 174.281C362.042 172.89 363.562 171.142 364.684 169.144C365.138 169.072 365.626 168.994 366.141 168.907C372.743 167.826 383.714 165.872 384.94 165.328C386.622 164.582 386.286 167.898 385.613 170.716C384.94 173.534 384.436 187.046 385.193 188.787C385.949 190.528 385.613 193.346 385.613 193.346L384.604 208.515L385.277 211.748C385.277 211.748 383.006 213.572 383.931 214.649C384.856 215.727 384.015 220.369 384.015 220.369C384.095 220.34 384.189 220.311 384.295 220.283C384.214 220.465 384.137 220.652 384.067 220.848C382.764 224.56 383.511 230.648 383.511 230.648V235.456C383.511 235.456 406.802 235.87 411.932 235.87C417.061 235.87 424.124 233.383 424.544 231.394C424.965 229.404 418.658 227.746 416.304 227.664ZM350.058 141.368L348.532 141.496C349.038 141.423 349.547 141.38 350.058 141.368ZM359.36 77.7421C359.574 76.7831 359.833 75.7521 360.119 74.6941L359.36 77.7421ZM362.237 143.693C360.782 144.268 359.163 144.27 357.707 143.698L357.697 143.693C357.697 143.693 357.781 137.89 358.453 135.487C359.126 133.083 360.051 128.689 360.051 128.689C360.051 128.689 360.808 122.638 361.565 119.903C362.321 117.167 365.264 101.915 366.778 100.92C368.291 99.9251 369.132 101.666 369.132 101.666C369.132 101.666 369.358 101.662 369.737 101.62C369.808 101.779 369.889 101.948 369.978 102.127C371.773 105.75 377.036 113.188 377.036 113.188C378.598 114.151 379.92 115.454 380.904 117.001C382.334 119.405 382.754 125.042 382.754 125.042C382.754 125.042 385.949 137.559 387.463 139.3C388.22 140.17 387.883 140.689 387.359 140.989C386.286 141.575 385.375 142.416 384.705 143.438C384.489 143.779 384.261 144.154 384.03 144.554C383.451 144.42 382.933 144.281 382.502 144.136C378.382 142.753 364.508 142.698 362.237 143.693Z" fill="url(#paint0_linear)"/>
<path d="M382.959 230.696V235.464C382.959 235.464 405.75 235.875 410.769 235.875C415.788 235.875 422.7 233.409 423.111 231.436C423.523 229.463 417.352 227.819 415.048 227.737C412.744 227.655 412.662 226.751 409.7 225.189C408.028 224.308 405.489 221.748 403.596 219.688C402.137 218.099 401.061 216.805 401.061 216.805C401.061 216.805 388.801 216.558 385.263 218.531C384.448 218.986 383.886 219.877 383.504 220.979C382.229 224.66 382.959 230.696 382.959 230.696Z" fill="#434175"/>
<path opacity="0.1" d="M383.504 220.979C386.074 220.086 401.123 219.739 403.596 219.688C402.137 218.099 401.06 216.805 401.06 216.805C401.06 216.805 388.801 216.558 385.263 218.531C384.448 218.986 383.886 219.877 383.504 220.979Z" fill="black"/>
<path d="M317.383 144.963C317.383 144.963 317.859 145.25 318.713 145.765C318.867 145.857 319.034 145.959 319.211 146.066C319.753 146.393 320.403 146.783 321.145 147.23C331.486 153.455 359.694 170.333 361.238 170.198C361.642 170.163 362.859 169.981 364.537 169.708C364.981 169.636 365.459 169.558 365.962 169.473C372.423 168.401 383.158 166.463 384.358 165.923C386.004 165.184 385.674 168.472 385.016 171.266C384.358 174.061 383.864 187.46 384.605 189.186C385.345 190.912 385.016 193.707 385.016 193.707L384.029 208.749L384.687 211.955C384.687 211.955 382.466 213.763 383.371 214.832C384.276 215.901 383.453 220.504 383.453 220.504C386.086 219.517 403.94 219.189 403.94 219.189C403.94 219.189 403.2 212.613 403.858 211.051C404.516 209.489 404.023 200.201 404.023 200.201C404.023 200.201 404.434 193.131 403.693 191.487C402.953 189.843 403.94 179.322 403.94 179.322C403.94 179.322 404.599 173.075 404.763 160.334C404.928 147.593 397.523 147.182 397.523 147.182C397.523 147.182 396.535 147.105 395.036 146.96C392.104 146.679 387.216 146.141 383.952 145.433C383.282 145.295 382.622 145.12 381.972 144.908C377.94 143.537 364.364 143.483 362.143 144.469C360.72 145.04 359.133 145.042 357.71 144.474L357.7 144.469L355.972 141.675L339.468 143.08L337.719 143.23L321.472 144.614L320.355 144.709L317.383 144.963Z" fill="#565387"/>
<path opacity="0.1" d="M383.535 157.572C388.329 159.906 392.903 151.631 395.036 146.96C392.104 146.679 387.216 146.141 383.951 145.433C381.804 149.033 378.939 155.335 383.535 157.572Z" fill="black"/>
<path d="M369.136 101.644C369.237 102.209 369.433 102.753 369.717 103.251C371.473 106.844 376.624 114.22 376.624 114.22C378.156 115.178 379.45 116.471 380.408 118.001C381.807 120.385 382.219 125.975 382.219 125.975C382.219 125.975 385.345 138.387 386.826 140.113C387.567 140.976 387.238 141.491 386.724 141.788C385.672 142.372 384.78 143.206 384.127 144.216C381.97 147.682 378.526 154.555 383.371 156.914C389.953 160.12 396.124 143.319 396.124 143.319C396.124 143.319 394.89 131.4 394.56 129.345C394.231 127.29 392.257 118.823 392.257 118.823C392.257 118.823 390.858 115.207 390.035 112.658C389.212 110.11 386.744 107.151 386.744 107.151C386.744 107.151 382.301 98.274 381.067 96.958C380.494 96.348 379.691 95.579 378.995 94.93C378.19 94.178 377.529 93.588 377.529 93.588C377.529 93.588 369.054 99.671 369.136 101.644Z" fill="#EE8E9E"/>
<path d="M313.351 229.71L328.326 236.368C328.326 236.368 347.744 236.779 351.117 235.875C354.491 234.971 353.75 231.19 349.307 230.45C344.864 229.71 343.794 227.737 342.313 226.833C341.315 226.223 337.767 222.281 335.565 219.782C334.505 218.579 333.756 217.709 333.756 217.709C333.756 217.709 330.877 210.064 322.896 211.791C321.439 212.105 320.096 212.811 319.012 213.832C314.712 217.809 314.339 225.682 314.339 225.682L313.351 229.71Z" fill="#434175"/>
<path opacity="0.1" d="M319.211 146.066C319.753 146.393 320.403 146.783 321.145 147.23C331.486 153.455 359.694 170.333 361.237 170.198C361.642 170.163 362.858 169.981 364.537 169.708C364.981 169.636 365.458 169.558 365.962 169.473C365.982 169.442 366 169.41 366.018 169.379C366.847 167.933 367.48 166.384 367.902 164.773C369.63 158.197 361.073 153.183 361.073 153.183L359.263 151.777C357.206 148.316 342.396 145.045 342.396 145.045L340.487 143.764L339.468 143.08L339.2 142.901L336.883 141.346L325.282 142.168L321.836 144.381L321.472 144.614L320.194 145.436L319.211 146.066Z" fill="black"/>
<path opacity="0.1" d="M319.012 213.832C322.162 224.716 335.32 221.161 335.32 221.161L335.565 219.782C334.505 218.579 333.756 217.709 333.756 217.709C333.756 217.709 330.877 210.064 322.896 211.791C321.439 212.105 320.096 212.811 319.012 213.832Z" fill="black"/>
<path d="M315.573 164.444C320.427 164.444 332.934 170.28 332.934 170.28C335.484 172.253 338.94 171.595 338.94 171.595C338.94 171.595 332.851 177.76 333.016 180.308C333.18 182.856 329.56 187.049 329.56 187.049L318.37 209.16C319.193 224.86 335.32 220.504 335.32 220.504L335.978 216.805C336.965 216.312 338.446 211.38 338.446 211.38C338.446 211.38 338.446 209.407 339.434 208.831C340.421 208.256 342.478 202.338 342.478 202.338C342.478 202.338 346.921 194.858 346.674 193.871C346.427 192.885 349.883 187.871 349.883 187.871C349.883 187.871 355.725 182.117 355.478 181.089C355.231 180.062 360.168 174.801 360.168 174.801C361.956 173.418 363.443 171.685 364.537 169.708C365.365 168.262 365.999 166.713 366.421 165.101C367.813 159.806 362.534 155.522 360.426 154.057C359.916 153.702 359.592 153.511 359.592 153.511L357.782 152.106C356.847 150.531 353.273 148.997 349.654 147.792C347.044 146.922 344.41 146.224 342.726 145.804C341.612 145.528 340.915 145.374 340.915 145.374L339.006 144.093L338.334 143.643L337.719 143.23L335.402 141.675L330.24 142.04L323.801 142.497L320.355 144.709L318.713 145.765L312.282 149.895C312.282 149.895 312.112 151.476 312.058 153.598C312.055 153.763 312.051 153.929 312.048 154.1C311.98 158.397 312.443 164.444 315.573 164.444Z" fill="#565387"/>
<path d="M340.339 72.381L342.067 78.5461C342.067 78.5461 345.111 89.1491 345.44 89.8891C345.769 90.6291 353.75 98.1091 354.079 98.2741C354.408 98.4381 358.754 100.904 358.754 100.904C358.754 100.904 359.098 87.3411 358.769 83.3951C358.741 82.5291 358.812 81.6611 358.983 80.8111C359.508 77.7191 360.836 73.185 361.937 69.693C362.858 66.767 363.624 64.5721 363.624 64.5721C363.624 64.5721 344.37 63.75 345.029 65.64C345.277 66.356 345.196 67.551 344.956 68.749C344.56 70.72 343.73 72.698 343.218 72.545C342.718 72.432 342.206 72.3751 341.693 72.3761C340.982 72.3541 340.339 72.381 340.339 72.381Z" fill="#EE8E9E"/>
<path opacity="0.1" d="M344.956 68.749C347.308 70.711 350.231 71.862 353.29 72.032C356.349 72.202 359.382 71.381 361.937 69.693C362.859 66.767 363.624 64.5721 363.624 64.5721C363.624 64.5721 344.37 63.75 345.029 65.64C345.277 66.356 345.197 67.551 344.956 68.749Z" fill="black"/>
<path d="M368.315 57.342C368.316 58.85 368.076 60.348 367.604 61.781C367.485 62.151 367.347 62.514 367.192 62.87C366.084 65.493 364.213 67.723 361.822 69.271C359.431 70.82 356.63 71.616 353.781 71.557C350.932 71.497 348.167 70.585 345.843 68.938C343.518 67.292 341.742 64.986 340.744 62.319C340.179 60.811 339.878 59.216 339.855 57.605C339.847 57.518 339.847 57.428 339.847 57.342C339.847 53.57 341.347 49.953 344.016 47.286C346.686 44.619 350.306 43.121 354.081 43.121C357.856 43.121 361.477 44.619 364.146 47.286C366.816 49.953 368.315 53.57 368.315 57.342Z" fill="#EE8E9E"/>
<path opacity="0.1" d="M340.339 72.3811L342.067 78.5461C342.067 78.5461 345.111 89.1491 345.44 89.8891C345.769 90.6291 353.75 98.1091 354.079 98.2741C354.408 98.4381 358.754 100.904 358.754 100.904C358.754 100.904 359.098 87.3411 358.769 83.3951C358.741 82.5291 358.812 81.6611 358.983 80.8111L357.864 85.3681L357.946 94.4921L358.605 94.986L357.124 97.2051V95.5611C357.124 95.5611 351.858 90.4651 351.035 88.3271C350.212 86.1901 347.25 82.3201 347.25 82.3201C347.25 82.3201 343.877 76.6551 343.794 75.6691C343.73 74.8991 342.313 73.1211 341.693 72.3761C340.982 72.3541 340.339 72.3811 340.339 72.3811Z" fill="black"/>
<path opacity="0.1" d="M369.136 101.644C369.237 102.209 369.433 102.753 369.717 103.251C371.516 103.067 377.646 101.925 378.995 94.93C378.19 94.178 377.529 93.588 377.529 93.588C377.529 93.588 369.054 99.671 369.136 101.644Z" fill="black"/>
<path opacity="0.1" d="M312.048 154.1C313.708 152.926 315.288 151.325 316.231 150.881C317.63 150.223 319.769 148.086 319.769 148.086C319.769 148.086 320.312 147.718 321.145 147.23C322.672 146.335 325.175 145.04 327.092 144.88C328.81 144.737 334.517 144.372 339.006 144.093C342.254 143.889 344.864 143.73 344.864 143.73C344.864 143.73 350.212 141.839 352.516 143.072C354.166 143.898 355.905 144.532 357.7 144.963C357.7 144.963 357.701 144.783 357.71 144.474L357.7 144.469L355.972 141.675L337.719 143.23L335.402 141.675L323.801 142.497L320.355 144.709L317.383 144.963C317.383 144.963 317.859 145.25 318.713 145.765L312.282 149.895C312.282 149.895 312.084 151.731 312.048 154.1Z" fill="black"/>
<path d="M309.649 154.827C310.52 154.568 311.336 154.152 312.058 153.6V153.598C313.715 152.426 315.29 150.83 316.231 150.388C317.63 149.73 319.769 147.593 319.769 147.593C319.769 147.593 324.13 144.634 327.092 144.387C327.9 144.32 329.588 144.203 331.617 144.072C333.694 143.934 336.124 143.779 338.334 143.643C339.608 143.562 340.808 143.486 341.821 143.424C343.638 143.312 344.864 143.236 344.864 143.236C344.864 143.236 350.212 141.346 352.516 142.579C354.166 143.405 355.905 144.039 357.7 144.469C357.7 144.469 357.782 138.716 358.44 136.332C359.098 133.948 360.003 129.591 360.003 129.591C360.003 129.591 360.744 123.591 361.484 120.878C362.225 118.166 365.105 103.041 366.586 102.055C368.067 101.068 368.889 102.794 368.889 102.794C368.889 102.794 378.763 102.63 378.927 91.7801C378.927 91.7801 374.32 87.1771 373.991 86.0261C373.662 84.8751 369.301 80.6011 369.301 80.6011C369.301 80.6011 366.832 75.9981 364.035 75.9151C362.713 75.8391 361.387 75.8801 360.072 76.0371L357.7 85.6971L357.782 94.8211L358.44 95.3141L356.959 97.5341V95.8901C356.959 95.8901 351.693 90.7931 350.87 88.6561C350.048 86.5191 347.086 82.6491 347.086 82.6491C347.086 82.6491 343.712 76.9841 343.63 75.9981C343.548 75.0111 341.244 72.3681 341.244 72.3681C340.779 72.3131 340.31 72.3131 339.845 72.3681C339.637 72.3821 339.429 72.3531 339.233 72.2821C337.905 71.8581 336.49 71.7781 335.122 72.0491C332.277 72.6391 327.949 73.7191 326.763 75.0111C324.953 76.9841 322.32 78.8741 319.358 87.0941L335.32 92.8481L333.954 95.4431L321.25 119.563C321.25 119.563 320.829 120.249 320.258 121.145V121.146C319.517 122.309 318.527 123.824 317.877 124.659C316.725 126.139 317.054 130.824 317.054 130.824C317.054 130.824 316.807 133.044 315.984 133.866C315.161 134.688 315.326 137.729 315.326 137.729L313.187 145.702C313.187 145.702 311.212 147.511 311.212 148.333C311.212 149.155 309.649 151.456 309.649 151.456C309.649 151.456 307.263 155.402 309.649 154.827Z" fill="#434175"/>
<path opacity="0.1" d="M393.902 160.745C393.902 160.745 388.719 162.471 387.32 164.937C385.921 167.403 393.902 160.745 393.902 160.745Z" fill="black"/>
<path opacity="0.1" d="M391.269 155.32C391.105 155.566 384.17 162.519 384.605 164.197C385.04 165.876 391.269 155.32 391.269 155.32Z" fill="black"/>
<path opacity="0.1" d="M353.174 160.252C353.174 160.252 345.44 163.896 344.782 165.485C344.124 167.074 353.174 160.252 353.174 160.252Z" fill="black"/>
<path opacity="0.1" d="M352.681 164.937C352.681 164.937 345.701 167.896 344.748 168.636C343.794 169.376 352.681 164.937 352.681 164.937Z" fill="black"/>
<path opacity="0.1" d="M349.472 171.266C349.472 171.266 346.38 173.568 344.676 171.76C342.972 169.951 349.472 171.266 349.472 171.266Z" fill="black"/>
<path opacity="0.1" d="M361.074 111.261C360.908 111.508 350.624 130.002 347.908 131.4C345.193 132.797 361.074 111.261 361.074 111.261Z" fill="black"/>
<path opacity="0.1" d="M360.579 118.248C360.579 118.659 350.541 140.113 348.896 140.36C347.25 140.606 360.579 118.248 360.579 118.248Z" fill="black"/>
<path opacity="0.1" d="M322.402 132.057C322.402 132.057 317.554 142.4 315.655 142.99C313.756 143.58 322.402 132.057 322.402 132.057Z" fill="black"/>
<path opacity="0.1" d="M321.579 127.454C321.579 127.454 319.908 131.071 318.892 131.071C317.877 131.071 321.579 127.454 321.579 127.454Z" fill="black"/>
<path opacity="0.1" d="M368.315 57.342C368.316 58.85 368.076 60.348 367.603 61.781C367.485 62.151 367.347 62.514 367.192 62.87C366.461 62.76 365.772 62.457 365.196 61.995C364.586 61.581 364.075 61.036 363.703 60.4C363.422 59.722 363.179 59.029 362.975 58.324C362.646 57.528 362.111 56.835 361.425 56.315C360.738 55.796 359.925 55.469 359.07 55.369C359.543 56.174 358.79 57.28 357.864 57.424C356.939 57.564 356.038 57.013 355.4 56.326C354.762 55.64 354.301 54.805 353.668 54.119C353.03 53.432 352.129 52.882 351.203 53.021C350.384 53.145 349.751 53.77 349.063 54.234C348.381 54.698 347.422 55.011 346.759 54.514C346.389 54.238 346.208 53.77 345.854 53.469C344.945 52.709 343.53 53.494 342.859 54.477C341.826 55.997 341.197 56.918 339.855 57.605C339.847 57.518 339.847 57.428 339.847 57.342C339.847 53.57 341.347 49.953 344.016 47.286C346.686 44.619 350.306 43.121 354.081 43.121C357.856 43.121 361.477 44.619 364.146 47.286C366.816 49.953 368.315 53.57 368.315 57.342Z" fill="black"/>
<path d="M342.86 54.065C343.53 53.082 344.944 52.296 345.856 53.06C346.21 53.357 346.391 53.826 346.76 54.104C347.421 54.601 348.381 54.289 349.065 53.823C349.749 53.357 350.384 52.735 351.203 52.61C352.129 52.47 353.031 53.021 353.667 53.708C354.303 54.395 354.764 55.229 355.4 55.915C356.036 56.602 356.939 57.153 357.864 57.012C358.79 56.87 359.545 55.763 359.069 54.957C359.924 55.058 360.737 55.385 361.423 55.905C362.11 56.424 362.645 57.117 362.973 57.913C363.178 58.617 363.421 59.31 363.702 59.988C364.074 60.624 364.586 61.169 365.197 61.582C365.952 62.134 366.867 62.601 367.789 62.44C368.712 62.28 369.492 61.224 369.064 60.393C369.358 60.84 369.991 60.217 370.087 59.69C370.296 58.535 370.23 57.347 369.897 56.221C369.442 54.693 368.488 53.178 368.856 51.627C369.147 50.399 370.197 49.517 370.835 48.427C371.965 46.496 371.665 43.895 370.291 42.129C369.576 41.263 368.667 40.577 367.639 40.127C366.61 39.676 365.49 39.474 364.368 39.535C363.75 39.606 363.127 39.617 362.506 39.57C361.473 39.417 360.6 38.752 359.776 38.11L352.885 32.736C352.118 32.061 351.235 31.529 350.28 31.168C349.306 30.866 348.138 30.97 347.417 31.691C346.127 32.98 346.947 35.198 346.429 36.946C345.98 38.461 344.536 39.487 343.04 39.998C341.545 40.509 339.945 40.622 338.409 40.992C337.95 41.067 337.522 41.267 337.169 41.569C336.77 42.06 336.577 42.686 336.63 43.316C336.621 44.863 336.988 46.388 337.7 47.761C338.498 49.295 339.763 50.871 339.316 52.54C339.079 53.424 338.397 54.104 337.797 54.795C336.494 56.291 336.055 58.502 338.505 57.73C340.866 56.986 341.528 56.022 342.86 54.065Z" fill="#434175"/>
<g opacity="0.1">
<path opacity="0.1" d="M370.088 58.0701C369.992 58.5961 369.36 59.2191 369.065 58.7721C369.494 59.6041 368.713 60.6591 367.791 60.8201C366.868 60.9801 365.953 60.5141 365.198 59.9611C364.587 59.5481 364.076 59.0041 363.703 58.3681C363.422 57.6901 363.179 56.9971 362.974 56.2921C362.646 55.4971 362.111 54.8041 361.425 54.2841C360.738 53.7651 359.926 53.4381 359.07 53.3371C359.546 54.1431 358.792 55.2501 357.866 55.3911C356.94 55.5331 356.037 54.9821 355.401 54.2951C354.765 53.6081 354.304 52.7751 353.668 52.0881C353.032 51.4001 352.13 50.8491 351.204 50.9901C350.385 51.1141 349.75 51.7361 349.066 52.2021C348.382 52.6691 347.422 52.9811 346.761 52.4831C346.392 52.2051 346.211 51.7361 345.857 51.4401C344.946 50.6751 343.531 51.4621 342.862 52.4451C341.529 54.4011 340.867 55.3651 338.507 56.1091C337.732 56.3541 337.247 56.2981 336.986 56.0631C336.468 57.2511 336.704 58.2981 338.507 57.7301C340.867 56.9861 341.529 56.0221 342.862 54.0651C343.531 53.0821 344.946 52.2961 345.857 53.0601C346.211 53.3571 346.392 53.8261 346.761 54.1041C347.422 54.6021 348.382 54.2891 349.066 53.8231C349.75 53.3571 350.386 52.7351 351.204 52.6101C352.13 52.4701 353.032 53.0211 353.668 53.7081C354.304 54.3951 354.765 55.2291 355.401 55.9151C356.037 56.6021 356.94 57.1531 357.866 57.0121C358.792 56.8701 359.546 55.7631 359.07 54.9571C359.926 55.0581 360.738 55.3851 361.425 55.9051C362.111 56.4241 362.646 57.1171 362.974 57.9131C363.179 58.6171 363.422 59.3101 363.703 59.9881C364.076 60.6241 364.587 61.1691 365.198 61.5821C365.953 62.1341 366.868 62.6011 367.791 62.4401C368.713 62.2801 369.494 61.2241 369.065 60.3931C369.36 60.8401 369.992 60.2171 370.088 59.6901C370.216 58.9811 370.241 58.2571 370.162 57.5401C370.143 57.7171 370.12 57.8941 370.088 58.0701Z" fill="black"/>
<path opacity="0.1" d="M339.296 50.9821C339.302 50.9611 339.311 50.9411 339.317 50.9201C339.765 49.2501 338.5 47.6741 337.702 46.1411C337.142 45.0591 336.795 43.8811 336.679 42.6691C336.648 42.8831 336.632 43.1001 336.632 43.3161C336.622 44.8631 336.989 46.3881 337.702 47.7611C338.247 48.8091 339.01 49.8781 339.296 50.9821Z" fill="black"/>
<path opacity="0.1" d="M370.836 46.807C370.199 47.896 369.148 48.778 368.857 50.006C368.744 50.526 368.749 51.064 368.872 51.581C369.178 50.377 370.207 49.503 370.836 48.427C371.43 47.374 371.653 46.152 371.47 44.957C371.38 45.609 371.165 46.237 370.836 46.807Z" fill="black"/>
</g>
<path opacity="0.1" d="M320.258 121.145V121.146C320.367 121.6 320.451 122.059 320.51 122.522C320.51 122.522 327.01 137.729 327.832 138.633C328.086 138.911 329.04 140.279 330.24 142.04C330.674 142.676 331.14 143.365 331.617 144.072C334.105 147.761 336.883 151.95 336.883 151.95L342.972 157.293C342.972 157.293 356.217 158.351 360.426 154.057C359.916 153.702 359.592 153.511 359.592 153.511L357.782 152.106C356.847 150.531 353.273 148.997 349.654 147.792C346.32 147.817 343.594 148.086 343.594 148.086L342.726 145.804L341.821 143.424L337.219 131.318C337.219 131.318 334.25 116.029 333.263 115.289C332.275 114.549 332.522 112.247 332.522 112.247C332.522 112.247 334.332 105.754 333.674 104.849C333.016 103.945 334.744 97.287 334.744 97.287C334.572 96.637 334.306 96.016 333.954 95.443L321.25 119.563C321.25 119.563 320.829 120.249 320.258 121.145Z" fill="black"/>
<path d="M334.908 96.794C334.908 96.794 333.18 103.452 333.839 104.356C334.497 105.26 332.687 111.754 332.687 111.754C332.687 111.754 332.44 114.056 333.427 114.796C334.415 115.535 337.383 130.824 337.383 130.824L343.758 147.593C343.758 147.593 363.706 145.62 361.649 151.867C359.592 158.115 343.136 156.799 343.136 156.799L337.048 151.456C337.048 151.456 328.82 139.044 327.997 138.14C327.174 137.236 320.674 122.029 320.674 122.029C320.674 122.029 320.345 118.988 318.946 117.426C317.548 115.864 318.617 113.223 318.617 113.223C318.617 113.223 316.889 93.342 318.699 90.958C320.51 88.574 333.016 89.643 334.908 96.794Z" fill="#EE8E9E"/>
<path opacity="0.1" d="M324.706 84.3001L319.522 87.4231C319.522 87.4231 318.041 92.4371 316.889 93.0951C316.889 93.0951 327.257 87.3411 335.073 100.575C335.073 100.575 334.826 98.8491 335.896 98.0271C336.965 97.2051 336.719 93.6701 336.719 93.6701C337.003 93.1121 337.251 92.5351 337.459 91.9441C338.2 90.1361 334.332 79.7791 324.706 84.3001Z" fill="black"/>
<path d="M324.541 83.971L319.358 87.094C319.358 87.094 317.877 92.109 316.725 92.766C316.725 92.766 327.092 87.012 334.908 100.246C334.908 100.246 334.661 98.52 335.731 97.698C336.801 96.876 336.554 93.342 336.554 93.342C336.838 92.783 337.086 92.206 337.294 91.615C338.035 89.807 334.168 79.45 324.541 83.971Z" fill="#434175"/>
<path d="M278.34 227.923C286.874 227.923 293.793 220.587 293.793 211.537C293.793 202.487 286.874 195.15 278.34 195.15C269.806 195.15 262.887 202.487 262.887 211.537C262.887 220.587 269.806 227.923 278.34 227.923Z" fill="#FBD56F"/>
<path opacity="0.1" d="M278.34 227.923C286.874 227.923 293.793 220.587 293.793 211.537C293.793 202.487 286.874 195.15 278.34 195.15C269.806 195.15 262.887 202.487 262.887 211.537C262.887 220.587 269.806 227.923 278.34 227.923Z" fill="black"/>
<path d="M281.007 227.923C289.541 227.923 296.46 220.75 296.46 211.902C296.46 203.053 289.541 195.88 281.007 195.88C272.473 195.88 265.554 203.053 265.554 211.902C265.554 220.75 272.473 227.923 281.007 227.923Z" fill="#FBD56F"/>
<path d="M57.0893 220.542C67.6298 220.542 76.1746 219.099 76.1746 217.319C76.1746 215.539 67.6298 214.095 57.0893 214.095C46.5487 214.095 38.0039 215.539 38.0039 217.319C38.0039 219.099 46.5487 220.542 57.0893 220.542Z" fill="#F19798"/>
<path d="M64.9809 212.046C65.7982 211.287 66.5649 210.392 66.8004 209.302C67.0359 208.213 66.5711 206.906 65.529 206.508C64.3612 206.062 63.1134 206.87 62.1673 207.687C61.2212 208.504 60.1369 209.436 58.8987 209.263C59.5357 208.686 60.0122 207.954 60.2819 207.139C60.5516 206.324 60.6052 205.452 60.4376 204.61C60.3833 204.262 60.2353 203.936 60.0097 203.665C59.3614 202.973 58.1863 203.27 57.4101 203.816C54.9418 205.55 54.253 208.9 54.2396 211.915C53.9907 210.827 54.2003 209.694 54.1942 208.578C54.188 207.463 53.882 206.226 52.9401 205.627C52.3533 205.311 51.6934 205.156 51.0273 205.178C49.9178 205.137 48.682 205.248 47.9243 206.059C46.9828 207.066 47.2269 208.757 48.046 209.866C48.8651 210.975 50.111 211.669 51.2578 212.435C52.1777 212.983 52.9623 213.73 53.553 214.623C53.6225 214.747 53.6795 214.878 53.7232 215.013H60.6792C62.2406 214.223 63.6877 213.224 64.9809 212.046Z" fill="#F19798"/>
<path d="M229.683 196.3C230.533 197.464 231.229 198.732 231.752 200.074C231.89 200.421 232.025 200.786 232.153 201.168C234.209 207.307 230.951 214.669 230.02 213.875C229.089 213.081 226.186 211.608 225.625 213.678C225.064 215.749 222.99 217.865 222.99 217.865C219.213 221.66 215.794 217.56 213.55 213.323C212.817 211.925 212.165 210.486 211.597 209.013C211.099 207.711 210.813 206.812 210.813 206.812L226.545 193.42C226.545 193.42 228.066 194.118 229.683 196.3Z" fill="#F19798"/>
<path d="M204.888 204.864C205.738 206.027 206.433 207.295 206.956 208.637C207.094 208.984 207.23 209.349 207.358 209.731C209.414 215.87 206.156 223.232 205.224 222.438C204.293 221.644 201.39 220.171 200.829 222.241C200.268 224.312 198.195 226.428 198.195 226.428C194.417 230.223 190.999 226.123 188.754 221.886C188.021 220.488 187.369 219.049 186.802 217.576C186.304 216.274 186.017 215.375 186.017 215.375L201.75 201.984C201.75 201.984 203.271 202.681 204.888 204.864Z" fill="#F19798"/>
<path d="M155.101 216.693C155.013 218.131 154.738 219.551 154.283 220.918C154.168 221.273 154.039 221.64 153.893 222.016C151.554 228.053 144.343 231.644 144.133 230.438C143.923 229.233 142.63 226.248 140.875 227.485C139.121 228.721 136.173 229.028 136.173 229.028C130.84 229.542 130.828 224.205 131.806 219.512C132.135 217.968 132.552 216.445 133.057 214.949C133.504 213.63 133.858 212.755 133.858 212.755L154.525 212.476C154.525 212.476 155.25 213.982 155.101 216.693Z" fill="#F19798"/>
<path d="M128.398 209.965C128.31 211.403 128.035 212.823 127.58 214.189C127.465 214.545 127.336 214.912 127.19 215.288C124.852 221.325 117.641 224.916 117.431 223.71C117.221 222.505 115.928 219.52 114.173 220.756C112.418 221.993 109.47 222.3 109.47 222.3C104.138 222.814 104.125 217.477 105.104 212.784C105.432 211.24 105.85 209.717 106.354 208.221C106.802 206.902 107.156 206.027 107.156 206.027L127.822 205.748C127.822 205.748 128.548 207.254 128.398 209.965Z" fill="#F19798"/>
<path opacity="0.2" d="M229.683 196.3C230.533 197.464 231.229 198.732 231.752 200.074C231.89 200.421 232.025 200.786 232.153 201.168C234.209 207.307 230.951 214.669 230.02 213.875C229.089 213.081 226.186 211.608 225.625 213.678C225.064 215.749 222.99 217.865 222.99 217.865C219.213 221.66 215.794 217.56 213.55 213.323C212.817 211.925 212.165 210.486 211.597 209.013C211.099 207.711 210.813 206.812 210.813 206.812L226.545 193.42C226.545 193.42 228.066 194.118 229.683 196.3Z" fill="black"/>
<path opacity="0.2" d="M204.888 204.864C205.738 206.027 206.433 207.295 206.956 208.637C207.094 208.984 207.23 209.349 207.358 209.731C209.414 215.87 206.156 223.232 205.224 222.438C204.293 221.644 201.39 220.171 200.829 222.241C200.268 224.312 198.195 226.428 198.195 226.428C194.417 230.223 190.999 226.123 188.754 221.886C188.021 220.488 187.369 219.049 186.802 217.576C186.304 216.274 186.017 215.375 186.017 215.375L201.75 201.984C201.75 201.984 203.271 202.681 204.888 204.864Z" fill="black"/>
<path opacity="0.2" d="M155.101 216.693C155.013 218.131 154.738 219.551 154.283 220.918C154.168 221.273 154.039 221.64 153.893 222.016C151.554 228.053 144.343 231.644 144.133 230.438C143.923 229.233 142.63 226.248 140.875 227.485C139.121 228.721 136.173 229.028 136.173 229.028C130.84 229.542 130.828 224.205 131.806 219.512C132.135 217.968 132.552 216.445 133.057 214.949C133.504 213.63 133.858 212.755 133.858 212.755L154.525 212.476C154.525 212.476 155.25 213.982 155.101 216.693Z" fill="black"/>
<path opacity="0.2" d="M128.398 209.965C128.31 211.403 128.035 212.823 127.58 214.189C127.465 214.545 127.336 214.912 127.19 215.288C124.852 221.325 117.641 224.916 117.431 223.71C117.221 222.505 115.928 219.52 114.173 220.756C112.418 221.993 109.47 222.3 109.47 222.3C104.138 222.814 104.125 217.477 105.104 212.784C105.432 211.24 105.85 209.717 106.354 208.221C106.802 206.902 107.156 206.027 107.156 206.027L127.822 205.748C127.822 205.748 128.548 207.254 128.398 209.965Z" fill="black"/>
<path d="M271.649 119.479C271.649 174.625 252.976 219.33 166.803 219.33C108.899 219.33 64.1007 204.956 61.9579 119.479C60.5758 64.3501 108.899 19.6281 166.803 19.6281C224.708 19.6281 271.649 64.3331 271.649 119.479Z" fill="#F28482"/>
<path opacity="0.2" d="M147.135 21.371H147.148C147.145 21.373 147.142 21.374 147.138 21.374L147.135 21.371Z" fill="black"/>
<path opacity="0.2" d="M147.34 21.3381C147.607 21.2951 148.133 21.2211 148.898 21.1631L147.193 21.3651C147.218 21.3591 147.248 21.3531 147.285 21.3471C147.304 21.3441 147.319 21.3411 147.34 21.3381Z" fill="black"/>
<path opacity="0.2" d="M224.813 62.137L217.16 64.89C213.259 59.663 209.061 54.664 204.588 49.917C199.705 44.714 194.378 39.947 188.666 35.668C169.072 21.16 153.916 20.79 148.911 21.163L160.415 19.812C171.287 21.68 181.743 25.456 191.299 30.965C197.984 34.815 204.211 39.41 209.859 44.663C219.875 53.95 224.813 62.137 224.813 62.137Z" fill="black"/>
<path opacity="0.2" d="M155.63 67.336C155.63 67.336 145.528 33.696 154.099 24.521C154.099 24.521 167.569 19.934 177.67 45.929L155.63 67.336Z" fill="black"/>
<path d="M206.782 35.916C206.782 35.916 233.572 13.173 245.423 17.335C245.423 17.335 255.034 27.819 235.254 47.494L206.782 35.916Z" fill="#F19798"/>
<path opacity="0.2" d="M206.782 35.916C206.782 35.916 233.572 13.173 245.423 17.335C245.423 17.335 255.034 27.819 235.254 47.494L206.782 35.916Z" fill="black"/>
<path d="M290.322 144.862C290.322 174.504 269.03 197.922 248.996 197.922C228.962 197.922 217.772 174.504 217.772 144.862C217.772 115.22 234.046 92.349 254.047 91.19C285.73 89.356 290.322 115.22 290.322 144.862Z" fill="#F19798"/>
<path opacity="0.2" d="M290.322 144.862C290.322 174.504 269.03 197.922 248.996 197.922C228.962 197.922 217.772 174.504 217.772 144.862C217.772 115.22 234.046 92.349 254.047 91.19C285.73 89.356 290.322 115.22 290.322 144.862Z" fill="black"/>
<path d="M247.772 157.86C251.491 157.86 254.506 154.026 254.506 149.297C254.506 144.568 251.491 140.734 247.772 140.734C244.052 140.734 241.037 144.568 241.037 149.297C241.037 154.026 244.052 157.86 247.772 157.86Z" fill="#F19798"/>
<path d="M271.649 150.52C275.368 150.52 278.383 146.686 278.383 141.957C278.383 137.228 275.368 133.394 271.649 133.394C267.929 133.394 264.914 137.228 264.914 141.957C264.914 146.686 267.929 150.52 271.649 150.52Z" fill="#F19798"/>
<path d="M211.166 39.14C211.171 41.058 210.723 42.95 209.859 44.663C208.718 46.939 206.868 48.783 204.587 49.917C199.705 44.714 194.378 39.947 188.666 35.668C189.175 33.921 190.075 32.313 191.299 30.965C192.354 29.79 193.644 28.85 195.085 28.204C196.527 27.559 198.088 27.223 199.668 27.219C206.017 27.219 211.166 32.555 211.166 39.14Z" fill="#FAD46F"/>
</g>
<defs>
<filter id="filter0_d" x="0" y="0.826294" width="500" height="268.174" filterUnits="userSpaceOnUse" color-interpolation-filters="sRGB">
<feFlood flood-opacity="0" result="BackgroundImageFix"/>
<feColorMatrix in="SourceAlpha" type="matrix" values="0 0 0 0 0 0 0 0 0 0 0 0 0 0 0 0 0 0 127 0"/>
<feOffset dy="4"/>
<feGaussianBlur stdDeviation="10"/>
<feColorMatrix type="matrix" values="0 0 0 0 0 0 0 0 0 0 0 0 0 0 0 0 0 0 0.25 0"/>
<feBlend mode="normal" in2="BackgroundImageFix" result="effect1_dropShadow"/>
<feBlend mode="normal" in="SourceGraphic" in2="effect1_dropShadow" result="shape"/>
</filter>
<linearGradient id="paint0_linear" x1="366.036" y1="236.461" x2="366.036" y2="29.2751" gradientUnits="userSpaceOnUse">
<stop stop-color="#808080" stop-opacity="0.25"/>
<stop offset="0.53514" stop-color="#808080" stop-opacity="0.12"/>
<stop offset="1" stop-color="#808080" stop-opacity="0.1"/>
</linearGradient>
</defs>
</svg>
