<svg width="120" height="120" viewBox="0 0 120 120" fill="none" xmlns="http://www.w3.org/2000/svg">
<g id="pinkCircle" filter="url(#filter0_d)">
<g id="circle">
<path id="Vector" d="M60 106C87.6142 106 110 83.6142 110 56C110 28.3858 87.6142 6 60 6C32.3858 6 10 28.3858 10 56C10 83.6142 32.3858 106 60 106Z" fill="#F28482"/>
</g>
<path id="shadow" d="M60 106C87.6142 106 110 83.6142 110 56C110 28.3858 87.6142 6 60 6C32.3858 6 10 28.3858 10 56C10 83.6142 32.3858 106 60 106Z" fill="url(#paint0_linear)"/>
</g>
<defs>
<filter id="filter0_d" x="0" y="0" width="120" height="120" filterUnits="userSpaceOnUse" color-interpolation-filters="sRGB">
<feFlood flood-opacity="0" result="BackgroundImageFix"/>
<feColorMatrix in="SourceAlpha" type="matrix" values="0 0 0 0 0 0 0 0 0 0 0 0 0 0 0 0 0 0 127 0"/>
<feOffset dy="4"/>
<feGaussianBlur stdDeviation="5"/>
<feColorMatrix type="matrix" values="0 0 0 0 0 0 0 0 0 0 0 0 0 0 0 0 0 0 0.25 0"/>
<feBlend mode="normal" in2="BackgroundImageFix" result="effect1_dropShadow"/>
<feBlend mode="normal" in="SourceGraphic" in2="effect1_dropShadow" result="shape"/>
</filter>
<linearGradient id="paint0_linear" x1="125" y1="140.5" x2="66.5" y2="85" gradientUnits="userSpaceOnUse">
<stop stop-color="#9FFFC6"/>
<stop offset="0.421875" stop-color="#C4FFDB" stop-opacity="0.619792"/>
<stop offset="1" stop-color="white" stop-opacity="0"/>
</linearGradient>
</defs>
</svg>
