<svg width="50" height="51" viewBox="0 0 50 51" fill="none" xmlns="http://www.w3.org/2000/svg">
<circle cx="25" cy="25.4592" r="25" fill="#F1D6C7"/>
<g clip-path="url(#clip0)">
<path d="M32.875 21.2845H29.3155C29.5709 21.0983 29.7902 20.9133 29.9432 20.7474C30.85 19.773 30.85 18.1869 29.9432 17.2124C29.0624 16.2656 27.5256 16.2644 26.6436 17.2124C26.1565 17.7351 24.8616 19.8631 25.0405 21.2845H24.9595C25.1372 19.8631 23.8435 17.7351 23.3564 17.2124C22.4744 16.2644 20.9376 16.2656 20.0567 17.2124C19.15 18.1869 19.15 19.773 20.0556 20.7474C20.2098 20.9133 20.4291 21.0983 20.6845 21.2845H17.125C16.5051 21.2845 16 21.824 16 22.4861V25.49C16 25.8217 16.252 26.0908 16.5625 26.0908H17.125V33.3003C17.125 33.9623 17.6301 34.5018 18.25 34.5018H31.75C32.3699 34.5018 32.875 33.9623 32.875 33.3003V26.0908H33.4375C33.748 26.0908 34 25.8217 34 25.49V22.4861C34 21.824 33.4949 21.2845 32.875 21.2845ZM20.8544 18.0595C21.0827 17.8144 21.3854 17.6798 21.7071 17.6798C22.0278 17.6798 22.3304 17.8144 22.5588 18.0595C23.317 18.8742 24.0708 20.9553 23.8086 21.2449C23.8086 21.2449 23.7614 21.2845 23.6005 21.2845C22.8231 21.2845 21.3393 20.4218 20.8544 19.9003C20.383 19.3933 20.383 18.5666 20.8544 18.0595ZM24.4375 33.3003H18.25V26.0908H24.4375V33.3003ZM24.4375 24.8893H17.125V22.4861H23.6005H24.4375V24.8893ZM27.4412 18.0595C27.898 17.5705 28.69 17.5717 29.1456 18.0595C29.617 18.5666 29.617 19.3933 29.1456 19.9003C28.6608 20.4218 27.1769 21.2845 26.3995 21.2845C26.2386 21.2845 26.1914 21.2461 26.1902 21.2449C25.9292 20.9553 26.683 18.8742 27.4412 18.0595ZM31.75 33.3003H25.5625V26.0908H31.75V33.3003ZM32.875 24.8893H25.5625V22.4861H26.3995H32.875V24.8893Z" fill="#F58438"/>
</g>
<defs>
<clipPath id="clip0">
<rect width="20" height="20" fill="white" transform="translate(16 16.5018)"/>
</clipPath>
</defs>
</svg>
