<svg width="512" height="512" viewBox="0 0 512 512" fill="none" xmlns="http://www.w3.org/2000/svg">
<path d="M72 120C98.5097 120 120 98.5097 120 72C120 45.4903 98.5097 24 72 24C45.4903 24 24 45.4903 24 72C24 98.5097 45.4903 120 72 120Z" fill="#FBBEBE"/>
<path d="M296 120C322.51 120 344 98.5097 344 72C344 45.4903 322.51 24 296 24C269.49 24 248 45.4903 248 72C248 98.5097 269.49 120 296 120Z" fill="#FBBEBE"/>
<path d="M112 64H232V80H112V64Z" fill="white"/>
<path d="M396 264H248V248H396C442.32 248 480 210.316 480 164C480 117.684 442.32 80 396 80H336V64H396C451.141 64 496 108.859 496 164C496 219.141 451.141 264 396 264Z" fill="white"/>
<path d="M340.5 448H121.5C66.3594 448 21.5 403.141 21.5 348C21.5 292.859 66.3594 248 121.5 248H149.5V264H121.5C75.1797 264 37.5 301.684 37.5 348C37.5 394.316 75.1797 432 121.5 432H340.5V448Z" fill="white"/>
<path d="M440 488C466.51 488 488 466.51 488 440C488 413.49 466.51 392 440 392C413.49 392 392 413.49 392 440C392 466.51 413.49 488 440 488Z" fill="#FFEBB6"/>
<path d="M184 304C210.51 304 232 282.51 232 256C232 229.49 210.51 208 184 208C157.49 208 136 229.49 136 256C136 282.51 157.49 304 184 304Z" fill="#FBBEBE"/>
<path d="M96.9492 31.0508C101.393 38.3276 104 46.8491 104 56C104 82.5097 82.5097 104 56 104C46.8491 104 38.3276 101.393 31.0508 96.9492C39.4805 110.754 54.6411 120 72 120C98.5097 120 120 98.5097 120 72C120 54.6411 110.754 39.4805 96.9492 31.0508V31.0508Z" fill="#F19798"/>
<path d="M320.949 31.0508C325.393 38.3276 328 46.8491 328 56C328 82.5097 306.51 104 280 104C270.849 104 262.328 101.393 255.051 96.9492C263.48 110.754 278.641 120 296 120C322.51 120 344 98.5097 344 72C344 54.6411 334.754 39.4805 320.949 31.0508V31.0508Z" fill="#F19798"/>
<path d="M464.949 399.051C469.393 406.328 472 414.849 472 424C472 450.51 450.51 472 424 472C414.849 472 406.328 469.393 399.051 464.949C407.48 478.754 422.641 488 440 488C466.51 488 488 466.51 488 440C488 422.641 478.754 407.48 464.949 399.051Z" fill="#FFE191"/>
<path d="M208.949 215.051C213.393 222.328 216 230.849 216 240C216 266.51 194.51 288 168 288C158.849 288 150.328 285.393 143.051 280.949C151.48 294.754 166.641 304 184 304C210.51 304 232 282.51 232 256C232 238.641 222.754 223.48 208.949 215.051Z" fill="#F19798"/>
<path d="M213.656 101.656L202.344 90.3437L220.688 72L202.344 53.6562L213.656 42.3438L243.312 72L213.656 101.656Z" fill="white"/>
<path d="M266.344 285.656L236.688 256L266.344 226.344L277.656 237.656L259.312 256L277.656 274.344L266.344 285.656Z" fill="white"/>
<path d="M333.312 469.312L322 458L340.344 439.656L322 421.312L333.312 410L362.969 439.656L333.312 469.312Z" fill="white"/>
</svg>
