<svg width="50" height="51" viewBox="0 0 50 51" fill="none" xmlns="http://www.w3.org/2000/svg">
<circle cx="25" cy="25.9573" r="25" fill="#BFD6F8"/>
<g clip-path="url(#clip0)">
<path d="M24.1664 36.1536C19.1124 36.1536 15 32.0414 15 26.9874C15 21.9333 19.1124 17.8209 24.1664 17.8209C25.9239 17.8209 27.6337 18.3217 29.1112 19.27C29.4013 19.4568 29.4862 19.8434 29.2995 20.1342C29.1121 20.4251 28.7262 20.5091 28.4354 20.3225C27.1604 19.5033 25.6839 19.0709 24.1664 19.0709C19.8015 19.0709 16.25 22.6224 16.25 26.9874C16.25 31.3521 19.8015 34.9037 24.1664 34.9037C28.5312 34.9037 32.0828 31.3521 32.0828 26.9874C32.0828 26.7264 32.0702 26.4681 32.0461 26.2141C32.0129 25.8698 32.2645 25.5648 32.6078 25.5316C32.9528 25.4998 33.2569 25.7499 33.2903 26.0932C33.3185 26.3874 33.3327 26.6857 33.3327 26.9874C33.3327 32.0414 29.2204 36.1536 24.1664 36.1536Z" fill="#3682F3"/>
<path d="M25.2079 29.0706C25.048 29.0706 24.888 29.0097 24.7664 28.8874L21.0165 25.1375C20.7723 24.8932 20.7723 24.4974 21.0165 24.2533C21.2606 24.0091 21.6564 24.0091 21.9005 24.2533L25.2088 27.5616L33.9326 18.8376C34.1769 18.5935 34.5727 18.5935 34.8169 18.8376C35.061 19.0818 35.061 19.4776 34.8169 19.7217L25.6504 28.8881C25.5279 29.0097 25.368 29.0706 25.2079 29.0706Z" fill="#3682F3"/>
</g>
<defs>
<clipPath id="clip0">
<rect width="20" height="20" fill="white" transform="translate(15 17)"/>
</clipPath>
</defs>
</svg>
