<svg width="288" height="343" viewBox="0 0 288 343" fill="none" xmlns="http://www.w3.org/2000/svg">
<g filter="url(#filter0_d)">
<path d="M15 289.895C15 297.569 68.3126 323.86 131.825 323.86C195.338 323.86 245 297.569 245 289.895C245 282.221 195.338 296.07 131.825 296.07C68.3126 296.07 15 282.221 15 289.895Z" fill="#3F3D3D"/>
<path opacity="0.1" d="M15 289.895C15 297.569 68.3126 323.86 131.825 323.86C195.338 323.86 245 297.569 245 289.895C245 282.221 195.338 296.07 131.825 296.07C68.3126 296.07 15 282.221 15 289.895Z" fill="#3F3D3D"/>
<path d="M130 303.79C66.4873 303.79 15 297.569 15 289.895C15 282.221 66.4873 276 130 276C193.513 276 245 282.221 245 289.895C245 297.569 193.513 303.79 130 303.79Z" fill="#12A874"/>
</g>
<path d="M143 0H287.804V168H143V0Z" fill="url(#paint0_linear)"/>
<path d="M144.685 1.95508H286.117V166.04H144.685V1.95508Z" fill="white"/>
<path d="M241.821 20.4507H277.575V23.2958H241.821V20.4507Z" fill="#12A874"/>
<path d="M216.51 27.4062H277.575V30.2513H216.51V27.4062Z" fill="#12A874"/>
<path d="M151.458 17.7324H176.833V39.6107H151.458V17.7324Z" fill="white"/>
<path d="M151.593 17.8592V39.4839H176.716V17.8592H151.593ZM151.339 17.6056H176.97V39.7375H151.339V17.6056Z" fill="#12A874"/>
<path d="M177.087 17.7324H202.461V39.6107H177.087V17.7324Z" fill="white"/>
<path d="M177.224 17.8592V39.4839H202.347V17.8592H177.224ZM176.97 17.6056H202.601V39.7375H176.97V17.6056Z" fill="#12A874"/>
<path d="M151.458 39.8643H176.833V61.7426H151.458V39.8643Z" fill="white"/>
<path d="M151.593 39.9911V61.6158H176.716V39.9911H151.593ZM151.339 39.7375H176.97V61.8694H151.339V39.7375Z" fill="#12A874"/>
<path d="M177.087 39.8643H202.461V61.7426H177.087V39.8643Z" fill="white"/>
<path d="M177.224 39.9911V61.6158H202.347V39.9911H177.224ZM176.97 39.7375H202.601V61.8694H176.97V39.7375Z" fill="#12A874"/>
<path d="M202.715 39.8643H228.089V61.7426H202.715V39.8643Z" fill="white"/>
<path d="M202.842 39.9911V61.6158H227.965V39.9911H202.842ZM202.588 39.7375H228.219V61.8694H202.588V39.7375Z" fill="#12A874"/>
<path d="M228.343 39.8643H253.718V61.7426H228.343V39.8643Z" fill="white"/>
<path d="M228.47 39.9911V61.6158H253.593V39.9911H228.47ZM228.216 39.7375H253.847V61.8694H228.216V39.7375Z" fill="#12A874"/>
<path d="M253.972 39.8643H279.346V61.7426H253.972V39.8643Z" fill="white"/>
<path d="M254.098 39.9911V61.6158H279.222V39.9911H254.098ZM253.845 39.7375H279.475V61.8694H253.845V39.7375Z" fill="#12A874"/>
<path d="M149.585 61.8141H174.959V83.6924H149.585V61.8141Z" fill="white"/>
<path d="M151.593 62.123V83.7477H176.716V62.123H151.593ZM151.339 61.8694H176.97V84.0013H151.339V61.8694Z" fill="#12A874"/>
<path d="M177.087 61.9936H202.461V83.8719H177.087V61.9936Z" fill="white"/>
<path d="M177.224 62.123V83.7477H202.347V62.123H177.224ZM176.97 61.8694H202.601V84.0013H176.97V61.8694Z" fill="#12A874"/>
<path d="M202.715 61.9936H228.089V83.8719H202.715V61.9936Z" fill="white"/>
<path d="M202.842 62.123V83.7477H227.965V62.123H202.842ZM202.588 61.8694H228.219V84.0013H202.588V61.8694Z" fill="#12A874"/>
<path d="M228.343 61.9936H253.718V83.8719H228.343V61.9936Z" fill="white"/>
<path d="M228.47 62.123V83.7477H253.593V62.123H228.47ZM228.216 61.8694H253.847V84.0013H228.216V61.8694Z" fill="#12A874"/>
<path d="M253.972 61.9936H279.346V83.8719H253.972V61.9936Z" fill="white"/>
<path d="M254.098 62.123V83.7477H279.222V62.123H254.098ZM253.845 61.8694H279.475V84.0013H253.845V61.8694Z" fill="#12A874"/>
<path d="M151.458 84.1255H176.833V106.004H151.458V84.1255Z" fill="white"/>
<path d="M151.593 84.2523V105.877H176.716V84.2523H151.593ZM151.339 83.9987H176.97V106.131H151.339V83.9987Z" fill="#12A874"/>
<path d="M177.087 84.1255H202.461V106.004H177.087V84.1255Z" fill="white"/>
<path d="M177.224 84.2523V105.877H202.347V84.2523H177.224ZM176.97 83.9987H202.601V106.131H176.97V83.9987Z" fill="#12A874"/>
<path d="M202.715 84.1255H228.089V106.004H202.715V84.1255Z" fill="white"/>
<path d="M202.842 84.2523V105.877H227.965V84.2523H202.842ZM202.588 83.9987H228.219V106.131H202.588V83.9987Z" fill="#12A874"/>
<path d="M228.343 84.1255H253.718V106.004H228.343V84.1255Z" fill="white"/>
<path d="M228.47 84.2523V105.877H253.593V84.2523H228.47ZM228.216 83.9987H253.847V106.131H228.216V83.9987Z" fill="#12A874"/>
<path d="M253.972 84.1255H279.346V106.004H253.972V84.1255Z" fill="white"/>
<path d="M254.098 84.2523V105.877H279.222V84.2523H254.098ZM253.845 83.9987H279.475V106.131H253.845V83.9987Z" fill="#12A874"/>
<path d="M151.458 106.255H176.833V128.133H151.458V106.255Z" fill="white"/>
<path d="M151.593 106.384V128.006H176.716V106.384H151.593ZM151.339 106.131H176.97V128.26H151.339V106.131Z" fill="#12A874"/>
<path d="M177.087 106.255H202.461V128.133H177.087V106.255Z" fill="white"/>
<path d="M177.224 106.384V128.006H202.347V106.384H177.224ZM176.97 106.131H202.601V128.26H176.97V106.131Z" fill="#12A874"/>
<path d="M202.715 106.255H228.089V128.133H202.715V106.255Z" fill="white"/>
<path d="M202.842 106.384V128.006H227.965V106.384H202.842ZM202.588 106.131H228.219V128.26H202.588V106.131Z" fill="#12A874"/>
<path d="M228.343 106.255H253.718V128.133H228.343V106.255Z" fill="white"/>
<path d="M228.47 106.384V128.006H253.593V106.384H228.47ZM228.216 106.131H253.847V128.26H228.216V106.131Z" fill="#12A874"/>
<path d="M253.972 106.255H279.346V128.133H253.972V106.255Z" fill="white"/>
<path d="M254.098 106.384V128.006H279.222V106.384H254.098ZM253.845 106.131H279.475V128.26H253.845V106.131Z" fill="#12A874"/>
<path d="M151.458 128.387H176.833V150.265H151.458V128.387Z" fill="white"/>
<path d="M151.593 128.514V150.138H176.716V128.514H151.593ZM151.339 128.26H176.97V150.392H151.339V128.26Z" fill="#12A874"/>
<path d="M177.087 128.387H202.461V150.265H177.087V128.387Z" fill="white"/>
<path d="M177.224 128.514V150.138H202.347V128.514H177.224ZM176.97 128.26H202.601V150.392H176.97V128.26Z" fill="#12A874"/>
<path d="M202.715 128.387H228.089V150.265H202.715V128.387Z" fill="white"/>
<path d="M202.842 128.514V150.138H227.965V128.514H202.842ZM202.588 128.26H228.219V150.392H202.588V128.26Z" fill="#12A874"/>
<path d="M228.343 128.387H253.718V150.265H228.343V128.387Z" fill="white"/>
<path d="M228.47 128.514V150.138H253.593V128.514H228.47ZM228.216 128.26H253.847V150.392H228.216V128.26Z" fill="#12A874"/>
<path d="M253.972 128.387H279.346V150.265H253.972V128.387Z" fill="white"/>
<path d="M254.098 128.514V150.138H279.222V128.514H254.098ZM253.845 128.26H279.475V150.392H253.845V128.26Z" fill="#12A874"/>
<path d="M275.999 44.6365C275.2 44.6365 274.552 43.9894 274.552 43.1912C274.552 42.3929 275.2 41.7458 275.999 41.7458C276.798 41.7458 277.445 42.3929 277.445 43.1912C277.445 43.9894 276.798 44.6365 275.999 44.6365Z" fill="#FC6681"/>
<path d="M272.385 44.6365C271.586 44.6365 270.939 43.9894 270.939 43.1912C270.939 42.3929 271.586 41.7458 272.385 41.7458C273.184 41.7458 273.832 42.3929 273.832 43.1912C273.832 43.9894 273.184 44.6365 272.385 44.6365Z" fill="#FFD037"/>
<path d="M224.92 66.0635C224.121 66.0635 223.473 65.4164 223.473 64.6181C223.473 63.8198 224.121 63.1727 224.92 63.1727C225.719 63.1727 226.366 63.8198 226.366 64.6181C226.366 65.4164 225.719 66.0635 224.92 66.0635Z" fill="#12A874"/>
<path d="M221.304 66.0635C220.505 66.0635 219.857 65.4164 219.857 64.6181C219.857 63.8198 220.505 63.1727 221.304 63.1727C222.103 63.1727 222.75 63.8198 222.75 64.6181C222.75 65.4164 222.103 66.0635 221.304 66.0635Z" fill="#12A874"/>
<path d="M173.118 44.6365C172.319 44.6365 171.671 43.9894 171.671 43.1912C171.671 42.3929 172.319 41.7458 173.118 41.7458C173.917 41.7458 174.564 42.3929 174.564 43.1912C174.564 43.9894 173.917 44.6365 173.118 44.6365Z" fill="#12A874"/>
<path d="M169.504 44.6365C168.705 44.6365 168.057 43.9894 168.057 43.1912C168.057 42.3929 168.705 41.7458 169.504 41.7458C170.303 41.7458 170.95 42.3929 170.95 43.1912C170.95 43.9894 170.303 44.6365 169.504 44.6365Z" fill="#12A874"/>
<path d="M165.888 44.6365C165.089 44.6365 164.441 43.9894 164.441 43.1912C164.441 42.3929 165.089 41.7458 165.888 41.7458C166.687 41.7458 167.334 42.3929 167.334 43.1912C167.334 43.9894 166.687 44.6365 165.888 44.6365Z" fill="#12A874"/>
<path d="M162.274 44.6365C161.475 44.6365 160.828 43.9894 160.828 43.1912C160.828 42.3929 161.475 41.7458 162.274 41.7458C163.073 41.7458 163.721 42.3929 163.721 43.1912C163.721 43.9894 163.073 44.6365 162.274 44.6365Z" fill="#12A874"/>
<path d="M173.118 89.4151C172.319 89.4151 171.671 88.768 171.671 87.9697C171.671 87.1715 172.319 86.5244 173.118 86.5244C173.917 86.5244 174.564 87.1715 174.564 87.9697C174.564 88.768 173.917 89.4151 173.118 89.4151Z" fill="#12A874"/>
<path d="M169.504 89.4151C168.705 89.4151 168.057 88.768 168.057 87.9697C168.057 87.1715 168.705 86.5244 169.504 86.5244C170.303 86.5244 170.95 87.1715 170.95 87.9697C170.95 88.768 170.303 89.4151 169.504 89.4151Z" fill="#12A874"/>
<path d="M165.888 89.4151C165.089 89.4151 164.441 88.768 164.441 87.9697C164.441 87.1715 165.089 86.5244 165.888 86.5244C166.687 86.5244 167.334 87.1715 167.334 87.9697C167.334 88.768 166.687 89.4151 165.888 89.4151Z" fill="#12A874"/>
<path d="M162.274 89.4151C161.475 89.4151 160.828 88.768 160.828 87.9697C160.828 87.1715 161.475 86.5244 162.274 86.5244C163.073 86.5244 163.721 87.1715 163.721 87.9697C163.721 88.768 163.073 89.4151 162.274 89.4151Z" fill="#12A874"/>
<path d="M250.459 66.0635C249.66 66.0635 249.013 65.4164 249.013 64.6181C249.013 63.8198 249.66 63.1727 250.459 63.1727C251.258 63.1727 251.906 63.8198 251.906 64.6181C251.906 65.4164 251.258 66.0635 250.459 66.0635Z" fill="#FFD037"/>
<path d="M275.999 87.9722C275.2 87.9722 274.552 87.3251 274.552 86.5268C274.552 85.7286 275.2 85.0815 275.999 85.0815C276.798 85.0815 277.445 85.7286 277.445 86.5268C277.445 87.3251 276.798 87.9722 275.999 87.9722Z" fill="#FC6681"/>
<path d="M152.843 140.372C151.594 140.372 150.581 139.361 150.581 138.113C150.581 136.865 151.594 135.853 152.843 135.853C154.092 135.853 155.104 136.865 155.104 138.113C155.104 139.361 154.092 140.372 152.843 140.372Z" fill="#12A874"/>
<path d="M151.712 137.74C150.463 137.74 149.451 136.728 149.451 135.481C149.451 134.233 150.463 133.221 151.712 133.221C152.961 133.221 153.973 134.233 153.973 135.481C153.973 136.728 152.961 137.74 151.712 137.74Z" fill="#12A874"/>
<path d="M150.581 135.481C149.332 135.481 148.32 134.469 148.32 133.221C148.32 131.973 149.332 130.961 150.581 130.961C151.83 130.961 152.843 131.973 152.843 133.221C152.843 134.469 151.83 135.481 150.581 135.481Z" fill="#12A874"/>
<path d="M135.207 62.3589C135.207 62.3589 119.155 64.0279 121.496 57.348C122.151 55.4537 122.321 53.426 121.992 51.4491C121.576 48.9982 120.606 46.6743 119.155 44.6543L134.204 46.9932C133.302 48.4999 132.616 50.1252 132.164 51.8218C130.371 58.906 135.207 62.3589 135.207 62.3589Z" fill="#FBBEBE"/>
<path d="M107.467 137.189C107.467 137.189 107.801 151.555 111.145 158.572L111.816 178.953C111.816 178.953 113.823 197.327 111.816 201.002C109.808 204.677 113.169 236.086 113.169 236.086V241.434C113.169 241.434 123.881 245.442 126.88 240.764L123.869 201.002L125.206 145.874L107.467 137.189Z" fill="#FBBEBE"/>
<path opacity="0.1" d="M107.138 136.929C107.138 136.929 107.486 151.346 110.982 158.388L111.683 178.841C111.683 178.841 113.781 197.281 111.683 200.969C109.585 204.657 113.097 236.178 113.097 236.178V241.545C113.097 241.545 124.292 245.567 127.427 240.872L124.28 200.969L125.677 145.645L107.138 136.929Z" fill="black"/>
<path d="M100.778 91.0797L98.7709 96.4276L97.1006 107.789C96.8749 109.372 97.0304 110.986 97.5541 112.496C98.0779 114.007 98.9547 115.371 100.112 116.475C104.123 120.483 109.475 128.836 109.475 128.836L115.823 109.807C115.823 109.807 109.475 108.804 110.471 104.459C111.467 100.114 111.145 92.0669 111.145 92.0669L100.778 91.0797Z" fill="#F28482"/>
<path d="M127.813 239.262L125.932 246.3C125.932 246.3 128.585 256.958 129.238 264.638C129.238 264.638 136.314 273.369 143.089 276.141C149.863 278.914 148.959 283.363 142.672 283.296C136.386 283.23 130.513 284.168 129.7 282.499C134.104 278.504 116.18 268.911 116.18 268.911L116.858 284.423L114.275 284.536L112.372 266.35C112.372 266.35 109.198 261.375 112.885 252.691L113.099 244.751L112.831 238.625C112.831 238.625 126.854 242.713 127.813 239.262Z" fill="#312F4F"/>
<path opacity="0.1" d="M130.498 244.404C126.209 251.143 119.532 247.325 118.35 246.564L118.834 245.089L128.53 242.417C129.021 243.225 129.695 243.905 130.498 244.404Z" fill="black"/>
<path d="M143.912 150.219C143.579 154.897 137.893 171.936 137.893 171.936L133.882 185.958C131.008 195.872 129.525 206.137 129.475 216.459C129.475 219.88 129.161 223.409 128.193 226.061C125.519 233.411 130.867 243.436 130.867 243.436C126.186 251.789 118.172 246.108 118.172 246.108V240.764C118.172 240.764 111.824 211.694 113.49 206.017C115.156 200.34 115.831 184.967 115.831 184.967V157.216C110.474 151.883 107.217 144.803 106.654 137.268C106.575 136.174 106.511 135.024 106.468 133.831C106.198 126.299 111.356 117.454 113.371 114.307C113.855 113.546 114.164 113.117 114.164 113.117L143.69 124.82L143.757 124.848V125.99V128.515L143.912 150.219Z" fill="#FBBEBE"/>
<path opacity="0.1" d="M133.882 45.6408C132.981 47.1475 132.294 48.7728 131.843 50.4694C130.209 51.0891 128.466 51.3754 126.719 51.3114C124.972 51.2474 123.256 50.8344 121.671 50.0967C121.254 47.6472 120.284 45.3247 118.834 43.3058L133.882 45.6408Z" fill="black"/>
<path d="M127.515 51.9962C120.312 51.9962 114.474 46.1622 114.474 38.9655C114.474 31.7689 120.312 25.9348 127.515 25.9348C134.717 25.9348 140.556 31.7689 140.556 38.9655C140.556 46.1622 134.717 51.9962 127.515 51.9962Z" fill="#FBBEBE"/>
<path opacity="0.1" d="M143.912 128.503L143.769 128.531C129.748 131.413 112.145 116.808 112.145 116.808C112.617 116.013 113.024 115.182 113.363 114.323C113.847 113.561 114.157 113.133 114.157 113.133L143.682 124.836L143.757 126.005L143.912 128.503Z" fill="black"/>
<path d="M135.185 61.1425C135.185 61.1425 128.075 54.0777 122.057 58.7556L110.808 64.723C110.808 64.723 103.166 68.353 104.154 79.0448L98.7709 96.4276L110.808 99.4365C110.808 99.4365 117.83 106.12 112.145 115.809C112.145 115.809 129.867 130.509 143.912 127.504L142.908 111.801C142.908 111.801 139.897 103.115 145.249 95.0956C150.601 87.0758 145.582 79.393 140.567 76.3841C140.567 76.3801 133.181 64.1515 135.185 61.1425Z" fill="#F28482"/>
<path opacity="0.1" d="M130.871 67.0243C130.871 67.0243 124.182 66.3543 122.512 83.7299C120.842 101.106 118.148 105.113 118.148 105.113C118.148 105.113 116.477 114.136 120.488 119.48C124.5 124.824 132.192 136.186 132.192 136.186C132.192 136.186 140.552 138.525 142.222 130.172L131.855 110.794C131.855 110.794 130.185 104.11 134.196 99.4326C138.207 94.7547 141.238 63.6824 130.871 67.0243Z" fill="black"/>
<path opacity="0.1" d="M137.06 78.5486C137.06 78.5486 137.727 88.8954 134.727 94.5882C131.728 100.281 131.716 107.619 134.727 111.635" fill="black"/>
<path opacity="0.1" d="M135.782 65.3197C135.782 65.3197 133.545 63.0744 127.109 62.7912C120.674 62.508 117.879 60.5458 117.879 60.5458" fill="black"/>
<path d="M132.795 240.89L130.914 247.928C130.914 247.928 133.568 258.586 134.221 266.266C134.221 266.266 141.297 274.997 148.071 277.769C154.845 280.542 153.941 284.991 147.655 284.924C141.368 284.858 135.495 285.796 134.683 284.127C139.087 280.131 121.163 270.539 121.163 270.539L121.84 286.051L119.257 286.164L117.354 267.978C117.354 267.978 114.18 263.003 117.867 254.319L118.081 246.379L117.814 240.253C117.814 240.253 131.837 244.341 132.795 240.89Z" fill="#2F2E41"/>
<path d="M106.338 22.4979C107.292 22.3289 108.28 22.3888 109.219 22.6728C110.158 22.9568 111.022 23.4568 111.74 24.1318C112.458 24.8069 113.011 25.6379 113.352 26.5568C113.693 27.4756 113.813 28.4563 113.702 29.4186C113.952 28.607 114.028 27.748 113.925 26.8964C113.823 26.0447 113.544 25.2191 113.106 24.4722C112.669 23.7253 112.082 23.0735 111.384 22.5584C110.686 22.0432 109.892 21.6761 109.052 21.4804C108.212 21.2847 107.345 21.2647 106.506 21.4216C105.668 21.5786 104.875 21.9091 104.18 22.392C103.485 22.875 102.902 23.4998 102.469 24.2266C102.036 24.9534 101.761 25.7662 101.664 26.6133C101.988 25.5612 102.593 24.6234 103.416 23.899C104.238 23.1746 105.248 22.6905 106.338 22.4979Z" fill="#2F2E41"/>
<path d="M124.009 49.9963C115.196 49.9963 108.052 42.7398 108.052 33.7884C108.052 24.837 115.196 17.5804 124.009 17.5804C132.821 17.5804 139.965 24.837 139.965 33.7884C139.965 37.3099 134.907 41.4501 136.982 43.2275C136.982 43.2275 135.673 44.8993 134.907 45.6273C132.055 48.3373 128.222 49.9963 124.009 49.9963Z" fill="#2F2E41"/>
<path d="M101.834 177.681C114.891 176.546 122.493 179.221 125.885 181.261C126.515 181.618 127.109 182.069 127.653 182.604C127.902 182.867 128.021 183.071 128.021 183.194C128.021 184.167 145.911 186.113 152.393 184.167C158.875 182.221 147.985 140.383 145.133 136.815C142.281 133.248 143.819 120.19 143.819 120.19C143.819 120.19 138.133 118.653 136.577 119.302C135.022 119.95 126.984 118.329 124.132 116.383C121.28 114.437 117.65 115.734 115.317 115.085C114.274 114.797 113.748 115.283 113.486 115.912C113.078 116.856 112.463 117.634 111.713 118.153C106.208 122.12 101.79 149.545 98.4637 164.708C94.8338 181.248 101.834 177.681 101.834 177.681Z" fill="#2F2E41"/>
<path d="M119.653 31.0183C124.28 31.0183 128.031 27.2086 128.031 22.5092C128.031 17.8097 124.28 14 119.653 14C115.027 14 111.276 17.8097 111.276 22.5092C111.276 27.2086 115.027 31.0183 119.653 31.0183Z" fill="#25252C"/>
<path d="M136.01 47.7352C136.46 47.1874 136.772 46.5472 136.919 45.8672C137.067 45.1872 137.046 44.4865 136.858 43.8225C136.67 43.1586 136.32 42.5502 135.838 42.0472C135.355 41.5442 134.754 41.1608 134.082 40.9284C134.704 41.026 135.296 41.2478 135.819 41.5797C136.342 41.9116 136.785 42.3463 137.12 42.8561C137.455 43.3659 137.674 43.9395 137.764 44.5405C137.855 45.1414 137.813 45.7565 137.643 46.3464C137.473 46.9364 137.178 47.4882 136.777 47.9668C136.375 48.4454 135.876 48.8402 135.312 49.1261C134.747 49.4119 134.13 49.5825 133.498 49.627C132.867 49.6715 132.235 49.5889 131.644 49.3844C132.45 49.5109 133.282 49.4244 134.05 49.1341C134.819 48.8438 135.496 48.3604 136.01 47.7352Z" fill="#2F2E41"/>
<path d="M139.454 128.836C139.454 128.836 146.477 130.172 149.821 135.52C150.786 137.124 151.963 138.591 153.32 139.88C153.626 140.157 153.862 140.501 154.011 140.885C154.161 141.269 154.218 141.682 154.18 142.093C154.141 142.503 154.008 142.898 153.79 143.248C153.572 143.597 153.275 143.891 152.924 144.106C150.269 145.692 145.941 146.679 140.474 142.192C131.095 134.517 139.454 128.836 139.454 128.836Z" fill="#FBBEBE"/>
<path d="M129.77 66.0213C129.77 66.0213 123.081 65.3514 121.411 82.727C119.74 100.103 117.046 104.11 117.046 104.11C117.046 104.11 115.376 113.133 119.387 118.477C123.398 123.821 131.091 135.183 131.091 135.183C131.091 135.183 139.45 137.522 141.121 129.169L130.754 109.791C130.754 109.791 129.084 103.107 133.095 98.4296C137.106 93.7517 140.125 62.6794 129.77 66.0213Z" fill="#F28482"/>
<defs>
<filter id="filter0_d" x="0" y="265" width="260" height="77.8601" filterUnits="userSpaceOnUse" color-interpolation-filters="sRGB">
<feFlood flood-opacity="0" result="BackgroundImageFix"/>
<feColorMatrix in="SourceAlpha" type="matrix" values="0 0 0 0 0 0 0 0 0 0 0 0 0 0 0 0 0 0 127 0"/>
<feOffset dy="4"/>
<feGaussianBlur stdDeviation="7.5"/>
<feColorMatrix type="matrix" values="0 0 0 0 0 0 0 0 0 0 0 0 0 0 0 0 0 0 0.25 0"/>
<feBlend mode="normal" in2="BackgroundImageFix" result="effect1_dropShadow"/>
<feBlend mode="normal" in="SourceGraphic" in2="effect1_dropShadow" result="shape"/>
</filter>
<linearGradient id="paint0_linear" x1="215.401" y1="167.997" x2="215.401" y2="0" gradientUnits="userSpaceOnUse">
<stop stop-color="#808080" stop-opacity="0.25"/>
<stop offset="0.54" stop-color="#808080" stop-opacity="0.12"/>
<stop offset="1" stop-color="#808080" stop-opacity="0.1"/>
</linearGradient>
</defs>
</svg>
