<svg width="158" height="171" viewBox="0 0 158 171" fill="none" xmlns="http://www.w3.org/2000/svg">
<g filter="url(#filter0_d)">
<path d="M142.676 132.738C142.676 137.001 113.082 151.608 77.8249 151.608C42.568 151.608 15 137.001 15 132.738C15 128.475 42.568 136.169 77.8249 136.169C113.082 136.169 142.676 128.475 142.676 132.738Z" fill="#3F3D3D"/>
<path opacity="0.1" d="M142.676 132.738C142.676 137.001 113.082 151.608 77.8249 151.608C42.568 151.608 15 137.001 15 132.738C15 128.475 42.568 136.169 77.8249 136.169C113.082 136.169 142.676 128.475 142.676 132.738Z" fill="#3F3D3D"/>
<path d="M78.8382 140.457C114.095 140.457 142.676 137.001 142.676 132.738C142.676 128.475 114.095 125.019 78.8382 125.019C43.5813 125.019 15 128.475 15 132.738C15 137.001 43.5813 140.457 78.8382 140.457Z" fill="#12A874"/>
</g>
<path d="M76.2931 25.1866C77.2267 24.4659 77.979 23.5309 78.4885 22.4582C78.998 21.3854 79.2502 20.2054 79.2245 19.0146C79.1989 17.8238 78.896 16.6562 78.3408 15.6071C77.7855 14.558 76.9936 13.6574 76.0299 12.9789C76.9705 13.4107 77.8122 14.0369 78.5012 14.8176C79.1902 15.5982 79.7115 16.5162 80.0318 17.5129C80.3522 18.5096 80.4644 19.5631 80.3615 20.6064C80.2586 21.6496 79.9428 22.6596 79.4342 23.5719C78.9256 24.4843 78.2354 25.279 77.4076 25.9052C76.5798 26.5315 75.6326 26.9757 74.6263 27.2095C73.6201 27.4432 72.577 27.4613 71.5634 27.2627C70.5499 27.0642 69.5883 26.6532 68.7398 26.0561C69.9592 26.6158 71.3047 26.8305 72.6343 26.6775C73.9639 26.5245 75.228 26.0093 76.2931 25.1866Z" fill="#2F2E41"/>
<path d="M89.6908 32.2203H90.8906C91.7773 33.5041 92.3795 34.9678 92.6556 36.5107C92.9318 38.0536 92.8754 39.6389 92.4904 41.1575C91.1572 46.3032 92.2237 47.2511 92.2237 47.2511C92.2237 47.2511 97.023 54.1572 95.1566 62.5527C93.2902 70.9483 93.8235 71.8962 93.8235 71.8962L90.4907 65.1256L88.6243 47.2511L89.6908 32.2203Z" fill="#F28482"/>
<path opacity="0.1" d="M89.6908 32.2272H90.8906C91.7773 33.511 92.3795 34.9747 92.6556 36.5176C92.9318 38.0605 92.8754 39.6458 92.4904 41.1645C91.1572 46.3101 92.2237 47.258 92.2237 47.258C92.2237 47.258 97.023 54.1641 95.1566 62.5597C93.2902 70.9552 93.8235 71.9031 93.8235 71.9031L90.4907 65.1325L88.6243 47.258L89.6908 32.2272Z" fill="black"/>
<path d="M81.2254 27.4132C87.1155 27.4132 91.8905 22.5631 91.8905 16.5801C91.8905 10.5972 87.1155 5.74713 81.2254 5.74713C75.3352 5.74713 70.5603 10.5972 70.5603 16.5801C70.5603 22.5631 75.3352 27.4132 81.2254 27.4132Z" fill="#2F2E41"/>
<path d="M85.4914 25.6528C85.4914 25.6528 84.4249 29.986 84.9581 29.986C85.4914 29.986 87.3578 32.288 87.3578 32.288L88.5576 36.7566L87.6244 40.0066L84.4249 39.3295L80.4255 34.8609L79.2257 33.6422L78.1591 29.7152C78.1591 29.7152 79.4923 28.0902 78.5591 26.7361C77.6259 25.382 85.4914 25.6528 85.4914 25.6528Z" fill="#FBBEBE"/>
<path opacity="0.1" d="M85.4914 25.6528C85.4914 25.6528 84.4249 29.986 84.9581 29.986C85.4914 29.986 87.3578 32.288 87.3578 32.288L88.5576 36.7566L87.6244 40.0066L84.4249 39.3295L80.4255 34.8609L79.2257 33.6422L78.1591 29.7152C78.1591 29.7152 79.4923 28.0902 78.5591 26.7361C77.6259 25.382 85.4914 25.6528 85.4914 25.6528Z" fill="black"/>
<path d="M53.2295 37.7045L50.2966 32.8297C50.2966 32.8297 47.1307 25.7145 44.8644 28.2873C42.5981 30.8602 48.2969 36.0796 48.2969 36.0796L51.2298 40.0065L53.2295 37.7045Z" fill="#FBBEBE"/>
<path d="M92.1571 80.0887L90.0241 95.932C90.0241 95.932 90.2907 97.1507 87.6244 101.619C84.9582 106.088 77.7592 115.838 77.7592 115.838L75.6262 111.775C75.6262 111.775 78.1592 98.911 82.5585 96.2028L82.0253 76.7034L92.1571 80.0887Z" fill="#FBBEBE"/>
<path opacity="0.1" d="M92.1571 80.0887L90.0241 95.932C90.0241 95.932 90.2907 97.1507 87.6244 101.619C84.9582 106.088 77.7592 115.838 77.7592 115.838L75.6262 111.775C75.6262 111.775 78.1592 98.911 82.5585 96.2028L82.0253 76.7034L92.1571 80.0887Z" fill="black"/>
<path d="M75.6262 110.15L78.5591 115.838C78.5591 115.838 76.1595 122.744 77.0926 123.421C78.0258 124.098 79.2257 130.191 76.6927 129.514C74.1597 128.837 72.16 126.129 72.16 125.723C72.16 125.316 73.6265 119.629 72.8266 118.275C72.0267 116.921 71.4935 116.515 71.4935 116.515L69.4938 119.9L68.8272 119.494L72.16 113.806C72.16 113.806 72.56 112.723 74.1597 112.046L75.6262 110.15Z" fill="#2F2E41"/>
<path opacity="0.1" d="M75.6262 110.15L78.5591 115.838C78.5591 115.838 76.1595 122.744 77.0926 123.421C78.0258 124.098 79.2257 130.191 76.6927 129.514C74.1597 128.837 72.16 126.129 72.16 125.723C72.16 125.316 73.6265 119.629 72.8266 118.275C72.0267 116.921 71.4935 116.515 71.4935 116.515L69.4938 119.9L68.8272 119.494L72.16 113.806C72.16 113.806 72.56 112.723 74.1597 112.046L75.6262 110.15Z" fill="black"/>
<path d="M82.0564 77.8409C82.0564 77.8409 83.0918 92.8175 80.8254 96.7444V116.244L77.7592 116.65C77.7592 116.65 72.56 106.088 74.8263 95.9319C77.0927 85.776 71.4935 76.7034 71.4935 76.7034L82.0564 77.8409Z" fill="#FBBEBE"/>
<path d="M81.292 28.9704C84.3844 28.9704 86.8912 26.4241 86.8912 23.2831C86.8912 20.1421 84.3844 17.5958 81.292 17.5958C78.1997 17.5958 75.6929 20.1421 75.6929 23.2831C75.6929 26.4241 78.1997 28.9704 81.292 28.9704Z" fill="#FBBEBE"/>
<path d="M86.9579 38.2462L81.3587 31.0693L78.1592 28.9027L76.826 30.663L73.0933 31.7463C73.0933 31.7463 70.6936 32.288 68.1607 35.2671C65.6277 38.2462 61.095 40.0065 61.095 40.0065L57.3623 39.3295C57.3623 39.3295 52.9629 37.2983 52.9629 36.7566C52.9629 36.215 49.0968 40.4127 50.03 42.0377C50.9632 43.6627 52.9629 45.6938 54.0294 46.7771C55.096 47.8605 55.4959 50.9749 62.0282 50.0271C68.5606 49.0792 70.9602 45.8293 70.9602 45.8293C70.9602 45.8293 72.1601 52.0582 75.6262 53.277C79.0924 54.4957 90.424 55.3082 90.424 55.3082L92.8237 47.1834C92.8237 47.1834 95.4899 43.6627 91.8905 38.517C91.8905 38.517 91.8214 35.6391 91.4344 33.7241C91.2839 32.9793 91.0853 32.3801 90.824 32.1526C89.8908 31.3401 84.9582 29.986 84.9582 29.986C84.9582 29.986 85.758 32.6942 86.158 32.8296C86.5579 32.9651 87.4911 37.5691 86.9579 38.2462Z" fill="#F28482"/>
<path d="M69.2742 79.7076C76.0352 79.2031 79.9715 80.3922 81.7275 81.2989C82.054 81.4575 82.3614 81.6579 82.6432 81.8956C82.772 82.0124 82.8338 82.1032 82.8338 82.158C82.8338 82.5904 92.0973 83.4552 95.4537 82.5904C98.81 81.7255 93.1713 63.1312 91.6946 61.5457C90.2178 59.9601 91.0139 54.157 91.0139 54.157C91.0139 54.157 88.0697 53.4737 87.2642 53.762C86.4587 54.0503 82.2968 53.3296 80.82 52.4647C79.3432 51.5999 77.4636 52.1765 76.2554 51.8882C75.7157 51.7599 75.4431 51.9761 75.3075 52.2557C75.0965 52.6752 74.7778 53.0209 74.3892 53.2517C71.539 55.0146 69.2514 67.2032 67.5289 73.9419C65.6493 81.2931 69.2742 79.7076 69.2742 79.7076Z" fill="#2F2E41"/>
<path d="M81.3587 115.025L81.8919 118.004C81.8919 118.004 84.6915 122.067 83.8916 125.452C83.8916 125.452 84.5582 129.921 86.9578 131.139C89.3575 132.358 87.3578 135.202 85.0914 135.066C82.8251 134.931 80.6921 135.202 80.4255 134.525C80.1589 133.847 78.5591 127.212 78.5591 127.212V132.087L77.226 132.223V126.129C77.226 126.129 76.1595 124.098 77.6259 120.712L77.2558 115.516C77.2558 115.516 80.9587 116.379 81.3587 115.025Z" fill="#2F2E41"/>
<path d="M81.2254 11.4345C84.3177 11.4345 86.8245 8.88817 86.8245 5.74714C86.8245 2.60612 84.3177 0.0598145 81.2254 0.0598145C78.133 0.0598145 75.6262 2.60612 75.6262 5.74714C75.6262 8.88817 78.133 11.4345 81.2254 11.4345Z" fill="#2F2E41"/>
<path d="M85.5325 9.2029C86.2363 8.65957 86.8034 7.95473 87.1875 7.14603C87.5716 6.33733 87.7617 5.44776 87.7424 4.55009C87.723 3.65242 87.4947 2.77216 87.0761 1.98131C86.6576 1.19047 86.0606 0.511516 85.3341 0C86.0432 0.325551 86.6776 0.797633 87.1971 1.38613C87.7165 1.97463 88.1095 2.66663 88.3509 3.41799C88.5924 4.16936 88.677 4.96359 88.5995 5.75003C88.5219 6.53647 88.2838 7.29786 87.9004 7.98563C87.517 8.67341 86.9967 9.27247 86.3726 9.7446C85.7486 10.2167 85.0345 10.5516 84.276 10.7278C83.5174 10.904 82.7311 10.9177 81.967 10.768C81.203 10.6183 80.478 10.3085 79.8384 9.85833C80.7576 10.2803 81.772 10.4422 82.7743 10.3268C83.7766 10.2114 84.7296 9.8231 85.5325 9.2029Z" fill="#2F2E41"/>
<path d="M81.3587 23.3508C84.5246 23.3508 87.0912 21.2895 87.0912 18.7468C87.0912 16.204 84.5246 14.1427 81.3587 14.1427C78.1927 14.1427 75.6262 16.204 75.6262 18.7468C75.6262 21.2895 78.1927 23.3508 81.3587 23.3508Z" fill="#2F2E41"/>
<path opacity="0.1" d="M81.3934 80.1618C81.7175 80.3108 82.0228 80.499 82.3026 80.7224C82.3732 79.4427 82.7812 71.7039 82.2919 71.8285L81.3934 80.1618Z" fill="black"/>
<path d="M46.9104 31.1653C47.0631 30.8313 46.5647 30.2671 45.7974 29.9053C45.03 29.5435 44.2841 29.521 44.1315 29.855C43.9788 30.1891 44.4771 30.7532 45.2445 31.115C46.0119 31.4769 46.7577 31.4994 46.9104 31.1653Z" fill="#FBBEBE"/>
<path d="M42 34H56.2697C57.2434 28.3751 57.2434 22.6249 56.2697 17H42C43.6076 22.5528 43.6076 28.4472 42 34Z" fill="#12A874"/>
<path d="M101 82H86.7303C85.7566 76.3751 85.7566 70.6249 86.7303 65H101C99.3924 70.5528 99.3924 76.4472 101 82Z" fill="#12A874"/>
<defs>
<filter id="filter0_d" x="0" y="114.019" width="157.676" height="56.5892" filterUnits="userSpaceOnUse" color-interpolation-filters="sRGB">
<feFlood flood-opacity="0" result="BackgroundImageFix"/>
<feColorMatrix in="SourceAlpha" type="matrix" values="0 0 0 0 0 0 0 0 0 0 0 0 0 0 0 0 0 0 127 0"/>
<feOffset dy="4"/>
<feGaussianBlur stdDeviation="7.5"/>
<feColorMatrix type="matrix" values="0 0 0 0 0 0 0 0 0 0 0 0 0 0 0 0 0 0 0.25 0"/>
<feBlend mode="normal" in2="BackgroundImageFix" result="effect1_dropShadow"/>
<feBlend mode="normal" in="SourceGraphic" in2="effect1_dropShadow" result="shape"/>
</filter>
</defs>
</svg>
