<svg width="312" height="272" viewBox="0 0 312 272" fill="none" xmlns="http://www.w3.org/2000/svg">
<g filter="url(#filter0_d)">
<path d="M297 196.515C297 203.428 249.019 227.109 191.857 227.109C134.696 227.109 90 203.427 90 196.515C90 189.603 134.696 202.078 191.857 202.078C249.019 202.078 297 189.603 297 196.515Z" fill="#3F3D3D"/>
<path opacity="0.1" d="M297 196.515C297 203.428 249.019 227.109 191.857 227.109C134.696 227.109 90 203.427 90 196.515C90 189.603 134.696 202.078 191.857 202.078C249.019 202.078 297 189.603 297 196.515Z" fill="#3F3D3D"/>
<path d="M193.5 209.031C250.661 209.031 297 203.428 297 196.515C297 189.603 250.661 184 193.5 184C136.339 184 90 189.603 90 196.515C90 203.428 136.339 209.031 193.5 209.031Z" fill="#12A874"/>
</g>
<path d="M72.5804 225.7L78.6485 229.077L86.5432 208.98L93.2181 190.227L112.76 195.72C123.412 198.394 116.062 188.133 115.783 174.213C115.724 170.004 113.868 169.015 111.654 166.057L89.1609 166.838C86.9037 166.917 88.1433 166.338 86.238 168.04C84.3328 169.741 84.0826 172.474 83.2137 175.188C82.5135 177.614 83.3626 174.704 82.6558 176.94L77.5451 201.152L72.5804 225.7Z" fill="#FBBEBE"/>
<path d="M100.891 245.331L106.93 242.14L107.641 197.303L115.576 200.937C126.026 203.304 122.792 194.646 122.109 183.952C121.927 180.719 124.531 185.015 122.288 182.68L124.397 179.966L102.519 179.901C100.324 179.895 98.1792 180.562 96.3743 181.812C94.5694 183.062 93.1912 184.836 92.4253 186.894C91.8151 188.533 91.6147 190.297 91.8417 192.032L100.891 245.331Z" fill="#FBBEBE"/>
<path d="M72.2971 222.17L70.3692 226.305C70.3692 226.305 64.8052 230.346 61.4009 233.767C61.4009 233.767 54.4867 235.099 50.1147 233.696C45.7427 232.293 44.3872 234.792 47.4358 237.296C50.4845 239.8 52.9301 242.62 53.9921 242.147C53.4829 238.454 65.9584 241.084 65.9584 241.084L59.3912 248.251L60.5872 249.347L68.8195 241.392C68.8195 241.392 72.3472 240.286 74.0693 234.634L77.1611 230.739L80.2529 226.845C80.2529 226.845 71.3691 224.212 72.2971 222.17Z" fill="#2F2E41"/>
<path d="M98.3784 235.283L99.3216 239.919C99.3216 239.919 97.1763 246.72 96.4482 251.671C96.4482 251.671 91.5065 257.047 86.9964 258.574C82.4862 260.101 82.8975 263.02 86.9837 263.228C91.0699 263.435 94.8478 264.276 95.4414 263.227C92.7389 260.463 104.761 254.96 104.761 254.96L103.707 264.985L105.381 265.161L107.336 253.452C107.336 253.452 109.595 250.354 107.544 244.58L107.719 239.426L107.894 234.272C107.894 234.272 98.8643 237.558 98.3784 235.283Z" fill="#2F2E41"/>
<path d="M96.785 130.033L88.7062 132.514L98.0414 153.594C98.4503 154.518 99.1278 155.304 99.9889 155.854C100.85 156.405 101.856 156.695 102.882 156.689C103.861 156.683 104.817 156.407 105.64 155.892C106.463 155.378 107.119 154.646 107.535 153.78L124.549 130.462C125.128 129.669 125.525 128.762 125.712 127.803C125.9 126.844 125.875 125.855 125.637 124.904C125.4 123.953 124.956 123.062 124.337 122.292C123.717 121.521 122.937 120.89 122.048 120.44L122.048 120.44C121.224 120.023 120.324 119.77 119.401 119.698C118.478 119.625 117.551 119.734 116.674 120.017C115.796 120.3 114.987 120.752 114.292 121.347C113.597 121.941 113.032 122.667 112.629 123.48L103.529 141.832L96.785 130.033Z" fill="#F28482"/>
<path d="M111.541 131.707C108.533 131.285 106.406 128.725 106.79 125.991C107.174 123.256 109.924 121.382 112.932 121.805C115.94 122.228 118.067 124.787 117.683 127.522C117.299 130.256 114.549 132.13 111.541 131.707Z" fill="white"/>
<path d="M90.0418 134.745L95.8048 132.303L93.6573 123.884C93.4509 123.075 93.0077 122.338 92.3805 121.76C91.7532 121.182 90.9683 120.788 90.1194 120.624C89.271 120.461 88.3945 120.535 87.5942 120.838C86.7938 121.14 86.1034 121.659 85.6051 122.331C85.1068 123.004 84.8216 123.802 84.7834 124.631C84.7453 125.46 84.9559 126.285 85.39 127.007L90.0418 134.745Z" fill="#FBBEBE"/>
<path d="M54.2788 119.075L118.044 138.665C118.357 138.76 118.695 138.73 118.985 138.581C119.274 138.432 119.491 138.176 119.588 137.869L124.453 122.346C124.549 122.039 124.517 121.706 124.364 121.421C124.211 121.136 123.949 120.921 123.636 120.825L59.871 101.235C59.5578 101.14 59.2194 101.17 58.9299 101.319C58.6404 101.468 58.4236 101.724 58.3269 102.031L53.4612 117.554C53.3653 117.861 53.3974 118.194 53.5507 118.479C53.704 118.764 53.9658 118.979 54.2788 119.075Z" fill="#12A874"/>
<path d="M102.867 119.932C102.977 119.963 103.078 120.011 103.167 120.075C103.256 120.138 103.33 120.216 103.385 120.302C103.44 120.389 103.475 120.483 103.488 120.579C103.501 120.675 103.491 120.772 103.46 120.863C103.429 120.955 103.376 121.039 103.306 121.112C103.235 121.184 103.148 121.244 103.048 121.287C102.949 121.329 102.84 121.354 102.727 121.361C102.614 121.367 102.5 121.354 102.391 121.323L63.2858 110.236C63.1769 110.205 63.0752 110.157 62.9865 110.093C62.8978 110.03 62.8239 109.953 62.769 109.866C62.7141 109.78 62.6792 109.686 62.6664 109.589C62.6536 109.493 62.6631 109.397 62.6944 109.305C62.7257 109.214 62.7781 109.13 62.8486 109.057C62.9192 108.984 63.0066 108.925 63.1057 108.882C63.2048 108.84 63.3138 108.814 63.4264 108.808C63.539 108.801 63.653 108.814 63.762 108.845L102.867 119.932Z" fill="white"/>
<path d="M101.1 125.323C101.208 125.358 101.309 125.416 101.396 125.494C101.483 125.572 101.554 125.668 101.606 125.776C101.658 125.885 101.689 126.004 101.699 126.127C101.708 126.25 101.694 126.374 101.659 126.492C101.624 126.61 101.568 126.72 101.494 126.816C101.42 126.912 101.33 126.991 101.228 127.05C101.127 127.109 101.016 127.145 100.903 127.158C100.789 127.17 100.675 127.159 100.566 127.123L61.6801 114.469C61.4616 114.398 61.2802 114.234 61.1758 114.015C61.0713 113.796 61.0523 113.539 61.123 113.301C61.1937 113.063 61.3483 112.862 61.5528 112.744C61.7573 112.625 61.9951 112.598 62.2137 112.669L101.1 125.323Z" fill="white"/>
<path d="M104.652 137.808L109.529 135.241L107.926 126.899C107.772 126.098 107.418 125.373 106.907 124.811C106.395 124.249 105.748 123.875 105.041 123.731C104.335 123.588 103.6 123.682 102.924 124.002C102.248 124.322 101.658 124.855 101.226 125.537C100.793 126.218 100.536 127.021 100.486 127.848C100.435 128.675 100.592 129.492 100.938 130.202L104.652 137.808Z" fill="#FBBEBE"/>
<path d="M120.017 132.899L126.257 121.658C123.472 117.926 123.323 113.806 125.185 109.389L111.106 114.504L120.017 132.899Z" fill="#FBBEBE"/>
<path d="M122.85 171.099C129.108 168.806 137.961 178.179 150.487 171.81C150.813 171.713 151.122 171.513 151.387 171.23C151.652 170.947 151.866 170.589 152.009 170.186C152.152 169.783 152.221 169.348 152.209 168.918C152.197 168.489 152.105 168.078 151.941 167.721C145.975 154.73 140.761 142.095 136.692 130.002C135.072 126.04 132.393 123.062 129.125 121.59L124.123 119.338L115.427 123.656L113.129 124.923C112.587 125.222 112.088 125.658 111.664 126.205C111.239 126.752 110.897 127.398 110.659 128.104C110.42 128.809 110.29 129.56 110.277 130.311C110.264 131.061 110.367 131.795 110.581 132.468C112.314 143.243 114.51 148.127 120.788 155.728L122.85 171.099Z" fill="#F28482"/>
<path d="M121.755 170.4C121.755 170.4 121.527 167.924 128.314 168.386C135.101 168.848 134.964 167.083 139.624 166.946C145.491 166.774 144.57 166.139 150.914 165.516C156.817 172.405 150.245 219.169 150.245 219.169L143.653 219.76L143.089 221.198C109.602 227.873 100.784 179.972 100.784 179.972L94.6111 181.771L93.6337 162.121C96.6913 158.378 115.985 169.589 115.985 169.589L121.755 170.4Z" fill="#2F2E41"/>
<path d="M113.306 116.808C106.47 115.847 101.707 109.527 102.668 102.69C103.628 95.8538 109.949 91.0907 116.786 92.0514C123.622 93.0122 128.385 99.3331 127.424 106.169C126.464 113.006 120.143 117.769 113.306 116.808Z" fill="#FBBEBE"/>
<path opacity="0.2" d="M135.508 130.027C135.508 130.027 122.902 151.878 120.464 152.848C118.027 153.818 118.479 150.603 118.479 150.603L135.508 130.027Z" fill="black"/>
<path d="M110.03 132.873L103.464 135.289L110.663 154.548C110.979 155.392 111.513 156.105 112.2 156.598C112.887 157.091 113.695 157.342 114.524 157.32C115.315 157.298 116.091 157.029 116.764 156.542C117.438 156.054 117.98 155.37 118.33 154.566L132.452 132.819C132.932 132.079 133.268 131.238 133.435 130.352C133.602 129.465 133.597 128.556 133.421 127.684C133.245 126.812 132.901 125.999 132.413 125.299C131.925 124.6 131.304 124.031 130.593 123.631C129.934 123.26 129.212 123.042 128.467 122.991C127.723 122.939 126.972 123.053 126.259 123.328C125.546 123.603 124.884 124.033 124.314 124.592C123.743 125.151 123.274 125.827 122.935 126.583L115.287 143.629L110.03 132.873Z" fill="#F28482"/>
<path d="M115.727 113.843C123.783 114.975 131.247 109.246 132.4 101.047C133.552 92.8484 127.955 85.2839 119.899 84.1517C111.843 83.0195 103.299 86.1618 102.147 94.3608C101.331 100.167 102.657 103.743 108.88 104.618L110.358 107.504C111.18 109.473 112.084 111.75 112.653 111.988C113.776 112.457 114.467 113.666 115.727 113.843Z" fill="#2F2E41"/>
<path d="M127.796 90.0046C123.907 89.458 121.173 86.0354 121.69 82.36C122.206 78.6846 125.778 76.1482 129.667 76.6947C133.556 77.2413 136.29 80.6639 135.774 84.3394C135.257 88.0148 131.686 90.5512 127.796 90.0046Z" fill="#2F2E41"/>
<path d="M122.153 83.9618C121.612 82.7579 121.514 81.3769 121.876 80.0842C122.238 78.7915 123.035 77.6782 124.114 76.9584C123.433 77.2204 122.809 77.6309 122.283 78.1631C121.757 78.6952 121.341 79.3371 121.062 80.0469C120.782 80.7567 120.646 81.5185 120.662 82.2826C120.677 83.0467 120.844 83.796 121.152 84.4816C121.46 85.1673 121.902 85.7739 122.449 86.262C122.995 86.7501 123.635 87.1087 124.325 87.3144C125.016 87.5201 125.742 87.5683 126.456 87.4559C127.171 87.3435 127.857 87.073 128.471 86.662C127.277 87.124 125.97 87.1038 124.804 86.6054C123.638 86.107 122.693 85.1655 122.153 83.9618Z" fill="#2F2E41"/>
<path d="M115.225 114.519C114.387 115.539 113.203 116.23 111.902 116.46C110.6 116.69 109.273 116.442 108.174 115.765C108.697 116.276 109.327 116.67 110.023 116.921C110.72 117.173 111.467 117.275 112.216 117.223C112.965 117.171 113.699 116.965 114.37 116.618C115.042 116.272 115.635 115.792 116.113 115.212C116.59 114.631 116.94 113.961 117.14 113.247C117.34 112.533 117.386 111.79 117.274 111.067C117.163 110.344 116.896 109.656 116.492 109.049C116.088 108.442 115.555 107.93 114.929 107.544C115.848 108.441 116.387 109.648 116.441 110.936C116.496 112.223 116.063 113.5 115.225 114.519Z" fill="#2F2E41"/>
<path d="M123.531 85.5272C123.531 85.5272 124.447 89.5342 129.903 88.5755L123.531 85.5272Z" fill="#3F3D56"/>
<path d="M120.133 112.732C114.378 111.923 110.381 106.52 111.204 100.664C112.027 94.8073 117.359 90.7153 123.113 91.524C128.868 92.3327 132.865 97.7359 132.042 103.592C131.219 109.449 125.887 113.541 120.133 112.732Z" fill="#2F2E41"/>
<path d="M106.658 106.74C104.054 106.374 102.366 103.07 102.887 99.3588C103.409 95.6481 105.943 92.9366 108.547 93.3026C111.151 93.6686 112.84 96.9735 112.318 100.684C111.797 104.395 109.263 107.107 106.658 106.74Z" fill="#2F2E41"/>
<path d="M1.67576 25.7982H92.1662C92.6105 25.7976 93.0364 25.6209 93.3506 25.3068C93.6647 24.9926 93.8415 24.5667 93.842 24.1224V1.67574C93.8415 1.23146 93.6647 0.805537 93.3506 0.491388C93.0364 0.17724 92.6105 0.000521545 92.1662 0H1.67576C1.23148 0.000522431 0.805573 0.17724 0.491425 0.491388C0.177277 0.805537 0.000534058 1.23146 1.52588e-05 1.67574V24.1224C0.000534058 24.5667 0.177277 24.9926 0.491425 25.3068C0.805573 25.6209 1.23148 25.7976 1.67576 25.7982ZM92.1662 0.670295C92.4328 0.670586 92.6884 0.776609 92.8769 0.965103C93.0654 1.1536 93.1714 1.40917 93.1717 1.67574V24.1224C93.1714 24.389 93.0654 24.6446 92.8769 24.8331C92.6884 25.0216 92.4328 25.1276 92.1662 25.1279H1.67576C1.40919 25.1276 1.15363 25.0216 0.965141 24.8331C0.776649 24.6446 0.670601 24.389 0.670311 24.1224V1.67574C0.670601 1.40917 0.776627 1.1536 0.965118 0.965103C1.15362 0.776609 1.40919 0.670586 1.67576 0.670295H92.1662Z" fill="#12A874"/>
<path d="M80.436 19.9371C76.549 19.9371 73.3979 16.786 73.3979 12.899C73.3979 9.01196 76.549 5.8609 80.436 5.8609C84.323 5.8609 87.4741 9.01196 87.4741 12.899C87.4741 16.786 84.323 19.9371 80.436 19.9371Z" fill="#12A874"/>
<path d="M64.1813 8.20694C64.4924 8.20694 64.7907 8.33052 65.0107 8.5505C65.2307 8.77049 65.3543 9.06885 65.3543 9.37996C65.3543 9.69106 65.2307 9.98941 65.0107 10.2094C64.7907 10.4294 64.4924 10.553 64.1813 10.553H8.88168C8.57057 10.553 8.27219 10.4294 8.05221 10.2094C7.83223 9.98941 7.70865 9.69106 7.70865 9.37996C7.70865 9.06885 7.83223 8.77049 8.05221 8.5505C8.27219 8.33052 8.57057 8.20694 8.88168 8.20694H64.1813Z" fill="#12A874"/>
<path d="M64.1813 15.245C64.4924 15.245 64.7907 15.3686 65.0107 15.5886C65.2307 15.8086 65.3543 16.1069 65.3543 16.418C65.3543 16.7291 65.2307 17.0275 65.0107 17.2475C64.7907 17.4675 64.4924 17.5911 64.1813 17.5911H8.88168C8.57057 17.5911 8.27219 17.4675 8.05221 17.2475C7.83223 17.0275 7.70865 16.7291 7.70865 16.418C7.70865 16.1069 7.83223 15.8086 8.05221 15.5886C8.27219 15.3686 8.57057 15.245 8.88168 15.245H64.1813Z" fill="#12A874"/>
<path d="M1.67576 63.3347H92.1662C92.6105 63.3341 93.0364 63.1574 93.3506 62.8433C93.6647 62.5291 93.8415 62.1032 93.842 61.6589V39.2122C93.8415 38.768 93.6647 38.342 93.3506 38.0279C93.0364 37.7137 92.6105 37.537 92.1662 37.5365H1.67576C1.23148 37.537 0.805573 37.7137 0.491425 38.0279C0.177277 38.342 0.000534058 38.768 1.52588e-05 39.2122V61.6589C0.000534058 62.1032 0.177277 62.5291 0.491425 62.8433C0.805573 63.1574 1.23148 63.3341 1.67576 63.3347ZM92.1662 38.2068C92.4328 38.2071 92.6884 38.3131 92.8769 38.5016C93.0654 38.6901 93.1714 38.9457 93.1717 39.2122V61.6589C93.1714 61.9255 93.0654 62.1811 92.8769 62.3696C92.6884 62.5581 92.4328 62.6641 92.1662 62.6644H1.67576C1.40919 62.6641 1.15363 62.5581 0.965141 62.3696C0.776649 62.1811 0.670601 61.9255 0.670311 61.6589V39.2122C0.670601 38.9457 0.776627 38.6901 0.965118 38.5016C1.15362 38.3131 1.40919 38.2071 1.67576 38.2068H92.1662Z" fill="#12A874"/>
<path d="M80.436 57.4736C76.549 57.4736 73.3979 54.3225 73.3979 50.4355C73.3979 46.5485 76.549 43.3974 80.436 43.3974C84.323 43.3974 87.4741 46.5485 87.4741 50.4355C87.4741 54.3225 84.323 57.4736 80.436 57.4736Z" fill="#12A874"/>
<path d="M64.1813 45.7434C64.4924 45.7434 64.7907 45.867 65.0107 46.087C65.2307 46.307 65.3543 46.6053 65.3543 46.9164C65.3543 47.2275 65.2307 47.5259 65.0107 47.7459C64.7907 47.9658 64.4924 48.0894 64.1813 48.0894H8.88168C8.57057 48.0894 8.27219 47.9658 8.05221 47.7459C7.83223 47.5259 7.70865 47.2275 7.70865 46.9164C7.70865 46.6053 7.83223 46.307 8.05221 46.087C8.27219 45.867 8.57057 45.7434 8.88168 45.7434H64.1813Z" fill="#12A874"/>
<path d="M64.1813 52.7815C64.4924 52.7815 64.7907 52.9051 65.0107 53.1251C65.2307 53.3451 65.3543 53.6434 65.3543 53.9545C65.3543 54.2656 65.2307 54.564 65.0107 54.784C64.7907 55.004 64.4924 55.1276 64.1813 55.1276H8.88168C8.57057 55.1276 8.27219 55.004 8.05221 54.784C7.83223 54.564 7.70865 54.2656 7.70865 53.9545C7.70865 53.6434 7.83223 53.3451 8.05221 53.1251C8.27219 52.9051 8.57057 52.7815 8.88168 52.7815H64.1813Z" fill="#12A874"/>
<path d="M45.8953 100C48.6793 100 51.4008 99.1744 53.7157 97.6277C56.0305 96.081 57.8347 93.8826 58.9001 91.3105C59.9655 88.7385 60.2442 85.9082 59.7011 83.1777C59.1579 80.4472 57.8173 77.939 55.8487 75.9704C53.8801 74.0019 51.372 72.6612 48.6415 72.1181C45.9109 71.575 43.0807 71.8537 40.5086 72.9191C37.9365 73.9845 35.7381 75.7887 34.1913 78.1035C32.6446 80.4183 31.8191 83.1398 31.8191 85.9238C31.8233 89.6558 33.3077 93.2336 35.9466 95.8725C38.5854 98.5114 42.1634 99.9958 45.8953 100ZM45.8953 72.5179C48.5468 72.5179 51.1387 73.3042 53.3433 74.7772C55.5479 76.2503 57.2661 78.344 58.2808 80.7936C59.2955 83.2432 59.5609 85.9387 59.0437 88.5392C58.5264 91.1397 57.2496 93.5284 55.3747 95.4032C53.4999 97.2781 51.1112 98.5548 48.5107 99.0721C45.9102 99.5894 43.2147 99.3239 40.7651 98.3092C38.3155 97.2946 36.2217 95.5763 34.7487 93.3717C33.2756 91.1671 32.4894 88.5753 32.4894 85.9238C32.4934 82.3696 33.9071 78.9621 36.4203 76.4489C38.9336 73.9357 42.3411 72.522 45.8953 72.5179Z" fill="#34A080"/>
<path d="M40.3411 84.5353H44.5067V80.3697C44.5067 80.0015 44.653 79.6483 44.9134 79.3879C45.1738 79.1275 45.527 78.9812 45.8953 78.9812C46.2635 78.9812 46.6167 79.1275 46.8771 79.3879C47.1375 79.6483 47.2838 80.0015 47.2838 80.3697V84.5353H51.4495C51.8177 84.5353 52.1709 84.6816 52.4313 84.942C52.6917 85.2024 52.838 85.5556 52.838 85.9239C52.838 86.2921 52.6917 86.6453 52.4313 86.9057C52.1709 87.1661 51.8177 87.3124 51.4495 87.3124H47.2838V91.478C47.2838 91.8462 47.1375 92.1994 46.8771 92.4598C46.6167 92.7202 46.2636 92.8665 45.8953 92.8665C45.527 92.8665 45.1738 92.7202 44.9134 92.4598C44.653 92.1994 44.5067 91.8462 44.5067 91.478V87.3124H40.3411C39.9729 87.3124 39.6197 87.1661 39.3593 86.9057C39.0989 86.6453 38.9526 86.2921 38.9526 85.9239C38.9526 85.5556 39.0989 85.2024 39.3593 84.942C39.6197 84.6816 39.9729 84.5353 40.3411 84.5353V84.5353Z" fill="#12A874"/>
<defs>
<filter id="filter0_d" x="75" y="173" width="237" height="73.1087" filterUnits="userSpaceOnUse" color-interpolation-filters="sRGB">
<feFlood flood-opacity="0" result="BackgroundImageFix"/>
<feColorMatrix in="SourceAlpha" type="matrix" values="0 0 0 0 0 0 0 0 0 0 0 0 0 0 0 0 0 0 127 0"/>
<feOffset dy="4"/>
<feGaussianBlur stdDeviation="7.5"/>
<feColorMatrix type="matrix" values="0 0 0 0 0 0 0 0 0 0 0 0 0 0 0 0 0 0 0.25 0"/>
<feBlend mode="normal" in2="BackgroundImageFix" result="effect1_dropShadow"/>
<feBlend mode="normal" in="SourceGraphic" in2="effect1_dropShadow" result="shape"/>
</filter>
</defs>
</svg>
