<svg width="496" height="367" viewBox="0 0 496 367" fill="none" xmlns="http://www.w3.org/2000/svg">
<g filter="url(#filter0_d)">
<path d="M480.775 279.161C480.775 294.714 372.811 348 244.191 348C115.571 348 15 294.714 15 279.161C15 263.608 115.571 291.677 244.191 291.677C372.811 291.677 480.775 263.608 480.775 279.161Z" fill="#3F3D3D"/>
<path d="M247.888 307.323C376.508 307.323 480.775 294.714 480.775 279.161C480.775 263.608 376.508 251 247.888 251C119.267 251 15 263.608 15 279.161C15 294.714 119.267 307.323 247.888 307.323Z" fill="#12A874"/>
</g>
<path d="M128.497 223.892L131.358 232.968C131.358 232.968 128.497 247.026 128.081 257.085C128.081 257.085 119.325 268.88 110.622 272.883C101.92 276.887 103.357 282.641 111.576 282.196C119.794 281.751 127.53 282.641 128.497 280.416C122.509 275.454 145.404 261.917 145.404 261.917L145.404 282.196H148.789L150.239 258.358C150.239 258.358 154.107 251.685 148.789 240.564L148.055 230.216L147.321 219.868C147.321 219.868 129.947 228.34 128.497 223.892Z" fill="#2F2E41"/>
<path d="M163.441 223.892L166.303 232.968C166.303 232.968 163.441 247.026 163.025 257.085C163.025 257.085 154.269 268.88 145.567 272.883C136.865 276.887 138.301 282.641 146.52 282.196C154.739 281.751 162.474 282.641 163.441 280.416C157.453 275.454 180.349 261.917 180.349 261.917L180.349 282.196H183.733L185.183 258.358C185.183 258.358 189.051 251.685 183.733 240.564L182.999 230.216L182.266 219.868C182.266 219.868 164.892 228.34 163.441 223.892Z" fill="#2F2E41"/>
<path d="M31.7428 161.569L25.6278 161.947C25.6278 161.947 3.14761 166.218 5.69375 174.504C8.23989 182.79 24.4272 170.945 24.4272 170.945L30.8956 169.873L31.7428 161.569Z" fill="#FBBEBE"/>
<path d="M129.485 71.8078C129.485 71.8078 145.736 90.1274 147.916 90.7303L128.013 107.809C128.013 107.809 118.619 85.6251 115.63 83.6462L129.485 71.8078Z" fill="#FFB8B8"/>
<path d="M127.333 108.868C127.333 108.868 141.345 83.1737 144.292 83.1737C147.238 83.1737 175.228 93.0585 192.906 124.446C210.583 155.834 210.583 167.492 210.583 167.492L162.706 181.84L156.539 155.199C156.539 155.199 130.297 136.941 122.194 114.521L127.333 108.868Z" fill="#F6D382"/>
<path d="M146.747 111.9C146.747 111.9 132.696 105.604 117.005 118.694C101.315 131.784 76.1719 139.319 76.1719 139.319L26.3868 160.138L27.387 171.636L82.2783 159.702L147.555 140.876C147.555 140.876 163.471 122.28 146.747 111.9Z" fill="#F5D281"/>
<path d="M141.722 189.615L137.888 247.618C137.888 247.618 133.409 244.993 126.645 240.803C110.348 230.706 80.7916 211.496 68.8662 198.01C55.0849 182.426 72.0105 173.962 78.6672 171.397C80.1626 170.817 81.1367 170.535 81.1367 170.535L141.722 189.615Z" fill="#FBBEBE"/>
<path d="M159.789 171.5L161 176.5C161 176.5 146.262 180.397 144.838 181.813C144.838 181.813 94.2892 165.532 89.3055 173.318L97.137 210.835L117.784 205.172C117.784 205.172 148.397 292.239 212.473 271.003L213.185 268.172L226 265.341C226 265.341 216.745 164.824 208.913 161.285L159.789 171.5Z" fill="#2F2E41"/>
<path opacity="0.2" d="M155.083 124.25C155.083 124.25 151.486 132.472 147.375 137.611C143.264 142.75 134.465 143.383 133.5 145.354C130.811 145.152 133.768 142.815 133.768 142.815L144.806 136.07L155.083 124.25Z" fill="black"/>
<path opacity="0.15" d="M215.722 199.313V255.84" stroke="black" stroke-width="2" stroke-miterlimit="10"/>
<path opacity="0.15" d="M121.167 191.09L162.278 178.757" stroke="black" stroke-width="2" stroke-miterlimit="10"/>
<path d="M111.908 90.4683C123.331 92.38 134.142 84.6691 136.053 73.2456C137.965 61.8222 130.254 51.012 118.831 49.1004C107.407 47.1887 96.5969 54.8996 94.6852 66.323C92.7736 77.7465 100.484 88.5567 111.908 90.4683Z" fill="#FBBEBE"/>
<path d="M128.077 82.2666C141.26 76.1194 146.886 60.285 140.645 46.8995C134.403 33.514 118.656 27.6461 105.474 33.7933C92.2908 39.9405 82.5315 52.9562 88.7732 66.3417C93.1935 75.821 98.6584 79.8796 108.842 75.1309L113.863 78.0097C117.01 80.1543 120.58 82.6805 121.664 82.4824C123.805 82.0916 126.016 83.2278 128.077 82.2666Z" fill="#2F2E41"/>
<path d="M123.007 34.8619C116.643 37.8295 109.215 35.3709 106.417 29.3705C103.619 23.3701 106.51 16.1001 112.874 13.1325C119.238 10.1649 126.666 12.6234 129.464 18.6238C132.262 24.6243 129.371 31.8943 123.007 34.8619Z" fill="#2F2E41"/>
<path d="M108.668 31.316C106.688 30.0413 105.197 28.0717 104.484 25.7857C103.77 23.4997 103.883 21.0586 104.802 18.9315C104.035 19.9863 103.499 21.2074 103.228 22.5152C102.956 23.8231 102.956 25.1883 103.227 26.5219C103.498 27.8556 104.034 29.1277 104.8 30.2555C105.566 31.3832 106.545 32.3413 107.673 33.0672C108.802 33.7931 110.054 34.2706 111.348 34.4686C112.643 34.6666 113.95 34.5806 115.186 34.2162C116.421 33.8518 117.557 33.2173 118.519 32.3538C119.481 31.4904 120.248 30.4175 120.77 29.2051C119.427 31.0591 117.448 32.3002 115.214 32.6898C112.981 33.0795 110.649 32.5902 108.668 31.316Z" fill="#2F2E41"/>
<path d="M127.982 83.7664C127.717 86.1072 126.613 88.2929 124.885 89.9034C123.156 91.514 120.924 92.4358 118.618 92.4916C119.899 92.7474 121.227 92.7236 122.516 92.4218C123.804 92.1199 125.025 91.5468 126.097 90.7398C127.17 89.9328 128.07 88.91 128.741 87.738C129.411 86.566 129.835 85.2712 129.986 83.9378C130.138 82.6045 130.012 81.2626 129.618 79.9996C129.224 78.7366 128.571 77.5807 127.7 76.6075C126.829 75.6342 125.761 74.8653 124.565 74.3508C123.369 73.8364 122.072 73.588 120.758 73.6217C123.007 74.0674 124.989 75.3497 126.323 77.2223C127.656 79.0948 128.247 81.4255 127.982 83.7664Z" fill="#2F2E41"/>
<path d="M112.257 32.3161C112.257 32.3161 117.526 37.4185 124.776 30.6745L112.257 32.3161Z" fill="#3F3D56"/>
<path d="M133.605 76.3165C124.189 80.7074 112.941 76.5161 108.483 66.955C104.025 57.3939 108.044 46.0836 117.46 41.6928C126.876 37.3019 138.124 41.4932 142.582 51.0543C147.04 60.6154 143.021 71.9257 133.605 76.3165Z" fill="#2F2E41"/>
<path d="M107.573 80.4683C103.311 82.4555 97.5667 79.1555 94.7417 73.0974C91.9168 67.0392 93.0815 60.5172 97.3431 58.53C101.605 56.5427 107.35 59.8428 110.175 65.9009C112.999 71.959 111.835 78.4811 107.573 80.4683Z" fill="#2F2E41"/>
<defs>
<filter id="filter0_d" x="0" y="240" width="495.775" height="127" filterUnits="userSpaceOnUse" color-interpolation-filters="sRGB">
<feFlood flood-opacity="0" result="BackgroundImageFix"/>
<feColorMatrix in="SourceAlpha" type="matrix" values="0 0 0 0 0 0 0 0 0 0 0 0 0 0 0 0 0 0 127 0"/>
<feOffset dy="4"/>
<feGaussianBlur stdDeviation="7.5"/>
<feColorMatrix type="matrix" values="0 0 0 0 0 0 0 0 0 0 0 0 0 0 0 0 0 0 0.25 0"/>
<feBlend mode="normal" in2="BackgroundImageFix" result="effect1_dropShadow"/>
<feBlend mode="normal" in="SourceGraphic" in2="effect1_dropShadow" result="shape"/>
</filter>
</defs>
</svg>
