<svg width="50" height="51" viewBox="0 0 50 51" fill="none" xmlns="http://www.w3.org/2000/svg">
<circle cx="25" cy="25.8361" r="25" fill="#EEC7C7"/>
<g clip-path="url(#clip0)">
<path d="M25.5 24.0613C23.9602 24.0613 22.7075 25.3971 22.7075 27.039C22.7075 28.6809 23.9602 30.0166 25.5 30.0166C27.0398 30.0166 28.2925 28.6809 28.2925 27.039C28.2925 25.3971 27.0398 24.0613 25.5 24.0613ZM25.5 28.8295C24.5741 28.8295 23.8208 28.0263 23.8208 27.039C23.8208 26.0516 24.5741 25.2484 25.5 25.2484C26.4259 25.2484 27.1792 26.0516 27.1792 27.039C27.1792 28.0263 26.4259 28.8295 25.5 28.8295Z" fill="#E83423"/>
<path d="M34.8581 26.643C34.8154 26.5921 33.794 25.3845 32.1403 24.1664C29.9293 22.5379 27.6331 21.6771 25.5 21.6771C23.3669 21.6771 21.0707 22.5379 18.8597 24.1664C17.206 25.3845 16.1846 26.5921 16.1419 26.643C15.9527 26.8683 15.9527 27.2094 16.1419 27.4349C16.1846 27.4857 17.206 28.6934 18.8597 29.9114C21.0707 31.5399 23.3669 32.4007 25.5 32.4007C27.6331 32.4007 29.9293 31.5399 32.1403 29.9114C33.794 28.6933 34.8154 27.4857 34.8581 27.4349C35.0473 27.2095 35.0473 26.8684 34.8581 26.643V26.643ZM25.5 31.2136C23.1013 31.2136 20.9213 29.9833 19.515 28.9512C18.5161 28.2182 17.7532 27.4772 17.3339 27.0392C18.3992 25.9283 21.6844 22.8642 25.5 22.8642C27.8987 22.8642 30.0787 24.0945 31.485 25.1266C32.4839 25.8597 33.2467 26.6006 33.6661 27.0387C32.6008 28.1496 29.3156 31.2136 25.5 31.2136V31.2136Z" fill="#E83423"/>
<path d="M25.5 26.4453C25.2088 26.4453 24.9299 26.7183 24.9433 27.0389C24.9568 27.3605 25.1879 27.6324 25.5 27.6324C25.7911 27.6324 26.0701 27.3594 26.0566 27.0389C26.0431 26.7173 25.812 26.4453 25.5 26.4453Z" fill="#E83423"/>
<path d="M25.5 20.7966C25.8074 20.7966 26.0566 20.5309 26.0566 20.2031V18.2147C26.0566 17.8868 25.8074 17.6211 25.5 17.6211C25.1926 17.6211 24.9434 17.8868 24.9434 18.2147V20.2031C24.9434 20.5309 25.1926 20.7966 25.5 20.7966Z" fill="#E83423"/>
<path d="M21.6337 21.0485C21.7411 21.2194 21.9172 21.3117 22.0966 21.3117C22.2031 21.3117 22.3108 21.2792 22.406 21.2112C22.6614 21.0287 22.7296 20.66 22.5585 20.3877L21.4907 18.6887C21.3196 18.4164 20.9738 18.3436 20.7184 18.5261C20.463 18.7086 20.3948 19.0773 20.5659 19.3496L21.6337 21.0485Z" fill="#E83423"/>
<path d="M28.594 21.2111C28.6892 21.2791 28.7969 21.3116 28.9034 21.3116C29.0828 21.3116 29.259 21.2193 29.3664 21.0484L30.4341 19.3495C30.6052 19.0772 30.5369 18.7085 30.2816 18.526C30.0262 18.3434 29.6805 18.4163 29.5093 18.6886L28.4415 20.3876C28.2704 20.6599 28.3387 21.0286 28.594 21.2111Z" fill="#E83423"/>
<path d="M25.5 33.1251C25.1926 33.1251 24.9434 33.3909 24.9434 33.7187V35.7071C24.9434 36.0349 25.1926 36.3007 25.5 36.3007C25.8074 36.3007 26.0566 36.0349 26.0566 35.7071V33.7187C26.0566 33.3909 25.8074 33.1251 25.5 33.1251Z" fill="#E83423"/>
<path d="M29.3663 32.8734C29.1952 32.6011 28.8493 32.5283 28.594 32.7108C28.3386 32.8933 28.2703 33.262 28.4415 33.5343L29.5092 35.2332C29.6166 35.4041 29.7927 35.4964 29.9721 35.4964C30.0787 35.4964 30.1864 35.4639 30.2815 35.3959C30.5369 35.2134 30.6052 34.8447 30.434 34.5724L29.3663 32.8734Z" fill="#E83423"/>
<path d="M22.406 32.7108C22.1506 32.5283 21.8049 32.6011 21.6337 32.8734L20.5659 34.5724C20.3948 34.8447 20.463 35.2134 20.7184 35.3959C20.8136 35.4639 20.9213 35.4964 21.0278 35.4964C21.2072 35.4964 21.3834 35.4041 21.4907 35.2332L22.5585 33.5343C22.7297 33.262 22.6614 32.8933 22.406 32.7108V32.7108Z" fill="#E83423"/>
</g>
<defs>
<clipPath id="clip0">
<rect width="19" height="20.2601" fill="white" transform="translate(16 16.8308)"/>
</clipPath>
</defs>
</svg>
