<svg width="25" height="25" viewBox="0 0 25 25" fill="none" xmlns="http://www.w3.org/2000/svg">
<path d="M20.46 16.6845H17.9547V17.5214H20.46V16.6845Z" fill="black"/>
<path d="M17.1196 16.6845H14.6143V17.5214H17.1196V16.6845Z" fill="black"/>
<path d="M13.7792 16.6845H11.2739V17.5214H13.7792V16.6845Z" fill="black"/>
<path d="M24.63 8.6515L16.368 0.370331C16.1334 0.132964 15.8137 -0.00041747 15.4803 9.81628e-07H15.4765C15.1453 0.000157901 14.828 0.133592 14.5959 0.370331L5.83151 9.15238H1.25265C0.560822 9.15238 0 9.71442 0 10.4077V22.1244C0 22.8177 0.560822 23.3798 1.25265 23.3798H7.43908L8.68505 24.6297C8.91966 24.867 9.23935 25.0004 9.57276 25H9.5761C9.90743 24.9999 10.2249 24.8665 10.4571 24.6297L11.7056 23.3798H21.2951C21.9869 23.3798 22.5477 22.8177 22.5477 22.1244V12.5142L24.628 10.4295C24.8654 10.1966 24.9994 9.87782 25 9.54489C25.0012 9.2094 24.8679 8.8875 24.63 8.6515ZM19.3184 4.51175L14.6878 9.15238H11.1419L17.5455 2.735L19.3184 4.51175ZM15.1871 0.960348C15.346 0.797309 15.6066 0.794171 15.7694 0.953392C15.7717 0.955693 15.7741 0.957995 15.7763 0.960348L16.955 2.14331L9.96066 9.15238H7.01234L15.1871 0.960348ZM9.86588 24.0396C9.78952 24.1196 9.68398 24.1649 9.57359 24.1652C9.46169 24.1649 9.35459 24.1197 9.2763 24.0396L8.62033 23.3798H10.5248L9.86588 24.0396ZM21.7126 22.1244C21.7126 22.3555 21.5257 22.5428 21.2951 22.5428H1.25265C1.02206 22.5428 0.835101 22.3555 0.835101 22.1244V16.2661H21.7126V22.1244ZM21.7126 15.4292H0.835101V12.9185H21.7126V15.4292ZM21.7126 12.0815H0.835101V10.4077C0.835101 10.1767 1.02206 9.98929 1.25265 9.98929H21.2951C21.5257 9.98929 21.7126 10.1767 21.7126 10.4077V12.0815ZM24.0396 9.83572L22.5477 11.3308V10.4077C22.5477 9.71442 21.9869 9.15238 21.2951 9.15238H15.8669L19.9071 5.10344L24.038 9.24319C24.1182 9.32196 24.1633 9.42982 24.1632 9.54238C24.1631 9.65285 24.1185 9.75862 24.0396 9.83572Z" fill="black"/>
<path d="M21.7126 12.0815H0.835101V10.4077C0.835101 10.1767 1.02206 9.98929 1.25265 9.98929H21.2951C21.5257 9.98929 21.7126 10.1767 21.7126 10.4077V12.0815Z" fill="black"/>
<path d="M15.1871 0.960348C15.346 0.797309 15.6066 0.794171 15.7694 0.953392L15.7763 0.960348L16.955 2.14331L9.96066 9.15238H7.01234L15.1871 0.960348Z" fill="black"/>
<ellipse cx="3" cy="20.5" rx="1" ry="1.5" fill="#FF0909"/>
<circle cx="5.5" cy="20.5" r="1.5" fill="#F2BE48"/>
<path d="M4.0047 21.7173C4.06566 21.6644 4.12276 21.6072 4.17548 21.5461C4.72763 22.1906 5.67636 22.3131 6.37346 21.8298C6.82337 21.5146 7.09342 21.0008 7.09833 20.4506C7.09833 19.5262 6.35055 18.7768 5.42813 18.7768C5.34524 18.7756 5.26246 18.7827 5.18094 18.7977L5.17008 18.8006C5.16591 18.8006 5.16173 18.8006 5.15797 18.8006C4.77544 18.8644 4.42757 19.0611 4.17548 19.3563C3.57212 18.6571 2.51733 18.5805 1.81966 19.1852C1.12193 19.7899 1.04547 20.8469 1.64888 21.5461C2.25224 22.2453 3.30697 22.322 4.0047 21.7173ZM5.32249 19.6225C5.3573 19.6158 5.39269 19.6129 5.42813 19.6137C5.88936 19.6137 6.26323 19.9884 6.26323 20.4506C6.26281 20.6277 6.20524 20.7999 6.09913 20.9414C6.0841 20.962 6.07241 20.9833 6.05529 21.0046C6.05237 21.008 6.04819 21.0101 6.04485 21.0134C5.88712 21.188 5.6631 21.2876 5.42813 21.2875C4.967 21.2796 4.5995 20.8986 4.60738 20.4365C4.61437 20.0261 4.9172 19.6814 5.32249 19.6225ZM2.92283 19.6137C3.38406 19.6137 3.75793 19.9884 3.75793 20.4506C3.75793 20.9128 3.38406 21.2875 2.92283 21.2875C2.46159 21.2875 2.08773 20.9128 2.08773 20.4506C2.08773 19.9884 2.46159 19.6137 2.92283 19.6137Z" fill="black"/>
</svg>
