<svg width="25" height="25" viewBox="0 0 25 25" fill="none" xmlns="http://www.w3.org/2000/svg">
<path d="M17 0.5H11L10.5 1L11 2L11.5 4L11 5.5L9.5 7L7 10L6 12.5L5.5 15.5L10 17.5L15 18L16 20.5L20 19L22 17V13L21 10.5L20 9L18.5 7.5L17 6L16.5 5.5V3.5L17 0.5Z" fill="#12A874"/>
<path d="M24.7212 17.8939C24.2402 17.2085 23.4243 17.0412 22.5379 17.4456L22.0681 17.6462C22.8089 16.1154 22.9008 14.409 22.532 12.7971C22.1085 10.9459 21.0856 9.15255 19.4918 7.46684C19.3509 7.31777 19.112 7.30771 18.9582 7.44438C18.8044 7.581 18.794 7.8126 18.935 7.96172C20.4381 9.55138 21.4002 11.2316 21.7947 12.9557C22.2101 14.7718 21.9684 16.6446 20.9082 18.1413L16.2074 20.1481L16.2112 19.6333C16.2113 19.6203 16.2107 19.6073 16.2094 19.5944C16.1008 18.5364 15.2667 17.6935 14.181 17.5446C14.1778 17.5441 14.1745 17.5437 14.1713 17.5434L9.99319 17.077C8.38659 16.8552 7.97281 15.9218 5.79697 15.3895C5.64664 14.1527 5.84703 12.8358 6.39628 11.5156C7.22348 9.52745 8.84176 7.5958 11.0852 5.91449C11.9213 6.4893 15.6518 6.56083 16.4866 5.81932C16.9143 6.13422 17.3225 6.45873 17.7027 6.7872C17.7747 6.84941 17.8644 6.87997 17.9538 6.87997C18.0578 6.87997 18.1613 6.83862 18.2359 6.75741C18.3746 6.60644 18.3608 6.37499 18.2051 6.24047C17.7883 5.88046 17.34 5.52523 16.8698 5.18192C16.98 4.72889 16.8258 4.19866 16.4188 3.88303C17.6013 2.14416 17.9452 1.00602 17.4701 0.409723C17.1438 0.000101149 16.7379 0.192339 16.5646 0.274468C16.2708 0.413531 16.1106 0.420856 15.8402 0.24937C15.3245 -0.077829 14.7824 -0.0883759 14.25 0.24937C13.9762 0.423053 13.7606 0.423053 13.4869 0.24937C12.9711 -0.077829 12.4292 -0.0883759 11.8968 0.24937C11.6233 0.422906 11.4625 0.412164 11.1733 0.272808C11.0002 0.18936 10.5947 -0.00605127 10.2663 0.403619C9.80196 0.983115 10.1126 2.08537 11.2153 3.76511C11.1478 3.80051 11.0834 3.84207 11.0233 3.88953C10.5848 3.4405 9.86627 2.97219 8.8272 3.08469C7.96536 3.1782 7.32984 2.90207 6.9484 2.65402C6.77515 2.54152 6.54057 2.58635 6.42443 2.75422C6.3083 2.92219 6.35458 3.14963 6.52777 3.26223C7.01402 3.5783 7.82213 3.93015 8.91101 3.81243C9.71378 3.72512 10.2585 4.12288 10.5976 4.52767C10.5929 4.54329 10.5887 4.55901 10.5847 4.57474C10.2955 4.57913 9.8632 4.6053 9.38718 4.7013C8.24235 4.93221 7.39254 5.4597 6.92956 6.22689C6.82426 6.40141 6.88479 6.62572 7.06478 6.72787C7.24483 6.82997 7.47614 6.77123 7.58145 6.59672C8.2701 5.45565 9.95103 5.3161 10.6187 5.30736C10.6216 5.31541 10.6249 5.32337 10.6279 5.33138C8.24542 7.11328 6.5867 9.10045 5.69589 11.2416C5.13285 12.5949 4.90793 13.9508 5.0221 15.2393C4.65995 15.1874 4.29361 15.1595 3.92552 15.1571V14.9356C3.92552 14.3497 3.43388 13.8731 2.82959 13.8731H1.09593C0.491634 13.8731 0 14.3498 0 14.9356V23.4632C0 24.0492 0.491634 24.5258 1.09593 24.5258H2.82954C3.43383 24.5258 3.92547 24.0491 3.92547 23.4632V23.3589L7.7072 24.7236C8.21541 24.907 8.74803 25 9.29028 25H14.9251C15.7866 25 16.6266 24.7637 17.3542 24.3166C24.8712 19.6965 24.4147 19.984 24.4581 19.9467C25.0636 19.4256 25.1767 18.543 24.7212 17.8939ZM15.7779 5.38543C14.3969 5.72352 13.0541 5.72352 11.6728 5.38543C11.0801 5.24017 11.2518 4.21526 11.8888 4.37015C13.1246 4.67093 14.326 4.67093 15.5619 4.37015C16.1878 4.2178 16.3801 5.23788 15.7779 5.38543ZM10.8284 0.924423C10.8314 0.925839 10.8343 0.927304 10.8372 0.928671C11.3483 1.17496 11.7961 1.18834 12.3103 0.862215C12.9537 0.453864 13.0236 1.1086 13.8684 1.1086C14.2751 1.1086 14.4996 0.96622 14.6635 0.862215C14.9373 0.688484 15.1529 0.688582 15.4267 0.862215C15.9431 1.18985 16.3801 1.17369 16.9061 0.927743C16.9838 1.19933 16.808 2.00895 15.6881 3.62546C15.132 3.61628 14.325 4.14583 12.0405 3.6529C10.9231 2.01549 10.7503 1.19801 10.8284 0.924423ZM23.9772 19.3811L16.9499 23.6983C16.3434 24.0709 15.6433 24.268 14.9251 24.268H9.29033C8.83833 24.268 8.39434 24.1904 7.9707 24.0375L3.92547 22.5777V18.6346C3.92547 18.4323 3.7564 18.2684 3.54785 18.2684C3.3393 18.2684 3.17024 18.4323 3.17024 18.6346V23.4634C3.17024 23.6455 3.01739 23.7937 2.82959 23.7937H1.09593C0.908078 23.7937 0.755279 23.6455 0.755279 23.4634V14.9358C0.755279 14.7537 0.908078 14.6056 1.09593 14.6056H2.82954C3.01739 14.6056 3.17019 14.7537 3.17019 14.9358V16.9229C3.17019 17.1251 3.33925 17.289 3.5478 17.289C3.75635 17.289 3.92542 17.1251 3.92542 16.9229V15.8895C7.04942 15.9127 7.75182 17.5092 9.89211 17.8027C9.89533 17.8032 9.89856 17.8036 9.90178 17.8039L14.0797 18.2703C14.8112 18.3727 15.3742 18.9375 15.4557 19.6486L15.4505 20.345H11.5542C11.3457 20.345 11.1765 20.509 11.1765 20.7112C11.1765 20.9135 11.3456 21.0774 11.5542 21.0774H15.8254C15.8731 21.0774 15.9281 21.0671 15.9761 21.0469C15.9838 21.0435 22.8386 18.1174 22.8466 18.114C23.3407 17.9011 23.7912 17.8707 24.0967 18.3059C24.3342 18.6442 24.2816 19.1014 23.9772 19.3811Z" fill="black"/>
<path d="M13.8249 16.6124C14.0334 16.6124 14.2025 16.4485 14.2025 16.2463V15.6393C15.2627 15.4725 15.8813 14.6406 16.0159 13.8644C16.184 12.8948 15.6602 12.0516 14.6814 11.7162C14.5085 11.6569 14.3493 11.6002 14.2025 11.5455V9.21089C14.6492 9.28271 14.9175 9.50688 14.937 9.52363C15.0904 9.65889 15.3278 9.64888 15.4686 9.50093C15.61 9.35229 15.6003 9.12065 15.447 8.98354C15.4204 8.95971 14.9579 8.55595 14.2025 8.47153V7.95082C14.2025 7.74857 14.0334 7.58466 13.8248 7.58466C13.6163 7.58466 13.4472 7.74857 13.4472 7.95082V8.50112C13.3561 8.51801 13.2629 8.5395 13.167 8.56747C12.5264 8.75454 12.0476 9.28711 11.9173 9.95728C11.7991 10.5654 11.998 11.1503 12.4363 11.4836C12.6879 11.675 13.0047 11.8502 13.4472 12.0375V14.933C13.0105 14.9151 12.7416 14.8356 12.2727 14.5382C12.0981 14.4275 11.8641 14.4748 11.7499 14.6441C11.6357 14.8133 11.6846 15.0403 11.8592 15.151C12.4757 15.542 12.8878 15.644 13.4472 15.6651V16.2463C13.4472 16.4485 13.6163 16.6124 13.8249 16.6124V16.6124ZM12.9024 10.9074C12.6868 10.7435 12.5937 10.4314 12.6595 10.0929C12.7206 9.77905 12.9431 9.3977 13.3849 9.2687C13.4059 9.26255 13.4265 9.25727 13.4472 9.2519V11.2297C13.2211 11.1202 13.0437 11.0149 12.9024 10.9074V10.9074ZM14.4297 12.4066C15.3695 12.7286 15.3112 13.511 15.271 13.743C15.1877 14.2236 14.8239 14.7366 14.2025 14.8909V12.3273C14.276 12.3533 14.3511 12.3797 14.4297 12.4066V12.4066Z" fill="black"/>
</svg>
