<svg width="16" height="16" viewBox="0 0 16 16" fill="none" xmlns="http://www.w3.org/2000/svg">
<path d="M15.2625 15.375H14.5771V5.423C14.5771 4.95978 14.2002 4.58294 13.737 4.58294H12.205C11.7418 4.58294 11.365 4.95981 11.365 5.423V15.375H9.62458V9.93204C9.62458 9.46882 9.24774 9.09198 8.78452 9.09198H7.25252C6.7893 9.09198 6.41246 9.46885 6.41246 9.93204V15.375H4.67208V12.5561C4.67208 12.0929 4.29521 11.7161 3.83202 11.7161H2.29999C1.83677 11.7161 1.45992 12.0929 1.45992 12.5561V15.375H0.737549C0.564955 15.375 0.425049 15.5149 0.425049 15.6875C0.425049 15.8601 0.564955 16 0.737549 16H15.2625C15.4351 16 15.575 15.8601 15.575 15.6875C15.575 15.5149 15.4351 15.375 15.2625 15.375ZM4.04702 15.375H2.08489V12.5561C2.08489 12.4375 2.18136 12.3411 2.29996 12.3411H3.83196C3.95055 12.3411 4.04702 12.4375 4.04702 12.5561V15.375ZM8.99955 15.375H7.03742V9.93204C7.03742 9.81345 7.13389 9.71698 7.25249 9.71698H8.78449C8.90305 9.71698 8.99955 9.81345 8.99955 9.93204V15.375ZM13.9521 15.375H11.99V5.423C11.99 5.30441 12.0864 5.20794 12.205 5.20794H13.737C13.8556 5.20794 13.9521 5.30441 13.9521 5.423V15.375Z" fill="black"/>
<path d="M14.5764 0.328625C14.5807 0.243344 14.5507 0.156625 14.4856 0.0915C14.4205 0.026375 14.3338 -0.00365625 14.2485 0.00075C14.2435 0.00053125 14.2385 0 14.2334 0H12.3427C12.1701 0 12.0302 0.139906 12.0302 0.3125C12.0302 0.485094 12.1701 0.625 12.3427 0.625H13.5101L10.4209 3.71431L9.25586 2.54931C9.19726 2.49072 9.11776 2.45778 9.03489 2.45778C8.95201 2.45778 8.87251 2.49072 8.81392 2.54931L3.19614 8.16712C3.07411 8.28916 3.07411 8.48703 3.19614 8.60909C3.25717 8.67006 3.33714 8.70056 3.41711 8.70056C3.49708 8.70056 3.57708 8.67006 3.63808 8.60903L9.03489 3.21219L10.1999 4.37719C10.3219 4.49922 10.5198 4.49922 10.6419 4.37719L13.9521 1.06697V2.12353C13.9521 2.29613 14.092 2.43603 14.2646 2.43603C14.4372 2.43603 14.5771 2.29613 14.5771 2.12353V0.34375C14.5771 0.338656 14.5766 0.333687 14.5764 0.328625Z" fill="black"/>
<path d="M2.36377 9.79094C2.53636 9.79094 2.67627 9.65103 2.67627 9.47844C2.67627 9.30585 2.53636 9.16594 2.36377 9.16594C2.19118 9.16594 2.05127 9.30585 2.05127 9.47844C2.05127 9.65103 2.19118 9.79094 2.36377 9.79094Z" fill="black"/>
</svg>
