<svg width="18" height="21" viewBox="0 0 18 21" fill="none" xmlns="http://www.w3.org/2000/svg">
<path d="M16.3597 16.3365C16.2977 16.2989 15.8307 15.9937 15.363 15.0704C14.5042 13.3747 14.3239 10.9861 14.3239 9.2809C14.3239 9.27348 14.3237 9.26613 14.3234 9.25874C14.3141 7.0051 12.8675 5.06236 10.7975 4.1907V2.85761C10.7975 1.64787 9.74422 0.663696 8.44959 0.663696H8.25502C6.96039 0.663696 5.90715 1.64787 5.90715 2.85761V4.19062C3.83018 5.0651 2.38073 7.01775 2.38073 9.2809C2.38073 10.9861 2.20046 13.3747 1.34162 15.0704C0.874002 15.9937 0.40696 16.2989 0.344864 16.3365C0.0833664 16.4494 -0.0455682 16.7102 0.0145903 16.9745C0.0753259 17.2414 0.342761 17.4254 0.634812 17.4254H5.16822C5.19353 19.0464 6.61169 20.358 8.35233 20.358C10.093 20.358 11.5111 19.0464 11.5364 17.4254H16.0698C16.3619 17.4254 16.6293 17.2414 16.6901 16.9745C16.7501 16.7102 16.6212 16.4494 16.3597 16.3365ZM7.14417 2.85761C7.14417 2.2852 7.64251 1.81954 8.25506 1.81954H8.44963C9.06219 1.81954 9.56052 2.2852 9.56052 2.85761V3.81605C9.17013 3.74077 8.76601 3.70115 8.35216 3.70115C7.93843 3.70115 7.53444 3.74073 7.14421 3.81593L7.14417 2.85761ZM8.35233 19.2021C7.29376 19.2021 6.43031 18.4091 6.4052 17.4255H10.2994C10.2743 18.409 9.41089 19.2021 8.35233 19.2021ZM10.8428 16.2696H2.04435C2.15135 16.114 2.26024 15.9379 2.36848 15.7388C3.19742 14.2139 3.61775 12.0412 3.61775 9.2809C3.61775 6.84154 5.7416 4.857 8.35212 4.857C10.9626 4.857 13.0865 6.84154 13.0865 9.28282C13.0865 9.28994 13.0866 9.29702 13.0869 9.30409C13.0893 12.0533 13.5095 14.2182 14.3362 15.7388C14.4444 15.9379 14.5533 16.114 14.6603 16.2696H10.8428Z" fill="black"/>
<path d="M10.8428 16.2696H2.04435C2.15135 16.114 2.26024 15.9379 2.36848 15.7388C3.19742 14.2139 3.61775 12.0412 3.61775 9.2809C3.61775 6.84154 5.7416 4.857 8.35212 4.857C10.9626 4.857 13.0865 6.84154 13.0865 9.28282C13.0865 9.28994 13.0866 9.29702 13.0869 9.30409C13.0893 12.0533 13.5095 14.2182 14.3362 15.7388C14.4444 15.9379 14.5533 16.114 14.6603 16.2696H10.8428Z" fill="black"/>
<circle cx="14.5" cy="4.5" r="3.5" fill="#FF6562"/>
</svg>
