<svg width="25" height="25" viewBox="0 0 25 25" fill="none" xmlns="http://www.w3.org/2000/svg">
<g clip-path="url(#clip0)">
<path d="M13.0667 9.93748V11.1944C13.0667 11.5936 13.1464 11.9286 13.3037 12.1895C13.5208 12.5496 13.8771 12.756 14.2816 12.756C14.678 12.756 15.0719 12.5629 15.4522 12.1826L19.6037 8.03108C20.5152 7.11956 20.5152 5.63641 19.6037 4.72488L15.4522 0.573349C15.0719 0.192833 14.678 0 14.2816 0C13.6768 0 13.0667 0.482941 13.0667 1.56155V2.70309C7.17257 3.05119 2.29319 7.57446 1.56802 13.4966C1.52739 13.8273 1.71546 14.1439 2.0254 14.2666C2.11314 14.3013 2.2045 14.3181 2.29472 14.3181C2.52322 14.3181 2.74485 14.2111 2.886 14.0182C4.83111 11.3605 7.95421 9.77383 11.2402 9.77383C11.849 9.77383 12.4613 9.82876 13.0667 9.93748V9.93748Z" fill="black"/>
<path d="M22.9616 10.7334C22.6517 10.6106 22.2981 10.7128 22.101 10.9819C20.1561 13.6394 17.033 15.2262 13.747 15.2262C13.1382 15.2262 12.5259 15.1712 11.9206 15.0625V13.8056C11.9206 12.727 11.3102 12.244 10.7056 12.244C10.3092 12.244 9.91536 12.4371 9.53484 12.8176L5.3833 16.9689C4.47197 17.8804 4.47197 19.3636 5.38349 20.2753L9.53484 24.4266C9.91536 24.8072 10.3092 25 10.7056 25C11.3102 25 11.9206 24.5171 11.9206 23.4385V22.2969C17.8148 21.9488 22.694 17.4255 23.4192 11.5036C23.4598 11.1727 23.2718 10.8561 22.9616 10.7334V10.7334Z" fill="black"/>
</g>
<defs>
<clipPath id="clip0">
<rect width="25" height="25" fill="white"/>
</clipPath>
</defs>
</svg>
