<svg width="21" height="16" viewBox="0 0 21 16" fill="none" xmlns="http://www.w3.org/2000/svg">
<path fill-rule="evenodd" clip-rule="evenodd" d="M20.102 0.075148C20.0558 0.026333 19.9929 -0.000757881 19.9275 1.6142e-05H1.21787C1.15252 -0.000757881 1.08962 0.026333 1.04342 0.075148C0.997213 0.123963 0.971573 0.190426 0.972305 0.259469V7.12774L1.04342 15.1066H19.9275C20.0615 15.1077 20.1711 14.9943 20.1731 14.8528V0.259469C20.1739 0.190426 20.1482 0.123963 20.102 0.075148ZM7.41529 8.65298V8.65535C7.58349 8.46479 7.57357 8.16622 7.39316 7.9885C7.2128 7.81084 6.93021 7.82126 6.76201 8.01188L2.18777 13.1874C2.01962 13.3779 2.02948 13.6765 2.20989 13.8542C2.39026 14.0319 2.67284 14.0214 2.84104 13.8308L7.41529 8.65298ZM9.67962 7.97225C9.93735 8.17587 10.2509 8.28516 10.5727 8.28361C10.8946 8.28516 11.2081 8.17587 11.4658 7.97225L18.9291 1.99282C19.1256 1.83528 19.1642 1.53924 19.0151 1.33159C18.866 1.12395 18.5858 1.08329 18.3892 1.24078L10.9269 7.22021C10.7157 7.38229 10.4298 7.38229 10.2187 7.22021L2.75846 1.24078C2.56188 1.08262 2.2812 1.12276 2.13151 1.33041C1.98181 1.5381 2.01981 1.83466 2.21634 1.99282L9.67962 7.97225ZM18.6437 13.9807C18.7621 13.985 18.8773 13.9395 18.9639 13.854C19.1441 13.6762 19.1539 13.3778 18.9858 13.1874L14.4129 8.01188C14.2429 7.83375 13.9703 7.8289 13.7947 8.00094C13.6192 8.17293 13.6033 8.46061 13.7587 8.65303L18.3325 13.8309C18.4133 13.9225 18.5253 13.9763 18.6437 13.9807Z" fill="black"/>
</svg>
