<svg width="17" height="17" viewBox="0 0 17 17" fill="none" xmlns="http://www.w3.org/2000/svg">
<g clip-path="url(#clip0)">
<path d="M16.387 3.11123H6.07934C5.74124 3.11123 5.4663 3.38621 5.4663 3.72431V6.41112H0.613081C0.274976 6.41112 0 6.6861 0 7.0241V13.2756C0 13.6138 0.274976 13.8888 0.613081 13.8888H10.9206C11.2589 13.8888 11.5336 13.6138 11.5336 13.2756V10.5888H16.387C16.725 10.5888 17 10.3139 17 9.97577V3.72431C16.9997 3.38621 16.7248 3.11123 16.387 3.11123ZM10.9324 13.2756C10.9324 13.282 10.9272 13.2875 10.9205 13.2875L0.601457 13.2756L0.613296 7.01233L10.9324 7.0241V13.2756ZM16.3985 9.97577C16.3985 9.98224 16.3932 9.98753 16.3866 9.98753L11.5336 9.98206V7.0241C11.5336 6.6861 11.2584 6.41112 10.9203 6.41112H6.07416L6.0792 3.71247L16.3983 3.72431V9.97577H16.3985Z" fill="#12A874"/>
</g>
<defs>
<clipPath id="clip0">
<rect width="17" height="17" fill="white"/>
</clipPath>
</defs>
</svg>
