<svg width="16" height="17" viewBox="0 0 16 17" fill="none" xmlns="http://www.w3.org/2000/svg">
<path d="M15.5467 8.43144C15.2964 8.43144 15.0934 8.61579 15.0934 8.84309V16.1768H10.2289V11.5731C10.2289 11.3459 10.0259 11.1615 9.77556 11.1615H6.22452C5.97421 11.1615 5.77119 11.3459 5.77119 11.5731V15.2235C5.77119 15.4508 5.97421 15.6351 6.22452 15.6351C6.47483 15.6351 6.67784 15.4508 6.67784 15.2235V11.9848H9.32223V16.1768H0.906648V6.10115L7.99996 0.939259L15.2631 6.22471C15.4585 6.36693 15.7438 6.33826 15.9003 6.16091C16.0569 5.98349 16.0255 5.7245 15.8301 5.58228L8.28344 0.0904578C8.11783 -0.0301526 7.8821 -0.0301526 7.71648 0.0904578L0.169845 5.58228C0.0624831 5.66042 0 5.7785 0 5.9035V16.5884C0 16.8157 0.202938 17 0.453324 17H15.5467C15.7971 17 16 16.8157 16 16.5884V8.84309C16 8.61572 15.7971 8.43144 15.5467 8.43144Z" fill="#12A874"/>
</svg>
