<svg width="26" height="25" viewBox="0 0 26 25" fill="none" xmlns="http://www.w3.org/2000/svg">
<path d="M13 0C5.83151 0 0 5.60722 0 12.5C0 19.3928 5.83151 25 13 25C20.1685 25 26 19.3928 26 12.5C26 5.60722 20.1685 0 13 0ZM13 19.7916C12.4019 19.7916 11.9167 19.3251 11.9167 18.75C11.9167 18.1749 12.4019 17.7084 13 17.7084C13.5981 17.7084 14.0833 18.1749 14.0833 18.75C14.0833 19.3251 13.5981 19.7916 13 19.7916V19.7916ZM14.7149 13.1687C14.3314 13.3385 14.0833 13.7104 14.0833 14.1157V14.5834C14.0833 15.1583 13.5991 15.625 13 15.625C12.4009 15.625 11.9167 15.1583 11.9167 14.5834V14.1157C11.9167 12.9 12.6598 11.7855 13.8071 11.2761C14.911 10.7876 15.7083 9.49059 15.7083 8.8541C15.7083 7.41882 14.4939 6.25 13 6.25C11.5061 6.25 10.2917 7.41882 10.2917 8.8541C10.2917 9.42917 9.80733 9.8959 9.20827 9.8959C8.60921 9.8959 8.125 9.42917 8.125 8.8541C8.125 6.26984 10.3122 4.1666 13 4.1666C15.6878 4.1666 17.875 6.26984 17.875 8.8541C17.875 10.2615 16.6053 12.3302 14.7149 13.1687Z" fill="black"/>
</svg>
