<svg width="13" height="21" viewBox="0 0 13 21" fill="none" xmlns="http://www.w3.org/2000/svg">
<path d="M0.342113 9.27722L9.88636 0.321507C10.1071 0.114204 10.4018 0 10.716 0C11.0302 0 11.3249 0.114204 11.5456 0.321507L12.2485 0.980881C12.7058 1.41054 12.7058 2.10885 12.2485 2.53786L4.23395 10.0583L12.2574 17.5871C12.4781 17.7944 12.6 18.0708 12.6 18.3655C12.6 18.6605 12.4781 18.9368 12.2574 19.1443L11.5545 19.8035C11.3336 20.0108 11.0391 20.125 10.7249 20.125C10.4107 20.125 10.116 20.0108 9.89525 19.8035L0.342113 10.8396C0.120843 10.6316 -0.000688408 10.354 9.05435e-06 10.0588C-0.000688408 9.76251 0.120843 9.48502 0.342113 9.27722Z" fill="black"/>
</svg>
