<?xml version="1.0" encoding="iso-8859-1"?>
<!-- Generator: Adobe Illustrator 19.0.0, SVG Export Plug-In . SVG Version: 6.00 Build 0)  -->
<svg version="1.1" id="Capa_1" xmlns="http://www.w3.org/2000/svg" xmlns:xlink="http://www.w3.org/1999/xlink" x="0px" y="0px"
	 viewBox="0 0 464 464" style="enable-background:new 0 0 464 464;" xml:space="preserve">
<circle style="fill:#00F2A9;" cx="152" cy="136" r="80"/>
<g>
	<path style="fill:#322153;" d="M344,208c-13.6,0-24,10.4-24,24s10.4,24,24,24s24-10.4,24-24S357.6,208,344,208z M344,240
		c-4.8,0-8-3.2-8-8s3.2-8,8-8s8,3.2,8,8S348.8,240,344,240z"/>
	<path style="fill:#322153;" d="M232,400c-82.4,0-152-55.2-152-120c0-4.8-3.2-8-8-8s-8,3.2-8,8c0,73.6,76.8,136,168,136
		c4.8,0,8-3.2,8-8S236.8,400,232,400z"/>
	<path style="fill:#322153;" d="M152,192c48.8,0,88-39.2,88-88s-39.2-88-88-88s-88,39.2-88,88S103.2,192,152,192z M152,32
		c40,0,72,32,72,72s-32,72-72,72s-72-32-72-72S112,32,152,32z"/>
	<path style="fill:#322153;" d="M440,240h-8c-3.2,0-6.4-2.4-7.2-5.6c-13.6-40.8-45.6-76-88.8-98.4V88c0-3.2-1.6-6.4-4.8-7.2
		c-3.2-1.6-6.4-0.8-8.8,1.6l-36,36c-7.2-1.6-15.2-3.2-22.4-4c-4-0.8-8,2.4-8.8,6.4c-8.8,50.4-52,87.2-103.2,87.2
		c-26.4,0-51.2-9.6-70.4-27.2c-1.6-1.6-4-2.4-5.6-2.4c-2.4,0-4,0.8-5.6,2.4C47.2,208,34.4,239.2,32,272c-3.2-0.8-7.2-2.4-9.6-5.6
		c-4-4-6.4-10.4-6.4-18.4v-32c0,0,0,0,0-0.8c0-0.8,0-10.4,5.6-17.6c4-3.2,10.4-5.6,18.4-5.6c4.8,0,8-3.2,8-8c0-4.8-3.2-8-8-8
		c-12.8,0-22.4,4-29.6,11.2C0,198.4,0,213.6,0,216v32c0,12.8,4,22.4,11.2,29.6c6.4,6.4,15.2,8.8,20.8,9.6
		c1.6,33.6,15.2,66.4,39.2,93.6L64,405.6c-0.8,3.2,0,5.6,2.4,8l32,32c3.2,3.2,8,3.2,11.2,0l20.8-20.8C161.6,440,196,448,232,448
		s70.4-8,101.6-23.2l20.8,20.8c1.6,1.6,4,2.4,5.6,2.4s4-0.8,5.6-2.4l32-32c2.4-2.4,3.2-4.8,2.4-8l-8-24.8
		c15.2-16.8,25.6-35.2,32.8-55.2c0.8-3.2,4-5.6,7.2-5.6h8c13.6,0,24-10.4,24-24v-32C464,250.4,453.6,240,440,240z M448,296
		c0,4.8-3.2,8-8,8h-8c-10.4,0-19.2,6.4-22.4,16c-6.4,19.2-17.6,36.8-32,52.8c-1.6,2.4-2.4,4.8-1.6,8l7.2,24.8L360,428.8l-19.2-19.2
		c-2.4-2.4-6.4-3.2-9.6-1.6c-29.6,16-64,24-99.2,24s-69.6-8-99.2-24c-0.8-0.8-2.4-0.8-4-0.8c-2.4,0-4,0.8-5.6,2.4L104,428.8
		l-23.2-23.2l7.2-24.8c0.8-2.4,0-5.6-1.6-8C61.6,346.4,48,314.4,48,280c0-29.6,10.4-57.6,29.6-82.4C99.2,214.4,124.8,224,152,224
		c56,0,104-38.4,116.8-92.8c6.4,0.8,12,2.4,17.6,4c2.4,0.8,5.6,0,8-2.4l25.6-25.6v34.4c0,3.2,1.6,5.6,4.8,7.2
		c41.6,20,72,52.8,84.8,91.2c3.2,9.6,12,16,22.4,16h8c4.8,0,8,3.2,8,8L448,296L448,296z"/>
	<path style="fill:#322153;" d="M258.4,274.4l-32,32c-3.2,3.2-3.2,8,0,11.2c1.6,1.6,4,2.4,5.6,2.4s4-0.8,5.6-2.4l32-32
		c3.2-3.2,3.2-8,0-11.2S261.6,271.2,258.4,274.4z"/>
	<path style="fill:#322153;" d="M258.4,242.4l-64,64c-3.2,3.2-3.2,8,0,11.2c1.6,1.6,4,2.4,5.6,2.4s4-0.8,5.6-2.4l64-64
		c3.2-3.2,3.2-8,0-11.2S261.6,239.2,258.4,242.4z"/>
	<path style="fill:#322153;" d="M200,288c2.4,0,4-0.8,5.6-2.4l32-32c3.2-3.2,3.2-8,0-11.2s-8-3.2-11.2,0l-32,32
		c-3.2,3.2-3.2,8,0,11.2C196,287.2,197.6,288,200,288z"/>
	<path style="fill:#322153;" d="M152,160c31.2,0,56-24.8,56-56c0-4.8-3.2-8-8-8s-8,3.2-8,8c0,22.4-17.6,40-40,40c-4.8,0-8,3.2-8,8
		C144,156.8,147.2,160,152,160z"/>
</g>
<g>
</g>
<g>
</g>
<g>
</g>
<g>
</g>
<g>
</g>
<g>
</g>
<g>
</g>
<g>
</g>
<g>
</g>
<g>
</g>
<g>
</g>
<g>
</g>
<g>
</g>
<g>
</g>
<g>
</g>
</svg>
