<svg width="27" height="25" viewBox="0 0 27 25" fill="none" xmlns="http://www.w3.org/2000/svg">
<g clip-path="url(#clip0)">
<path d="M16.8748 13.5428C16.2527 13.5428 15.7499 14.0095 15.7499 14.5844V18.7512C15.7499 19.3251 15.2458 19.7927 14.6248 19.7927H11.2498V4.1679C11.2498 3.27833 10.6378 2.48354 9.71765 2.18771L9.38456 2.08453H14.6248C15.2458 2.08453 15.7499 2.55221 15.7499 3.12631V6.25128C15.7499 6.82615 16.2527 7.29287 16.8748 7.29287C17.4969 7.29287 17.9997 6.82615 17.9997 6.25128V3.12631C17.9997 1.40342 16.4855 0.00134277 14.6248 0.00134277H2.53122C2.48838 0.00134277 2.45254 0.019081 2.41093 0.0242307C2.35675 0.0200346 2.30505 0.00134277 2.25005 0.00134277C1.00915 0.00134277 0 0.935553 0 2.08453V20.8343C0 21.7239 0.612001 22.5187 1.53217 22.8145L8.30249 24.9042C8.53196 24.9698 8.7602 25.0011 8.99998 25.0011C10.2409 25.0011 11.2498 24.0667 11.2498 22.9177V21.8761H14.6248C16.4855 21.8761 17.9997 20.474 17.9997 18.7512V14.5844C17.9997 14.0095 17.4969 13.5428 16.8748 13.5428V13.5428Z" fill="black"/>
<path d="M26.6701 9.68039L22.17 5.51383C21.8485 5.21591 21.3646 5.12626 20.944 5.28762C20.5244 5.44917 20.2498 5.8293 20.2498 6.25025V9.37522H15.7499C15.1288 9.37522 14.6248 9.84175 14.6248 10.4168C14.6248 10.9919 15.1288 11.4584 15.7499 11.4584H20.2498V14.5834C20.2498 15.0043 20.5244 15.3845 20.944 15.546C21.3646 15.7074 21.8485 15.6177 22.17 15.32L26.6701 11.1532C27.1099 10.746 27.1099 10.0876 26.6701 9.68039V9.68039Z" fill="black"/>
</g>
<defs>
<clipPath id="clip0">
<rect width="27" height="25" fill="white"/>
</clipPath>
</defs>
</svg>
