<svg width="20" height="19" viewBox="0 0 20 19" fill="none" xmlns="http://www.w3.org/2000/svg">
<path d="M17.0711 12.0662C15.9819 11.0497 14.6855 10.2972 13.2711 9.84173C14.786 8.86795 15.7812 7.23826 15.7812 5.39548C15.7812 2.42042 13.1878 0 10 0C6.81223 0 4.21875 2.42042 4.21875 5.39548C4.21875 7.23826 5.21402 8.86795 6.72898 9.84173C5.31453 10.2972 4.01813 11.0497 2.92895 12.0662C1.0402 13.829 0 16.1726 0 18.6655H1.5625C1.5625 14.3234 5.34754 10.791 10 10.791C14.6525 10.791 18.4375 14.3234 18.4375 18.6655H20C20 16.1726 18.9598 13.829 17.0711 12.0662ZM10 9.33273C7.67379 9.33273 5.78125 7.56651 5.78125 5.39548C5.78125 3.22446 7.67379 1.45824 10 1.45824C12.3262 1.45824 14.2188 3.22446 14.2188 5.39548C14.2188 7.56651 12.3262 9.33273 10 9.33273Z" fill="black"/>
</svg>
