<svg width="21" height="21" viewBox="0 0 21 21" fill="none" xmlns="http://www.w3.org/2000/svg">
<path d="M16.4579 10.1522L6.91366 1.19651C6.69292 0.989204 6.39824 0.875 6.08403 0.875C5.76982 0.875 5.47515 0.989204 5.2544 1.19651L4.55153 1.85588C4.09417 2.28554 4.09417 2.98385 4.55153 3.41286L12.5661 10.9333L4.54264 18.4621C4.32189 18.6694 4.20001 18.9458 4.20001 19.2405C4.20001 19.5355 4.32189 19.8118 4.54264 20.0193L5.24551 20.6785C5.46643 20.8858 5.76093 21 6.07514 21C6.38935 21 6.68402 20.8858 6.90477 20.6785L16.4579 11.7146C16.6792 11.5066 16.8007 11.229 16.8 10.9338C16.8007 10.6375 16.6792 10.36 16.4579 10.1522Z" fill="black"/>
</svg>
