<svg width="12" height="16" viewBox="0 0 12 16" fill="none" xmlns="http://www.w3.org/2000/svg">
<path d="M11.743 2.52409C11.8849 2.52409 11.9999 2.41893 11.9999 2.28924V0.234805C12.007 0.0382422 11.728 -0.0761641 11.5722 0.0593672L10.5891 0.859056L9.60594 0.0593672C9.50862 -0.0197891 9.36177 -0.0197891 9.26445 0.0593672L8.28132 0.859056L7.29815 0.0593672C7.20083 -0.0197891 7.05398 -0.0197891 6.95666 0.0593672L5.97353 0.859024L4.99049 0.0593672C4.83455 -0.0761954 4.55576 0.0383047 4.56287 0.234805V4.07525H1.3977C0.627082 4.07525 9.92124e-05 4.6484 9.92124e-05 5.3529V12.4704C9.92124e-05 12.6001 0.11509 12.7052 0.256984 12.7052C0.398877 12.7052 0.513868 12.6001 0.513868 12.4704V5.35294C0.513868 4.9074 0.910356 4.54493 1.3977 4.54493H7.23908C7.04184 4.76525 6.92337 5.04668 6.92337 5.35294V15.2419L6.19718 14.6512C6.09987 14.572 5.95302 14.572 5.8557 14.6512L4.87256 15.4509L3.88943 14.6512C3.79211 14.572 3.64526 14.572 3.54794 14.6512L2.56481 15.4509L1.58167 14.6512C1.48435 14.572 1.3375 14.572 1.24019 14.6512L0.513902 15.2419V13.4098C0.513902 13.2801 0.398911 13.1749 0.257018 13.1749C0.115125 13.1749 0.000133377 13.2801 0.000133377 13.4098V15.7652C-0.00697666 15.9618 0.271887 16.0761 0.427761 15.9406L1.4109 15.141L2.39403 15.9406C2.49135 16.0198 2.6382 16.0198 2.73552 15.9406L3.71865 15.141L4.70179 15.9406C4.7991 16.0198 4.94595 16.0198 5.04327 15.9406L6.02641 15.141L7.00944 15.9406C7.16593 16.0763 7.444 15.9616 7.43707 15.7652V11.0271H10.6022C11.3728 11.0271 11.9998 10.4539 11.9998 9.74941V3.22859C11.9998 3.0989 11.8848 2.99375 11.7429 2.99375C11.6011 2.99375 11.4861 3.0989 11.4861 3.22859V9.74941C11.4861 10.1949 11.0896 10.5574 10.6022 10.5574C10.1149 10.5574 9.71843 10.1949 9.71843 9.74941V7.63162C9.71843 7.50194 9.60344 7.39678 9.46155 7.39678C9.31965 7.39678 9.20466 7.50191 9.20466 7.63162V9.74941C9.20466 10.0557 9.32324 10.3371 9.52055 10.5574H7.43707V5.35294C7.43707 4.9074 7.83355 4.54493 8.32086 4.54493C8.80818 4.54493 9.20466 4.9074 9.20466 5.35294V6.69231C9.20466 6.822 9.31965 6.92716 9.46155 6.92716C9.60344 6.92716 9.71843 6.82203 9.71843 6.69231V5.35294C9.71843 4.64843 9.09152 4.07528 8.32086 4.07528H5.07657V0.758118L5.80275 1.34881C5.90007 1.42799 6.04692 1.42799 6.14424 1.34881L7.12737 0.549149L8.1105 1.34881C8.20782 1.42796 8.35467 1.42796 8.45199 1.34881L9.43512 0.549149L10.4183 1.34881C10.5156 1.42796 10.6624 1.42796 10.7597 1.34881L11.486 0.758055V2.28924C11.4861 2.41896 11.6011 2.52409 11.743 2.52409Z" fill="black"/>
<path d="M1.73552 6.63163H5.69811C5.84 6.63163 5.95499 6.52648 5.95499 6.39679C5.95499 6.2671 5.84 6.16195 5.69811 6.16195H1.73552C1.59363 6.16195 1.47864 6.2671 1.47864 6.39679C1.47867 6.52651 1.59366 6.63163 1.73552 6.63163Z" fill="black"/>
<path d="M1.73552 8.21053H5.69811C5.84 8.21053 5.95499 8.10538 5.95499 7.97569C5.95499 7.846 5.84 7.74084 5.69811 7.74084H1.73552C1.59363 7.74084 1.47864 7.846 1.47864 7.97569C1.47864 8.10538 1.59366 8.21053 1.73552 8.21053Z" fill="black"/>
<path d="M1.73552 9.78937H5.69811C5.84 9.78937 5.95499 9.68421 5.95499 9.55452C5.95499 9.42484 5.84 9.31968 5.69811 9.31968H1.73552C1.59363 9.31968 1.47864 9.4248 1.47864 9.55452C1.47867 9.68424 1.59366 9.78937 1.73552 9.78937Z" fill="black"/>
<path d="M1.73552 11.3683H5.69811C5.84 11.3683 5.95499 11.2631 5.95499 11.1334C5.95499 11.0037 5.84 10.8986 5.69811 10.8986H1.73552C1.59363 10.8986 1.47864 11.0037 1.47864 11.1334C1.47864 11.2631 1.59366 11.3683 1.73552 11.3683Z" fill="black"/>
<path d="M5.69803 12.4775H3.56536C3.42346 12.4775 3.30847 12.5826 3.30847 12.7123C3.30847 12.842 3.42346 12.9472 3.56536 12.9472H5.69803C5.83992 12.9472 5.95491 12.842 5.95491 12.7123C5.95491 12.5826 5.83992 12.4775 5.69803 12.4775Z" fill="black"/>
</svg>
