<svg width="1420" height="942" viewBox="0 0 1420 942" fill="none" xmlns="http://www.w3.org/2000/svg">
<g clip-path="url(#clip0)">
<g filter="url(#filter0_d)">
<path d="M1420 892V376.5C1420 376.5 1164.41 10.5847 694 252C223.595 493.415 0 224.5 0 224.5V741.072C0 741.072 182.155 989.956 655 741.072C1127.85 492.188 1420 892 1420 892Z" fill="#12A874"/>
</g>
<path d="M39.5 745.5C495 1048 820.5 299.5 1371 802.5" stroke="white" stroke-width="2"/>
<path d="M50 301.754C374.973 504.37 589.69 310.451 832.5 231.162M1380.5 363C1251.11 253.317 1139.03 209.195 1036.5 201.957" stroke="white" stroke-width="2"/>
<g filter="url(#filter1_d)">
<rect x="161" y="407" width="1097" height="256" rx="10" fill="#F28482"/>
</g>
</g>
<defs>
<filter id="filter0_d" x="-5" y="157.602" width="1460" height="762.398" filterUnits="userSpaceOnUse" color-interpolation-filters="sRGB">
<feFlood flood-opacity="0" result="BackgroundImageFix"/>
<feColorMatrix in="SourceAlpha" type="matrix" values="0 0 0 0 0 0 0 0 0 0 0 0 0 0 0 0 0 0 127 0"/>
<feOffset dx="15" dy="8"/>
<feGaussianBlur stdDeviation="10"/>
<feColorMatrix type="matrix" values="0 0 0 0 0 0 0 0 0 0 0 0 0 0 0 0 0 0 0.25 0"/>
<feBlend mode="normal" in2="BackgroundImageFix" result="effect1_dropShadow"/>
<feBlend mode="normal" in="SourceGraphic" in2="effect1_dropShadow" result="shape"/>
</filter>
<filter id="filter1_d" x="141" y="393" width="1137" height="296" filterUnits="userSpaceOnUse" color-interpolation-filters="sRGB">
<feFlood flood-opacity="0" result="BackgroundImageFix"/>
<feColorMatrix in="SourceAlpha" type="matrix" values="0 0 0 0 0 0 0 0 0 0 0 0 0 0 0 0 0 0 127 0"/>
<feOffset dy="6"/>
<feGaussianBlur stdDeviation="10"/>
<feColorMatrix type="matrix" values="0 0 0 0 0 0 0 0 0 0 0 0 0 0 0 0 0 0 0.25 0"/>
<feBlend mode="normal" in2="BackgroundImageFix" result="effect1_dropShadow"/>
<feBlend mode="normal" in="SourceGraphic" in2="effect1_dropShadow" result="shape"/>
</filter>
<clipPath id="clip0">
<rect width="1420" height="942" fill="white"/>
</clipPath>
</defs>
</svg>
