<svg width="21" height="18" viewBox="0 0 21 18" fill="none" xmlns="http://www.w3.org/2000/svg">
<path d="M20.9857 0.735473C21.0881 0.265514 20.6209 -0.13075 20.1652 0.0407476L0.395798 7.48308C0.157869 7.57267 0.000493341 7.79756 1.15777e-06 8.04869C-0.000491025 8.29987 0.155982 8.52537 0.393584 8.61585L5.94717 10.731V17.3933C5.94717 17.6743 6.14286 17.9185 6.42012 17.9835C6.69554 18.0481 6.98273 17.9189 7.11184 17.6663L9.40874 13.1714L15.014 17.2737C15.355 17.5233 15.8451 17.3646 15.9692 16.9636C21.2027 0.0420834 20.9764 0.777983 20.9857 0.735473ZM16.1057 2.86778L6.4752 9.63136L2.33151 8.05318L16.1057 2.86778ZM7.17763 10.6277L15.5721 4.73221C8.34878 12.2469 8.72604 11.8514 8.69454 11.8932C8.64774 11.9553 8.77595 11.7133 7.17763 14.8411V10.6277ZM15.0467 15.7866L10.1128 12.1756L19.034 2.89448L15.0467 15.7866Z" fill="white"/>
</svg>
